# Alias OBJ Model File
# Exported from SketchUp, (c) 2000-2012 Trimble Navigation Limited
# File units = meters

mtllib Banner_01.mtl

g Mesh1 Banner Model

usemtl Red_Roof
v 0 -0.3 -3.46517e-014
vt -3.21411e-027 -0.136364
vn -2.0406e-013 -3.28421e-014 -1
v 0 2.2 -0
vt 0 1
v 0 2.4 2.31012e-014
vt 2.14274e-027 1.09091
v 1 2.4 2.31012e-014
vt -0.454545 1.09091
v 1 2.2 -0
vt -0.454545 1
v 1 -0.3 -6.46833e-013
vt -0.454545 -0.136364
v 0.5 -0.0175551 1.16661e-012
vt -0.227273 -0.00797958
f 1/1/1 2/2/1 3/3/1 4/4/1 5/5/1 6/6/1 7/7/1 

vn -1 -1.16205e-026 2.88765e-013
vt -1.57508e-014 -0.136364
v 2.88765e-014 -0.3 0.1
vt 0.0454545 -0.136364
v 2.88765e-014 2.2 0.1
vt 0.0454545 1
f 2/2/2 1/8/2 8/9/2 9/10/2 

v 0.5 -0.0175551 0.1
vt -0.0454545 0.193958
vn 0.491841 -0.870685 -5.55768e-014
vt -0.0454545 -0.0670692
vt 1.57508e-014 -0.0670692
vt -5.55958e-013 0.193958
f 10/11/3 8/12/3 1/13/3 7/14/3 

v 0.174699 -0.000669044 0.1
vt 0.0794086 -0.000304111
vn 3.32107e-013 -1.58445e-013 1
vt -1.97013e-015 -0.136364
vt 0.227273 -0.00797958
f 11/15/4 8/16/4 10/17/4

vt -1.97013e-015 1
f 8/16/4 11/15/4 9/18/4

v 0.174699 2.0253 0.1
vt 0.0794086 0.920591
f 9/18/4 11/15/4 12/19/4

usemtl Red_Cotton
v 0.5 0.18309 0.1
vt 0.227273 0.0832228
vn 2.04167e-013 -1.69122e-013 1
v 0.825301 -0.000669044 0.1
vt 0.375137 -0.000304111
v 0.825301 2.0253 0.1
vt 0.375137 0.920591
f 13/20/5 14/21/5 15/22/5 12/19/5 11/15/5 

usemtl Red_Roof
f 13/20/4 11/15/4 14/21/4

f 11/15/4 10/17/4 14/21/4

v 1 -0.3 0.1
vt 0.454545 -0.136364
f 16/23/4 14/21/4 10/17/4

v 1 2.2 0.1
vt 0.454545 1
f 14/21/4 16/23/4 17/24/4

vt 1.62758e-013 -0.136364
vn 1 7.48148e-026 -2.88765e-013
vt -1.31257e-013 1
vt -0.0454545 1
vt -0.0454545 -0.136364
f 6/25/6 5/26/6 17/27/6 16/28/6 

usemtl Wood
vn 1 4.01764e-026 -2.88765e-013
vt -1.41757e-013 1.09091
v 1 2.4 0.2
vt -0.0909091 1.09091
v 1 2.2 0.2
vt -0.0909091 1
f 17/27/7 5/26/7 4/29/7 18/30/7 19/31/7 

vt 0.454545 1.4128e-013
vn 0 1 1.39132e-013
vt 0 1.4128e-013
v 2.88765e-014 2.4 0.2
vt 1.31257e-014 -0.0909091
vt 0.454545 -0.0909091
f 4/32/8 3/33/8 20/34/8 18/35/8 

vn -1 -4.01764e-026 2.88765e-013
v 2.88765e-014 2.2 0.2
vt 0.0909091 1
vt 0.0909091 1.09091
vt 1.05005e-014 1.09091
f 2/2/9 9/10/9 21/36/9 20/37/9 3/38/9 

vt -1.31257e-014 -0.0454545
vn 0 -1 -1.39132e-013
vt -0.454545 -0.0454545
vt -0.454545 -0.0909091
vt -1.31257e-014 -0.0909091
f 9/39/10 17/40/10 19/41/10 21/42/10 

usemtl Red_Roof
f 9/18/4 12/19/4 17/24/4

f 15/22/4 17/24/4 12/19/4

f 14/21/4 17/24/4 15/22/4

usemtl Wood
vt 1.31257e-014 1
vn 0 -1.39132e-013 1
vt 0.454545 1.09091
vt 1.31257e-014 1.09091
f 21/43/11 19/24/11 18/44/11 20/45/11 

usemtl Red_Roof
vt 0.0454545 -0.462835
vn -0.491841 -0.870685 2.5679e-013
vt 0.0454545 -0.201808
vt 6.48936e-013 -0.201808
vt -5.66969e-014 -0.462835
f 16/46/12 10/47/12 7/48/12 6/49/12 

