# Alias OBJ Model File
# Exported from SketchUp, (c) 2000-2012 Trimble Navigation Limited
# File units = meters

mtllib Grey_Pole_01.mtl

g Mesh1 Grey_Pole Model

usemtl Light_Stone
v 0.5 2.2 -0
vt 0.227273 0
vn 0 1 -0
v 0.5 2.2 -0.5
vt 0.227273 0.227273
v 0 2.2 -0.5
vt 0 0.227273
v 0 2.2 -0
vt 0 0
f 1/1/1 2/2/1 3/3/1 4/4/1 

v 0.5 0 -0
vn 1 0 -0
v 0.5 0 -0.5
vt 0.227273 1
vt 0 1
f 5/4/2 6/1/2 2/5/2 1/6/2 

v 0 0 -0
vn 0 -1 -0
v 0 0 -0.5
vt -0.227273 0.227273
vt -0.227273 0
f 7/4/3 8/3/3 6/7/3 5/8/3 

vn -1 0 -0
vt -0.227273 1
f 4/6/4 3/9/4 8/8/4 7/4/4 

vn 0 0 -1
f 8/4/5 3/6/5 2/9/5 6/8/5 

vn 0 0 1
f 7/4/6 5/1/6 1/5/6 4/6/6 

