# Alias OBJ Model File
# Exported from SketchUp, (c) 2000-2012 Trimble Navigation Limited
# File units = meters

mtllib Grey_Window_Square_Sill_01.mtl

g Mesh1 Grey_Window_Square_Sill Model

usemtl Light_Stone
v 0.5 2.2 -0
vt 0.227273 0
vn 0 1 -0
v 0.5 2.2 -0.5
vt 0.227273 0.227273
v 0.4 2.2 -0.5
vt 0.181818 0.227273
v 0.1 2.2 -0.5
vt 0.0454545 0.227273
v 0 2.2 -0.5
vt 0 0.227273
v 0 2.2 -0
vt 0 0
f 1/1/1 2/2/1 3/3/1 4/4/1 5/5/1 6/6/1 

v 0.5 0 -0
vn 1 0 -0
v 0.5 0 -0.5
vt 0.227273 1
vt 0 1
f 7/6/2 8/1/2 2/7/2 1/8/2 

v 0 0 -0.5
vn 0 -1 -0
v 0.1 0 -0.5
vt -0.0454545 0.227273
v 0.4 0 -0.5
vt -0.181818 0.227273
vt -0.227273 0.227273
vt -0.227273 0
v 0 0 -0
f 9/5/3 10/9/3 11/10/3 8/11/3 7/12/3 12/6/3 

vn 0 0 -1
vt -0.0454545 1
vt -0.0454545 0
f 9/6/4 5/8/4 4/13/4 10/14/4 

vn -1 0 -0
vt -0.227273 1
f 6/8/5 5/15/5 9/12/5 12/6/5 

vn 0 0 1
f 12/6/6 7/1/6 1/7/6 6/8/6 

usemtl Dark_Stone
v 0.1 1.70468 -1.24766
vt -0.567119 0.774853
f 4/15/5 13/16/5 10/12/5

v 0.1 2.2 -2.5
vt -1.13636 1
f 13/16/5 4/15/5 14/17/5

v 0.4 2.2 -2.5
vt 0.181818 1.13636
vt 0.0454545 1.13636
f 15/18/1 14/19/1 4/4/1 3/3/1 

usemtl Light_Stone
v 0 2.2 -3
vt 0 1.36364
v 0 2.2 -2.5
vt 0 1.13636
v 0.5 2.2 -2.5
vt 0.227273 1.13636
v 0.5 2.2 -3
vt 0.227273 1.36364
f 16/20/1 17/21/1 14/19/1 15/18/1 18/22/1 19/23/1 

v 0 0 -3
vt -1.36364 0
v 0 0 -2.5
vt -1.13636 0
vt -1.36364 1
f 20/24/5 21/25/5 17/17/5 16/26/5 

v 0.5 0 -2.5
vt -0.227273 1.13636
v 0.4 0 -2.5
vt -0.181818 1.13636
v 0.1 0 -2.5
vt -0.0454545 1.13636
v 0.5 0 -3
vt -0.227273 1.36364
f 22/27/3 23/28/3 24/29/3 21/21/3 20/20/3 25/30/3 

vt 0.181818 1
vt 0.181818 0
f 22/1/6 18/7/6 15/31/6 23/32/6 

vt 1.36364 1
vt 1.13636 1
vt 1.13636 0
vt 1.36364 0
f 19/33/2 18/34/2 22/35/2 25/36/2 

f 25/12/4 20/6/4 16/8/4 19/15/4 

usemtl Dark_Stone
v 0.4 1.70468 -1.75234
vt 0.796517 0.774853
f 15/34/2 26/37/2 23/35/2

v 0.4 1.70468 -1.24766
vt 0.567119 0.774853
f 15/34/2 27/38/2 26/37/2

f 3/7/2 27/38/2 15/34/2

v 0.4 0.557662 -1.24766
vt 0.567119 0.253483
f 27/38/2 3/7/2 28/39/2

f 11/1/2 28/39/2 3/7/2

f 28/39/2 11/1/2 23/35/2

f 10/9/3 24/29/3 23/28/3 11/10/3 

v 0.1 0.557662 -1.24766
vt -0.567119 0.253483
f 10/12/5 29/40/5 24/25/5

f 29/40/5 10/12/5 13/16/5

v 0.1 0.657662 -1.24766
vt -0.567119 0.298937
f 29/40/5 13/16/5 30/41/5

vt -0.0454545 0.774853
vt -0.181818 0.774853
v 0.4 0.657662 -1.24766
vt -0.181818 0.298937
vt -0.0454545 0.298937
f 13/42/4 27/43/4 31/44/4 30/45/4 

vt -0.0454545 0.567119
v 0.1 1.70468 -1.75234
vt -0.0454545 0.796517
vt -0.181818 0.796517
vt -0.181818 0.567119
f 13/46/3 32/47/3 26/48/3 27/49/3 

vt -0.796517 0.774853
f 13/16/5 14/17/5 32/50/5

v 0.1 0.657662 -1.75234
vt -0.796517 0.298937
f 32/50/5 14/17/5 33/51/5

v 0.1 0.557662 -1.75234
vt -0.796517 0.253483
f 33/51/5 14/17/5 34/52/5

f 24/25/5 34/52/5 14/17/5

f 24/25/5 29/40/5 34/52/5

vt 0.181818 0.567119
v 0.4 0.557662 -1.75234
vt 0.181818 0.796517
vt 0.0454545 0.796517
vt 0.0454545 0.567119
f 28/53/1 35/54/1 34/55/1 29/56/1 

vt 0.796517 0.253483
f 28/39/2 23/35/2 35/57/2

v 0.4 0.657662 -1.75234
vt 0.796517 0.298937
f 35/57/2 23/35/2 36/58/2

f 36/58/2 23/35/2 26/37/2

vt 0.181818 0.298937
vt 0.181818 0.774853
vt 0.0454545 0.774853
vt 0.0454545 0.298937
f 36/59/6 26/60/6 32/61/6 33/62/6 

usemtl Light_Stone
v 0.5 0.657662 -1.24766
vt 0.227273 0.567119
v 0.5 0.657662 -1.75234
vt 0.227273 0.796517
f 30/56/1 31/53/1 37/63/1 38/64/1 36/54/1 33/55/1 

usemtl Dark_Stone
vt -0.181818 0.253483
vt -0.0454545 0.253483
f 28/65/4 29/66/4 30/45/4 31/44/4 

usemtl Light_Stone
f 34/52/5 29/40/5 30/41/5 33/51/5 

usemtl Dark_Stone
vt 0.0454545 0.253483
vt 0.181818 0.253483
f 34/67/6 35/68/6 36/59/6 33/62/6 

usemtl Light_Stone
vt -0.227273 0.298937
v 0.5 0.557662 -1.75234
vt -0.227273 0.253483
f 35/65/4 36/44/4 38/69/4 39/70/4 

v 0.5 0.557662 -1.24766
vt 0.567119 0.298937
f 40/39/2 39/57/2 38/58/2 37/71/2 

vt -0.227273 0.796517
vt -0.227273 0.567119
f 28/49/3 35/48/3 39/72/3 40/73/3 

vt 0.227273 0.253483
vt 0.227273 0.298937
f 31/59/6 28/68/6 40/74/6 37/75/6 

usemtl Dark_Stone
f 27/38/2 28/39/2 31/71/2

usemtl Light_Stone
vt 0.0454545 0
vt 0.0454545 1
f 17/8/6 21/6/6 24/76/6 14/77/6 

vt -0.181818 0
vt -0.181818 1
f 2/15/4 8/12/4 11/78/4 3/79/4 

