# Alias OBJ Model File
# Exported from SketchUp, (c) 2000-2012 Trimble Navigation Limited
# File units = meters

mtllib Grey_Slanted_Wall_01.mtl

g Mesh1 Grey_Slanted_Wall Model

usemtl Light_Stone
v 0.5 0 -3
vt -0.227273 0
vn 0 0 -1
v 0 0 -3
vt 0 0
v 0 2.2 -3
vt 0 1
v 0.5 2.2 -3
vt -0.227273 1
f 1/1/1 2/2/1 3/3/1 4/4/1 

v 0.5 0 -2.5
vt -0.227273 1.13636
vn 0 -1 -0
v 0.4 0 -2.5
vt -0.181818 1.13636
v 0.1 0 -2.5
vt -0.0454545 1.13636
v 0 0 -2.5
vt 0 1.13636
vt 0 1.36364
vt -0.227273 1.36364
f 5/5/2 6/6/2 7/7/2 8/8/2 2/9/2 1/10/2 

vt 0.227273 0
vn 0 0 1
v 0.5 2.2 -2.5
vt 0.227273 1
v 0.4 2.2 -2.5
vt 0.181818 1
vt 0.181818 0
f 5/11/3 9/12/3 10/13/3 6/14/3 

vt 1.36364 1
vn 1 0 -0
vt 1.13636 1
vt 1.13636 0
vt 1.36364 0
f 4/15/4 9/16/4 5/17/4 1/18/4 

vn 0 1 -0
v 0 2.2 -2.5
v 0.1 2.2 -2.5
vt 0.0454545 1.13636
vt 0.181818 1.13636
vt 0.227273 1.13636
vt 0.227273 1.36364
f 3/9/5 11/8/5 12/19/5 10/20/5 9/21/5 4/22/5 

vt -1.36364 0
vn -1 0 -0
vt -1.13636 0
vt -1.13636 1
vt -1.36364 1
f 2/23/6 8/24/6 11/25/6 3/26/6 

vt 0.0454545 0
vt 0.0454545 1
f 11/3/3 8/2/3 7/27/3 12/28/3 

usemtl Dark_Stone
v 0.1 0 -0.5
v 0.1 1.1 -0.5
vt -0.227273 0.5
f 7/24/6 13/1/6 14/29/6 12/25/6 

vt -0.0454545 0.227273
v 0.4 0 -0.5
vt -0.181818 0.227273
f 13/30/2 7/7/2 6/6/2 15/31/2 

v 0.4 1.1 -0.5
vt 0.227273 0.5
f 6/17/4 10/16/4 16/32/4 15/11/4 

vt 0.181818 0.440099
vn 0 0.876216 0.481919
vt 0.181818 1.47762
vt 0.0454545 1.47762
vt 0.0454545 0.440099
f 16/33/7 10/34/7 12/35/7 14/36/7 

usemtl Light_Stone
v 0.5 1.1 -0
v 0.5 1.1 -0.5
vt 0.227273 0.227273
vt 0.181818 0.227273
vt 0.0454545 0.227273
v 0 1.1 -0.5
vt 0 0.227273
v 0 1.1 -0
f 17/11/5 18/37/5 16/38/5 14/39/5 19/40/5 20/2/5 

v 0.5 0 -0
v 0.5 0 -0.5
vt 0 0.5
f 21/2/4 22/11/4 18/32/4 17/41/4 

v 0 0 -0.5
vt -0.227273 0.227273
v 0 0 -0
f 23/40/2 13/30/2 15/31/2 22/42/2 21/1/2 24/2/2 

vt -0.0454545 0.5
vt -0.0454545 0
f 23/2/1 19/41/1 14/43/1 13/44/1 

f 24/2/6 20/41/6 19/29/6 23/1/6 

f 24/2/3 21/11/3 17/32/3 20/41/3 

vt -0.181818 0
vt -0.181818 0.5
f 18/29/1 22/1/1 15/45/1 16/46/1 

