# Alias OBJ Model File
# Exported from SketchUp, (c) 2000-2012 Trimble Navigation Limited
# File units = meters

mtllib Shield_Green_01.mtl

g Mesh1 Shield_Green Model

usemtl Dark_Stone
v 0 0.7625 -0
vt 0 0.346591
vn 0 0 1
v 0 0.252338 -0
vt 0 0.114699
v 0.2 0.252338 -0
vt 0.0909091 0.114699
v 0.2 0.38125 -0
vt 0.0909091 0.173295
v 0.2 0.7625 -0
vt 0.0909091 0.346591
f 1/1/1 2/2/1 3/3/1 4/4/1 5/5/1 

vn -1 0 -0
v 0 0.7625 -0.504676
vt -0.229398 0.346591
v 0 0.252338 -0.504676
vt -0.229398 0.114699
v 0 0.0739081 -0.430768
vt -0.195804 0.0335946
v 0 0 -0.252338
vt -0.114699 0
v 0 0.0739081 -0.0739081
vt -0.0335946 0.0335946
f 2/2/2 1/1/2 6/6/2 7/7/2 8/8/2 9/9/2 10/10/2 

vt 0 0.229398
vn 0 1 -1.78806e-016
vt 0 -6.19723e-017
vt 0.0909091 -6.19723e-017
v 0.2 0.7625 -0.252338
v 0.2 0.7625 -0.504676
vt 0.0909091 0.229398
f 6/11/3 1/12/3 5/13/3 11/3/3 12/14/3 

usemtl Green_Roof
vn 1 0 -0
vt 0 0.173295
v 0.2 0.38125 -0.252338
vt 0.114699 0.173295
vt 0.114699 0.346591
f 5/1/4 4/15/4 13/16/4 11/17/4 

usemtl White
v 0.2 0 -0.252338
vt 0.114699 0
v 0.2 0.0739081 -0.0739081
vt 0.0335946 0.0335946
f 14/18/4 13/16/4 4/15/4 3/2/4 15/19/4 

usemtl Green_Roof
v 0.2 0.252338 -0.504676
vt 0.229398 0.114699
v 0.2 0.38125 -0.504676
vt 0.229398 0.173295
v 0.2 0.0739081 -0.430768
vt 0.195804 0.0335946
f 16/20/4 17/21/4 13/16/4 14/18/4 18/22/4 

usemtl Dark_Stone
vn 0 0 -1
vt -0.0909091 0.346591
vt -0.0909091 0.173295
vt -0.0909091 0.114699
f 7/2/5 6/1/5 12/23/5 17/24/5 16/25/5 

usemtl White
vt 0.229398 0.346591
f 11/17/4 13/16/4 17/21/4 12/26/4 

usemtl Dark_Stone
vt 0 0.105968
vn 0 -0.382683 -0.92388
vt 0 0.193755
vt -0.0909091 0.193755
vt -0.0909091 0.105968
f 8/27/6 7/28/6 16/29/6 18/30/6 

vn 0 -0.92388 -0.382683
f 9/27/7 8/28/7 18/29/7 14/30/7 

vt 0 -0.0181813
vn 0 -0.92388 0.382683
vt 0 -0.105968
vt 0.0909091 -0.105968
vt 0.0909091 -0.0181813
f 10/31/8 9/32/8 14/33/8 15/34/8 

vn 0 -0.382683 0.92388
vt 0 0.0181813
vt 0.0909091 0.0181813
vt 0.0909091 0.105968
f 2/27/9 10/35/9 15/36/9 3/37/9 

