# Alias OBJ Model File
# Exported from SketchUp, (c) 2000-2012 Trimble Navigation Limited
# File units = meters

mtllib Stairs_Wood_01.mtl

g Mesh1 Stairs_Wood Model

usemtl Wood
v 2.25 0 -0
vt -1.02273 0
vn 0 -1 -0
v 2.25 0 -1.5
vt -1.02273 0.681818
v 3 0 -1.5
vt -1.36364 0.681818
v 3 0 -0
vt -1.36364 0
f 1/1/1 2/2/1 3/3/1 4/4/1 

vt 0 -0.824732
vn -0.591364 -0.806405 -0
v 0 1.65 -0
vt 0 0.443523
v 0 1.65 -1.5
vt -0.681818 0.443523
vt -0.681818 -0.824732
f 1/5/2 5/6/2 6/7/2 2/8/2 

v 0 2.2 -0
vt 0 1
vn -4.44911e-015 -6.76701e-015 1
vt 0 0.75
vt 1.02273 -3.07914e-029
vt 1.36364 -4.10553e-029
v 3 0.275 -0
vt 1.36364 0.125
v 2.625 0.275 -0
vt 1.19318 0.125
v 2.625 0.55 -0
vt 1.19318 0.25
v 2.25 0.55 -0
vt 1.02273 0.25
v 2.25 0.825 -0
vt 1.02273 0.375
v 1.875 0.825 2.31012e-014
vt 0.852273 0.375
v 1.875 1.1 2.31012e-014
vt 0.852273 0.5
v 1.5 1.1 -0
vt 0.681818 0.5
v 1.5 1.375 -0
vt 0.681818 0.625
v 1.125 1.375 2.31012e-014
vt 0.511364 0.625
v 1.125 1.65 2.31012e-014
vt 0.511364 0.75
v 0.75 1.65 -0
vt 0.340909 0.75
v 0.75 1.925 -0
vt 0.340909 0.875
v 0.375 1.925 -0
vt 0.170455 0.875
v 0.375 2.2 -0
vt 0.170455 1
f 7/9/3 5/10/3 1/11/3 4/12/3 8/13/3 9/14/3 10/15/3 11/16/3 12/17/3 13/18/3 14/19/3 15/20/3 16/21/3 17/22/3 18/23/3 19/24/3 20/25/3 21/26/3 22/27/3 

v 0 2.2 -1.5
vt -0.681818 1
vn -1 0 -0
vt -0.681818 0.75
f 23/28/4 6/29/4 5/10/4 7/9/4 

vt -1.36364 -4.25228e-015
vn 4.0602e-015 6.23668e-015 -1
vt -1.02273 -4.25228e-015
vt 2.76832e-015 0.75
vt 2.76832e-015 1
v 0.375 2.2 -1.5
vt -0.170455 1
v 0.375 1.925 -1.5
vt -0.170455 0.875
v 0.75 1.925 -1.5
vt -0.340909 0.875
v 0.75 1.65 -1.5
vt -0.340909 0.75
v 1.125 1.65 -1.5
vt -0.511364 0.75
v 1.125 1.375 -1.5
vt -0.511364 0.625
v 1.5 1.375 -1.5
vt -0.681818 0.625
v 1.5 1.1 -1.5
vt -0.681818 0.5
v 1.875 1.1 -1.5
vt -0.852273 0.5
v 1.875 0.825 -1.5
vt -0.852273 0.375
v 2.25 0.825 -1.5
vt -1.02273 0.375
v 2.25 0.55 -1.5
vt -1.02273 0.25
v 2.625 0.55 -1.5
vt -1.19318 0.25
v 2.625 0.275 -1.5
vt -1.19318 0.125
v 3 0.275 -1.5
vt -1.36364 0.125
f 3/30/5 2/31/5 6/32/5 23/33/5 24/34/5 25/35/5 26/36/5 27/37/5 28/38/5 29/39/5 30/40/5 31/41/5 32/42/5 33/43/5 34/44/5 35/45/5 36/46/5 37/47/5 38/48/5 

vt 0.170455 -1.08287e-015
vn 4.33147e-015 1 -1.08287e-015
vt 0.170455 0.681818
vt -4.33147e-015 0.681818
vt -4.33147e-015 -1.08287e-015
f 22/49/6 24/50/6 23/51/6 7/52/6 

vt -4.10177e-016 1
vn 1 1.47015e-031 -2.40637e-015
vt -4.10177e-016 0.875
vt 0.681818 0.875
vt 0.681818 1
f 22/53/7 21/54/7 25/55/7 24/56/7 

vt 0.170455 -2.10011e-015
vn 0 1 -2.40012e-015
vt 0.340909 -2.10011e-015
vt 0.340909 0.681818
f 21/57/8 20/58/8 26/59/8 25/50/8 

vt -9.00045e-016 0.875
vn 1 0 -2.64013e-015
vt -9.00045e-016 0.75
vt 0.681818 0.75
f 20/60/9 19/61/9 27/62/9 26/55/9 

vt 0.340909 -1.80009e-015
vn 1.47855e-028 1 -2.40012e-015
vt 0.511364 -1.23006e-014
vt 0.511364 0.681818
f 19/63/10 18/64/10 28/65/10 27/59/10 

vt -1.18506e-014 0.75
vt -1.18506e-014 0.625
f 18/66/9 17/67/9 29/21/9 28/62/9 

vt 0.511364 -1.20006e-014
vn -1.47855e-028 1 -2.40012e-015
vt 0.681818 -1.50008e-015
vt 0.681818 0.681818
f 17/68/11 16/69/11 30/70/11 29/65/11 

vt -1.80009e-015 0.625
vt -1.80009e-015 0.5
f 16/71/9 15/72/9 31/20/9 30/21/9 

vt 0.681818 -1.20006e-015
vt 0.852273 -1.17006e-014
vt 0.852273 0.681818
f 15/73/10 14/74/10 32/75/10 31/70/10 

vt -1.27506e-014 0.5
vt -1.27506e-014 0.375
vt 0.681818 0.375
f 14/76/9 13/77/9 33/78/9 32/20/9 

vt 0.852273 -1.14006e-014
vt 1.02273 -9.00045e-016
vt 1.02273 0.681818
f 13/79/11 12/80/11 34/81/11 33/75/11 

vt -2.70014e-015 0.375
vt -2.70014e-015 0.25
vt 0.681818 0.25
f 12/82/9 11/83/9 35/84/9 34/78/9 

vt 1.02273 -6.0003e-016
vt 1.19318 -6.0003e-016
vt 1.19318 0.681818
f 11/85/8 10/86/8 36/87/8 35/81/8 

vt -3.15016e-015 0.25
vt -3.15016e-015 0.125
vt 0.681818 0.125
f 10/88/9 9/89/9 37/90/9 36/84/9 

vt 1.19318 -3.12076e-016
vn -5.52966e-031 1 -2.49661e-015
vt 1.36364 -3.12076e-016
vt 1.36364 0.681818
f 9/91/12 8/92/12 38/93/12 37/87/12 

vt 0.681818 4.79862e-012
vn 1 -3.51899e-012 -1.20319e-015
vt -1.64071e-015 0.125
vt -1.64071e-015 4.79862e-012
f 3/94/13 38/90/13 8/95/13 4/96/13 

