# Alias OBJ Model File
# Exported from SketchUp, (c) 2000-2012 Trimble Navigation Limited
# File units = meters

mtllib Stairs_Stone_01.mtl

g Mesh1 Stairs_Stone Model

usemtl Light_Stone
v 0 0 -0
vt 0 0
vn 0 -1 -0
v 0 0 -1.5
vt 0 0.681818
v 3 0 -1.5
vt -1.36364 0.681818
v 3 0 -0
vt -1.36364 0
f 1/1/1 2/2/1 3/3/1 4/4/1 

vt -0.681818 0
vn -1 0 -0
v 0 2.2 -0
vt 0 1
v 0 2.2 -1.5
vt -0.681818 1
f 2/5/2 1/1/2 5/6/2 6/7/2 

vt 1.36364 -5.27543e-030
vn -1.40922e-015 -2.74524e-015 1
v 3 0.275 -0
vt 1.36364 0.125
v 2.625 0.275 -0
vt 1.19318 0.125
v 2.625 0.55 -0
vt 1.19318 0.25
v 2.25 0.55 -0
vt 1.02273 0.25
v 2.25 0.825 -0
vt 1.02273 0.375
v 1.875 0.825 2.31012e-014
vt 0.852273 0.375
v 1.875 1.1 2.31012e-014
vt 0.852273 0.5
v 1.5 1.1 -0
vt 0.681818 0.5
v 1.5 1.375 -0
vt 0.681818 0.625
v 1.125 1.375 2.31012e-014
vt 0.511364 0.625
v 1.125 1.65 2.31012e-014
vt 0.511364 0.75
v 0.75 1.65 -0
vt 0.340909 0.75
v 0.75 1.925 -0
vt 0.340909 0.875
v 0.375 1.925 -0
vt 0.170455 0.875
v 0.375 2.2 -0
vt 0.170455 1
f 4/8/3 7/9/3 8/10/3 9/11/3 10/12/3 11/13/3 12/14/3 13/15/3 14/16/3 15/17/3 16/18/3 17/19/3 18/20/3 19/21/3 20/22/3 21/23/3 5/6/3 1/1/3 

vt 0.681818 4.79862e-012
vn 1 -3.51899e-012 -1.20319e-015
v 3 0.275 -1.5
vt 0.681818 0.125
vt -1.64071e-015 0.125
vt -1.64071e-015 4.79862e-012
f 3/24/4 22/25/4 7/26/4 4/27/4 

vt -1.36364 -1.47618e-016
vn 1.58771e-016 2.16506e-016 -1
vt 1.08253e-016 -1.47618e-016
vt 1.08253e-016 1
v 0.375 2.2 -1.5
vt -0.170455 1
v 0.375 1.925 -1.5
vt -0.170455 0.875
v 0.75 1.925 -1.5
vt -0.340909 0.875
v 0.75 1.65 -1.5
vt -0.340909 0.75
v 1.125 1.65 -1.5
vt -0.511364 0.75
v 1.125 1.375 -1.5
vt -0.511364 0.625
v 1.5 1.375 -1.5
vt -0.681818 0.625
v 1.5 1.1 -1.5
vt -0.681818 0.5
v 1.875 1.1 -1.5
vt -0.852273 0.5
v 1.875 0.825 -1.5
vt -0.852273 0.375
v 2.25 0.825 -1.5
vt -1.02273 0.375
v 2.25 0.55 -1.5
vt -1.02273 0.25
v 2.625 0.55 -1.5
vt -1.19318 0.25
v 2.625 0.275 -1.5
vt -1.19318 0.125
vt -1.36364 0.125
f 3/28/5 2/29/5 6/30/5 23/31/5 24/32/5 25/33/5 26/34/5 27/35/5 28/36/5 29/37/5 30/38/5 31/39/5 32/40/5 33/41/5 34/42/5 35/43/5 36/44/5 22/45/5 

vt 0.170455 -1.08287e-015
vn 4.33147e-015 1 -1.08287e-015
vt 0.170455 0.681818
vt -4.33147e-015 0.681818
vt -4.33147e-015 -1.08287e-015
f 21/46/6 23/47/6 6/48/6 5/49/6 

vt -4.10177e-016 1
vn 1 1.47015e-031 -2.40637e-015
vt -4.10177e-016 0.875
vt 0.681818 0.875
vt 0.681818 1
f 21/50/7 20/51/7 24/52/7 23/53/7 

vt 0.170455 -2.10011e-015
vn 0 1 -2.40012e-015
vt 0.340909 -2.10011e-015
vt 0.340909 0.681818
f 20/54/8 19/55/8 25/56/8 24/47/8 

vt -9.00045e-016 0.875
vn 1 0 -2.64013e-015
vt -9.00045e-016 0.75
vt 0.681818 0.75
f 19/57/9 18/58/9 26/59/9 25/52/9 

vt 0.340909 -1.80009e-015
vn 1.47855e-028 1 -2.40012e-015
vt 0.511364 -1.23006e-014
vt 0.511364 0.681818
f 18/60/10 17/61/10 27/62/10 26/56/10 

vt -1.18506e-014 0.75
vt -1.18506e-014 0.625
f 17/63/9 16/64/9 28/17/9 27/59/9 

vt 0.511364 -1.20006e-014
vn -1.47855e-028 1 -2.40012e-015
vt 0.681818 -1.50008e-015
vt 0.681818 0.681818
f 16/65/11 15/66/11 29/67/11 28/62/11 

vt -1.80009e-015 0.625
vt -1.80009e-015 0.5
f 15/68/9 14/69/9 30/16/9 29/17/9 

vt 0.681818 -1.20006e-015
vt 0.852273 -1.17006e-014
vt 0.852273 0.681818
f 14/70/10 13/71/10 31/72/10 30/67/10 

vt -1.27506e-014 0.5
vt -1.27506e-014 0.375
vt 0.681818 0.375
f 13/73/9 12/74/9 32/75/9 31/16/9 

vt 0.852273 -1.14006e-014
vt 1.02273 -9.00045e-016
vt 1.02273 0.681818
f 12/76/11 11/77/11 33/78/11 32/72/11 

vt -2.70014e-015 0.375
vt -2.70014e-015 0.25
vt 0.681818 0.25
f 11/79/9 10/80/9 34/81/9 33/75/9 

vt 1.02273 -6.0003e-016
vt 1.19318 -6.0003e-016
vt 1.19318 0.681818
f 10/82/8 9/83/8 35/84/8 34/78/8 

vt -3.15016e-015 0.25
vt -3.15016e-015 0.125
f 9/85/9 8/86/9 36/25/9 35/81/9 

vt 1.19318 -3.12076e-016
vn -5.52966e-031 1 -2.49661e-015
vt 1.36364 -3.12076e-016
vt 1.36364 0.681818
f 8/87/12 7/88/12 22/89/12 36/84/12 

