# Alias OBJ Model File
# Exported from SketchUp, (c) 2000-2012 Trimble Navigation Limited
# File units = meters

mtllib Wood_Door_Round_01.mtl

g Mesh1 Wood_Door_Round Model

usemtl Wood
v 0.5 2.2 -0
vt 0.227273 0
vn 0 1 -0
v 0.5 2.2 -0.5
vt 0.227273 0.227273
v 0.4 2.2 -0.5
vt 0.181818 0.227273
v 0.1 2.2 -0.5
vt 0.0454545 0.227273
v 0 2.2 -0.5
vt 0 0.227273
v 0 2.2 -0
vt 0 0
f 1/1/1 2/2/1 3/3/1 4/4/1 5/5/1 6/6/1 

v 0.5 0 -0
vn 1 0 -0
v 0.5 0 -0.5
vt 0.227273 1
vt 0 1
f 7/6/2 8/1/2 2/7/2 1/8/2 

v 0 0 -0.5
vn 0 -1 -0
v 0.1 0 -0.5
vt -0.0454545 0.227273
v 0.4 0 -0.5
vt -0.181818 0.227273
vt -0.227273 0.227273
vt -0.227273 0
v 0 0 -0
f 9/5/3 10/9/3 11/10/3 8/11/3 7/12/3 12/6/3 

vn 0 0 -1
vt -0.0454545 1
vt -0.0454545 0
f 9/6/4 5/8/4 4/13/4 10/14/4 

vn -1 0 -0
vt -0.227273 1
f 6/8/5 5/15/5 9/12/5 12/6/5 

vn 0 0 1
f 12/6/6 7/1/6 1/7/6 6/8/6 

usemtl Dark_Stone
v 0.1 0 -2.5
vt -1.13636 1.59835e-018
vn -1 3.51637e-017 6.38338e-031
v 0.1 -2.25597e-017 -2.11114
vt -0.959609 -8.65607e-018
v 0.1 1.30448 -2.11114
vt -0.959609 0.592947
v 0.1 1.69114 -1.95098
vt -0.88681 0.7687
v 0.1 1.73662 -1.93214
vt -0.878246 0.789375
v 0.1 1.91562 -1.5
vt -0.681818 0.870738
v 0.1 1.73662 -1.06786
vt -0.48539 0.789375
v 0.1 1.69114 -1.04902
vt -0.476826 0.7687
v 0.1 1.30448 -0.888859
vt -0.404027 0.592947
v 0.1 -2.25597e-017 -0.888859
vt -0.404027 -8.65607e-018
vt -0.227273 1.59835e-018
v 0.1 2.2 -2.5
vt -1.13636 1
f 13/16/7 14/17/7 15/18/7 16/19/7 17/20/7 18/21/7 19/22/7 20/23/7 21/24/7 22/25/7 10/26/7 4/15/7 23/27/7 

v 0.4 0 -2.5
vt -0.181818 1.13636
vn -1.82867e-033 -1 -5.80152e-017
v 0.4 -2.25597e-017 -2.11114
vt -0.181818 0.959609
vt -0.0454545 0.959609
vt -0.0454545 1.13636
f 24/28/8 25/29/8 14/30/8 13/31/8 

v 0.4 -2.25597e-017 -0.888859
vt 0.404027 -1.02544e-017
v 0.4 1.30448 -0.888859
vt 0.404027 0.592947
v 0.4 1.69114 -1.04902
vt 0.476826 0.7687
v 0.4 1.73662 -1.06786
vt 0.48539 0.789375
v 0.4 1.91562 -1.5
vt 0.681818 0.870738
v 0.4 1.73662 -1.93214
vt 0.878246 0.789375
v 0.4 1.69114 -1.95098
vt 0.88681 0.7687
v 0.4 1.30448 -2.11114
vt 0.959609 0.592947
vt 0.959609 -1.02544e-017
vt 1.13636 0
v 0.4 2.2 -2.5
vt 1.13636 1
f 11/1/2 26/32/2 27/33/2 28/34/2 29/35/2 30/36/2 31/37/2 32/38/2 33/39/2 25/40/2 24/41/2 34/42/2 3/7/2 

vn 1.12632e-033 -1 5.80152e-017
vt -0.0454545 0.404027
vt -0.181818 0.404027
f 10/9/9 22/43/9 26/44/9 11/10/9 

vt -0.181818 0.592947
vt -0.181818 -1.02544e-017
vt -0.0454545 -1.02544e-017
vt -0.0454545 0.592947
f 27/45/4 26/46/4 22/47/4 21/48/4 

vt -0.181818 0.89266
vn 0 -0.382683 -0.92388
vt -0.181818 0.702426
vt -0.0454545 0.702426
vt -0.0454545 0.89266
f 28/49/10 27/50/10 21/51/10 20/52/10 

vt -0.181818 0.915038
vt -0.0454545 0.915038
f 29/53/10 28/49/10 20/52/10 19/54/10 

vt -0.181818 0.963135
vn 0 -0.92388 -0.382683
vt -0.181818 0.750523
vt -0.0454545 0.750523
vt -0.0454545 0.963135
f 30/55/11 29/56/11 19/57/11 18/58/11 

vt 0.181818 -0.509313
vn 0 -0.92388 0.382683
vt 0.181818 -0.296701
vt 0.0454545 -0.296701
vt 0.0454545 -0.509313
f 31/59/12 30/60/12 18/61/12 17/62/12 

vt 0.181818 0.370819
vn 0 -0.382683 0.92388
vt 0.181818 0.393197
vt 0.0454545 0.393197
vt 0.0454545 0.370819
f 32/63/13 31/64/13 17/65/13 16/66/13 

vt 0.181818 0.180585
vt 0.0454545 0.180585
f 33/67/13 32/63/13 16/66/13 15/68/13 

vt 0.181818 -4.2587e-015
vn 0 -4.42726e-015 1
vt 0.181818 0.592947
vt 0.0454545 0.592947
vt 0.0454545 -4.2587e-015
f 25/69/14 33/70/14 15/71/14 14/72/14 

usemtl Wood
v 0.5 0 -2.5
v 0.5 2.2 -2.5
vt 0.181818 1
vt 0.181818 0
f 35/1/6 36/7/6 34/73/6 24/74/6 

v 0.5 2.2 -3
vt 1.36364 1
v 0.5 0 -3
vt 1.36364 0
f 37/75/2 36/42/2 35/41/2 38/76/2 

v 0 2.2 -3
vt 0 1.36364
v 0 2.2 -2.5
vt 0 1.13636
vt 0.0454545 1.13636
vt 0.181818 1.13636
vt 0.227273 1.13636
vt 0.227273 1.36364
f 39/77/1 40/78/1 23/79/1 34/80/1 36/81/1 37/82/1 

v 0 0 -3
vt -1.36364 0
v 0 0 -2.5
vt -1.13636 0
vt -1.36364 1
f 41/83/5 42/84/5 40/27/5 39/85/5 

vt -0.227273 1.13636
vt -0.227273 1.36364
f 35/86/3 24/28/3 13/31/3 42/78/3 41/77/3 38/87/3 

vt 0.0454545 0
vt 0.0454545 1
f 40/8/6 42/6/6 13/88/6 23/89/6 

f 38/12/4 41/6/4 39/8/4 37/15/4 

usemtl Dark_Stone
f 34/80/1 23/79/1 4/4/1 3/3/1 

usemtl Wood
vt -0.181818 0
vt -0.181818 1
f 2/15/4 8/12/4 11/90/4 3/91/4 

