# Alias OBJ Model File
# Exported from SketchUp, (c) 2000-2012 Trimble Navigation Limited
# File units = meters

mtllib Wood_Corner_01.mtl

g Mesh1 Wood_Corner Model

usemtl Wood
v 0 0 -2.5
vt 0 1.13636
vn 0 -1 -0
v 0 0 -3
vt 0 1.36364
v 0.5 0 -3
vt -0.227273 1.36364
v 0.5 0 -2.75
vt -0.227273 1.25
v 0.5 0 -2.5
vt -0.227273 1.13636
v 0.25 0 -2.5
vt -0.113636 1.13636
f 1/1/1 2/2/1 3/3/1 4/4/1 5/5/1 6/6/1 

v 0 2.2 -2.5
vt -1.13636 1
vn -1 0 -0
v 0 2.2 -3
vt -1.36364 1
vt -1.36364 0
vt -1.13636 0
f 7/7/2 8/8/2 2/9/2 1/10/2 

v 0.5 2.2 -2.5
vt 0.227273 1.13636
vn 0 1 -0
v 0.5 2.2 -2.75
vt 0.227273 1.25
v 0.5 2.2 -3
vt 0.227273 1.36364
v 0.25 2.2 -2.5
vt 0.113636 1.13636
f 9/11/3 10/12/3 11/13/3 8/2/3 7/1/3 12/14/3 

usemtl Dark_Stone
v 2.5 2.2 -0.25
vt 1.13636 0.113636
v 2.5 2.2 -0.5
vt 1.13636 0.227273
v 2.75 2.2 -0.5
vt 1.25 0.227273
f 12/14/3 13/15/3 14/16/3 15/17/3 10/12/3 9/11/3 

vt -0.723177 0
vn -0.707107 0 0.707107
v 2.5 0 -0.25
vt 0.723177 0
vt 0.723177 1
vt -0.723177 1
f 6/18/4 16/19/4 13/20/4 12/21/4 

vt -1.13636 0.113636
v 2.75 0 -0.5
vt -1.25 0.227273
v 2.5 0 -0.5
vt -1.13636 0.227273
f 16/22/1 6/6/1 5/5/1 4/4/1 17/23/1 18/24/1 

vn 0.707107 0 -0.707107
f 17/18/5 4/19/5 10/20/5 15/21/5 

usemtl Wood
vt 1.36364 1
vn 1 0 -0
vt 1.25 1
vt 1.25 0
vt 1.36364 0
f 11/25/6 10/26/6 4/27/6 3/28/6 

vt 0 0
vn 0 0 -1
vt 0 1
vt -0.227273 1
vt -0.227273 0
f 2/29/7 8/30/7 11/31/7 3/32/7 

v 3 0 -0.5
vt -1.25 0
vt -1.25 1
v 3 2.2 -0.5
f 19/9/7 17/33/7 15/34/7 20/8/7 

vt -1.36364 0.227273
v 3 0 -0
v 2.5 0 -0
f 16/22/1 18/24/1 17/23/1 19/35/1 21/9/1 22/10/1 

vt 0.227273 0
vt 0.227273 1
v 3 2.2 -0
f 21/29/6 19/36/6 20/37/6 23/30/6 

vt 1.36364 0.227273
v 2.5 2.2 -0
vt 1.13636 0
f 23/28/3 20/38/3 15/17/3 14/16/3 13/15/3 24/39/3 

vt -0.113636 1
vt -0.113636 0
f 24/30/2 13/40/2 16/41/2 22/29/2 

vn 0 0 1
vt 1.13636 1
f 22/39/8 21/28/8 23/25/8 24/42/8 

vt 0.113636 0
vt 0.113636 1
f 1/29/8 6/43/8 12/44/8 7/30/8 

