# Alias OBJ Model File
# Exported from SketchUp, (c) 2000-2012 Trimble Navigation Limited
# File units = meters

mtllib Wood_Window_Round_01.mtl

g Mesh1 Wood_Window_Round Model

usemtl Wood
v 0.5 2.2 -0
vt 0.227273 0
vn 0 1 -0
v 0.5 2.2 -0.5
vt 0.227273 0.227273
v 0.4 2.2 -0.5
vt 0.181818 0.227273
v 0.1 2.2 -0.5
vt 0.0454545 0.227273
v 0 2.2 -0.5
vt 0 0.227273
v 0 2.2 -0
vt 0 0
f 1/1/1 2/2/1 3/3/1 4/4/1 5/5/1 6/6/1 

v 0.5 0 -0
vn 1 0 -0
v 0.5 0 -0.5
vt 0.227273 1
vt 0 1
f 7/6/2 8/1/2 2/7/2 1/8/2 

v 0 0 -0.5
vn 0 -1 -0
v 0.1 0 -0.5
vt -0.0454545 0.227273
v 0.4 0 -0.5
vt -0.181818 0.227273
vt -0.227273 0.227273
vt -0.227273 0
v 0 0 -0
f 9/5/3 10/9/3 11/10/3 8/11/3 7/12/3 12/6/3 

vn 0 0 -1
vt -0.0454545 1
vt -0.0454545 0
f 9/6/4 5/8/4 4/13/4 10/14/4 

vn -1 0 -0
vt -0.227273 1
f 6/8/5 5/15/5 9/12/5 12/6/5 

vn 0 0 1
f 12/6/6 7/1/6 1/7/6 6/8/6 

usemtl Dark_Stone
v 0.1 1.63077 -1.32157
vt -0.600714 0.741258
f 4/15/5 13/16/5 10/12/5

v 0.1 2.2 -2.5
vt -1.13636 1
f 13/16/5 4/15/5 14/17/5

v 0.4 2.2 -2.5
vt 0.181818 1.13636
vt 0.0454545 1.13636
f 15/18/1 14/19/1 4/4/1 3/3/1 

usemtl Wood
v 0 2.2 -3
vt 0 1.36364
v 0 2.2 -2.5
vt 0 1.13636
v 0.5 2.2 -2.5
vt 0.227273 1.13636
v 0.5 2.2 -3
vt 0.227273 1.36364
f 16/20/1 17/21/1 14/19/1 15/18/1 18/22/1 19/23/1 

v 0 0 -3
vt -1.36364 0
v 0 0 -2.5
vt -1.13636 0
vt -1.36364 1
f 20/24/5 21/25/5 17/17/5 16/26/5 

v 0.5 0 -2.5
vt -0.227273 1.13636
v 0.4 0 -2.5
vt -0.181818 1.13636
v 0.1 0 -2.5
vt -0.0454545 1.13636
v 0.5 0 -3
vt -0.227273 1.36364
f 22/27/3 23/28/3 24/29/3 21/21/3 20/20/3 25/30/3 

vt 0.181818 1
vt 0.181818 0
f 22/1/6 18/7/6 15/31/6 23/32/6 

vt 1.36364 1
vt 1.13636 1
vt 1.13636 0
vt 1.36364 0
f 19/33/2 18/34/2 22/35/2 25/36/2 

f 25/12/4 20/6/4 16/8/4 19/15/4 

usemtl Dark_Stone
v 0.4 1.45234 -1.75234
vt 0.796517 0.660154
f 15/34/2 26/37/2 23/35/2

v 0.4 1.63077 -1.67843
vt 0.762923 0.741258
f 15/34/2 27/38/2 26/37/2

v 0.4 1.70468 -1.5
vt 0.681818 0.774853
f 15/34/2 28/39/2 27/38/2

v 0.4 1.63077 -1.32157
vt 0.600714 0.741258
f 15/34/2 29/40/2 28/39/2

f 3/7/2 29/40/2 15/34/2

v 0.4 1.45234 -1.24766
vt 0.567119 0.660154
f 29/40/2 3/7/2 30/41/2

v 0.4 0.747662 -1.24766
vt 0.567119 0.339846
f 30/41/2 3/7/2 31/42/2

f 11/1/2 31/42/2 3/7/2

f 31/42/2 11/1/2 23/35/2

f 10/9/3 24/29/3 23/28/3 11/10/3 

v 0.1 0.747662 -1.24766
vt -0.567119 0.339846
f 10/12/5 32/43/5 24/25/5

v 0.1 1.45234 -1.24766
vt -0.567119 0.660154
f 32/43/5 10/12/5 33/44/5

f 10/12/5 13/16/5 33/44/5

vt -0.181818 0.914717
vn 0 -0.382683 -0.92388
vt -0.181818 0.82693
vt -0.0454545 0.82693
vt -0.0454545 0.914717
f 29/45/7 30/46/7 33/47/7 13/48/7 

vt -0.181818 0.660154
vt -0.181818 0.339846
vt -0.0454545 0.339846
vt -0.0454545 0.660154
f 30/49/4 31/50/4 32/51/4 33/52/4 

vt 0.181818 0.567119
v 0.4 0.747662 -1.75234
vt 0.181818 0.796517
v 0.1 0.747662 -1.75234
vt 0.0454545 0.796517
vt 0.0454545 0.567119
f 31/53/1 34/54/1 35/55/1 32/56/1 

vt 0.796517 0.339846
f 31/42/2 23/35/2 34/57/2

f 34/57/2 23/35/2 26/37/2

vt 0.181818 0.339846
vt 0.181818 0.660154
v 0.1 1.45234 -1.75234
vt 0.0454545 0.660154
vt 0.0454545 0.339846
f 34/58/6 26/59/6 36/60/6 35/61/6 

vt 0.181818 0.305089
vn 0 -0.382683 0.92388
vt 0.181818 0.392875
v 0.1 1.63077 -1.67843
vt 0.0454545 0.392875
vt 0.0454545 0.305089
f 26/62/8 27/63/8 37/64/8 36/65/8 

vt 0.181818 -0.421181
vn 0 -0.92388 0.382683
vt 0.181818 -0.333395
v 0.1 1.70468 -1.5
vt 0.0454545 -0.333395
vt 0.0454545 -0.421181
f 27/66/9 28/67/9 38/68/9 37/69/9 

vt -0.181818 0.926441
vn 0 -0.92388 -0.382683
vt -0.181818 0.838654
vt -0.0454545 0.838654
vt -0.0454545 0.926441
f 28/70/10 29/71/10 13/72/10 38/73/10 

vt -0.681818 0.774853
f 13/16/5 14/17/5 38/74/5

vt -0.762923 0.741258
f 38/74/5 14/17/5 37/75/5

vt -0.796517 0.660154
f 37/75/5 14/17/5 36/76/5

vt -0.796517 0.339846
f 36/76/5 14/17/5 35/77/5

f 24/25/5 35/77/5 14/17/5

f 24/25/5 32/43/5 35/77/5

usemtl Wood
vt 0.0454545 0
vt 0.0454545 1
f 17/8/6 21/6/6 24/78/6 14/79/6 

vt -0.181818 0
vt -0.181818 1
f 2/15/4 8/12/4 11/80/4 3/81/4 

