# Alias OBJ Model File
# Exported from SketchUp, (c) 2000-2012 Trimble Navigation Limited
# File units = meters

mtllib Wood_Border_Wall_01.mtl

g Mesh1 Wood_Border_Wall Model

usemtl Wood
v 0.5 2.2 -0
vt 0.227273 0
vn 0 1 -0
v 0.5 2.2 -0.5
vt 0.227273 0.227273
v 0.4 2.2 -0.5
vt 0.181818 0.227273
v 0.1 2.2 -0.5
vt 0.0454545 0.227273
v 0 2.2 -0.5
vt 0 0.227273
v 0 2.2 -0
vt 0 0
f 1/1/1 2/2/1 3/3/1 4/4/1 5/5/1 6/6/1 

vt 0 1
vn 1 0 -0
v 0.5 0 -0
v 0.5 0 -3
vt 1.36364 0
v 0.5 2.2 -3
vt 1.36364 1
v 0.5 2.2 -2.5
vt 1.13636 1
v 0.5 0.700194 -2.5
vt 1.13636 0.31827
v 0.5 0.700194 -0.5
vt 0.227273 0.31827
vt 0.227273 1
f 1/7/2 7/6/2 8/8/2 9/9/2 10/10/2 11/11/2 12/12/2 2/13/2 

v 0 0 -0
vn 0 0 1
f 13/6/3 7/1/3 1/13/3 6/7/3 

vt -0.227273 1.36364
vn 0 -1 -0
vt -0.227273 0
v 0 0 -3
vt 0 1.36364
f 8/14/4 7/15/4 13/6/4 14/16/4 

v 0 2.2 -3
vt -1.36364 1
vn -1 0 -0
vt -1.36364 0
vt -0.227273 1
v 0 0.700194 -0.5
vt -0.227273 0.31827
v 0 0.700194 -2.5
vt -1.13636 0.31827
v 0 2.2 -2.5
vt -1.13636 1
f 15/17/5 14/18/5 13/6/5 6/7/5 5/19/5 16/20/5 17/21/5 18/22/5 

vn 0 0 -1
f 8/15/6 14/6/6 15/7/6 9/19/6 

vt 0 1.13636
v 0.1 2.2 -2.5
vt 0.0454545 1.13636
v 0.4 2.2 -2.5
vt 0.181818 1.13636
vt 0.227273 1.13636
vt 0.227273 1.36364
f 15/16/1 18/23/1 19/24/1 20/25/1 10/26/1 9/27/1 

vt 0 0.31827
v 0.1 0.700194 -2.5
vt 0.0454545 0.31827
vt 0.0454545 1
f 18/7/3 17/28/3 21/29/3 19/30/3 

v 0.1 0.700194 -0.5
f 16/5/1 22/4/1 21/24/1 17/23/1 

vt -0.0454545 1
vt -0.0454545 0.31827
f 4/31/6 22/32/6 16/28/6 5/7/6 

usemtl Dark_Stone
f 19/22/5 21/21/5 22/20/5 4/19/5 

f 20/25/1 19/24/1 4/4/1 3/3/1 

v 0.4 0.700194 -0.5
v 0.4 0.700194 -2.5
f 3/13/2 23/12/2 24/11/2 20/10/2 

usemtl Wood
vt -0.181818 0.31827
vt -0.181818 1
f 2/19/6 12/20/6 23/33/6 3/34/6 

f 11/26/1 24/25/1 23/3/1 12/2/1 

vt 0.181818 1
vt 0.181818 0.31827
f 20/35/3 24/36/3 11/12/3 10/13/3 

