# Alias OBJ Model File
# Exported from SketchUp, (c) 2000-2012 Trimble Navigation Limited
# File units = meters

mtllib roadTile_239.mtl

g Mesh1 Group1 Model

usemtl Stone
v 7.07473e-014 1.73 -0.75
vt 7.07473e-014 0.75
vn 0 1 -0
v 0 1.73 -0
vt 0 0
v 3 1.73 -5.77529e-014
vt 3 5.77529e-014
v 3 1.73 -0.75
vt 3 0.75
f 1/1/1 2/2/1 3/3/1 4/4/1 

v 6.78597e-014 1.73 -3
vt -3 1.73
vn -1 2.74907e-015 1.63933e-014
v 6.78597e-014 9.92628e-016 -3
vt -3 9.92628e-016
v 0 9.02389e-016 -0
vt 0 9.02389e-016
vt 0 1.73
vt -0.75 1.73
v 7.07473e-014 0.6 -0.75
vt -0.75 0.6
v 7.07473e-014 0.3 -0.75
vt -0.75 0.3
v 4.62023e-014 0.3 -2.25
vt -2.25 0.3
v 5.05338e-014 0.6 -2.25
vt -2.25 0.6
v 5.05338e-014 1.73 -2.25
vt -2.25 1.73
f 5/5/2 6/6/2 7/7/2 2/8/2 1/9/2 8/10/2 9/11/2 10/12/2 11/13/2 12/14/2 

v 3 9.92628e-016 -3
vn -1.63633e-014 0 -1
vt -1.1695e-013 9.92628e-016
vt -1.1695e-013 1.73
v 3 1.73 -3
f 13/6/3 6/15/3 5/16/3 14/5/3 

vt 5.42871e-032 1.11932e-032
vn -6.01593e-017 -1 -1.2404e-017
vt -6.78597e-014 3
vt -3 3
v 3 0 -5.77529e-014
vt -3 5.77529e-014
f 7/17/4 6/18/4 13/19/4 15/20/4 

vt 1.67443e-014 1.73
vn 1 -3.13365e-015 -1.36696e-014
vt 1.67443e-014 9.40095e-015
vt 3 1.03936e-014
vt 3 1.73
v 3 1.73 -2.25
vt 2.25 1.73
v 3 0.6 -2.25
vt 2.25 0.6
v 3 0.3 -2.25
vt 2.25 0.3
v 3 0.3 -0.75
vt 0.75 0.3
v 3 0.6 -0.75
vt 0.75 0.6
vt 0.75 1.73
f 3/21/5 15/22/5 13/23/5 14/24/5 16/25/5 17/26/5 18/27/5 19/28/5 20/29/5 4/30/5 

vn 1.6243e-014 -1.11873e-030 1
vt 3 -1.00953e-044
f 7/7/6 15/31/6 3/24/6 2/8/6 

vt 3 2.25
vt 3 3
vt 6.78597e-014 3
vt 5.05338e-014 2.25
f 16/32/1 14/33/1 5/34/1 12/35/1 

vt 8.7421e-014 0.6
vn 1.63943e-014 0 1
vt 3 0.6
vt 8.7421e-014 1.73
f 11/36/7 17/37/7 16/24/7 12/38/7 

usemtl Asphalt
f 17/32/1 11/35/1 8/1/1 20/4/1 

vn -1 9.62549e-015 1.54008e-014
f 11/13/8 10/12/8 9/11/8 8/10/8 

usemtl Stone
vt -3 0.6
vn -1.63943e-014 0 -1
vt -8.3043e-014 0.6
vt -8.3043e-014 1.73
f 20/39/9 8/40/9 1/41/9 4/5/9 

usemtl Asphalt
vn 1 -1.9251e-014 -1.54008e-014
f 20/29/10 19/28/10 18/27/10 17/26/10 

