# Alias OBJ Model File
# Exported from SketchUp, (c) 2000-2012 Trimble Navigation Limited
# File units = meters

mtllib roadTile_162.mtl

g Mesh1 Group1 Model

usemtl Grass
v 0 0.55 -0
vt 0 0.55
vn -1 1.05005e-014 -6.93035e-014
v 3.46517e-014 0.55 -0.375
vt -0.375 0.55
v 1.73259e-014 6.31672e-016 -0.375
vt -0.375 6.31672e-016
v 0 6.31672e-016 -0
vt 0 6.31672e-016
f 1/1/1 2/2/1 3/3/1 4/4/1 

v 3 0.55 -5.19776e-014
vt 3 5.19776e-014
vn 0 1 -0
v 3 0.55 -0.375
vt 3 0.375
vt 3.46517e-014 0.375
vt 0 0
f 5/5/2 6/6/2 2/7/2 1/8/2 

v 3 0 -5.19776e-014
vt 2.82989e-013 3.15016e-014
vn 1 -1.05005e-014 7.70039e-014
v 3 0 -0.375
vt 0.375 3.15016e-014
vt 0.375 0.55
vt 2.82989e-013 0.55
f 7/9/3 8/10/3 6/11/3 5/12/3 

vt 3.8001e-032 7.83525e-033
vn -6.01593e-017 -1 -1.2404e-017
vt -1.73259e-014 0.375
v 5.77529e-014 9.02389e-016 -2.625
vt -5.77529e-014 2.625
v 6.93035e-014 9.02389e-016 -3
vt -6.93035e-014 3
v 3 9.02389e-016 -3
vt -3 3
v 3 6.31672e-016 -2.625
vt -3 2.625
vt -3 0.375
vt -3 5.19776e-014
f 4/13/4 3/14/4 9/15/4 10/16/4 11/17/4 12/18/4 8/19/4 7/20/4 

usemtl Stone
vt -2.625 9.02389e-016
vn -1 1.58293e-014 -5.42976e-015
v 3.46517e-014 0.63 -0.375
vt -0.375 0.63
v 6.93035e-014 0.63 -0.75
vt -0.75 0.63
v 6.93035e-014 0.6 -0.75
vt -0.75 0.6
v 6.93035e-014 0.3 -0.75
vt -0.75 0.3
v 4.62023e-014 0.3 -2.25
vt -2.25 0.3
v 5.19776e-014 0.6 -2.25
vt -2.25 0.6
v 5.19776e-014 0.63 -2.25
vt -2.25 0.63
v 5.77529e-014 0.63 -2.625
vt -2.625 0.63
v 5.77529e-014 0.55 -2.625
vt -2.625 0.55
f 9/21/5 3/3/5 2/2/5 13/22/5 14/23/5 15/24/5 16/25/5 17/26/5 18/27/5 19/28/5 20/29/5 21/30/5 

v 3 0.63 -0.375
vt 3 0.63
vn 1.54008e-014 0 1
vt 4.0427e-014 0.63
vt 4.0427e-014 0.55
vt 3 0.55
f 22/31/6 13/32/6 2/33/6 6/34/6 

vt 6.93035e-014 0.75
v 3 0.63 -0.75
vt 3 0.75
f 14/35/2 13/7/2 22/6/2 23/36/2 

vt 0.375 5.70077e-014
vn 1 -1.90026e-014 4.34381e-015
vt 2.625 5.76394e-014
v 3 0.55 -2.625
vt 2.625 0.55
v 3 0.63 -2.625
vt 2.625 0.63
v 3 0.63 -2.25
vt 2.25 0.63
v 3 0.6 -2.25
vt 2.25 0.6
v 3 0.3 -2.25
vt 2.25 0.3
v 3 0.3 -0.75
vt 0.75 0.3
v 3 0.6 -0.75
vt 0.75 0.6
vt 0.75 0.63
vt 0.375 0.63
f 8/37/7 12/38/7 24/39/7 25/40/7 26/41/7 27/42/7 28/43/7 29/44/7 30/45/7 23/46/7 22/47/7 6/11/7 

usemtl Grass
v 3 0.55 -3
vn 1 -2.62513e-015 4.23521e-014
vt 2.625 8.50707e-015
vt 3 8.77779e-015
f 31/34/8 24/39/8 12/48/8 11/49/8 

v 6.93035e-014 0.55 -3
vt 6.93035e-014 3
vt 5.77529e-014 2.625
vt 3 2.625
vt 3 3
f 32/50/2 21/51/2 24/52/2 31/53/2 

vt -3 9.02389e-016
vn -1 0 -2.31012e-014
vt -3 0.55
f 10/54/9 9/21/9 21/30/9 32/55/9 

vn -1.63633e-014 0 -1
vt -1.18393e-013 9.02389e-016
vt -1.18393e-013 0.55
f 11/54/10 10/56/10 32/57/10 31/55/10 

usemtl Stone
vt -9.818e-014 0.63
vn -1.54008e-014 0 -1
vt -3 0.63
vt -9.818e-014 0.55
f 20/58/11 25/59/11 24/55/11 21/60/11 

vt 3 2.25
vt 5.19776e-014 2.25
f 26/61/2 25/52/2 20/51/2 19/62/2 

vt 8.88648e-014 0.6
vn 1.63943e-014 0 1
vt 3 0.6
vt 8.88648e-014 0.63
f 18/63/12 27/64/12 26/31/12 19/65/12 

usemtl Asphalt
f 27/61/2 18/62/2 15/35/2 30/36/2 

vn -1 9.62549e-015 1.54008e-014
f 18/27/13 17/26/13 16/25/13 15/24/13 

usemtl Stone
vt -3 0.6
vn -1.63943e-014 0 -1
vt -8.15992e-014 0.6
vt -8.15992e-014 0.63
f 30/66/14 15/67/14 14/68/14 23/59/14 

usemtl Asphalt
vn 1 -1.9251e-014 -1.54008e-014
f 30/45/15 29/44/15 28/43/15 27/42/15 

usemtl Grass
vn 1.6243e-014 -1.11873e-030 1
vt 3 -3.63432e-045
f 4/4/16 7/69/16 5/34/16 1/1/16 

