# Alias OBJ Model File
# Exported from SketchUp, (c) 2000-2012 Trimble Navigation Limited
# File units = meters

mtllib roadTile_103.mtl

g Mesh1 Group1 Model

usemtl Grey_Asphalt
v 3 0.57 -1.875
vt -3 0.57
vn 2.10735e-008 1.9251e-013 -1
v 1.73259e-014 1.67 -1.875
vt 3.95128e-008 1.67
v 0 1.73 -1.875
vt 3.95128e-008 1.73
v 3 0.63 -1.875
vt -3 0.63
f 1/1/1 2/2/1 3/3/1 4/4/1 

vt 1.875 0.574905
vn 0.344255 0.938876 1.05283e-014
vt 1.875 -2.6204
v 3 0.57 -2.0625
vt 2.0625 -2.6204
v 0 1.67 -2.0625
vt 2.0625 0.574905
f 2/5/2 1/6/2 5/7/2 6/8/2 

usemtl Stone
v 3 0.63 -3
vt 3 0.63
vn 1 3.17283e-014 -1.31007e-014
v 3 0.63 -2.0625
vt 2.0625 0.63
vt 2.0625 0.57
vt 1.875 0.57
vt 1.875 0.63
v 3 0.63 -1.125
vt 1.125 0.63
v 3 0.57 -1.125
vt 1.125 0.57
v 3 0.57 -0.9375
vt 0.9375 0.57
v 3 0.63 -0.9375
vt 0.9375 0.63
v 3 0.63 -9.24047e-014
vt 5.31027e-014 0.63
v 3 0 -9.24047e-014
vt 5.31027e-014 -9.51848e-014
v 3 0 -3
vt 3 -9.51848e-014
f 7/9/3 8/10/3 5/11/3 1/12/3 4/13/3 9/14/3 10/15/3 11/16/3 12/17/3 13/18/3 14/19/3 15/20/3 

v 0 1.73 -3
vt 3 0.595561
vn 0.344255 0.938876 -2.24083e-015
v 0 1.73 -2.0625
vt 2.0625 0.595561
vt 2.0625 -2.59975
vt 3 -2.59975
f 16/21/4 17/22/4 8/23/4 7/24/4 

v 1.73259e-014 1.73 -0
vt 2.31312e-028 1.73
vn -1 1.66388e-015 1.33507e-014
v 1.73259e-014 1.73 -0.9375
vt -0.9375 1.73
v 3.46517e-014 1.67 -0.9375
vt -0.9375 1.67
v 1.15506e-014 1.67 -1.125
vt -1.125 1.67
v 1.15506e-014 1.73 -1.125
vt -1.125 1.73
vt -1.875 1.73
vt -1.875 1.67
vt -2.0625 1.67
vt -2.0625 1.73
vt -3 1.73
v 0 0 -3
vt -3 6.66418e-029
v 3.46517e-014 0 -0
vt 4.62624e-028 5.76564e-029
f 18/25/5 19/26/5 20/27/5 21/28/5 22/29/5 3/30/5 2/31/5 6/32/5 17/33/5 16/34/5 23/35/5 24/36/5 

vt 2.88145e-014 -2.59975
vn 0.344255 0.938876 -7.29707e-015
vt 0.9375 -2.59975
vt 0.9375 0.595561
vt -3.67252e-028 0.595561
f 13/37/6 12/38/6 19/39/6 18/40/6 

usemtl Grey_Asphalt
vn -1.20639e-013 -1.9251e-013 -1
vt -1.47751e-013 1.67
vt -1.30425e-013 1.73
f 11/1/7 20/41/7 19/42/7 12/4/7 

vt 0.9375 0.574905
vn 0.344255 0.938876 -3.45399e-014
vt 0.9375 -2.6204
vt 1.125 -2.6204
vt 1.125 0.574905
f 20/43/8 11/44/8 10/45/8 21/46/8 

vt -2.37077e-008 1.67
vn -2.10735e-008 -3.85019e-013 1
vt 3 0.57
vt -2.37077e-008 1.73
f 21/47/9 10/48/9 9/9/9 22/49/9 

usemtl Stone
vt 1.125 -2.59975
vn 0.344255 0.938876 -4.63987e-015
vt 1.875 -2.59975
vt 1.875 0.595561
vt 1.125 0.595561
f 9/50/10 4/51/10 3/52/10 22/53/10 

vt 1.73259e-014 1.73
vn 1.87571e-014 -6.63175e-015 1
vt 3.46517e-014 4.31041e-042
vt 3 -2.39628e-028
f 18/54/11 24/55/11 14/56/11 13/9/11 

vt -3 9.24047e-014
vn 1.20638e-033 -1 -1.33118e-033
vt -3.46517e-014 -5.56475e-080
vt 0 3
vt -3 3
f 14/57/12 24/58/12 23/59/12 15/60/12 

vn -1.73132e-014 6.63175e-015 -1
vt -3 -1.98953e-014
vt -5.19397e-014 -1.98953e-014
vt -5.19397e-014 1.73
f 7/4/13 15/61/13 23/62/13 16/63/13 

usemtl Grey_Asphalt
vt -2.27643e-013 1.67
vn -1.10372e-013 -3.85019e-013 1
vt -2.27643e-013 1.73
f 6/64/14 5/48/14 8/9/14 17/65/14 

