# Alias OBJ Model File
# Exported from SketchUp, (c) 2000-2012 Trimble Navigation Limited
# File units = meters

mtllib roadTile_120.mtl

g Mesh1 Group1 Model

usemtl Stone
v 0 0.63 -2.625
vt -0.636656 0.63
vn -0.242536 2.241e-017 -0.970143
v 1.5 0.63 -3
vt -2.18282 0.63
vn -0.122183 1.12896e-017 -0.992508
v 1.5 9.02389e-016 -3
vt -2.18282 8.45319e-016
v 0 1.44382e-015 -2.625
vt -0.636656 1.38675e-015
f 1/1/1 2/2/2 3/3/2 4/4/1 

v 3 0.63 -3
vt 3 3
vn 8.02124e-017 1 8.02124e-017
vt 1.5 3
vt -5.05338e-017 2.625
v 3.46517e-014 0.63 -2.25
vt 3.46012e-014 2.25
v 3 0.63 -2.25
vt 3 2.25
f 5/5/3 2/6/3 1/7/3 6/8/3 7/9/3 

v 3 9.02389e-016 -3
vt -3 9.02389e-016
vn -3.08016e-014 0 -1
vt -1.5 9.02389e-016
vt -1.5 0.63
vt -3 0.63
f 8/10/4 3/11/2 2/12/2 5/13/4 

v 3 0 -4.62023e-014
vt -3 4.62023e-014
vn -2.40637e-016 -1 -1.70207e-016
v 1.5 9.02389e-016 -0
vt -1.5 2.1503e-031
v 1.15506e-014 9.02389e-016 -0.375
vt -1.15506e-014 0.375
vt 3.47437e-031 2.625
vt -1.5 3
vt -3 3
f 9/14/5 10/15/5 11/16/5 4/17/5 3/18/5 8/19/5 

v 1.5 0.63 -0
vt 1.5 0.63
vn -0.122183 9.77629e-030 0.992508
vt 1.5 9.02389e-016
vt 3 5.97931e-044
vn 3.08016e-014 -1.29416e-030 1
v 3 0.63 -4.62023e-014
vt 3 0.63
f 12/20/6 10/21/6 9/22/7 13/23/7 

vt 1.45521 0.63
v 1.15506e-014 0.63 -0.375
vt -0.0909509 0.63
vn -0.242536 2.07003e-029 0.970143
vt -0.0909509 9.02389e-016
vt 1.45521 9.02389e-016
f 12/24/6 14/25/8 11/26/8 10/27/6 

v 5.19776e-014 0.63 -0.75
vt 5.19776e-014 0.75
vn 0 1 -0
vt 1.15506e-014 0.375
vt 1.5 0
vt 3 4.62023e-014
v 3 0.63 -0.75
vt 3 0.75
f 15/28/9 14/29/9 12/30/9 13/31/9 16/32/9 

vt -2.625 1.44382e-015
vn -1 2.9027e-014 9.24047e-015
vt -0.375 9.02389e-016
vt -0.375 0.63
vt -0.75 0.63
v 5.19776e-014 0.6 -0.75
vt -0.75 0.6
v 5.19776e-014 0.3 -0.75
vt -0.75 0.3
v 2.31012e-014 0.3 -2.25
vt -2.25 0.3
v 3.46517e-014 0.6 -2.25
vt -2.25 0.6
vt -2.25 0.63
vt -2.625 0.63
f 4/33/10 11/34/10 14/35/10 15/36/10 17/37/10 18/38/10 19/39/10 20/40/10 6/41/10 1/42/10 

v 3 0.6 -0.75
vt -3 0.6
vn -1.63943e-014 0 -1
vt -6.42733e-014 0.6
vt -6.42733e-014 0.63
f 21/43/11 17/44/11 15/45/11 16/13/11 

usemtl Asphalt
v 3 0.6 -2.25
vt 3.46517e-014 2.25
f 22/9/9 20/46/9 17/28/9 21/32/9 

usemtl Stone
vt 7.15389e-014 0.6
vn 1.63943e-014 0 1
vt 3 0.6
vt 7.15389e-014 0.63
f 20/47/12 22/48/12 7/23/12 6/49/12 

vt 5.19367e-015 0.63
vn 1 -3.13365e-015 -1.36696e-014
vt 5.19367e-015 9.40095e-015
vt 3 1.03033e-014
vt 2.25 0.63
vt 2.25 0.6
v 3 0.3 -2.25
vt 2.25 0.3
v 3 0.3 -0.75
vt 0.75 0.3
vt 0.75 0.6
vt 0.75 0.63
f 13/50/13 9/51/13 8/52/13 5/23/13 7/53/13 22/54/13 23/55/13 24/56/13 21/57/13 16/58/13 

usemtl Asphalt
vn 1 -1.9251e-014 -1.54008e-014
f 21/57/14 24/56/14 23/55/14 22/54/14 

vn -1 9.62549e-015 1.54008e-014
f 20/40/15 19/39/15 18/38/15 17/37/15 

