# Alias OBJ Model File
# Exported from SketchUp, (c) 2000-2012 Trimble Navigation Limited
# File units = meters

mtllib roadTile_116.mtl

g Mesh1 Group1 Model

usemtl Stone
v 0.73421 2.06467e-013 -0.0481227
vt 0.735785 2.06467e-013
vn 0.130526 5.232e-014 0.991445
v 0.73421 0.63 -0.0481227
vt 0.735785 0.63
v 3.9965e-012 0.63 -0
vt 3.98794e-012 0.63
vn 0.0654031 1.03724e-013 0.997859
v 5.99475e-012 7.21911e-016 -0
vt 5.98192e-012 7.21911e-016
f 1/1/1 2/2/1 3/3/2 4/4/2 

v 1.45586 2.05023e-013 -0.191667
vt 1.46528 2.04956e-013
vn 0.258819 6.12096e-016 0.965926
v 1.45586 0.63 -0.191667
vt 1.46528 0.63
vt 0.72949 0.63
vt 0.72949 2.064e-013
f 5/5/3 6/6/3 2/7/1 1/8/1 

v 2.15259 2.0394e-013 -0.428178
vt 2.17599 2.03788e-013
vn 0.382683 4.45545e-016 0.92388
v 2.15259 0.63 -0.428178
vt 2.17599 0.63
vt 1.4402 0.63
vt 1.4402 2.04871e-013
f 7/9/4 8/10/4 6/11/3 5/12/3 

v 2.8125 2.02496e-013 -0.753607
vt 2.85577 2.02292e-013
vn 0.5 1.80506e-016 0.866025
v 2.8125 0.63 -0.753607
vt 2.85577 0.63
vt 2.11998 0.63
vt 2.11998 2.03736e-013
f 9/13/5 10/14/5 8/15/4 7/16/4 

v 3 2.88765e-015 -0.878891
vt 2.98269 2.8867e-015
vn 0.55557 1.01162e-018 0.83147
v 3 0.63 -0.878891
vt 2.98269 0.63
vt 2.75719 0.63
vt 2.75719 2.02495e-013
f 11/17/6 12/18/6 10/19/5 9/20/5 

vt 0.878891 -7.51918e-012
vn 1 2.50736e-012 6.18392e-012
v 3 0 -2.625
vt 2.625 -7.52207e-012
v 3 0.3 -2.625
vt 2.625 0.3
v 3 0.3 -1.32893
vt 1.32893 0.3
v 3 0.6 -1.32893
vt 1.32893 0.6
v 3 0.63 -1.32893
vt 1.32893 0.63
vt 0.878891 0.63
f 11/21/7 13/22/7 14/23/7 15/24/7 16/25/7 17/26/7 12/27/7 

vt -3 2.625
vn 8.48933e-017 -1 4.79339e-017
vt -3 0.878891
vt -2.8125 0.753607
vt -2.15259 0.428178
vt -1.45586 0.191667
vt -0.73421 0.0481227
vt -5.99475e-012 -3.4604e-032
v 7.93525e-012 7.21911e-016 -2.625
vt -7.93525e-012 2.625
f 13/28/8 11/29/8 9/30/8 7/31/8 5/32/8 1/33/8 4/34/8 18/35/8 

vt -2.625 7.21911e-016
vn -1 -6.65172e-012 -1.33249e-012
vt -7.98794e-024 7.21911e-016
vt -5.32529e-024 0.63
v 0 0.63 -0.375
vt -0.375 0.63
v 0 0.6 -0.375
vt -0.375 0.6
v 1.99825e-012 0.3 -0.375
vt -0.375 0.3
v 7.93525e-012 0.3 -2.625
vt -2.625 0.3
f 18/36/9 4/37/9 3/38/9 19/39/9 20/40/9 21/41/9 22/42/9 

vt -1.86513e-015 0.375
vn 2.96053e-015 1 6.95453e-015
vt 3.99464e-012 4.38135e-015
vt 0.73421 0.0481227
vt 1.45586 0.191667
vt 2.15259 0.428178
vt 2.8125 0.753607
vt 3 0.878891
vt 3 1.32893
v 2.625 0.63 -1.07837
vt 2.625 1.07837
v 2.00909 0.63 -0.774632
vt 2.00909 0.774632
v 1.3588 0.63 -0.553889
vt 1.3588 0.553889
v 0.685263 0.63 -0.419914
vt 0.685263 0.419914
f 19/43/10 3/44/10 2/45/10 6/46/10 8/47/10 10/48/10 12/49/10 17/50/10 23/51/10 24/52/10 25/53/10 26/54/10 

vt -3.23272 0.6
vn -0.55557 7.42726e-015 -0.83147
v 2.625 0.6 -1.07837
vt -2.78172 0.6
vn -0.5 7.50306e-015 -0.866025
vt -2.78172 0.63
vt -3.23272 0.63
f 16/55/11 27/56/12 23/57/12 17/58/11 

usemtl Asphalt
v 7.93525e-012 0.6 -2.625
vt 7.93519e-012 2.625
vn 9.22753e-017 1 -3.75417e-016
vt -5.53652e-017 0.375
v 0.685263 0.6 -0.419914
v 1.3588 0.6 -0.553889
v 2.00909 0.6 -0.774632
v 3 0.6 -2.625
vt 3 2.625
f 28/59/13 20/60/13 29/54/13 30/53/13 31/52/13 27/51/13 16/50/13 32/61/13 

vt -2.625 0.6
vn -1 -3.33042e-012 -3.08272e-012
f 28/62/14 22/42/14 21/41/14 20/40/14 

vt -3 0.6
vn -7.45122e-009 -1.33427e-026 -1
vt -3 0.3
vt -1.95674e-008 0.3
vt -1.95674e-008 0.6
f 32/63/15 14/64/15 22/65/15 28/66/15 

vt 2.625 0.6
vn 1 1.59653e-027 8.04756e-012
f 32/67/16 16/25/16 15/24/16 14/23/16 

usemtl Stone
vt -1.95674e-008 7.21911e-016
vn -7.45122e-009 -1.35335e-026 -1
vt -3 3.55255e-026
f 18/68/17 22/65/17 14/64/17 13/69/17 

vt -0.711259 0.6
vn -0.130526 7.28146e-015 -0.991445
vt -0.0245262 0.6
vn -0.0654031 7.13327e-015 -0.997859
vt -0.0245262 0.63
vt -0.711259 0.63
f 29/70/18 20/71/19 19/72/19 26/73/18 

vt -1.44075 0.6
vn -0.258819 7.4838e-015 -0.965926
vt -0.754017 0.6
vt -0.754017 0.63
vt -1.44075 0.63
f 30/74/20 29/75/18 26/76/18 25/77/20 

vt -2.15146 0.6
vn -0.382683 7.55809e-015 -0.92388
vt -1.46473 0.6
vt -1.46473 0.63
vt -2.15146 0.63
f 31/78/21 30/79/20 25/80/20 24/81/21 

vt -2.83124 0.6
vt -2.14451 0.6
vt -2.14451 0.63
vt -2.83124 0.63
f 27/82/12 31/83/21 24/84/21 23/85/12 

