# Alias OBJ Model File
# Exported from SketchUp, (c) 2000-2012 Trimble Navigation Limited
# File units = meters

mtllib roadTile_112.mtl

g Mesh1 Group1 Model

usemtl Stone
v 0.228286 0.63 -2.70249
vt -1.95351 0.63
vn -0.608761 3.11277e-016 -0.793353
v 0.265165 0.63 -2.73483
vt -2.00256 0.63
vn -0.707107 3.59731e-016 -0.707107
v 0.265165 0 -2.73483
vt -2.00256 -6.32545e-016
v 0.228286 0 -2.70249
vt -1.95351 -6.32545e-016
f 1/1/1 2/2/2 3/3/2 4/4/1 

v 0.75 0.63 -3
vt 0.75 3
vn 7.65528e-016 1 1.52928e-016
v 0.375 0.63 -3
vt 0.375 3
v 0.371792 0.63 -2.95105
vt 0.371792 2.95105
v 0.362222 0.63 -2.90294
vt 0.362222 2.90294
v 0.346455 0.63 -2.85649
vt 0.346455 2.85649
v 0.32476 0.63 -2.8125
vt 0.32476 2.8125
v 0.297508 0.63 -2.77171
vt 0.297508 2.77171
vt 0.265165 2.73483
vt 0.228286 2.70249
v 0.1875 0.63 -2.67524
vt 0.1875 2.67524
v 0.143506 0.63 -2.65355
vt 0.143506 2.65355
v 0.0970571 0.63 -2.63778
vt 0.0970571 2.63778
v 0.0489473 0.63 -2.62821
vt 0.0489473 2.62821
v 1.24746e-012 0.63 -2.625
vt 1.24698e-012 2.625
v 0 0.63 -2.25
vt -4.82283e-016 2.25
v 0.0978946 0.63 -2.25642
vt 0.0978946 2.25642
v 0.194114 0.63 -2.27556
vt 0.194114 2.27556
v 0.287013 0.63 -2.30709
vt 0.287013 2.30709
v 0.375 0.63 -2.35048
vt 0.375 2.35048
v 0.456571 0.63 -2.40498
vt 0.456571 2.40498
v 0.53033 0.63 -2.46967
vt 0.53033 2.46967
v 0.595015 0.63 -2.54343
vt 0.595015 2.54343
v 0.649519 0.63 -2.625
vt 0.649519 2.625
v 0.69291 0.63 -2.71299
vt 0.69291 2.71299
v 0.724444 0.63 -2.80589
vt 0.724444 2.80589
v 0.743584 0.63 -2.90211
vt 0.743584 2.90211
f 5/5/3 6/6/3 7/7/3 8/8/3 9/9/3 10/10/3 11/11/3 2/12/3 1/13/3 12/14/3 13/15/3 14/16/3 15/17/3 16/18/3 17/19/3 18/20/3 19/21/3 20/22/3 21/23/3 22/24/3 23/25/3 24/26/3 25/27/3 26/28/3 27/29/3 28/30/3 

v 3 3.60956e-016 -3
vt -3 -6.48985e-012
vn -4.66182e-013 2.1634e-012 -1
v 0.375 3.60956e-016 -3
vt -0.375 -6.48985e-012
vt -0.375 0.63
vt -0.75 0.63
v 0.75 0.6 -3
vt -0.75 0.6
v 0.75 0.3 -3
vt -0.75 0.3
v 3 0.3 -3
vt -3 0.3
f 29/31/4 30/32/4 6/33/4 5/34/4 31/35/4 32/36/4 33/37/4 

v 3 3.60956e-016 -9.24047e-014
vt -3 9.24047e-014
vn 0 -1 -0
v 2.54113e-012 3.60956e-016 -0
vt -2.54113e-012 0
v 1.87119e-012 3.60956e-016 -2.625
vt -1.87119e-012 2.625
v 0.0489473 3.60956e-016 -2.62821
vt -0.0489473 2.62821
v 0.0970571 0 -2.63778
vt -0.0970571 2.63778
v 0.143506 0 -2.65355
vt -0.143506 2.65355
v 0.1875 0 -2.67524
vt -0.1875 2.67524
vt -0.228286 2.70249
vt -0.265165 2.73483
v 0.297508 0 -2.77171
vt -0.297508 2.77171
v 0.32476 0 -2.8125
vt -0.32476 2.8125
v 0.346455 0 -2.85649
vt -0.346455 2.85649
v 0.362222 0 -2.90294
vt -0.362222 2.90294
v 0.371792 0 -2.95105
vt -0.371792 2.95105
vt -0.375 3
vt -3 3
f 34/38/5 35/39/5 36/40/5 37/41/5 38/42/5 39/43/5 40/44/5 4/45/5 3/46/5 41/47/5 42/48/5 43/49/5 44/50/5 45/51/5 30/52/5 29/53/5 

vt 3 3.60956e-016
vn 3.08016e-014 -1.34651e-029 1
v 3 0.3 -9.24047e-014
vt 3 0.3
v 2.54113e-012 0.3 -0
vt 2.54113e-012 0.3
vt 2.54113e-012 3.60956e-016
f 34/54/6 46/55/6 47/56/6 35/57/6 

vn 1 0 -1.73259e-014
vt 4.0427e-014 0.3
vt 4.0427e-014 3.60956e-016
f 29/54/7 33/55/7 46/58/7 34/59/7 

usemtl Asphalt
v 3 0.6 -9.24047e-014
vt 4.0427e-014 0.6
vn 1 -2.89531e-030 -1.73259e-014
v 3 0.6 -3
vt 3 0.6
f 48/60/8 46/58/8 33/55/8 49/61/8 

v 2.54113e-012 0.6 -0
vt 2.54113e-012 0.6
vn 3.08016e-014 -1.52934e-029 1
f 50/62/9 47/56/9 46/55/9 48/61/9 

v 0 0.6 -2.25
vt -2.25 0.6
vn -1 -1.03955e-012 9.9335e-013
v 6.23731e-013 0.3 -2.25
vt -2.25 0.3
vt 2.52423e-024 0.3
vt 2.52423e-024 0.6
f 51/63/10 52/64/10 47/65/10 50/66/10 

usemtl Stone
vt -2.625 0.63
vn -1 -2.08374e-012 4.41363e-013
vt -2.625 3.60956e-016
vt 1.12156e-024 3.60956e-016
vt 1.12156e-024 0.3
vt -2.25 0.63
f 16/67/11 36/68/11 35/69/11 47/70/11 52/64/11 51/63/11 17/71/11 

vt -0.171683 0.63
vn -0.0654031 -3.23763e-014 -0.997859
vt -0.220736 0.63
vn -0.130526 -1.61698e-014 -0.991445
vt -0.220736 8.51668e-014
vt -0.171683 8.51668e-014
f 16/72/12 15/73/13 37/74/13 36/75/12 

vt -0.560745 0.63
vt -0.609797 0.63
vn -0.258819 1.37712e-016 -0.965926
vt -0.609797 -2.72128e-016
vt -0.560745 8.8828e-017
f 15/76/13 14/77/14 38/78/14 37/79/13 

vt -0.939792 0.63
vt -0.988845 0.63
vn -0.382683 1.99309e-016 -0.92388
vt -0.988845 -4.16539e-016
vt -0.939792 -4.16539e-016
f 14/80/14 13/81/15 39/82/15 38/83/14 

vt -1.30234 0.63
vt -1.35139 0.63
vn -0.5 2.57496e-016 -0.866025
vt -1.35139 -5.30211e-016
vt -1.30234 -5.30211e-016
f 13/84/15 12/85/16 40/86/16 39/87/15 

vt -1.64218 0.63
vt -1.69124 0.63
vt -1.69124 -6.04252e-016
vt -1.64218 -6.04252e-016
f 12/88/16 1/89/1 4/90/1 40/91/16 

vt 0.147157 0.6
vn 0.0654031 -5.51651e-017 0.997859
v 0.0978946 0.6 -2.25642
vt 0.245262 0.6
vn 0.130526 -9.504e-017 0.991445
vt 0.245262 0.63
vt 0.147157 0.63
f 51/92/17 53/93/18 18/94/18 17/95/17 

usemtl Asphalt
vt 3 3
vn 1.58704e-016 1 -8.22034e-017
v 0.743584 0.6 -2.90211
v 0.724444 0.6 -2.80589
v 0.69291 0.6 -2.71299
v 0.649519 0.6 -2.625
v 0.595015 0.6 -2.54343
v 0.53033 0.6 -2.46967
v 0.456571 0.6 -2.40498
v 0.375 0.6 -2.35048
v 0.287013 0.6 -2.30709
v 0.194114 0.6 -2.27556
vt -9.52226e-017 2.25
vt 2.54103e-012 -4.9322e-017
vt 3 9.23553e-014
f 49/96/19 31/5/19 54/30/19 55/29/19 56/28/19 57/27/19 58/26/19 59/25/19 60/24/19 61/23/19 62/22/19 63/21/19 53/20/19 51/97/19 50/98/19 48/99/19 

vt -3 0.6
vn -1.03699e-012 1.07805e-012 -1
f 49/100/20 33/37/20 32/36/20 31/35/20 

usemtl Stone
vt 2.94452 0.6
vn 0.991445 -6.10497e-016 0.130526
vt 3.04263 0.6
vn 0.997859 -6.13454e-016 0.0654031
vt 3.04263 0.63
vt 2.94452 0.63
f 54/101/21 31/102/22 5/103/22 28/104/21 

vt 2.8933 0.6
vn 0.965926 -5.96765e-016 0.258819
vt 2.99141 0.6
vt 2.99141 0.63
vt 2.8933 0.63
f 55/105/23 54/106/21 28/107/21 27/108/23 

vt 2.79174 0.6
vn 0.92388 -5.72823e-016 0.382683
vt 2.88984 0.6
vt 2.88984 0.63
vt 2.79174 0.63
f 56/109/24 55/110/23 27/111/23 26/112/24 

vt 2.64157 0.6
vn 0.866025 -5.39079e-016 0.5
vt 2.73967 0.6
vt 2.73967 0.63
vt 2.64157 0.63
f 57/113/25 56/114/24 26/115/24 25/116/25 

vt 2.44536 0.6
vn 0.793353 -4.96111e-016 0.608761
vt 2.54346 0.6
vt 2.54346 0.63
vt 2.44536 0.63
f 58/117/26 57/118/25 25/119/25 24/120/26 

vt 2.20647 0.6
vn 0.707107 -4.44655e-016 0.707107
vt 2.30457 0.6
vt 2.30457 0.63
vt 2.20647 0.63
f 59/121/27 58/122/26 24/123/26 23/124/27 

vt 1.92899 0.6
vn 0.608761 -3.85591e-016 0.793353
vt 2.02709 0.6
vt 2.02709 0.63
vt 1.92899 0.63
f 60/125/28 59/126/27 23/127/27 22/128/28 

vt 1.61766 0.6
vn 0.5 -3.19929e-016 0.866025
vt 1.71576 0.6
vt 1.71576 0.63
vt 1.61766 0.63
f 61/129/29 60/130/28 22/131/28 21/132/29 

vt 1.27781 0.6
vn 0.382683 -2.48793e-016 0.92388
vt 1.37592 0.6
vt 1.37592 0.63
vt 1.27781 0.63
f 62/133/30 61/134/29 21/135/29 20/136/30 

vt 0.915266 0.6
vn 0.258819 -1.734e-016 0.965926
vt 1.01337 0.6
vt 1.01337 0.63
vt 0.915266 0.63
f 63/137/31 62/138/30 20/139/30 19/140/31 

vt 0.536219 0.6
vt 0.634323 0.6
vt 0.634323 0.63
vt 0.536219 0.63
f 53/141/18 63/142/31 19/143/31 18/144/18 

vt -2.23099 0.63
vt -2.28005 0.63
vn -0.793353 4.02031e-016 -0.608761
vt -2.28005 -6.12184e-016
vt -2.23099 -6.12184e-016
f 2/145/2 11/146/32 41/147/32 3/148/2 

vt -2.46988 0.63
vt -2.51894 0.63
vn -0.866025 4.37452e-016 -0.5
vt -2.51894 -5.43686e-016
vt -2.46988 -5.43686e-016
f 11/149/32 10/150/33 42/151/33 41/152/32 

vt -2.66609 0.63
vt -2.71514 0.63
vn -0.92388 4.65388e-016 -0.382683
vt -2.71514 -4.30977e-016
vt -2.66609 -4.30977e-016
f 10/153/33 9/154/34 43/155/34 42/156/33 

vt -2.81626 0.63
vt -2.86532 0.63
vn -0.965926 4.85361e-016 -0.258819
vt -2.86532 -2.81131e-016
vt -2.81626 -2.81131e-016
f 9/157/34 8/158/35 44/159/35 43/160/34 

vt -2.91783 0.63
vt -2.96688 0.63
vn -0.991445 1.70704e-014 -0.130526
vt -2.96688 -1.03901e-016
vt -2.91783 -1.03901e-016
f 8/161/35 7/162/36 45/163/36 44/164/35 

vt -2.96905 0.63
vt -3.0181 0.63
vn -0.997859 3.35754e-014 -0.0654031
vt -3.0181 6.33697e-015
vt -2.96905 5.97601e-015
f 7/165/36 6/166/37 30/167/37 45/168/36 

