# Alias OBJ Model File
# Exported from SketchUp, (c) 2000-2012 Trimble Navigation Limited
# File units = meters

mtllib roadTile_185.mtl

g Mesh1 Group1 Model

usemtl Water
v 2.25915 0.455 -2.90314
vt 2.25915 2.90314
vn -4.00666e-016 1 4.33076e-016
v 2.25 0.455 -3
vt 2.25 3
v 0.75 0.455 -3
vt 0.75 3
v 0.756827 0.455 -2.70191
vt 0.756827 2.70191
v 0.804783 0.455 -2.40763
vt 0.804783 2.40763
v 0.892946 0.455 -2.12279
vt 0.892946 2.12279
v 1.01963 0.455 -1.85287
vt 1.01963 1.85287
v 1.18239 0.455 -1.60305
vt 1.18239 1.60305
v 1.37812 0.455 -1.37812
vt 1.37812 1.37812
v 1.60305 0.455 -1.18239
vt 1.60305 1.18239
v 1.85287 0.455 -1.01963
vt 1.85287 1.01963
v 2.12279 0.455 -0.892946
vt 2.12279 0.892946
v 2.40763 0.455 -0.804783
vt 2.40763 0.804783
v 2.70191 0.455 -0.756827
vt 2.70191 0.756827
v 3 0.455 -0.75
vt 3 0.75
v 3 0.455 -2.25
vt 3 2.25
v 2.90314 0.455 -2.25915
vt 2.90314 2.25915
v 2.80819 0.455 -2.28037
vt 2.80819 2.28037
v 2.71665 0.455 -2.31332
vt 2.71665 2.31332
v 2.62996 0.455 -2.35748
vt 2.62996 2.35748
v 2.54949 0.455 -2.41217
vt 2.54949 2.41217
v 2.47651 0.455 -2.47651
vt 2.47651 2.47651
v 2.41217 0.455 -2.54949
vt 2.41217 2.54949
v 2.35748 0.455 -2.62996
vt 2.35748 2.62996
v 2.31332 0.455 -2.71665
vt 2.31332 2.71665
v 2.28037 0.455 -2.80819
vt 2.28037 2.80819
f 1/1/1 2/2/1 3/3/1 4/4/1 5/5/1 6/6/1 7/7/1 8/8/1 9/9/1 10/10/1 11/11/1 12/12/1 13/13/1 14/14/1 15/15/1 16/16/1 17/17/1 18/18/1 19/19/1 20/20/1 21/21/1 22/22/1 23/23/1 24/24/1 25/25/1 26/26/1 

usemtl Grass
vt -2.77515 0.455
vn -0.99557 2.38051e-015 0.0940266
vt -2.67786 0.455
vn -0.9877 2.4995e-015 0.156361
v 2.25915 0.55 -2.90314
vt -2.67786 0.55
v 2.25 0.55 -3
vt -2.77515 0.55
f 2/27/2 1/28/3 27/29/3 28/30/2 

vt -2.34059 0.455
vt -2.2433 0.455
vn -0.96031 2.70746e-015 0.278934
v 2.28037 0.55 -2.80819
vt -2.2433 0.55
vt -2.34059 0.55
f 1/31/3 26/32/4 29/33/4 27/34/3 

vt -1.86989 0.455
vt -1.77259 0.455
vn -0.917772 2.8727e-015 0.397107
v 2.31332 0.55 -2.71665
vt -1.77259 0.55
vt -1.86989 0.55
f 26/35/4 25/36/5 30/37/5 29/38/4 

vt -1.37045 0.455
vt -1.27316 0.455
vn -0.860757 2.99263e-015 0.509016
v 2.35748 0.55 -2.62996
vt -1.27316 0.55
vt -1.37045 0.55
f 25/39/5 24/40/6 31/41/6 30/42/5 

vt -0.850161 0.455
vt -0.752869 0.455
vn -0.790164 3.06535e-015 0.612895
v 2.41217 0.55 -2.54949
vt -0.752869 0.55
vt -0.850161 0.55
f 24/43/6 23/44/7 32/45/7 31/46/6 

vt -0.31723 0.455
vt -0.219938 0.455
vn -0.707107 3.08972e-015 0.707107
v 2.47651 0.55 -2.47651
vt -0.219938 0.55
vt -0.31723 0.55
f 23/47/7 22/48/8 33/49/8 32/50/7 

vt 0.219938 0.455
vt 0.31723 0.455
vn -0.612895 3.06535e-015 0.790164
v 2.54949 0.55 -2.41217
vt 0.31723 0.55
vt 0.219938 0.55
f 22/51/8 21/52/9 34/53/9 33/54/8 

vt 0.752869 0.455
vt 0.850161 0.455
vn -0.509016 2.99263e-015 0.860757
v 2.62996 0.55 -2.35748
vt 0.850161 0.55
vt 0.752869 0.55
f 21/55/9 20/56/10 35/57/10 34/58/9 

vt 1.27316 0.455
vt 1.37045 0.455
vn -0.397107 2.8727e-015 0.917772
v 2.71665 0.55 -2.31332
vt 1.37045 0.55
vt 1.27316 0.55
f 20/59/10 19/60/11 36/61/11 35/62/10 

vt 1.77259 0.455
vt 1.86989 0.455
vn -0.278934 2.70746e-015 0.96031
v 2.80819 0.55 -2.28037
vt 1.86989 0.55
vt 1.77259 0.55
f 19/63/11 18/64/12 37/65/12 36/66/11 

vt 2.2433 0.455
vt 2.34059 0.455
vn -0.156361 2.4995e-015 0.9877
v 2.90314 0.55 -2.25915
vt 2.34059 0.55
vt 2.2433 0.55
f 18/67/12 17/68/13 38/69/13 37/70/12 

vt 2.67786 0.455
vt 2.77515 0.455
vn -0.0940266 2.38051e-015 0.99557
v 3 0.55 -2.25
vt 2.77515 0.55
vt 2.67786 0.55
f 17/71/13 16/72/14 39/73/14 38/74/13 

vt 2.25 0.55
vn 1 -4.58356e-015 2.5668e-015
vt 2.25 0.455
v 3 1.80478e-016 -2.25
vt 2.25 1.39312e-014
v 3 0 -3
vt 3 1.37507e-014
v 3 0.55 -3
vt 3 0.55
f 39/75/15 16/76/15 40/77/15 41/78/15 42/79/15 

usemtl Water
v 3 7.21911e-016 -0.75
vt 0.75 1.6573e-013
vn 1 -5.50028e-014 8.96713e-030
vt 2.25 1.65189e-013
vt 0.75 0.455
f 43/80/16 40/81/16 16/76/16 15/82/16 

usemtl Grass
v 2.25 1.80478e-016 -3
vt -2.25 3
vn 1.16272e-016 -1 1.79896e-016
vt -3 3
vt -3 2.25
vt -3 0.75
v 3 1.08287e-015 -0
vt -3 -1.32053e-031
v 5.77529e-015 1.80478e-016 -0
vt -5.77529e-015 -3.24673e-032
v 0 1.80478e-016 -3
vt -2.09846e-032 3
v 0.75 1.80478e-016 -3
vt -0.75 3
f 44/83/17 41/84/17 40/85/17 43/86/17 45/87/17 46/88/17 47/89/17 48/90/17 

vt -3 4.2799e-013
vn 2.9839e-014 -1.42663e-013 -1
vt -2.25 4.28171e-013
vt -2.25 0.455
vt -2.25 0.55
vt -3 0.55
f 41/91/18 44/92/18 2/93/18 28/94/18 42/95/18 

usemtl Water
vt -2.25 4.10132e-012
vn 5.22183e-014 -1.36705e-012 -1
vt -0.75 4.10132e-012
vt -0.75 0.455
f 44/96/19 48/97/19 3/98/19 2/93/19 

usemtl Grass
v 0.75 0.55 -3
vt -0.75 0.55
vn -1.71274e-012 -6.47287e-013 -1
vt -0.75 1.94204e-012
vt -5.13821e-012 1.94204e-012
v 0 0.55 -3
vt -5.13821e-012 0.55
f 49/99/20 3/98/20 48/100/20 47/101/20 50/102/20 

vt 2.68387 0.455
vn 0.995751 3.5296e-016 -0.0920874
vt 2.98204 0.455
vn 0.999738 3.30854e-016 -0.022898
vt 2.98204 0.55
v 0.756827 0.55 -2.70191
vt 2.68387 0.55
f 4/103/21 3/104/22 49/105/22 51/106/21 

v 5.77529e-015 0.55 -0
vt 5.89313e-015 8.94136e-017
vn -2.14244e-016 1 1.6257e-016
v 3 0.55 -0
vt 3 8.94136e-017
v 3 0.55 -0.75
v 2.70191 0.55 -0.756827
v 2.40763 0.55 -0.804783
v 2.12279 0.55 -0.892946
v 1.85287 0.55 -1.01963
v 1.60305 0.55 -1.18239
v 1.37812 0.55 -1.37812
v 1.18239 0.55 -1.60305
v 1.01963 0.55 -1.85287
v 0.892946 0.55 -2.12279
v 0.804783 0.55 -2.40763
vt 1.17834e-016 3
f 52/107/23 53/108/23 54/15/23 55/14/23 56/13/23 57/12/23 58/11/23 59/10/23 60/9/23 61/8/23 62/7/23 63/6/23 64/5/23 51/4/23 49/3/23 50/109/23 

vt 5.77529e-015 1.80478e-016
vn 1.84889e-032 -2.10007e-017 1
vt 3 1.08287e-015
vt 5.77529e-015 0.55
f 46/110/24 45/111/24 53/79/24 52/112/24 

vt 2.14148e-013 8.33651e-014
vn 1 -2.74274e-014 7.13827e-014
vt 0.75 8.30041e-014
vt 0.75 0.55
vt 2.14148e-013 0.55
f 45/113/25 43/114/25 15/82/25 54/115/25 53/116/25 

vt -2.98204 0.455
vn 0.022898 3.45431e-016 -0.999738
vt -2.68387 0.455
vn 0.0920874 3.66445e-016 -0.995751
vt -2.68387 0.55
vt -2.98204 0.55
f 15/117/26 14/118/27 55/119/27 54/120/26 

vt -2.54501 0.455
vt -2.24684 0.455
vn 0.228809 4.03099e-016 -0.973471
vt -2.24684 0.55
vt -2.54501 0.55
f 14/121/27 13/122/28 56/123/28 55/124/27 

vt -2.06201 0.455
vt -1.76384 0.455
vn 0.36114 4.32019e-016 -0.932512
vt -1.76384 0.55
vt -2.06201 0.55
f 13/125/28 12/126/29 57/127/29 56/128/28 

vt -1.5423 0.455
vt -1.24413 0.455
vn 0.486541 4.52649e-016 -0.873658
vt -1.24413 0.55
vt -1.5423 0.55
f 12/129/29 11/130/30 58/131/30 57/132/29 

vt -0.995851 0.455
vt -0.697684 0.455
vn 0.602606 4.64592e-016 -0.798039
vt -0.697684 0.55
vt -0.995851 0.55
f 11/133/30 10/134/31 59/135/31 58/136/30 

vt -0.433156 0.455
vt -0.134989 0.455
vn 0.707107 4.67621e-016 -0.707107
vt -0.134989 0.55
vt -0.433156 0.55
f 10/137/31 9/138/32 60/139/32 59/140/31 

vt 0.134989 0.455
vt 0.433156 0.455
vn 0.798039 4.61676e-016 -0.602606
vt 0.433156 0.55
vt 0.134989 0.55
f 9/141/32 8/142/33 61/143/33 60/144/32 

vt 0.697684 0.455
vt 0.995851 0.455
vn 0.873658 4.46872e-016 -0.486541
vt 0.995851 0.55
vt 0.697684 0.55
f 8/145/33 7/146/34 62/147/34 61/148/33 

vt 1.24413 0.455
vt 1.5423 0.455
vn 0.932512 4.23493e-016 -0.36114
vt 1.5423 0.55
vt 1.24413 0.55
f 7/149/34 6/150/35 63/151/35 62/152/34 

vt 1.76384 0.455
vt 2.06201 0.455
vn 0.973471 3.91988e-016 -0.228809
vt 2.06201 0.55
vt 1.76384 0.55
f 6/153/35 5/154/36 64/155/36 63/156/35 

vt 2.24684 0.455
vt 2.54501 0.455
vt 2.54501 0.55
vt 2.24684 0.55
f 5/157/36 4/158/21 51/159/21 64/160/36 

vt -3 1.80478e-016
vn -1 -6.50022e-017 1.84889e-032
vt 1.06779e-046 1.80478e-016
vt 1.06779e-046 0.55
f 47/161/37 46/162/37 52/163/37 50/95/37 

vn -6.38492e-016 1 6.38492e-016
vt 3 3
f 39/16/38 42/164/38 28/2/38 27/1/38 29/26/38 30/25/38 31/24/38 32/23/38 33/22/38 34/21/38 35/20/38 36/19/38 37/18/38 38/17/38 

