# Alias OBJ Model File
# Exported from SketchUp, (c) 2000-2012 Trimble Navigation Limited
# File units = meters

mtllib roadTile_200.mtl

g Mesh1 Group1 Model

usemtl Asphalt
v 3 1.7 -2.25
vt 3 2.25
vn 0 1 -0
v 4.98119e-014 1.7 -2.25
vt 4.98119e-014 2.25
v 9.16828e-014 1.7 -0.75
vt 9.16828e-014 0.75
v 3 1.7 -0.75
vt 3 0.75
f 1/1/1 2/2/1 3/3/1 4/4/1 

usemtl Stone
vt 8.6699e-014 1.7
vn 1.63943e-014 0 1
vt 3 1.7
v 3 1.73 -2.25
vt 3 1.73
v 4.98119e-014 1.73 -2.25
vt 8.6699e-014 1.73
f 2/5/2 1/6/2 5/7/2 6/8/2 

v 3 1.73 -8.37417e-014
vt 1.11536e-013 1.73
vn 1 3.69684e-015 9.26466e-015
v 3 3.03203e-014 -8.37417e-014
vt 1.11536e-013 1.92298e-014
v 3 3.14031e-014 -3
vt 3 2.03126e-014
v 3 1.73 -3
vt 2.25 1.73
vt 2.25 1.7
v 3 1.4 -2.25
vt 2.25 1.4
v 3 1.4 -0.75
vt 0.75 1.4
vt 0.75 1.7
v 3 1.73 -0.75
vt 0.75 1.73
f 7/9/3 8/10/3 9/11/3 10/7/3 5/12/3 1/13/3 11/14/3 12/15/3 4/16/3 13/17/3 

v 0 1.73 -0
vt 0 1.73
vn 2.40445e-014 -1.07819e-014 1
v 0 1.1 -0
vt 0 1.1
v 2.37 1.1 -7.3635e-014
vt 2.37 1.1
v 2.37 0 -7.3635e-014
vt 2.37 -1.79511e-028
vt 3 3.03203e-014
f 14/18/4 15/19/4 16/20/4 17/21/4 8/22/4 7/7/4 

v 7.21911e-014 1.73 -3
vt -3 1.73
vn -1 2.60992e-014 -8.40042e-015
v 7.21911e-014 1.1 -3
vt -3 1.1
v 9.16828e-014 1.73 -0.75
vt -0.75 1.73
vt -0.75 1.7
v 9.16828e-014 1.4 -0.75
vt -0.75 1.4
v 4.98119e-014 1.4 -2.25
vt -2.25 1.4
vt -2.25 1.7
vt -2.25 1.73
f 18/23/5 19/24/5 15/19/5 14/18/5 20/25/5 3/26/5 21/27/5 22/28/5 2/29/5 6/30/5 

v 2.37 3.14031e-014 -3
vt -2.37 6.66916e-014
vn -3.6428e-014 -1.17628e-014 -1
v 2.37 1.1 -3
vt -2.37 1.1
vt -1.81475e-013 1.1
vt -1.81475e-013 1.73
vt -3 6.66916e-014
f 23/31/6 24/32/6 19/33/6 18/34/6 10/23/6 9/35/6 

vn -1 1.05005e-014 1.15506e-014
vt -3 5.62894e-014
vt -4.62601e-014 2.48863e-014
vt -4.62601e-014 1.1
f 24/24/7 23/36/7 17/37/7 16/38/7 

vt -3 8.37417e-014
vn 2.41418e-014 -1 -5.43074e-015
vt -2.37 7.3635e-014
vt -2.37 3
vt -3 3
f 8/39/8 17/40/8 23/41/8 9/42/8 

vt -6.49873e-014 3
vn -6.54899e-015 -1 -5.29402e-015
vt -2.37 7.94584e-014
vt 7.20388e-015 5.82342e-015
f 19/43/9 24/41/9 16/44/9 15/45/9 

vt 3 3
vt 7.21911e-014 3
f 5/1/1 10/46/1 18/47/1 6/2/1 

vt 0 0
vt 3 8.37417e-014
f 20/3/1 14/48/1 7/49/1 13/4/1 

vt -3 1.7
vn -1.63943e-014 0 -1
vt -1.03978e-013 1.7
vt -1.03978e-013 1.73
f 4/50/10 3/51/10 20/52/10 13/23/10 

usemtl Asphalt
vn -1 9.62549e-015 1.54008e-014
f 2/29/11 22/28/11 21/27/11 3/26/11 

vn 1 -1.9251e-014 -1.54008e-014
f 4/16/12 12/15/12 11/14/12 1/13/12 

