# Alias OBJ Model File
# Exported from SketchUp, (c) 2000-2012 Trimble Navigation Limited
# File units = meters

mtllib roadTile_128.mtl

g Mesh1 Group1 Model

usemtl Stone
v 2.31514 0.63 -0.892522
vt -2.42083 0.63
vn -0.608761 -1.78726e-017 -0.793353
v 2.4375 0.63 -0.974279
vt -2.56799 0.63
vn -0.5 2.92456e-018 -0.866025
v 2.4375 0.6 -0.974279
vt -2.56799 0.6
v 2.31514 0.6 -0.892522
vt -2.42083 0.6
f 1/1/1 2/2/2 3/3/2 4/4/1 

v 2.10748 0.63 -0.684857
vt 2.10748 0.684857
vn -4.04056e-016 1 4.8035e-017
v 2.02572 0.63 -0.5625
vt 2.02572 0.5625
v 1.96064 0.63 -0.430519
vt 1.96064 0.430519
v 1.91333 0.63 -0.291171
vt 1.91333 0.291171
v 1.88462 0.63 -0.146842
vt 1.88462 0.146842
v 1.875 0.63 -0
vt 1.875 3.02621e-017
v 2.4375 0.63 -0
vt 2.4375 3.02621e-017
v 2.44231 0.63 -0.073421
vt 2.44231 0.073421
v 2.45667 0.63 -0.145586
vt 2.45667 0.145586
v 2.48032 0.63 -0.215259
vt 2.48032 0.215259
v 2.51286 0.63 -0.28125
vt 2.51286 0.28125
v 2.55374 0.63 -0.342428
vt 2.55374 0.342428
v 2.60225 0.63 -0.397748
vt 2.60225 0.397748
v 2.65757 0.63 -0.446261
vt 2.65757 0.446261
v 2.71875 0.63 -0.487139
vt 2.71875 0.487139
v 2.78474 0.63 -0.519682
vt 2.78474 0.519682
v 2.85441 0.63 -0.543333
vt 2.85441 0.543333
v 2.92658 0.63 -0.557688
vt 2.92658 0.557688
v 3 0.63 -0.5625
vt 3 0.5625
v 3 0.63 -1.125
vt 3 1.125
v 2.85316 0.63 -1.11538
vt 2.85316 1.11538
v 2.70883 0.63 -1.08667
vt 2.70883 1.08667
v 2.56948 0.63 -1.03936
vt 2.56948 1.03936
vt 2.4375 0.974279
vt 2.31514 0.892522
v 2.2045 0.63 -0.795495
vt 2.2045 0.795495
f 5/5/3 6/6/3 7/7/3 8/8/3 9/9/3 10/10/3 11/11/3 12/12/3 13/13/3 14/14/3 15/15/3 16/16/3 17/17/3 18/18/3 19/19/3 20/20/3 21/21/3 22/22/3 23/23/3 24/24/3 25/25/3 26/26/3 27/27/3 2/28/3 1/29/3 28/30/3 

vt -1.59313 0.63
vn -0.866025 0 -0.5
vt -1.74029 0.63
vn -0.793353 -2.42444e-017 -0.608761
v 2.10748 0.6 -0.684857
vt -1.74029 0.6
v 2.02572 0.6 -0.5625
vt -1.59313 0.6
f 6/31/4 5/32/5 29/33/5 30/34/4 

vt -1.90446 0.63
vt -2.05162 0.63
vn -0.707107 -3.8364e-017 -0.707107
v 2.2045 0.6 -0.795495
vt -2.05162 0.6
vt -1.90446 0.6
f 5/35/5 28/36/6 31/37/6 29/38/5 

vt -2.18194 0.63
vt -2.3291 0.63
vt -2.3291 0.6
vt -2.18194 0.6
f 28/39/6 1/40/1 4/41/1 31/42/6 

usemtl Asphalt
v 3 0.6 -1.125
vn 6.59876e-017 1 6.44028e-017
v 3 0.6 -1.875
vt 3 1.875
v 0 0.6 -1.875
vt -3.95925e-017 1.875
v 0 0.6 -1.125
vt -3.95925e-017 1.125
v 1.50149 0.6 -1.125
vt 1.50149 1.125
v 1.3762 0.6 -0.9375
vt 1.3762 0.9375
v 1.26773 0.6 -0.717531
vt 1.26773 0.717531
v 1.18889 0.6 -0.485286
vt 1.18889 0.485286
v 1.14104 0.6 -0.244737
vt 1.14104 0.244737
v 1.125 0.6 -0
vt 1.125 3.86417e-017
v 1.875 0.6 -0
vt 1.875 3.86417e-017
v 1.88462 0.6 -0.146842
v 1.91333 0.6 -0.291171
v 1.96064 0.6 -0.430519
v 2.56948 0.6 -1.03936
v 2.70883 0.6 -1.08667
v 2.85316 0.6 -1.11538
f 32/24/7 33/43/7 34/44/7 35/45/7 36/46/7 37/47/7 38/48/7 39/49/7 40/50/7 41/51/7 42/52/7 43/9/7 44/8/7 45/7/7 30/6/7 29/5/7 31/30/7 4/29/7 3/28/7 46/27/7 47/26/7 48/25/7 

vt 1.125 0.6
vn 1 -9.62549e-015 3.85019e-015
v 3 0.3 -1.125
vt 1.125 0.3
v 3 0.3 -1.875
vt 1.875 0.3
vt 1.875 0.6
f 32/53/8 49/54/8 50/55/8 33/56/8 

usemtl Stone
v 3 3.60956e-016 -0.5625
vt 0.5625 2.9137e-014
vn 1 -9.59203e-015 2.2356e-015
v 3 3.60956e-016 -2.4375
vt 2.4375 2.9137e-014
v 3 0.63 -2.4375
vt 2.4375 0.63
v 3 0.63 -1.875
vt 1.875 0.63
vt 1.125 0.63
vt 0.5625 0.63
f 51/57/9 52/58/9 53/59/9 54/60/9 33/56/9 50/55/9 49/54/9 32/53/9 24/61/9 23/62/9 

vt -3 2.4375
vn -9.58198e-017 -1 -7.32165e-017
vt -3 0.5625
v 2.92658 0 -0.557688
vt -2.92658 0.557688
v 2.85441 0 -0.543333
vt -2.85441 0.543333
v 2.78474 0 -0.519682
vt -2.78474 0.519682
v 2.71875 0 -0.487139
vt -2.71875 0.487139
v 2.65757 0 -0.446261
vt -2.65757 0.446261
v 2.60225 0 -0.397748
vt -2.60225 0.397748
v 2.55374 0 -0.342428
vt -2.55374 0.342428
v 2.51286 0 -0.28125
vt -2.51286 0.28125
v 2.48032 0 -0.215259
vt -2.48032 0.215259
v 2.45667 0 -0.145586
vt -2.45667 0.145586
v 2.44231 0 -0.073421
vt -2.44231 0.073421
v 2.4375 3.60956e-016 -0
vt -2.4375 4.35284e-032
v 0.5625 3.60956e-016 -0
vt -0.5625 3.03742e-032
v 0.583353 4.69242e-015 -0.318158
vt -0.583353 0.318158
v 0.631956 4.69242e-015 -0.5625
vt -0.631956 0.5625
v 0 3.60956e-016 -0.5625
vt 3.45867e-032 0.5625
v 0 3.60956e-016 -2.4375
vt 3.45867e-032 2.4375
f 52/63/10 51/64/10 55/65/10 56/66/10 57/67/10 58/68/10 59/69/10 60/70/10 61/71/10 62/72/10 63/73/10 64/74/10 65/75/10 66/76/10 67/77/10 68/78/10 69/79/10 70/80/10 71/81/10 

vt 3.03037 0.63
vn 0.0654031 -1.05229e-019 0.997859
vt 2.95679 0.63
vn 0.130526 -1.5024e-016 0.991445
vt 2.95679 -3.84176e-020
vt 3.03037 3.60917e-016
f 23/82/11 22/83/12 55/84/12 51/85/11 

vt 2.97915 0.63
vt 2.90557 0.63
vn 0.258819 -2.78268e-016 0.965926
vt 2.90557 7.18617e-018
vt 2.97915 7.18617e-018
f 22/86/12 21/87/13 56/88/13 55/89/12 

vt 2.87758 0.63
vt 2.804 0.63
vn 0.382683 -2.31863e-016 0.92388
vt 2.804 1.03018e-016
vt 2.87758 1.03018e-016
f 21/90/13 20/91/14 57/92/14 56/93/13 

vt 2.72741 0.63
vt 2.65383 0.63
vn 0.5 -1.8149e-016 0.866025
vt 2.65383 1.58565e-016
vt 2.72741 1.58565e-016
f 20/94/14 19/95/15 58/96/15 57/97/14 

vt 2.5312 0.63
vt 2.45762 0.63
vn 0.608761 -1.28012e-016 0.793353
vt 2.45762 1.71432e-016
vt 2.5312 1.71432e-016
f 19/98/15 18/99/16 59/100/16 58/101/15 

vt 2.29231 0.63
vt 2.21873 0.63
vn 0.707107 -7.23443e-017 0.707107
vt 2.21873 1.42231e-016
vt 2.29231 1.42231e-016
f 18/102/16 17/103/17 60/104/17 59/105/16 

vt 2.01483 0.63
vt 1.94125 0.63
vn 0.793353 -1.54384e-017 0.608761
vt 1.94125 7.45214e-017
vt 2.01483 7.45214e-017
f 17/106/17 16/107/18 61/108/18 60/109/17 

vt 1.7035 0.63
vt 1.62992 0.63
vn 0.866025 4.17317e-017 0.5
vt 1.62992 -2.54685e-017
vt 1.7035 -2.54685e-017
f 16/110/18 15/111/19 62/112/19 61/113/18 

vt 1.36366 0.63
vt 1.29008 0.63
vn 0.92388 9.81878e-017 0.382683
vt 1.29008 -1.49286e-016
vt 1.36366 -1.49286e-016
f 15/114/19 14/115/20 63/116/20 62/117/19 

vt 1.00111 0.63
vt 0.927529 0.63
vn 0.965926 1.52964e-016 0.258819
vt 0.927529 -2.86864e-016
vt 1.00111 -2.86864e-016
f 14/118/20 13/119/21 64/120/21 63/121/20 

vt 0.62206 0.63
vt 0.548482 0.63
vn 0.991445 9.00427e-017 0.130526
vt 0.548482 -4.27227e-016
vt 0.62206 -4.27227e-016
f 13/122/21 12/123/22 65/124/22 64/125/21 

vt 0.232999 0.63
vt 0.15942 0.63
vn 0.997859 2.72469e-019 0.0654031
vt 0.15942 3.60293e-016
vt 0.232999 -6.62722e-019
f 12/126/22 11/127/23 66/128/23 65/129/22 

v 0.5625 0.63 -0
vn 0 0 1
vt 0.5625 3.60956e-016
vt 2.4375 3.60956e-016
v 1.875 0.3 -0
v 1.125 0.3 -0
v 1.125 0.63 -0
f 72/62/24 67/130/24 66/131/24 11/59/24 10/60/24 42/56/24 73/55/24 74/54/24 41/53/24 75/61/24 

vt -0.0367893 0.63
vn -0.997859 -9.39522e-019 -0.0654031
v 0.583353 0.63 -0.318158
vt -0.35563 0.63
vn -0.991445 2.24252e-016 -0.130526
vt -0.35563 4.6919e-015
vt -0.0367893 3.60428e-016
f 72/132/25 76/133/26 68/134/26 67/135/25 

v 0 0.63 -0.5625
vt 4.4266e-017 0.5625
vn -7.02635e-017 1 1.73632e-016
v 0.631956 0.63 -0.5625
vt 0.631956 0.5625
vt 0.583353 0.318158
vt 0.5625 1.09388e-016
vt 1.125 1.09388e-016
v 1.14104 0.63 -0.244737
v 1.18889 0.63 -0.485286
v 1.2151 0.63 -0.5625
vt 1.2151 0.5625
v 1.26773 0.63 -0.717531
v 1.3762 0.63 -0.9375
v 1.50149 0.63 -1.125
v 0 0.63 -1.125
vt 4.4266e-017 1.125
f 77/136/27 78/137/27 76/138/27 72/139/27 75/140/27 79/50/27 80/49/27 81/141/27 82/48/27 83/47/27 84/46/27 85/142/27 

vt 0.631956 0.63
vt 0 0.63
vt 0 3.60956e-016
vt 0.631956 4.69242e-015
f 78/143/24 77/144/24 70/145/24 69/146/24 

v 0 0.63 -2.4375
vt -2.4375 0.63
vn -1 0 -0
vt -2.4375 3.60956e-016
vt -0.5625 3.60956e-016
vt -0.5625 0.63
vt -1.125 0.63
vt -1.125 0.6
v 0 0.3 -1.125
vt -1.125 0.3
v 0 0.3 -1.875
vt -1.875 0.3
vt -1.875 0.6
v 0 0.63 -1.875
vt -1.875 0.63
f 86/147/28 71/148/28 70/149/28 77/150/28 85/151/28 35/152/28 87/153/28 88/154/28 34/155/28 89/156/28 

vn 0 0 -1
vt -3 0.63
vt -3 3.60956e-016
f 86/144/29 53/157/29 52/158/29 71/145/29 

vn 0 1 -0
vt 3 2.4375
vt 0 2.4375
vt 0 1.875
f 54/43/30 53/159/30 86/160/30 89/161/30 

vt 3 0.63
vt 0 0.6
vt 3 0.6
f 54/162/24 89/144/24 34/163/24 33/164/24 

vt -1.50149 0.63
vt -1.50149 0.6
f 85/144/29 84/165/29 36/166/29 35/163/29 

vt 1.54408 0.6
vn 0.866025 6.24681e-018 0.5
vt 1.76958 0.6
vn 0.83147 -7.35157e-017 0.55557
vt 1.76958 0.63
vt 1.54408 0.63
f 37/167/31 36/168/32 84/169/32 83/170/31 

vt 1.4495 0.63
vt 1.20424 0.63
vn 0.92388 1.66289e-015 0.382683
vt 1.20424 0.6
vt 1.4495 0.6
f 83/171/31 82/172/33 38/173/33 37/174/31 

vt 0.923229 0.63
vn 0.94693 3.23268e-015 0.321439
vt 0.841688 0.63
vn 0.965926 1.6788e-015 0.258819
vt 0.841688 0.6
vt 1.08695 0.6
vt 1.08695 0.63
f 81/175/34 80/176/35 39/177/35 38/178/33 82/179/33 

vt 0.707902 0.63
vt 0.46264 0.63
vn 0.991445 1.24475e-016 0.130526
vt 0.46264 0.6
vt 0.707902 0.6
f 80/180/35 79/181/36 40/182/36 39/183/35 

vt 0.31884 0.63
vt 0.0735785 0.63
vn 0.997859 1.30697e-016 0.0654031
vt 0.0735785 0.6
vt 0.31884 0.6
f 79/184/36 75/185/37 41/186/37 40/187/36 

usemtl Asphalt
f 34/155/28 88/154/28 87/153/28 35/152/28 

usemtl Stone
vt -0.425851 0.63
vt -0.67498 0.63
vn -0.980785 4.48484e-016 -0.19509
vt -0.67498 4.92118e-015
vt -0.425851 4.92118e-015
f 76/188/26 78/189/38 69/190/38 68/191/26 

vt -0.122631 0.63
vn -0.997859 -1.30697e-016 -0.0654031
vt -0.269788 0.63
vn -0.991445 -1.24475e-016 -0.130526
vt -0.269788 0.6
vt -0.122631 0.6
f 10/192/39 9/193/40 43/194/40 42/195/39 

vt -0.511692 0.63
vt -0.658849 0.63
vn -0.965926 -1.10462e-016 -0.258819
vt -0.658849 0.6
vt -0.511692 0.6
f 9/196/40 8/197/41 44/198/41 43/199/40 

vt -0.89074 0.63
vt -1.0379 0.63
vn -0.92388 -5.14755e-017 -0.382683
vt -1.0379 0.6
vt -0.89074 0.6
f 8/200/41 7/201/42 45/202/42 44/203/41 

vt -1.25329 0.63
vt -1.40044 0.63
vt -1.40044 0.6
vt -1.25329 0.6
f 7/204/42 6/205/4 30/206/4 45/207/42 

usemtl Asphalt
f 41/53/24 74/54/24 73/55/24 42/56/24 

usemtl Stone
vt -2.92 0.63
vn -0.130526 6.36028e-017 -0.991445
vt -3.06716 0.63
vn -0.0654031 7.30095e-017 -0.997859
vt -3.06716 0.6
vt -2.92 0.6
f 25/208/43 24/209/44 32/210/44 48/211/43 

vt -2.86878 0.63
vn -0.258819 4.40138e-017 -0.965926
vt -3.01593 0.63
vt -3.01593 0.6
vt -2.86878 0.6
f 26/212/45 25/213/43 48/214/43 47/215/45 

vt -2.76721 0.63
vn -0.382683 2.36717e-017 -0.92388
vt -2.91437 0.63
vt -2.91437 0.6
vt -2.76721 0.6
f 27/216/46 26/217/45 47/218/45 46/219/46 

vt -2.61704 0.63
vt -2.7642 0.63
vt -2.7642 0.6
vt -2.61704 0.6
f 2/220/2 27/221/46 46/222/46 3/223/2 

