# Alias OBJ Model File
# Exported from SketchUp, (c) 2000-2012 Trimble Navigation Limited
# File units = meters

mtllib roadTile_115.mtl

g Mesh1 Group1 Model

usemtl Asphalt
v 1.04302e-011 0.6 -1.74611
vt -1.74611 0.6
vn -1 -7.19661e-028 -8.04756e-012
v 1.04302e-011 0.3 -1.74611
vt -1.74611 0.3
v 0 0.3 -0.450043
vt -0.450043 0.3
v 0 0.6 -0.450043
vt -0.450043 0.6
f 1/1/1 2/2/1 3/3/1 4/4/1 

v 1.29607 0.6 -1.74611
vt -1.29607 0.6
vn -3.56481e-014 -3.54554e-031 -1
v 1.29607 0.3 -1.74611
vt -1.29607 0.3
vt -1.04924e-011 0.3
vt -1.04924e-011 0.6
f 5/5/2 6/6/2 2/7/2 1/8/2 

usemtl Stone
v 1.74611 3.61858e-013 -1.74611
vt -1.74611 3.53353e-013
vn -3.92684e-014 4.87074e-015 -1
v 1.04302e-011 0 -1.74611
vt -1.04987e-011 -8.50485e-015
vt -1.04987e-011 0.3
v 1.29607 0.63 -1.74611
vt -1.29607 0.63
v 1.74611 0.63 -1.74611
vt -1.74611 0.63
f 7/9/3 8/10/3 2/11/3 6/6/3 5/5/3 9/12/3 10/13/3 

vt -1.04302e-011 1.74611
vn 2.75071e-014 -1 -2.73119e-014
vt -1.74611 1.74611
v 1.46261 3.56083e-013 -1.32183
vt -1.46261 1.32183
v 0.977476 3.56083e-013 -0.768634
vt -0.977476 0.768634
v 0.424283 3.5897e-013 -0.283497
vt -0.424283 0.283497
v 1.15506e-014 3.42908e-015 -0
vt -1.15506e-014 9.36546e-029
f 8/14/4 7/15/4 11/16/4 12/17/4 13/18/4 14/19/4 

vt 2.42192 3.61848e-013
vn 0.83147 2.05872e-017 0.55557
vt 2.42192 0.63
v 1.46261 0.63 -1.32183
vt 1.91164 0.63
vn 0.793353 1.28376e-015 0.608761
vt 1.91164 3.56073e-013
f 7/20/5 10/21/5 15/22/6 11/23/6 

v 0 0.63 -0.450043
vt -8.21084e-015 0.450043
vn 1.30331e-014 1 1.24782e-014
v 1.15506e-014 0.63 -0
vt 3.33974e-015 7.86127e-015
v 0.424283 0.63 -0.283497
vt 0.424283 0.283497
v 0.977476 0.63 -0.768634
vt 0.977476 0.768634
vt 1.46261 1.32183
vt 1.74611 1.74611
vt 1.29607 1.74611
v 1.16511 0.63 -1.55011
vt 1.16511 1.55011
v 0.712311 0.63 -1.0338
vt 0.712311 1.0338
v 0.195998 0.63 -0.581004
vt 0.195998 0.581004
f 16/24/7 17/25/7 18/26/7 19/27/7 15/28/7 10/29/7 9/30/7 20/31/7 21/32/7 22/33/7 

vt -1.74611 9.2178e-025
vn -1 -2.50736e-012 -6.18392e-012
vt -7.14279e-026 3.42908e-015
vt -7.14279e-026 0.63
vt -0.450043 0.63
f 8/34/8 14/35/8 17/36/8 16/37/8 4/4/8 3/3/8 2/2/8 

vt 0.510281 3.5897e-013
vn 0.608761 1.16644e-015 0.793353
vt 0.510281 0.63
vt 9.60396e-015 0.63
vn 0.55557 -6.48582e-018 0.83147
vt 9.60396e-015 3.42908e-015
f 13/38/9 18/39/9 17/40/10 14/41/10 

vt 1.2417 3.55927e-013
vn 0.707107 2.44313e-015 0.707107
vt 1.2417 0.63
vt 0.505915 0.63
vt 0.505915 3.58815e-013
f 12/42/11 19/43/11 18/44/9 13/45/9 

vt 1.95817 3.55503e-013
vt 1.95817 0.63
vt 1.22238 0.63
vt 1.22238 3.55503e-013
f 11/46/6 15/47/6 19/48/11 12/49/11 

v 0.195998 0.6 -0.581004
vt -0.485755 0.6
vn -0.608761 1.78337e-014 -0.793353
vt -0.25003 0.6
vn -0.55557 1.7616e-014 -0.83147
vt -0.25003 0.63
vt -0.485755 0.63
f 23/50/12 4/51/13 16/52/13 22/53/12 

usemtl Asphalt
vt 1.04305e-011 1.74611
vn -4.85429e-016 1 -7.30841e-016
vt 2.91257e-016 0.450043
v 0.712311 0.6 -1.0338
v 1.16511 0.6 -1.55011
f 1/54/14 4/55/14 23/33/14 24/32/14 25/31/14 5/30/14 

usemtl Stone
vt -1.21717 0.6
vn -0.707107 1.80392e-014 -0.707107
vt -0.530442 0.6
vt -0.530442 0.63
vt -1.21717 0.63
f 24/56/15 23/57/12 22/58/12 21/59/15 

vt -1.93364 0.6
vn -0.793353 1.79361e-014 -0.608761
vt -1.24691 0.6
vt -1.24691 0.63
vt -1.93364 0.63
f 25/60/16 24/61/15 21/62/15 20/63/16 

vt -2.17189 0.6
vn -0.83147 1.77691e-014 -0.55557
vt -1.93617 0.6
vt -1.93617 0.63
vt -2.17189 0.63
f 5/64/17 25/65/16 20/66/16 9/67/17 

