# Alias OBJ Model File
# Exported from SketchUp, (c) 2000-2012 Trimble Navigation Limited
# File units = meters

mtllib roadTile_271.mtl

g Mesh1 Group1 Model

usemtl Asphalt
v 3 0.6 -1.125
vt 1.125 0.6
vn 1 0 3.69779e-032
v 3 0.3 -1.125
vt 1.125 0.3
v 3 0.3 -1.875
vt 1.875 0.3
v 3 0.6 -1.875
vt 1.875 0.6
f 1/1/1 2/2/1 3/3/1 4/4/1 

usemtl Stone
v 3 0 -0
vt 1.10934e-031 0
v 3 0 -3
vt 3 0
v 3 0.63 -3
vt 3 0.63
v 3 0.63 -1.875
vt 1.875 0.63
v 3 0.63 -1.125
vt 1.125 0.63
v 3 0.63 -0
vt 1.10934e-031 0.63
f 5/5/1 6/6/1 7/7/1 8/8/1 4/4/1 3/3/1 2/2/1 1/1/1 9/9/1 10/10/1 

v 2.88765e-015 0 -3
vt -2.88765e-015 3
vn -2.52823e-040 -1 2.38638e-024
vt -3 3
vt -3 -1.81e-063
v 2.88765e-015 0 -5.77529e-015
vt -2.88765e-015 5.77529e-015
f 11/11/2 6/12/2 5/13/2 12/14/2 

vt -3 0.63
vn 1.20319e-016 6.58525e-047 -1
vt -3 -1.97558e-046
vt -2.52669e-015 -1.97558e-046
v 2.88765e-015 0.63 -3
vt -2.52669e-015 0.63
f 7/15/3 6/16/3 11/17/3 13/18/3 

vt -3 1.03555e-030
vn -1 3.64506e-016 -1.55549e-017
vt -5.77529e-015 1.05256e-030
v 2.88765e-015 0.63 -5.77529e-015
vt -5.77529e-015 0.63
v 2.88765e-015 0.63 -1.125
vt -1.125 0.63
v 2.88765e-015 0.6 -1.125
vt -1.125 0.6
v 0 0.3 -1.125
vt -1.125 0.3
v 0 0.3 -1.875
vt -1.875 0.3
v 2.88765e-015 0.6 -1.875
vt -1.875 0.6
v 2.88765e-015 0.63 -1.875
vt -1.875 0.63
f 11/19/4 12/20/4 14/21/4 15/22/4 16/23/4 17/24/4 18/25/4 19/26/4 20/27/4 13/15/4 

vt 2.88765e-015 0.63
vn -3.69779e-032 0 1
vt 2.88765e-015 0
f 14/28/5 12/29/5 5/6/5 10/7/5 

vt 3 -2.27402e-016
vn 4.00741e-032 1 -3.60956e-016
vt 3 1.125
vt 2.88765e-015 1.125
vt 2.88765e-015 5.54789e-015
f 10/30/6 9/31/6 15/32/6 14/33/6 

vt -3 0.6
vn 1.11022e-016 0 -1
vt -2.76275e-015 0.6
vt -2.76275e-015 0.63
f 1/34/7 16/35/7 15/36/7 9/15/7 

usemtl Asphalt
vn 0 1 -0
vt 3 1.875
vt 2.88765e-015 1.875
f 16/32/8 1/31/8 4/37/8 19/38/8 

usemtl Stone
vt 2.67948e-015 0.6
vn -1.11022e-016 0 1
vt 3 0.6
vt 2.67948e-015 0.63
f 19/39/9 4/40/9 8/7/9 20/41/9 

vt 2.88765e-015 3
vt 3 3
f 13/42/8 20/38/8 8/37/8 7/43/8 

usemtl Asphalt
vn -1 4.81274e-015 -3.69779e-032
f 19/26/10 18/25/10 17/24/10 16/23/10 

