# Alias OBJ Model File
# Exported from SketchUp, (c) 2000-2012 Trimble Navigation Limited
# File units = meters

mtllib roadTile_254.mtl

g Mesh1 Group1 Model

usemtl Asphalt
v 4.62023e-014 1.7 -1.875
vt -1.875 1.7
vn -1 9.62549e-015 1.54008e-014
v 4.62023e-014 1.4 -1.875
vt -1.875 1.4
v 5.77529e-014 1.4 -0.375
vt -0.375 1.4
v 5.77529e-014 1.7 -0.375
vt -0.375 1.7
f 1/1/1 2/2/1 3/3/1 4/4/1 

usemtl Stone
v 5.19776e-014 1.73 -2.25
vt -2.25 1.73
vn -1 3.10505e-014 -8.05855e-015
v 5.19776e-014 1.1 -2.25
vt -2.25 1.1
v 4.62023e-014 1.1 -1.875
vt -1.875 1.1
v 1.15506e-014 1.1 -0.375
vt -0.375 1.1
v 0 1.1 -0
vt 0 1.1
v 2.88765e-014 1.73 -0
vt -2.32702e-028 1.73
v 5.77529e-014 1.73 -0.375
vt -0.375 1.73
v 4.62023e-014 1.73 -1.875
vt -1.875 1.73
f 5/5/2 6/6/2 7/7/2 8/8/2 9/9/2 10/10/2 11/11/2 4/4/2 3/3/2 2/2/2 1/1/2 12/12/2 

vt -8.4432e-014 1.73
vn -1.44242e-014 -1.30105e-014 -1
v 3 1.73 -2.25
vt -3 1.73
v 3 0 -2.25
vt -3 2.92736e-014
vt -8.4432e-014 1.1
f 5/13/3 13/14/3 14/15/3 6/16/3 

v 3 1.73 -1.875
vt 3 1.875
vn 0 1 -0
vt 3 2.25
vt 5.19776e-014 2.25
vt 4.62023e-014 1.875
f 15/17/4 13/18/4 5/19/4 12/20/4 

v 3 1.80478e-015 -1.875
vt 1.875 -1.16065e-014
vn 1 4.47044e-015 1.20421e-014
vt 2.25 -1.34113e-014
vt 2.25 1.73
vt 1.875 1.73
v 3 1.7 -1.875
vt 1.875 1.7
v 3 1.4 -1.875
vt 1.875 1.4
v 3 1.4 -0.375
vt 0.375 1.4
v 3 1.7 -0.375
vt 0.375 1.7
v 3 1.73 -0.375
vt 0.375 1.73
v 3 1.73 -6.93035e-014
vt 1.0543e-013 1.73
v 3 1.08287e-015 -6.93035e-014
vt 1.0543e-013 -1.23285e-014
v 3 1.26334e-015 -0.375
vt 0.375 -1.2148e-014
v 3 1.1 -0.375
vt 0.375 1.1
v 3 1.1 -1.875
vt 1.875 1.1
f 16/21/5 14/22/5 13/23/5 15/24/5 17/25/5 18/26/5 19/27/5 20/28/5 21/29/5 22/30/5 23/31/5 24/32/5 25/33/5 26/34/5 

vt -1.875 0.37868
vn -0.344255 -0.938876 -2.21994e-014
vt -2.25 0.37868
vt -2.25 -2.81663
vt -1.875 -2.81663
f 7/35/6 6/36/6 14/37/6 16/38/6 

vt 7.86883e-014 1.1
vn 1.73259e-014 1.31257e-015 1
vt 3 4.26584e-015
vt 3 1.1
f 7/39/7 16/40/7 26/41/7

vt -3 0.375
vn -1.50398e-016 -1 6.01593e-017
vt -1.13851e-014 0.375
vt -4.60369e-014 1.875
vt -3 1.875
f 25/42/8 8/43/8 7/44/8 26/45/8 

vt -3 2.24777e-015
vn -1.68446e-014 -2.62513e-015 -1
vt -1.78673e-014 1.1
vt -3 1.1
f 24/46/9 8/47/9 25/48/9

vt -0.375 -2.81663
vn -0.344255 -0.938876 -1.1973e-014
vt -1.73642e-013 -2.81663
vt -2.56474e-030 0.37868
vt -0.375 0.37868
f 24/49/10 23/50/10 9/51/10 8/52/10 

usemtl FrontColor
vt 118.11 68.1102
vn 1.33318e-014 -1.6928e-014 1
vt 1.13687e-012 68.1102
vt 0 43.3071
vt 118.11 4.26326e-014
f 22/53/11 10/54/11 9/55/11 23/56/11 

usemtl Stone
vt 5.77529e-014 0.375
vt 2.88765e-014 0
vt 3 6.93035e-014
vt 3 0.375
f 11/57/4 10/58/4 22/59/4 21/60/4 

vt -3 1.7
vn -1.63943e-014 0 -1
vt -6.39008e-014 1.7
vt -6.39008e-014 1.73
f 20/61/12 4/62/12 11/63/12 21/14/12 

usemtl Asphalt
f 17/17/4 1/20/4 4/57/4 20/60/4 

usemtl Stone
vt 7.69416e-014 1.7
vn 1.63943e-014 0 1
vt 3 1.7
vt 3 1.73
vt 7.69416e-014 1.73
f 1/64/13 17/65/13 15/66/13 12/67/13 

usemtl Asphalt
vn 1 -2.88765e-014 -1.34757e-014
f 20/28/14 19/27/14 18/26/14 17/25/14 

