# Alias OBJ Model File
# Exported from SketchUp, (c) 2000-2012 Trimble Navigation Limited
# File units = meters

mtllib roadTile_028.mtl

g Mesh1 Group1 Model

usemtl Grass
v 4.62023e-014 1.65 -3
vt 4.62023e-014 3
vn 0 1 -0
v 0 1.65 -0
vt 0 0
v 0.391579 1.65 -0.0256654
vt 0.391579 0.0256654
v 0.776457 1.65 -0.102223
vt 0.776457 0.102223
v 1.14805 1.65 -0.228361
vt 1.14805 0.228361
v 1.5 1.65 -0.401924
vt 1.5 0.401924
v 1.82628 1.65 -0.61994
vt 1.82628 0.61994
v 2.12132 1.65 -0.87868
vt 2.12132 0.87868
v 2.38006 1.65 -1.17372
vt 2.38006 1.17372
v 2.59808 1.65 -1.5
vt 2.59808 1.5
v 2.77164 1.65 -1.85195
vt 2.77164 1.85195
v 2.89778 1.65 -2.22354
vt 2.89778 2.22354
v 2.97433 1.65 -2.60842
vt 2.97433 2.60842
v 3 1.65 -3
vt 3 3
f 1/1/1 2/2/1 3/3/1 4/4/1 5/5/1 6/6/1 7/7/1 8/8/1 9/9/1 10/10/1 11/11/1 12/12/1 13/13/1 14/14/1 

v 4.62023e-014 0 -3
vt -3 0
vn -1 0 -1.54008e-014
v 0 0 -0
vt 0 1.65
vt -3 1.65
f 15/15/2 16/2/2 2/16/2 1/17/2 

vt -4.62023e-014 3
vn 0 -1 -0
v 3 0 -3
vt -3 3
v 2.97433 0 -2.60842
vt -2.97433 2.60842
v 2.89778 0 -2.22354
vt -2.89778 2.22354
v 2.77164 0 -1.85195
vt -2.77164 1.85195
v 2.59808 0 -1.5
vt -2.59808 1.5
v 2.38006 0 -1.17372
vt -2.38006 1.17372
v 2.12132 0 -0.87868
vt -2.12132 0.87868
v 1.82628 0 -0.61994
vt -1.82628 0.61994
v 1.5 0 -0.401924
vt -1.5 0.401924
v 1.14805 0 -0.228361
vt -1.14805 0.228361
v 0.776457 0 -0.102223
vt -0.776457 0.102223
v 0.391579 0 -0.0256654
vt -0.391579 0.0256654
f 15/18/3 17/19/3 18/20/3 19/21/3 20/22/3 21/23/3 22/24/3 23/25/3 24/26/3 25/27/3 26/28/3 27/29/3 28/30/3 16/2/3 

vt 5.77529e-015 0
vn 1.73259e-014 0 -1
vt 5.77529e-015 1.65
f 15/31/4 1/32/4 14/17/4 17/15/4 

vt 3.18979 1.65
vn 0.997859 0 0.0654031
vt 2.79737 1.65
vn 0.991445 0 0.130526
vt 2.79737 0
vt 3.18979 0
f 14/33/5 13/34/6 18/35/6 17/36/5 

vt 3.13857 1.65
vt 2.74615 1.65
vn 0.965926 0 0.258819
vt 2.74615 0
vt 3.13857 0
f 13/37/6 12/38/7 19/39/7 18/40/6 

vt 3.037 1.65
vt 2.64458 1.65
vn 0.92388 0 0.382683
vt 2.64458 0
vt 3.037 0
f 12/41/7 11/42/8 20/43/8 19/44/7 

vt 2.88683 1.65
vt 2.49441 1.65
vn 0.866025 0 0.5
vt 2.49441 0
vt 2.88683 0
f 11/45/8 10/46/9 21/47/9 20/48/8 

vt 2.69062 1.65
vt 2.2982 1.65
vn 0.793353 0 0.608761
vt 2.2982 0
vt 2.69062 0
f 10/49/9 9/50/10 22/51/10 21/52/9 

vt 2.45173 1.65
vt 2.05931 1.65
vn 0.707107 0 0.707107
vt 2.05931 0
vt 2.45173 0
f 9/53/10 8/54/11 23/55/11 22/56/10 

vt 2.17425 1.65
vt 1.78183 1.65
vn 0.608761 0 0.793353
vt 1.78183 0
vt 2.17425 0
f 8/57/11 7/58/12 24/59/12 23/60/11 

vt 1.86292 1.65
vt 1.4705 1.65
vn 0.5 0 0.866025
vt 1.4705 0
vt 1.86292 0
f 7/61/12 6/62/13 25/63/13 24/64/12 

vt 1.52308 1.65
vt 1.13066 1.65
vn 0.382683 0 0.92388
vt 1.13066 0
vt 1.52308 0
f 6/65/13 5/66/14 26/67/14 25/68/13 

vt 1.16053 1.65
vt 0.768109 1.65
vn 0.258819 0 0.965926
vt 0.768109 0
vt 1.16053 0
f 5/69/14 4/70/15 27/71/15 26/72/14 

vt 0.78148 1.65
vt 0.389062 1.65
vn 0.130526 0 0.991445
vt 0.389062 0
vt 0.78148 0
f 4/73/15 3/74/16 28/75/16 27/76/15 

vt 0.392419 1.65
vn 0.0654031 0 0.997859
vt 0.392419 0
f 3/77/16 2/16/17 16/2/17 28/78/16 

