# Alias OBJ Model File
# Exported from SketchUp, (c) 2000-2012 Trimble Navigation Limited
# File units = meters

mtllib roadTile_189.mtl

g Mesh1 Group1 Model

usemtl Grass
v 3 0.55 -4.47037e-008
vt 4.47039e-008 -2.62729
vn 0.344255 0.938876 1.8543e-014
v 3 0.55 -0.75
vt 0.75 -2.62729
v 4.47037e-008 1.65 -0.75
vt 0.75 0.56802
v 4.47037e-008 1.65 -0
vt 2.40793e-021 0.56802
f 1/1/1 2/2/1 3/3/1 4/4/1 

v 3 0 -4.47037e-008
vt 3.58671e-008 1.73278e-008
vn 1 -5.77592e-009 -2.94556e-009
v 3 0 -0.75
vt 0.75 1.73278e-008
v 3 0.455 -0.75
vt 0.75 0.455
vt 0.75 0.55
vt 3.58671e-008 0.55
f 5/5/2 6/6/2 7/7/2 2/8/2 1/9/2 

v 8.85264e-010 3.60956e-016 -2.25
vt -8.85264e-010 2.25
vn 1.33118e-033 -1 1.20638e-033
v 0 0 -3
vt 0 3
v 3 0 -3
vt -3 3
v 3 0 -2.25
vt -3 2.25
vt -3 0.75
vt -3 4.47037e-008
v 4.47037e-008 0 -4.909e-014
vt -4.47037e-008 4.909e-014
v 3.74007e-008 9.02389e-017 -0.75
vt -3.74007e-008 0.75
f 8/10/3 9/11/3 10/12/3 11/13/3 6/14/3 5/15/3 12/16/3 13/17/3 

vt -3 1.60596e-015
vn -1 1.521e-008 3.51953e-008
vt -2.25 1.57889e-015
v 4.47037e-008 1.555 -2.25
vt -2.25 1.555
v 4.47037e-008 1.65 -2.25
vt -2.25 1.65
v 0 1.65 -3
vt -3 1.65
f 9/18/4 8/19/4 14/20/4 15/21/4 16/22/4 

usemtl Water
vt -2.25 8.25682e-016
vn -1 1.64378e-008 1.21718e-008
vt -0.75 8.55081e-016
v 4.47037e-008 1.555 -0.75
vt -0.75 1.555
f 8/23/5 13/24/5 17/25/5 14/20/5 

usemtl Grass
vt -0.75 1.65
vn -1 2.535e-009 4.06824e-009
vt -0.75 1.92784e-016
vt -4.89081e-014 1.13324e-016
vt 1.81866e-016 1.65
f 3/26/6 17/25/6 13/27/6 12/28/6 4/29/6 

vt -5.58797e-008 1.555
vn -1.49012e-008 0 -1
vt -5.58797e-008 1.65
vt -3 0.55
vt -3 0.455
f 17/30/7 3/31/7 2/32/7 7/33/7 

usemtl Water
vt 2.25 0.535316
vn 0.344255 0.938876 -4.6582e-015
vt 0.75 0.535316
vt 0.75 -2.65999
v 3 0.455 -2.25
vt 2.25 -2.65999
f 14/34/8 17/35/8 7/36/8 18/37/8 

vt 0.75 7.06172e-008
vn 1 -2.35391e-008 -3.41488e-009
vt 2.25 7.06172e-008
vt 2.25 0.455
f 6/38/9 11/39/9 18/40/9 7/7/9 

usemtl Grass
v 3 0.55 -2.25
vt 2.25 0.55
vn 1 -1.6365e-008 -5.12591e-008
vt 2.25 4.90951e-008
vt 3 4.90951e-008
v 3 0.55 -3
vt 3 0.55
f 19/41/10 18/40/10 11/42/10 10/43/10 20/44/10 

vt 3 0.455
vn 1.49012e-008 -1.13785e-021 1
vt 7.82315e-008 1.65
vt 7.82315e-008 1.555
f 18/45/11 19/44/11 15/46/11 14/47/11 

vt 3 0.56802
vn 0.344255 0.938876 -2.05193e-008
vt 2.25 0.56802
vt 2.25 -2.62729
vt 3 -2.62729
f 16/48/12 15/49/12 19/50/12 20/51/12 

vt -3 -8.26917e-014
vn -1.49012e-008 2.75639e-014 -1
vt -4.47037e-008 -8.26917e-014
vt -4.47037e-008 1.65
f 10/52/13 9/53/13 16/54/13 20/32/13 

vt 4.47037e-008 -1.33475e-027
vn 1.49012e-008 -2.75639e-014 1
vt 3 -1.08713e-027
vt 4.47037e-008 1.65
f 12/55/14 5/56/14 1/44/14 4/57/14 

