# Alias OBJ Model File
# Exported from SketchUp, (c) 2000-2012 Trimble Navigation Limited
# File units = meters

mtllib roadTile_174.mtl

g Mesh1 Group1 Model

usemtl Grass
v 0 9.70971e-014 -1.04764e-011
vt -3.55343e-023 9.70971e-014
vn -3.39185e-012 4.20128e-013 1
v 0.75 7.28228e-014 -7.9468e-012
vt 0.75 7.28228e-014
v 0.75 0.455 -8.14894e-012
vt 0.75 0.455
v 0.75 0.55 -8.14894e-012
vt 0.75 0.55
v 3.16197e-013 0.55 -1.07189e-011
vt 3.16197e-013 0.55
f 1/1/1 2/2/1 3/3/1 4/4/1 5/5/1 

v 3 0 -3
vt -3 3
vn 3.26025e-017 -1 4.51195e-017
v 3 0 -0
vt -3 4.41302e-033
vt -0.75 7.9468e-012
vt -3.1656e-030 1.04764e-011
v 1.03363e-011 9.65557e-014 -3
vt -1.03363e-011 3
v 0.75 7.23716e-014 -3
vt -0.75 3
f 6/6/2 7/7/2 2/8/2 1/9/2 8/10/2 9/11/2 

usemtl Water
v 3 0.455 -3
vt 3 0.455
vn 1 -2.60837e-015 3.5518e-012
v 3 0.455 -0
vt 1.06554e-011 0.455
vt 1.06554e-011 7.82511e-015
vt 3 7.82511e-015
f 10/12/3 11/13/3 7/14/3 6/15/3 

vt 3 4.05705e-028
vn 2.62095e-016 1 8.91659e-028
vt 3 3
v 0.75 0.455 -3
vt 0.75 3
vt 0.75 8.14894e-012
f 11/16/4 10/17/4 12/18/4 3/19/4 

vt -3 2.73474e-013
vn 3.6072e-012 -9.1158e-014 -1
vt -0.75 3.45846e-013
vt -0.75 0.455
vt -3 0.455
f 6/20/5 9/21/5 12/22/5 10/23/5 

usemtl Grass
vn 3.44781e-012 -8.3959e-014 -1
vt -0.75 3.24249e-013
vt 7.10453e-015 3.48433e-013
v 1.03363e-011 0.55 -3
vt 7.10453e-015 0.55
v 0.75 0.55 -3
vt -0.75 0.55
f 12/22/6 9/24/6 8/25/6 13/26/6 14/27/6 

vt -3 9.65557e-014
vn -1 2.58971e-013 -3.38961e-012
vt -1.04764e-011 9.70971e-014
vt -1.07189e-011 0.55
vt -3 0.55
f 8/28/7 1/29/7 5/30/7 13/31/7 

vt 3.17333e-013 1.07188e-011
vn -2.06473e-015 1 -3.12939e-016
vt 0.75 8.14876e-012
vt 1.03375e-011 3
f 5/32/8 4/33/8 14/18/8 13/34/8 

vt 3 0.55
vn 1 -4.29709e-015 3.33442e-012
vt 1.06497e-011 0.55
vt 1.06497e-011 0.455
f 14/35/9 4/36/9 3/37/9 12/12/9 

usemtl Water
vt 3 2.35366e-024
vn -3.57341e-012 2.19553e-013 1
f 7/38/10 11/12/10 3/3/10 2/2/10 

