# Alias OBJ Model File
# Exported from SketchUp, (c) 2000-2012 Trimble Navigation Limited
# File units = meters

mtllib roadTile_018.mtl

g Mesh1 Group1 Model

usemtl Alternate_Dirt
v 2.25 0.73 -0.9375
vt -2.4102 0.73
vn -0.242536 1.1112e-013 -0.970142
v 0.75 1.28 -0.5625
vt -0.864033 1.28
v 0.75 1.375 -0.5625
vt -0.864033 1.375
v 2.25 0.825 -0.9375
vt -2.4102 0.825
f 1/1/1 2/2/1 3/3/1 4/4/1 

vt 0.9375 -1.86117
vn 0.344255 0.938876 -1.8696e-009
v 3 0.455 -0.75
vt 0.75 -2.65999
v 3 0.455 -2.25
vt 2.25 -2.65999
v 2.25 0.73 -2.4375
vt 2.4375 -1.86117
v 1.5 1.005 -2.25
vt 2.25 -1.06234
v 0.75 1.28 -2.0625
vt 2.0625 -0.263511
v 6.35282e-014 1.555 -2.25
vt 2.25 0.535316
v 7.50788e-014 1.555 -0.75
vt 0.75 0.535316
vt 0.5625 -0.263511
f 1/5/2 5/6/2 6/7/2 7/8/2 8/9/2 9/10/2 10/11/2 11/12/2 2/13/2 

vt -2.72853 0.455
vn 0.242536 -2.315e-015 -0.970143
vt -1.95544 0.73
vt -1.95544 0.825
v 3 0.55 -0.75
vt -2.72853 0.55
f 5/14/3 1/15/3 4/16/3 12/17/3 

usemtl Grass
v 6.93035e-014 1.65 -0.75
vt 0.75 0.56802
vn 0.344255 0.938876 -1.46248e-008
v 4.47037e-008 1.65 -0
vt -1.89913e-015 0.56802
v 3 0.55 -4.47037e-008
vt -8.27442e-008 -2.62729
vt 0.75 -2.62729
vt 0.9375 -1.82846
vt 0.5625 -0.230807
f 13/18/4 14/19/4 15/20/4 12/21/4 4/22/4 3/23/4 

vt -0.75 1.65
vn -1 -8.72822e-009 1.21919e-008
vt -0.75 1.555
v 2.23519e-008 1.375 -0.75
vt -0.75 1.375
v 6.35282e-014 1.375 -2.25
vt -2.25 1.375
vt -2.25 1.555
v 6.35282e-014 1.65 -2.25
vt -2.25 1.65
v 5.77529e-015 1.65 -3
vt -3 1.65
v 0 0 -3
vt -3 -3.19241e-016
v 4.47037e-008 0 -4.62023e-014
vt -4.56573e-014 -3.90184e-016
vt 5.45024e-016 1.65
f 13/24/5 11/25/5 16/26/5 17/27/5 10/28/5 18/29/5 19/30/5 20/31/5 21/32/5 14/33/5 

usemtl Alternate_Dirt
vt -0.591181 1.28
vn 0.242536 3.63455e-013 -0.970143
vt 0.181902 1.555
vt 0.181902 1.65
vt -0.591181 1.375
f 2/34/6 11/35/6 13/36/6 3/37/6 

vn -1 -6.20884e-008 7.45062e-009
f 11/25/7 10/28/7 17/27/7 16/26/7 

vt -0.545705 1.555
vn -0.242536 1.1575e-015 0.970143
vt 0.227377 1.28
v 0.75 1.375 -2.0625
vt 0.227377 1.375
vt -0.545705 1.65
f 10/38/8 9/39/8 22/40/8 18/41/8 

usemtl FrontColor
vt -88.5827 -41.8244
vn -0.344255 -0.938876 1.28244e-008
vt -81.2008 -10.3745
vt -88.5827 21.0754
f 8/42/9 9/43/9 10/44/9

usemtl Alternate_Dirt
vt 2.00092 1.005
vn 0.242536 -3.52258e-010 0.970142
vt 2.774 0.73
v 2.25 0.825 -2.4375
vt 2.774 0.825
vt 1.22784 1.375
vt 1.22784 1.28
f 8/45/10 7/46/10 23/47/10 22/48/10 9/49/10 

vt 1.59164 0.73
vn -0.242536 -2.41917e-013 0.970143
vt 2.36472 0.455
v 3 0.55 -2.25
vt 2.36472 0.55
vt 1.59164 0.825
f 7/50/11 6/51/11 24/52/11 23/53/11 

usemtl Grass
vt 2.25 0.55
vn 1 1.40035e-008 -1.21919e-008
vt 2.25 0.455
v 3 0.275 -2.25
vt 2.25 0.275
v 3 0.275 -0.75
vt 0.75 0.275
vt 0.75 0.455
vt 0.75 0.55
vt 8.12798e-009 0.55
v 3 0 -4.47037e-008
vt 8.12798e-009 -4.20106e-008
v 3 0 -3
vt 3 -4.20106e-008
v 3 0.55 -3
vt 3 0.55
f 24/54/12 6/55/12 25/56/12 26/57/12 5/58/12 12/59/12 15/60/12 27/61/12 28/62/12 29/63/12 

usemtl Alternate_Dirt
vn 1 -6.20884e-008 -7.45062e-009
f 6/55/13 5/58/13 26/57/13 25/56/13 

usemtl Grass
vt 4.47037e-008 -1.25515e-027
vn 1.49012e-008 -2.75639e-014 1
vt 3 -7.68756e-028
vt 4.47037e-008 1.65
f 21/64/14 27/65/14 15/63/14 14/66/14 

vt -4.47037e-008 4.62023e-014
vn 1.33118e-033 -1 1.20638e-033
vt 0 3
vt -3 3
vt -3 4.47037e-008
f 21/67/15 20/68/15 28/69/15 27/70/15 

vt -3 -8.26917e-014
vn -1.49012e-008 2.75639e-014 -1
vt -4.47037e-008 -8.26917e-014
vt -4.47037e-008 1.65
vt -3 0.55
f 28/71/16 20/72/16 19/73/16 29/74/16 

vt 2.25 -2.62729
vn 0.344255 0.938876 -1.72645e-009
vt 3 -2.62729
vt 3 0.56802
vt 2.25 0.56802
vt 2.0625 -0.230807
vt 2.4375 -1.82846
f 24/75/17 29/76/17 19/77/17 18/78/17 22/79/17 23/80/17 

