# Alias OBJ Model File
# Exported from SketchUp, (c) 2000-2012 Trimble Navigation Limited
# File units = meters

mtllib roadTile_229.mtl

g Mesh1 Group1 Model

usemtl Asphalt
v 5.77529e-014 1.15 -1.875
vt -1.875 1.15
vn -1 9.62549e-015 1.54008e-014
v 4.62023e-014 0.85 -1.875
vt -1.875 0.85
v 6.93035e-014 0.85 -0.375
vt -0.375 0.85
v 6.93035e-014 1.15 -0.375
vt -0.375 1.15
f 1/1/1 2/2/1 3/3/1 4/4/1 

usemtl Stone
v 8.08541e-014 0.55 -2.25
vt -2.25 0.55
vn -1 2.21162e-014 -1.21429e-014
v 0 0.55 -0
vt 0 0.55
v 3.46517e-014 1.18 -4.62023e-014
vt -4.62023e-014 1.18
v 6.93035e-014 1.18 -0.375
vt -0.375 1.18
v 5.77529e-014 1.18 -1.875
vt -1.875 1.18
v 5.77529e-014 1.18 -2.25
vt -2.25 1.18
f 5/5/2 6/6/2 7/7/2 8/8/2 4/4/2 3/3/2 2/2/2 1/1/2 9/9/2 10/10/2 

v 3 0 -6.93035e-014
vt -2.08184e-013 -2.95082
vn -0.180328 -0.983607 -8.34802e-015
vt 0 0.0991803
vt -2.25 0.0991803
v 3 4.8729e-015 -2.25
vt -2.25 -2.95082
f 11/11/3 6/12/3 5/13/3 12/14/3 

vn 2.85886e-014 5.79329e-014 1
vt 3 -9.53711e-028
v 3 0.63 -9.24047e-014
vt 3 0.63
vt 3.46517e-014 1.18
f 6/6/4 11/15/4 13/16/4 7/17/4 

vt 9.38855e-014 2.81119e-014
vn 1 -9.37062e-015 8.194e-015
vt 2.25 3.29848e-014
v 3 0.63 -2.25
vt 2.25 0.63
v 3 0.63 -1.875
vt 1.875 0.63
v 3 0.6 -1.875
vt 1.875 0.6
v 3 0.3 -1.875
vt 1.875 0.3
v 3 0.3 -0.375
vt 0.375 0.3
v 3 0.6 -0.375
vt 0.375 0.6
v 3 0.63 -0.375
vt 0.375 0.63
vt 1.16987e-013 0.63
f 11/18/5 12/19/5 14/20/5 15/21/5 16/22/5 17/23/5 18/24/5 19/25/5 20/26/5 13/27/5 

vt -3 0.63
vn -2.39216e-014 -4.64773e-014 -1
vt -3 1.09447e-013
vt -1.34678e-013 0.55
vt -1.11577e-013 1.18
f 14/28/6 12/29/6 5/30/6 10/31/6 

vt 1.875 -2.83721
vn 0.180328 0.983607 3.85622e-015
vt 2.25 -2.83721
vt 2.25 0.212787
vt 1.875 0.212787
f 15/32/7 14/33/7 10/34/7 9/35/7 

vt 8.84341e-014 1.15
vn 1.63633e-014 5.44077e-027 1
vt 3 0.6
vt 8.84341e-014 1.18
f 1/36/8 16/37/8 15/16/8 9/38/8 

usemtl Asphalt
vt 1.875 -2.84262
vn 0.180328 0.983607 -2.46144e-015
vt 1.875 0.207377
vt 0.375 0.207377
vt 0.375 -2.84262
f 16/39/9 1/40/9 4/41/9 19/42/9 

usemtl Stone
vt -3 0.6
vn -1.54008e-014 -5.44077e-027 -1
vt -7.50788e-014 1.15
vt -7.50788e-014 1.18
f 19/43/10 4/44/10 8/45/10 20/28/10 

vt 0.375 0.212787
vn 0.180328 0.983607 1.5566e-014
vt 4.62023e-014 0.212787
vt 3.51366e-013 -2.83721
vt 0.375 -2.83721
f 8/46/11 7/47/11 13/48/11 20/49/11 

usemtl Asphalt
vn 1 2.40637e-014 -1.82884e-014
f 16/22/12 19/25/12 18/24/12 17/23/12 

