# Alias OBJ Model File
# Exported from SketchUp, (c) 2000-2012 Trimble Navigation Limited
# File units = meters

mtllib roadTile_192.mtl

g Mesh1 Group1 Model

usemtl Grass
v 0 1.1 -0
vt 0 1.1
vn -1 -5.25026e-015 -6.93035e-014
v 2.31012e-014 1.1 -0.375
vt -0.375 1.1
v 2.31012e-014 0 -0.375
vt -0.375 1.51609e-029
v 5.77529e-015 1.35358e-016 -0
vt -4.00248e-028 1.35358e-016
f 1/1/1 2/2/1 3/3/1 4/4/1 

vt 0 0.198361
vn 0.180328 0.983607 1.79558e-014
v 3 0.55 -5.77529e-014
vt 3.56472e-013 -2.85164
v 3 0.55 -0.375
vt 0.375 -2.85164
vt 0.375 0.198361
f 1/5/2 5/6/2 6/7/2 2/8/2 

v 3 1.35358e-016 -7.50788e-014
vt 3 1.35358e-016
vn 1.9636e-014 4.20021e-015 1
vt 3 0.55
vt 5.77529e-015 1.35358e-016
f 7/9/3 5/10/3 1/1/3 4/11/3 

vt 2.9454e-013 1.35358e-016
vn 1 -7.65163e-028 7.31537e-014
v 3 4.06075e-016 -0.375
vt 0.375 4.06075e-016
vt 0.375 0.55
vt 2.77214e-013 0.55
f 7/12/4 8/13/4 6/14/4 5/15/4 

vt -5.77529e-015 2.13755e-032
vn 1.54158e-016 -1 -1.57918e-016
vt -2.31012e-014 0.375
v 5.19776e-014 1.35358e-016 -2.625
vt -5.19776e-014 2.625
v 5.77529e-014 1.35358e-016 -3
vt -5.77529e-014 3
v 3 1.08287e-015 -3
vt -3 3
v 3 1.08287e-015 -2.625
vt -3 2.625
vt -3 0.375
vt -3 7.50788e-014
f 4/16/5 3/17/5 9/18/5 10/19/5 11/20/5 12/21/5 8/22/5 7/23/5 

usemtl Stone
vt -2.625 1.35358e-016
vn -1 7.27842e-015 -5.92338e-015
vt -0.375 1.51973e-028
v 2.88765e-014 1.18 -0.375
vt -0.375 1.18
v 5.77529e-014 1.18 -0.75
vt -0.75 1.18
v 5.77529e-014 1.15 -0.75
vt -0.75 1.15
v 5.77529e-014 0.85 -0.75
vt -0.75 0.85
v 4.62023e-014 0.85 -2.25
vt -2.25 0.85
v 5.19776e-014 1.15 -2.25
vt -2.25 1.15
v 5.19776e-014 1.18 -2.25
vt -2.25 1.18
v 5.19776e-014 1.18 -2.625
vt -2.625 1.18
v 5.19776e-014 1.1 -2.625
vt -2.625 1.1
f 9/24/6 3/25/6 2/2/6 13/26/6 14/27/6 15/28/6 16/29/6 17/30/6 18/31/6 19/32/6 20/33/6 21/34/6 

vt 3.60956e-014 1.18
vn 1.9251e-014 -7.65108e-028 1
vt 3.03203e-014 1.1
v 3 0.63 -0.375
vt 3 0.63
f 13/35/7 2/36/7 6/10/7 22/37/7 

vt 0.375 0.63
vn 1 -8.26556e-015 2.36935e-015
vt 0.375 2.52028e-014
vt 2.625 2.58796e-014
v 3 0.55 -2.625
vt 2.625 0.55
v 3 0.63 -2.625
vt 2.625 0.63
v 3 0.63 -2.25
vt 2.25 0.63
v 3 0.6 -2.25
vt 2.25 0.6
v 3 0.3 -2.25
vt 2.25 0.3
v 3 0.3 -0.75
vt 0.75 0.3
v 3 0.6 -0.75
vt 0.75 0.6
v 3 0.63 -0.75
vt 0.75 0.63
f 22/38/8 6/14/8 8/39/8 12/40/8 23/41/8 24/42/8 25/43/8 26/44/8 27/45/8 28/46/8 29/47/8 30/48/8 

usemtl Grass
v 3 0.55 -3
vn 1 0 2.31012e-014
vt 2.625 1.08287e-015
vt 3 1.08287e-015
f 31/10/9 23/41/9 12/49/9 11/50/9 

vt 3 -2.85164
vn 0.180328 0.983607 4.5146e-015
v 5.77529e-014 1.1 -3
vt 3 0.198361
vt 2.625 0.198361
vt 2.625 -2.85164
f 31/51/10 32/52/10 21/53/10 23/54/10 

vt -9.58698e-014 -2.50659e-014
vn -1.27056e-014 8.40042e-015 -1
vt -9.58698e-014 1.1
vt -3 0.55
vt -3 -2.41184e-014
f 10/55/11 32/56/11 31/57/11 11/58/11 

vt -3 1.35358e-016
vn -1 1.21477e-028 -2.31012e-014
vt -3 1.1
f 10/59/12 9/24/12 21/34/12 32/60/12 

usemtl Stone
vt -3 0.63
vn -1.54008e-014 0 -1
vt -9.24047e-014 1.1
vt -9.24047e-014 1.18
f 24/61/13 23/57/13 21/62/13 20/63/13 

vt 2.25 -2.83721
vn 0.180328 0.983607 3.15082e-015
vt 2.625 -2.83721
vt 2.625 0.212787
vt 2.25 0.212787
f 25/64/14 24/65/14 20/66/14 19/67/14 

vt 8.87951e-014 1.15
vn 1.63633e-014 5.44077e-027 1
vt 3 0.6
vt 8.87951e-014 1.18
f 18/68/15 26/69/15 25/37/15 19/70/15 

usemtl Asphalt
vt 2.25 -2.84262
vn 0.180328 0.983607 -2.46144e-015
vt 2.25 0.207377
vt 0.75 0.207377
vt 0.75 -2.84262
f 26/71/16 18/72/16 15/73/16 29/74/16 

vn -1 9.62549e-015 1.54008e-014
f 18/31/17 17/30/17 16/29/17 15/28/17 

usemtl Stone
vt -3 0.6
vn -1.54008e-014 -5.44077e-027 -1
vt -6.93035e-014 1.15
vt -6.93035e-014 1.18
f 29/75/18 15/76/18 14/77/18 30/61/18 

vt 0.75 0.212787
vn 0.180328 0.983607 1.42022e-014
vt 0.375 0.212787
vt 0.375 -2.83721
vt 0.75 -2.83721
f 14/78/19 13/79/19 22/80/19 30/81/19 

usemtl Asphalt
vn 1 2.40637e-014 -1.82884e-014
f 26/44/20 29/47/20 28/46/20 27/45/20 

