# Alias OBJ Model File
# Exported from SketchUp, (c) 2000-2012 Trimble Navigation Limited
# File units = meters

mtllib roadTile_075.mtl

g Mesh1 Group1 Model

usemtl Stone
v 5.05338e-014 0.63 -0
vt 5.05338e-014 0.63
vn 1.68014e-014 0 1
v 5.05338e-014 0 -0
vt 5.05338e-014 0
v 3 0 -4.62023e-014
vt 3 0
v 3 0.63 -4.62023e-014
vt 3 0.63
f 1/1/1 2/2/1 3/3/1 4/4/1 

v 0 0 -3
vt -3 -2.43555e-029
vn -1 -4.8537e-016 1.67264e-014
vt 8.45251e-028 -2.45276e-029
vt 8.45251e-028 0.63
v 3.75394e-014 0.63 -0.75
vt -0.75 0.63
v 3.75394e-014 0.6 -0.75
vt -0.75 0.6
v 4.0427e-014 0.3 -0.75
vt -0.75 0.3
v 1.29944e-014 0.3 -2.25
vt -2.25 0.3
v 1.29944e-014 0.6 -2.25
vt -2.25 0.6
v 1.29944e-014 0.63 -2.25
vt -2.25 0.63
v 0 0.63 -3
vt -3 0.63
f 5/5/2 2/6/2 1/7/2 6/8/2 7/9/2 8/10/2 9/11/2 10/12/2 11/13/2 12/14/2 

vt -3 4.62023e-014
vn -9.04785e-034 -1 1.52016e-047
vt -5.05338e-014 -6.95052e-094
vt 0 3
v 3 0 -3
vt -3 3
f 3/15/3 2/16/3 5/17/3 13/18/3 

v 3 0.63 -3
vn -1.68014e-014 0 -1
vt -3 0
vt -5.04041e-014 0
vt -5.04041e-014 0.63
f 14/14/4 13/19/4 5/20/4 12/21/4 

v 3 0.6 -2.25
vt 2.25 0.6
vn 1 1.97181e-016 -1.68417e-014
v 3 0.3 -2.25
vt 2.25 0.3
v 3 0.3 -0.75
vt 0.75 0.3
v 3 0.6 -0.75
vt 0.75 0.6
v 3 0.63 -0.75
vt 0.75 0.63
vt -4.32282e-015 0.63
vt -4.32282e-015 -5.91544e-016
vt 3 -5.91544e-016
v 3 0.63 -2.25
vt 2.25 0.63
f 15/22/5 16/23/5 17/24/5 18/25/5 19/26/5 4/27/5 3/28/5 13/29/5 14/4/5 20/30/5 

usemtl Asphalt
vn 1 4.81274e-015 -1.82884e-014
f 18/25/6 17/24/6 16/23/6 15/22/6 

vt 3 2.25
vn 0 1 -0
v 1.875 0.6 -0.75
vt 1.875 0.75
vt 3 0.75
f 15/31/7 21/32/7 18/33/7

v 1.875 0.6 -0.9375
vt 1.875 0.9375
f 15/31/7 22/34/7 21/32/7

v 1.875 0.6 -1.3125
vt 1.875 1.3125
f 15/31/7 23/35/7 22/34/7

v 1.875 0.6 -1.5
vt 1.875 1.5
f 15/31/7 24/36/7 23/35/7

v 1.875 0.6 -1.875
vt 1.875 1.875
f 15/31/7 25/37/7 24/36/7

v 1.875 0.6 -2.0625
vt 1.875 2.0625
f 15/31/7 26/38/7 25/37/7

v 1.125 0.6 -2.0625
vt 1.125 2.0625
f 15/31/7 27/39/7 26/38/7

vt 1.29944e-014 2.25
f 10/40/7 27/39/7 15/31/7

vt 3.75394e-014 0.75
f 27/39/7 10/40/7 7/41/7

vn -1 -4.81274e-015 1.63633e-014
f 10/12/8 9/11/8 8/10/8 7/9/8 

v 1.125 0.6 -1.6875
vt 1.125 1.6875
f 7/41/7 28/42/7 27/39/7

v 1.125 0.6 -0.75
vt 1.125 0.75
f 28/42/7 7/41/7 29/43/7

usemtl Stone
vt -3 0.6
vt -1.875 0.6
vt -1.125 0.6
vt -5.01404e-014 0.6
vt -5.01404e-014 0.63
f 18/44/4 21/45/4 29/46/4 7/47/4 6/48/4 19/14/4 

usemtl White
v 1.125 0.6 -0.9375
vt 1.125 0.9375
f 21/32/7 22/34/7 30/49/7 29/43/7 

usemtl Asphalt
v 1.875 0.6 -1.125
vt 1.875 1.125
f 31/50/7 30/49/7 22/34/7

v 1.125 0.6 -1.125
vt 1.125 1.125
f 30/49/7 31/50/7 32/51/7

usemtl White
v 1.125 0.6 -1.3125
vt 1.125 1.3125
f 31/50/7 23/35/7 33/52/7 32/51/7 

usemtl Asphalt
f 31/50/7 22/34/7 23/35/7

f 24/36/7 33/52/7 23/35/7

v 1.125 0.6 -1.5
vt 1.125 1.5
f 33/52/7 24/36/7 34/53/7

usemtl White
v 1.875 0.6 -1.6875
vt 1.875 1.6875
f 24/36/7 35/54/7 28/42/7 34/53/7 

usemtl Asphalt
f 25/37/7 35/54/7 24/36/7

v 1.125 0.6 -1.875
vt 1.125 1.875
f 36/55/7 35/54/7 25/37/7

f 36/55/7 28/42/7 35/54/7

f 28/42/7 36/55/7 27/39/7

usemtl White
f 25/37/7 26/38/7 27/39/7 36/55/7 

usemtl Asphalt
f 28/42/7 33/52/7 34/53/7

f 28/42/7 30/49/7 33/52/7

f 28/42/7 29/43/7 30/49/7

f 33/52/7 30/49/7 32/51/7

usemtl Stone
vn -6.06455e-030 1 -3.60956e-016
vt 5.05338e-014 -2.27402e-016
vt 3 4.59749e-014
f 6/41/9 1/56/9 4/57/9 19/33/9 

vt 5.07975e-014 0.63
vt 5.07975e-014 0.6
vt 3 0.6
f 11/58/1 10/59/1 15/60/1 20/4/1 

vt -3.82067e-030 3
vn 6.06455e-030 1 3.60956e-016
vt 3 3
f 12/61/10 11/40/10 20/31/10 14/62/10 

