# Alias OBJ Model File
# Exported from SketchUp, (c) 2000-2012 Trimble Navigation Limited
# File units = meters

mtllib roadTile_220.mtl

g Mesh1 Group1 Model

usemtl Stone
v 4.38199e-008 1.65 -1.94154e-010
vt -1.94153e-010 1.65
vn -1 3.31273e-009 1.35015e-008
v 3.7339e-008 1.275 -0.75
vt -0.75 1.275
v 3.15016e-008 0.6 -0.75
vt -0.75 0.6
f 1/1/1 2/2/1 3/3/1

v 0 1.65 -3
vt -3 1.65
f 2/2/1 1/1/1 4/4/1

v 0.935 1.65 -3
vt 0.935 3
vn 1.7596e-010 1 8.78011e-010
vt -2.90334e-010 3
vt 4.35295e-008 1.64287e-009
v 0.935 1.65 -1.41268e-008
vt 0.935 1.55755e-008
f 5/5/2 4/6/2 1/7/2 6/8/2 

v 0 0 -3
vt -4.47037e-008 -3.4292e-014
vn -1.49012e-008 1.14307e-014 -1
vt -4.47037e-008 1.65
vt -0.935 1.65
v 3 0.63 -3
vt -3 0.63
v 3 0 -3
vt -3 -3.4292e-014
f 7/9/3 4/10/3 5/11/3 8/12/3 9/13/3 

vt -3 1.3418e-016
v 9.14979e-009 0.3 -2.25
vt -2.25 0.3
f 7/14/1 10/15/1 4/4/1

v 3.15016e-008 0.3 -0.75
vt -0.75 0.3
f 7/14/1 11/16/1 10/15/1

v 4.47037e-008 0 -0
vt 6.03567e-016 1.48091e-016
f 12/17/1 11/16/1 7/14/1

f 11/16/1 12/17/1 1/1/1

vt 4.38199e-008 1.65
vn 1.49327e-008 1.36358e-010 1
vt 4.47037e-008 -9.10255e-026
v 3 0 -4.47037e-008
vt 3 -1.28616e-020
v 3 0.63 -4.48979e-008
vt 3 0.63
vt 0.935 1.65
f 1/18/4 12/19/4 13/20/4 14/21/4 6/22/4 

vt -4.47037e-008 7.179e-074
vn 1.33118e-033 -1 1.20638e-033
vt 0 3
vt -3 3
vt -3 4.47037e-008
f 12/23/5 7/24/5 9/25/5 13/26/5 

vt 3 -6.00702e-008
vn 1 2.00234e-008 -9.3344e-009
v 3 0.63 -2.25
vt 2.25 0.63
v 3 0.6 -2.25
vt 2.25 0.6
v 3 0.3 -2.25
vt 2.25 0.3
v 3 0.3 -0.75
vt 0.75 0.3
v 3 0.6 -0.75
vt 0.75 0.6
v 3 0.63 -0.75
vt 0.75 0.63
vt 1.68946e-008 0.63
vt 1.67005e-008 -6.00702e-008
f 9/27/6 8/21/6 15/28/6 16/29/6 17/30/6 18/31/6 19/32/6 20/33/6 14/34/6 13/35/6 

vt 0.75 -2.41076
vn 0.442866 0.896588 -3.59141e-009
v 1.27122 1.48393 -0.75
vt 0.75 -0.48258
v 1.27122 1.48393 -2.25
vt 2.25 -0.48258
vt 2.25 -2.41076
vt 3 -2.41076
vt 3 -0.10758
vt 6.54447e-009 -0.10758
vt 2.05694e-008 -2.41076
f 20/36/7 21/37/7 22/38/7 15/39/7 8/40/7 5/41/7 6/42/7 14/43/7 

vt -3.7822e-008 1.275
vn -6.43909e-010 1.8331e-008 -1
vt -1.27122 1.48393
vt -3 0.6
vt -3.19846e-008 0.6
f 2/44/8 21/45/8 20/12/8 19/46/8 3/47/8 

vt 0.75 1.49505
vn 0.162174 -0.986762 -3.73057e-009
vt 0.75 0.206772
v 3.12322e-008 1.275 -2.25
vt 2.25 0.206772
vt 2.25 1.49505
f 21/48/9 2/49/9 23/50/9 22/51/9 

vt -2.25 1.275
f 2/2/1 4/4/1 23/52/1

v 3.15016e-008 0.6 -2.25
vt -2.25 0.6
f 23/52/1 4/4/1 24/53/1

f 24/53/1 4/4/1 10/15/1

usemtl Asphalt
vn -1 3.7253e-008 7.45062e-009
f 3/3/10 24/53/10 10/15/10 11/16/10 

vt 3 0.75
vn 4.12446e-009 1 -6.63967e-023
vt 3 2.25
vt 2.90269e-008 2.25
vt 2.9027e-008 0.75
f 19/54/11 16/55/11 24/56/11 3/57/11 

vn 1 -3.7253e-008 -7.45063e-009
f 16/29/12 19/32/12 18/31/12 17/30/12 

usemtl Stone
vt 1.27122 1.48393
vn 6.43909e-010 -1.8331e-008 1
vt 3.2681e-008 1.275
vt 3.29504e-008 0.6
vt 3 0.6
f 22/58/13 23/59/13 24/60/13 16/61/13 15/21/13 

f 11/16/1 1/1/1 3/3/1

