# Alias OBJ Model File
# Exported from SketchUp, (c) 2000-2012 Trimble Navigation Limited
# File units = meters

mtllib roadTile_016.mtl

g Mesh1 Group1 Model

usemtl Grass
v 3 0.55 -3
vt -3 0.55
vn -2.17011e-013 -7.17927e-013 -1
v 3 0 -3
vt -3 2.15378e-012
v 0 1.80478e-016 -3
vt -6.51033e-013 2.15396e-012
v 0 0.55 -3
vt -6.51033e-013 0.55
v 0.75 0.55 -3
vt -0.75 0.55
v 0.75 0.455 -3
vt -0.75 0.455
v 0.75 0.3 -3
vt -0.75 0.3
v 2.25 0.3 -3
vt -2.25 0.3
v 2.25 0.455 -3
vt -2.25 0.455
v 2.25 0.55 -3
vt -2.25 0.55
f 1/1/1 2/2/1 3/3/1 4/4/1 5/5/1 6/6/1 7/7/1 8/8/1 9/9/1 10/10/1 

vt 3 9.33468e-014
vn 1 -3.11156e-014 9.45048e-015
vt 3 0.55
v 3 0.55 -2.25
vt 2.25 0.55
v 3 0.455 -2.25
vt 2.25 0.455
v 3 0.3 -2.25
vt 2.25 0.3
v 3 0.3 -0.75
vt 0.75 0.3
v 3 0.455 -0.75
vt 0.75 0.455
v 3 0.55 -0.75
vt 0.75 0.55
v 3 0.55 -0
vt 2.83514e-014 0.55
v 3 1.08287e-015 -0
vt 2.83514e-014 9.44296e-014
f 2/11/2 1/12/2 11/13/2 12/14/2 13/15/2 14/16/2 15/17/2 16/18/2 17/19/2 18/20/2 

vt 3 3
vn -1.12536e-014 1 1.11891e-014
vt 2.25 3
v 2.53567 0.55 -2.50675
vt 2.53567 2.50675
vt 3 2.25
f 1/21/3 10/22/3 19/23/3 11/24/3 

usemtl Alternate_Dirt
vt -1.46838 0.455
vn -0.865344 -1.5346e-014 0.501179
v 2.53567 0.455 -2.50675
vt -0.898378 0.455
vt -0.898378 0.55
vt -1.46838 0.55
f 9/25/4 20/26/4 19/27/4 10/28/4 

vn 8.66458e-017 1 -8.92348e-017
vt 0.75 3
v 0.310318 0.455 -1.67517
vt 0.310318 1.67517
v 0.870142 0.455 -0.657812
vt 0.870142 0.657812
v 1.875 0.455 -0.28401
vt 1.875 0.28401
vt 3 0.75
f 9/22/5 6/29/5 21/30/5 22/31/5 23/32/5 15/33/5 12/24/5 20/23/5 

vn 1.84809e-013 -4.47119e-013 -1
f 9/9/6 8/8/6 7/7/6 6/6/6 

vt 3.08353 0.55
vn 0.949097 -6.20997e-017 0.314984
v 0.310318 0.55 -1.67517
vt 1.68764 0.55
vt 1.68764 0.455
vt 3.08353 0.455
f 5/34/7 24/35/7 21/36/7 6/37/7 

usemtl Grass
v 1.875 0.55 -0.28401
vn -2.44091e-016 1 1.04847e-016
v 0.870142 0.55 -0.657812
vt 1.3425e-016 3
v 1.15506e-014 0.55 -0
vt 1.16848e-014 5.7666e-017
vt 3 5.7666e-017
f 25/32/8 26/31/8 24/30/8 5/29/8 4/38/8 27/39/8 17/40/8 16/33/8 

usemtl Alternate_Dirt
vt -0.586195 0.55
vn 0.348653 -2.98789e-017 -0.937252
vt -1.65833 0.55
vt -1.65833 0.455
vt -0.586195 0.455
f 26/41/9 25/42/9 23/43/9 22/44/9 

vt -1.84096 0.55
vn -0.382683 1.8175e-016 -0.92388
vt -3.05865 0.55
vt -3.05865 0.455
vt -1.84096 0.455
f 25/45/10 16/46/10 15/47/10 23/48/10 

vt 1.31803 0.55
vn 0.876115 -2.92975e-017 -0.482103
vt 0.15682 0.55
vt 0.15682 0.455
vt 1.31803 0.455
f 24/49/11 26/50/11 22/51/11 21/52/11 

usemtl Grass
vt -3 1.80478e-016
vn -1 -6.50022e-017 1.84889e-032
v 1.15506e-014 1.80478e-016 -0
vt 2.13558e-046 1.80478e-016
vt 2.13558e-046 0.55
f 3/53/12 28/54/12 27/55/12 4/1/12 

vt -2.09846e-032 3
vn 1.16272e-016 -1 1.79896e-016
vt -3 3
vt -3 -1.32053e-031
vt -1.15506e-014 -3.24673e-032
f 3/56/13 2/57/13 18/58/13 28/59/13 

vt 1.15506e-014 1.80478e-016
vn 1.84889e-032 -2.10007e-017 1
vt 3 1.08287e-015
vt 1.15506e-014 0.55
f 28/60/14 18/61/14 17/12/14 27/62/14 

usemtl Alternate_Dirt
vn 1 0 -1.15506e-014
f 15/17/15 14/16/15 13/15/15 12/14/15 

vt 1.00599 0.455
vn -0.483905 -1.52375e-014 0.87512
vt 1.53657 0.455
vt 1.53657 0.55
vt 1.00599 0.55
f 20/63/16 12/64/16 11/65/16 19/66/16 

