# Alias OBJ Model File
# Exported from SketchUp, (c) 2000-2012 Trimble Navigation Limited
# File units = meters

mtllib roadTile_146.mtl

g Mesh1 Group1 Model

usemtl Grass
v 3.11866e-013 0.55 -1.07189e-011
vt 3.13001e-013 1.07188e-011
vn -2.06473e-015 1 -3.12939e-016
v 0.75 0.55 -8.15471e-012
vt 0.75 8.15454e-012
v 0.75 0.55 -3
vt 0.75 3
v 1.0332e-011 0.55 -3
vt 1.03331e-011 3
f 1/1/1 2/2/1 3/3/1 4/4/1 

v 0 9.70068e-014 -1.04764e-011
vt -3.55343e-023 9.70068e-014
vn -3.39185e-012 4.20128e-013 1
v 0.75 7.28228e-014 -7.9468e-012
vt 0.75 7.28228e-014
v 0.75 0.455 -8.15471e-012
vt 0.75 0.455
vt 0.75 0.55
vt 3.11866e-013 0.55
f 5/5/2 6/6/2 7/7/2 2/8/2 1/9/2 

v 3 0 -3
vt -3 3
vn 3.26025e-017 -1 4.51195e-017
v 3 0 -0
vt -3 4.41302e-033
v 1.875 3.63663e-014 -3.9734e-012
vt -1.875 3.9734e-012
vt -0.75 7.9468e-012
vt -3.16266e-030 1.04764e-011
v 1.0332e-011 9.64654e-014 -3
vt -1.0332e-011 3
v 0.75 7.22814e-014 -3
vt -0.75 3
v 1.875 3.60956e-014 -3
vt -1.875 3
f 8/10/3 9/11/3 10/12/3 6/13/3 5/14/3 11/15/3 12/16/3 13/17/3 

usemtl Water
v 3 0.455 -3
vt 3 0.455
vn 1 -2.60837e-015 3.5518e-012
v 3 0.455 -0
vt 1.06554e-011 0.455
vt 1.06554e-011 7.82511e-015
vt 3 7.82511e-015
f 14/18/4 15/19/4 9/20/4 8/21/4 

vt 3 3
vn 2.40637e-016 1 8.41958e-028
v 1.875 0.455 -3
vt 1.875 3
v 1.875 0.455 -4.07736e-012
vt 1.875 4.07736e-012
vt 3 3.83091e-028
f 14/22/5 16/23/5 17/24/5 15/25/5 

vt -3 1.33276e-013
vn 3.61148e-012 -4.44253e-014 -1
vt -1.875 1.69372e-013
vt -1.875 0.455
vt -3 0.455
f 8/26/6 13/27/6 16/28/6 14/29/6 

usemtl Sand
v 0.75 0.455 -3
vt -0.75 0.455
vn 3.60763e-012 -1.30103e-013 -1
vt -1.875 4.26404e-013
vt -0.75 4.6259e-013
f 18/30/7 16/28/7 13/31/7 12/32/7 

vt 0.75 8.15471e-012
vn 2.40637e-016 1 8.16012e-028
f 7/33/8 17/24/8 16/23/8 18/3/8 

vn -3.57555e-012 3.36363e-013 1
vt 1.875 3.63663e-014
vt 1.875 0.455
f 6/6/9 10/34/9 17/35/9 7/7/9 

usemtl Water
vn -3.5794e-012 1.11063e-013 1
vt 3 1.19262e-024
f 15/18/10 17/35/10 10/34/10 9/36/10 

usemtl Grass
vt 3 0.55
vn 1 -4.29709e-015 3.33442e-012
vt 1.06555e-011 0.55
vt 1.06555e-011 0.455
f 3/37/11 2/38/11 7/39/11 18/18/11 

vn 3.44781e-012 -8.3959e-014 -1
vt -0.75 3.24158e-013
vt 1.1436e-014 3.48342e-013
vt 1.1436e-014 0.55
vt -0.75 0.55
f 18/30/12 12/40/12 11/41/12 4/42/12 3/43/12 

vt -3 9.64654e-014
vn -1 2.58971e-013 -3.38961e-012
vt -1.04764e-011 9.70068e-014
vt -1.07189e-011 0.55
vt -3 0.55
f 11/44/13 5/45/13 1/46/13 4/47/13 

