# Alias OBJ Model File
# Exported from SketchUp, (c) 2000-2012 Trimble Navigation Limited
# File units = meters

mtllib roadTile_052.mtl

g Mesh1 Group1 Model

usemtl Asphalt
v 1.04302e-011 0.6 -3
vt -3 0.6
vn -1 -7.19661e-028 -8.04756e-012
v 1.04302e-011 0.3 -3
vt -3 0.3
v 0 0.3 -1.70393
vt -1.70393 0.3
v 0 0.6 -1.70393
vt -1.70393 0.6
f 1/1/1 2/2/1 3/3/1 4/4/1 

v 1.29607 0.6 -3
vt -1.29607 0.6
vn -3.56481e-014 -3.54554e-031 -1
v 1.29607 0.3 -3
vt -1.29607 0.3
vt -1.05371e-011 0.3
vt -1.05371e-011 0.6
f 5/5/2 6/6/2 2/7/2 1/8/2 

usemtl Stone
v 1.74611 1.21371e-014 -3
vt -1.74611 8.94819e-015
vn -3.90845e-014 1.06298e-015 -1
v 1.04302e-011 0 -3
vt -1.05474e-011 -3.18894e-015
vt -1.05474e-011 0.3
v 1.29607 0.63 -3
vt -1.29607 0.63
v 1.74611 0.63 -3
vt -1.74611 0.63
v 1.74611 0.55 -3
vt -1.74611 0.55
f 7/9/3 8/10/3 2/11/3 6/6/3 5/5/3 9/12/3 10/13/3 11/14/3 

usemtl Grass
v 3 0 -9.24047e-014
vt -3 9.24047e-014
vn 1.32981e-017 -1 -2.61843e-015
v 3.46517e-014 0 -0
vt -3.46517e-014 -1.20658e-045
v 1.15506e-014 3.45164e-015 -1.25389
vt -1.15506e-014 1.25389
vt -1.04302e-011 3
vt -1.74611 3
v 3 0 -3
vt -3 3
f 12/15/4 13/16/4 14/17/4 8/18/4 7/19/4 15/20/4 

vt 3 -3.64181e-058
vn 3.08016e-014 3.45893e-031 1
v 3 0.55 -9.24047e-014
vt 3 0.55
v 3.46517e-014 0.55 -0
vt 3.46517e-014 0.55
vt 3.46517e-014 -3.69181e-058
f 12/21/5 16/22/5 17/23/5 13/24/5 

vt 1.04879e-011 9.0612e-028
vn 1 -3.0204e-028 3.46517e-012
vt 3 9.0612e-028
v 3 0.55 -3
vt 1.04879e-011 0.55
f 12/25/6 15/26/6 18/22/6 16/27/6 

vt -1.74611 1.21371e-014
vn -1.84236e-014 -9.00352e-029 -1
vt -3 0.55
vt -3 2.70106e-028
f 7/28/7 11/14/7 18/29/7 15/30/7 

vt 3 3
vn -2.84683e-015 1 -6.08277e-016
vt 1.74611 3
v 1.46261 0.55 -2.57572
vt 1.46261 2.57572
v 0.977476 0.55 -2.02252
vt 0.977476 2.02252
v 0.424283 0.55 -1.53739
vt 0.424283 1.53739
v 1.15506e-014 0.55 -1.25389
vt 1.31163e-014 1.25389
vt 3.62175e-014 -3.34553e-016
vt 3 9.20701e-014
f 18/31/8 11/32/8 19/33/8 20/34/8 21/35/8 22/36/8 17/37/8 16/38/8 

usemtl Stone
vt 3.4645 0.55
vn 0.83147 2.70499e-015 0.55557
vt 3.4645 0.63
v 1.46261 0.63 -2.57572
vt 2.95421 0.63
vn 0.793353 2.62884e-015 0.608761
vt 2.95421 0.55
f 11/39/9 10/40/9 23/41/10 19/42/10 

v 0 0.63 -1.70393
vt -8.21084e-015 1.70393
vn 1.30331e-014 1 1.24782e-014
v 1.15506e-014 0.63 -1.25389
vt 3.33974e-015 1.25389
v 0.424283 0.63 -1.53739
v 0.977476 0.63 -2.02252
vt 1.29607 3
v 1.16511 0.63 -2.804
vt 1.16511 2.804
v 0.712311 0.63 -2.28769
vt 0.712311 2.28769
v 0.195998 0.63 -1.83489
vt 0.195998 1.83489
f 24/43/11 25/44/11 26/35/11 27/34/11 23/33/11 10/32/11 9/45/11 28/46/11 29/47/11 30/48/11 

vt -3 4.59951e-024
vn -1 -5.47201e-013 -6.27857e-012
vt -1.25389 3.45164e-015
vt -1.25389 0.55
vt -1.25389 0.63
vt -1.70393 0.63
f 8/49/12 14/50/12 22/51/12 25/52/12 24/53/12 4/4/12 3/3/12 2/2/12 

usemtl Grass
vt 6.3841e-028 -2.55712e-044
vn -1 -7.3795e-031 1.84236e-014
vt 6.3841e-028 0.55
f 13/54/13 17/55/13 22/51/13 14/50/13 

usemtl Stone
vt 1.20691 0.55
vn 0.608761 2.21562e-015 0.793353
vt 1.20691 0.63
vt 0.696624 0.63
vn 0.55557 2.08738e-015 0.83147
vt 0.696624 0.55
f 21/56/14 26/57/14 25/58/15 22/59/15 

vt 2.06845 0.55
vn 0.707107 2.44313e-015 0.707107
vt 2.06845 0.63
vt 1.33266 0.63
vt 1.33266 0.55
f 20/60/16 27/61/16 26/62/14 21/63/14 

vt 2.90089 0.55
vt 2.90089 0.63
vt 2.16511 0.63
vt 2.16511 0.55
f 19/64/10 23/65/10 27/66/16 20/67/16 

v 0.195998 0.6 -1.83489
vt -1.18238 0.6
vn -0.608761 1.78337e-014 -0.793353
vt -0.946655 0.6
vn -0.55557 1.7616e-014 -0.83147
vt -0.946655 0.63
vt -1.18238 0.63
f 31/68/17 4/69/18 24/70/18 30/71/17 

usemtl Asphalt
vt 1.04305e-011 3
vn -4.85429e-016 1 -7.30841e-016
vt 2.91257e-016 1.70393
v 0.712311 0.6 -2.28769
v 1.16511 0.6 -2.804
f 1/72/19 4/73/19 31/48/19 32/47/19 33/46/19 5/45/19 

usemtl Stone
vt -2.04392 0.6
vn -0.707107 1.80392e-014 -0.707107
vt -1.35719 0.6
vt -1.35719 0.63
vt -2.04392 0.63
f 32/74/20 31/75/17 30/76/17 29/77/20 

vt -2.87637 0.6
vn -0.793353 1.79361e-014 -0.608761
vt -2.18963 0.6
vt -2.18963 0.63
vt -2.87637 0.63
f 33/78/21 32/79/20 29/80/20 28/81/21 

vt -3.21446 0.6
vn -0.83147 1.77691e-014 -0.55557
vt -2.97874 0.6
vt -2.97874 0.63
vt -3.21446 0.63
f 5/82/22 33/83/21 28/84/21 9/85/22 

