# Alias OBJ Model File
# Exported from SketchUp, (c) 2000-2012 Trimble Navigation Limited
# File units = meters

mtllib roadTile_201.mtl

g Mesh1 Group1 Model

usemtl Stone
v 3 0 -3
vt 3 -2.29514e-008
vn 1 7.65045e-009 4.53895e-009
v 3 1.73 -3
vt 3 1.73
v 3 1.73 -2.25
vt 2.25 1.73
v 3 0.6 -2.25
vt 2.25 0.6
v 3 0.3 -2.25
vt 2.25 0.3
v 3 0.3 -0.75
vt 0.75 0.3
v 3 0.6 -0.75
vt 0.75 0.6
v 3 1.73 -0.75
vt 0.75 1.73
v 3 1.73 -2.56485e-008
vt 3.92654e-008 1.73
v 3 0 -3.15605e-008
vt 4.51773e-008 -2.29514e-008
f 1/1/1 2/2/1 3/3/1 4/4/1 5/5/1 6/6/1 7/7/1 8/8/1 9/9/1 10/10/1 

v 1.18239e-009 1.73 -3
vt -1.29909e-008 1.73
vn -3.93617e-009 1.20674e-008 -1
v 0.75 1.73 -3
vt -0.75 1.73
v 0.75 1.7 -3
vt -0.75 1.7
v 0.75 1.4 -3
vt -0.75 1.4
v 2.25 1.4 -3
vt -2.25 1.4
v 2.25 1.7 -3
vt -2.25 1.7
v 2.25 1.73 -3
vt -2.25 1.73
vt -3 1.73
vt -3 -3.62022e-008
v 0 0 -3
vt -1.18085e-008 -3.62022e-008
f 11/11/2 12/12/2 13/13/2 14/14/2 15/15/2 16/16/2 17/17/2 2/18/2 1/19/2 18/20/2 

v 0.375 1.73 -0.75
vt 0.375 0.75
vn 9.21513e-008 1 4.70648e-008
v 2.01007e-008 1.73 -0.75
vt -1.39321e-007 0.75
v 3.19246e-008 1.73 -2.56484e-008
vt -1.27497e-007 1.07071e-007
v 0.75 1.73 -0
vt 0.75 8.14222e-008
vt 0.75 3
vt -1.58239e-007 3
v 3.54719e-009 1.73 -2.25
vt -1.55875e-007 2.25
v 0.375 1.73 -2.25
vt 0.375 2.25
f 19/21/3 20/22/3 21/23/3 22/24/3 12/25/3 11/26/3 23/27/3 24/28/3 

v 2.625 1.4 -0.75
vt -2.625 1.4
vn -4.07023e-014 7.29044e-009 -1
v 2.625 1.73 -0.75
vt -2.625 1.73
vt -3 0.6
v 3.75394e-014 0.6 -0.75
vt -6.80661e-014 0.6
vt -2.01007e-008 1.73
vt -0.375 1.73
v 0.375 1.4 -0.75
vt -0.375 1.4
f 25/29/4 26/30/4 8/18/4 7/31/4 27/32/4 20/33/4 19/34/4 28/35/4 

v 2.625 1.4 -2.25
vt 2.25 1.4
vn 1 1.87681e-008 -7.30053e-009
v 2.625 1.73 -2.25
vt 0.75 1.4
f 29/36/5 30/3/5 26/8/5 25/37/5 

vt 3 0.6
vn 3.6653e-014 -3.25111e-009 1
vt 2.625 1.73
vt 2.625 1.4
v 0.375 1.4 -2.25
vt 0.375 1.4
vt 0.375 1.73
vt 3.54727e-009 1.73
v 2.16573e-014 0.6 -2.25
vt 1.04127e-013 0.6
f 4/38/6 3/2/6 30/39/6 29/40/6 31/41/6 24/42/6 23/43/6 32/44/6 

vt 3 3
vn -9.23956e-008 1 1.8475e-008
vt 2.25 3
v 2.25 1.73 -2.79396e-008
vt 2.25 5.99013e-008
vt 3 5.76103e-008
vt 3 0.75
vt 2.625 0.75
vt 2.625 2.25
vt 3 2.25
f 2/45/7 17/46/7 33/47/7 9/48/7 8/49/7 26/50/7 30/51/7 3/52/7 

vn -1 9.55043e-015 1.28184e-008
vt -3 1.7
v 2.25 1.7 -5.58783e-009
vt 2.32535e-008 1.7
vt 9.0176e-010 1.73
f 17/18/8 16/53/8 34/54/8 33/55/8 

usemtl Asphalt
vn 9.10488e-022 1 5.91196e-008
v 0.75 1.7 -5.5879e-009
vt 0.75 1.06091e-007
vt 2.25 1.06091e-007
f 16/46/9 13/25/9 35/56/9 34/57/9 

vn 1.15506e-014 -5.77529e-014 -1
f 13/13/10 16/16/10 15/15/10 14/14/10 

usemtl Stone
vt 3 1.7
vn 1 2.38759e-015 -1.28184e-008
vt -9.61377e-009 1.73
vt -4.02588e-009 1.7
f 13/58/11 12/2/11 22/59/11 35/60/11 

vt 3 -1.99612e-016
vn 3.96064e-009 -1.01436e-008 1
vt 2.25 1.7
v 2.25 1.4 -5.58794e-009
v 0.75 1.4 -5.58791e-009
vt 0.75 1.7
vt 3.19246e-008 1.73
v 4.909e-014 0 -3.15603e-008
vt 4.9215e-014 -3.20136e-016
f 10/61/12 9/2/12 33/3/12 34/62/12 36/36/12 37/37/12 35/63/12 22/8/12 21/64/12 38/65/12 

usemtl Asphalt
vn -3.85019e-015 -1.73259e-013 1
f 34/62/13 35/63/13 37/37/13 36/36/13 

usemtl Stone
vt -2.56484e-008 1.73
vn -1 1.12741e-008 5.38265e-009
vt -0.75 0.6
v 3.75394e-014 0.3 -0.75
vt -0.75 0.3
v 2.16573e-014 0.3 -2.25
vt -2.25 0.3
vt -2.25 0.6
vt -3 1.82053e-016
vt -3.15603e-008 5.55358e-022
f 21/66/14 20/12/14 27/67/14 39/68/14 40/69/14 32/70/14 23/17/14 11/18/14 18/71/14 38/72/14 

usemtl Asphalt
vn -1 0 1.0588e-014
f 32/70/15 40/69/15 39/68/15 27/67/15 

vt 2.16573e-014 2.25
vn 0 1 -0
vt 3.75394e-014 0.75
f 32/73/16 27/74/16 7/49/16 4/52/16 

vn 1 -2.88765e-014 -1.15506e-014
f 7/7/17 6/6/17 5/5/17 4/4/17 

usemtl Stone
vt -3 3.15605e-008
vn 1.20638e-033 -1 -1.33118e-033
vt -4.909e-014 3.15603e-008
vt 0 3
vt -3 3
f 10/75/18 38/76/18 18/77/18 1/78/18 

vt -2.625 2.25
vn -4.81275e-016 -1 -2.95598e-008
vt -2.625 0.75
vt -0.375 0.75
vt -0.375 2.25
f 29/79/19 25/80/19 28/81/19 31/82/19 

vn -1 1.87681e-008 1.83362e-008
f 28/14/20 19/12/20 24/17/20 31/15/20 

