# Alias OBJ Model File
# Exported from SketchUp, (c) 2000-2012 Trimble Navigation Limited
# File units = meters

mtllib roadTile_225.mtl

g Mesh1 Group1 Model

usemtl Asphalt
v 3.46517e-014 1.73 -0.375
vt -0.375 1.73
vn -1 -3.50018e-014 1.54008e-014
v 1.73259e-014 1.73 -1.875
vt -1.875 1.73
v 2.31012e-014 1.4 -1.875
vt -1.875 1.4
v 5.19776e-014 1.4 -0.375
vt -0.375 1.4
f 1/1/1 2/2/1 3/3/1 4/4/1 

vt 0.375 0.609809
vn 0.35249 0.935815 -6.77213e-015
v 3 0.6 -0.375
vt 0.375 -2.59595
v 3 0.6 -1.875
vt 1.875 -2.59595
vt 1.875 0.609809
f 1/5/2 5/6/2 6/7/2 2/8/2 

usemtl Stone
v 3 1.73 -0.375
vt -3 1.73
vn -1.9251e-014 0 -1
vt -3 0.6
vt -4.18709e-014 1.73
f 7/9/3 5/10/3 1/11/3

v 3 1.6243e-015 -2.31012e-014
vt 4.15821e-014 7.49853e-015
vn 1 -1.95808e-015 6.16031e-015
v 3 0 -2.25
vt 2.25 5.87423e-015
v 3 1.73 -2.25
vt 2.25 1.73
v 3 1.73 -1.875
vt 1.875 1.73
vt 1.875 0.6
v 3 0.3 -1.875
vt 1.875 0.3
v 3 0.3 -0.375
vt 0.375 0.3
vt 0.375 0.6
vt 0.375 1.73
v 3 1.73 -2.31012e-014
vt 4.15821e-014 1.73
f 8/12/4 9/13/4 10/14/4 11/15/4 6/16/4 12/17/4 13/18/4 5/19/4 7/20/4 14/21/4 

vt -3 2.25
vn -4.21115e-016 -1 3.27378e-016
vt -3 2.31012e-014
v 0 2.34621e-015 -0
vt 9.88025e-031 -7.68099e-031
v 2.31012e-014 2.34621e-015 -2.25
vt -2.31012e-014 2.25
f 9/22/5 8/23/5 15/24/5 16/25/5 

vt 3 1.73
vn 7.70039e-015 -2.54315e-029 1
v 0 1.73 -0
vt 0 1.73
vt 0 2.34621e-015
vt 3 1.6243e-015
f 14/26/6 17/27/6 15/28/6 8/29/6 

vt 3.46517e-014 0.375
vn 0 1 -0
vt 0 0
vt 3 2.31012e-014
vt 3 0.375
f 1/30/7 17/31/7 14/32/7 7/33/7 

vt -2.25 2.34621e-015
vn -1 5.99913e-015 -2.36935e-015
v 2.31012e-014 1.73 -2.25
vt -2.25 1.73
f 16/34/8 15/28/8 17/27/8 1/1/8 4/4/8 3/3/8 2/2/8 18/35/8 

vt 3 1.875
vt 3 2.25
vt 2.31012e-014 2.25
vt 1.73259e-014 1.875
f 11/36/7 10/37/7 18/38/7 2/39/7 

vt -4.0427e-014 1.73
vn -7.70039e-015 -3.34331e-033 -1
vt -3 7.52245e-033
vt -4.0427e-014 2.34621e-015
f 18/40/9 10/9/9 9/41/9 16/42/9 

vn 1.54008e-014 0 1
vt 4.62023e-014 1.73
vt 3 0.6
f 11/26/10 2/43/10 6/44/10

usemtl Asphalt
vn 1 -9.62549e-015 -1.73259e-014
f 5/19/11 13/18/11 12/17/11 6/16/11 

