# Alias OBJ Model File
# Exported from SketchUp, (c) 2000-2012 Trimble Navigation Limited
# File units = meters

mtllib roadTile_237.mtl

g Mesh1 Group1 Model

usemtl Stone
v 4.54804e-014 1.15 -2.25
vt 8.22979e-014 1.15
vn 1.63633e-014 5.44077e-027 1
v 3 0.6 -2.25
vt 3 0.6
v 3 0.63 -2.25
vt 3 0.63
v 4.54804e-014 1.18 -2.25
vt 8.22979e-014 1.18
f 1/1/1 2/2/1 3/3/1 4/4/1 

usemtl Asphalt
vt 2.25 -2.84262
vn 0.180328 0.983607 -2.46144e-015
vt 2.25 0.207377
v 5.7031e-014 1.15 -0.75
vt 0.75 0.207377
v 3 0.6 -0.75
vt 0.75 -2.84262
f 2/5/2 1/6/2 5/7/2 6/8/2 

vt -2.25 1.15
vn -1 9.62549e-015 1.54008e-014
v 3.68175e-014 0.85 -2.25
vt -2.25 0.85
v 5.7031e-014 0.85 -0.75
vt -0.75 0.85
vt -0.75 1.15
f 1/9/3 7/10/3 8/11/3 5/12/3 

usemtl Stone
v 6.13625e-014 1.18 -3
vt -3 1.18
vn -1 1.19761e-014 -1.20756e-014
v 6.13625e-014 1.12799e-017 -3
vt -3 1.12799e-017
v 0 1.12799e-017 -2.88765e-015
vt -2.88765e-015 1.12799e-017
v 0 1.18 -0
vt 0 1.18
v 5.7031e-014 1.18 -0.75
vt -0.75 1.18
vt -2.25 1.18
f 9/13/4 10/14/4 11/15/4 12/16/4 13/17/4 5/12/4 8/11/4 7/10/4 1/9/4 4/18/4 

v 3 9.47509e-016 -3
vt -3 -1.04785e-014
vn -1.60142e-014 3.80866e-015 -1
vt -1.09405e-013 -1.14147e-014
vt -1.09405e-013 1.18
v 3 0.63 -3
vt -3 0.63
f 14/19/5 10/20/5 9/21/5 15/22/5 

vt -1.73888e-033 2.88765e-015
vn 1.54158e-016 -1 -1.57918e-016
vt -6.13625e-014 3
vt -3 3
v 3 0 -5.77529e-014
vt -3 5.77529e-014
f 11/23/6 10/24/6 14/25/6 16/26/6 

vt 2.25 0.63
vn 1 -8.89493e-015 1.01505e-014
vt 2.25 0.6
v 3 0.3 -2.25
vt 2.25 0.3
v 3 0.3 -0.75
vt 0.75 0.3
vt 0.75 0.6
v 3 0.63 -0.75
vt 0.75 0.63
v 3 0.63 -5.77529e-014
vt 8.82044e-014 0.63
vt 8.82044e-014 2.66848e-014
vt 3 2.76323e-014
f 3/27/7 2/28/7 17/29/7 18/30/7 6/31/7 19/32/7 20/33/7 16/34/7 14/35/7 15/3/7 

usemtl Asphalt
vn 1 2.40637e-014 -1.82884e-014
f 2/28/8 6/31/8 18/30/8 17/29/8 

usemtl Stone
vt -3 0.6
vn -1.54008e-014 -5.44077e-027 -1
vt -6.85816e-014 1.15
vt -6.85816e-014 1.18
f 6/36/9 5/37/9 13/38/9 19/22/9 

vt 0.75 0.212787
vn 0.180328 0.983607 1.59828e-014
vt 0 0.212787
vt 3.23648e-013 -2.83721
vt 0.75 -2.83721
f 13/39/10 12/40/10 20/41/10 19/42/10 

vt 5.18023e-029 1.12799e-017
vn 1.79393e-014 -3.80866e-015 1
vt 3 -1.49872e-029
f 11/43/11 16/44/11 20/3/11 12/16/11 

vt 2.25 -2.83721
vn 0.180328 0.983607 6.26315e-015
vt 3 -2.83721
vt 3 0.212787
vt 2.25 0.212787
f 3/45/12 15/46/12 9/47/12 4/48/12 

