# Alias OBJ Model File
# Exported from SketchUp, (c) 2000-2012 Trimble Navigation Limited
# File units = meters

mtllib roadTile_169.mtl

g Mesh1 Group1 Model

usemtl Grass
v 3 0 -3.46517e-014
vt 2.19461e-013 3.15016e-014
vn 1 -1.05005e-014 6.16031e-014
v 3 0 -0.75
vt 0.75 3.15016e-014
v 3 1.65 -0.75
vt 0.75 1.65
v 3 1.65 -3.46517e-014
vt 2.19461e-013 1.65
f 1/1/1 2/2/1 3/3/1 4/4/1 

vt -3 3.46517e-014
vn 3.61914e-033 -1 -3.99353e-033
v 6.20844e-014 0 -0
vt -6.20844e-014 -8.97315e-079
v 0 0 -3
vt 0 3
v 3 0 -3
vt -3 3
v 3 0 -2.25
vt -3 2.25
vt -3 0.75
f 1/5/2 5/6/2 6/7/2 7/8/2 8/9/2 2/10/2 

v 5.77529e-014 1.65 -0
vt 5.77529e-014 1.65
vn 1.63943e-014 0 1
vt 6.20844e-014 0
vt 3 0
vt 3 1.65
f 9/11/3 5/12/3 1/13/3 4/14/3 

vt -3 2.77074e-044
vn -1 5.61879e-031 1.64374e-014
vt 1.0205e-027 3.48839e-044
vt 9.49306e-028 1.65
v 0 1.65 -3
vt -3 1.65
f 6/15/4 5/16/4 9/17/4 10/18/4 

vt 7.90038e-046 3
vn -4.78811e-046 1 -7.18836e-032
vt 5.77529e-014 -1.18608e-031
vt 3 3.46517e-014
vt 3 0.75
v 3 1.65 -2.25
vt 3 2.25
v 3 1.65 -3
vt 3 3
f 10/19/5 9/20/5 4/21/5 3/22/5 11/23/5 12/24/5 

usemtl Water
vt 0.75 6.30032e-014
vn 1 -2.10011e-014 -1.15506e-014
vt 2.25 6.30032e-014
vt 2.25 1.65
f 2/25/6 8/26/6 11/27/6 3/3/6 

usemtl Grass
vn 1 -1.05005e-014 -1.07805e-013
vt 2.25 3.15016e-014
vt 3 3.15016e-014
f 12/14/7 11/27/7 8/28/7 7/29/7 

vn -1.63943e-014 0 -1
vt -3 0
vt -4.91829e-014 0
vt -4.91829e-014 1.65
f 12/18/8 7/30/8 6/31/8 10/32/8 

