# Alias OBJ Model File
# Exported from SketchUp, (c) 2000-2012 Trimble Navigation Limited
# File units = meters

mtllib roadTile_184.mtl

g Mesh1 Group1 Model

usemtl Grass
v 0 1.65 -0
vt 0 1.65
vn -1 0 -9.24047e-014
v 3.75394e-014 1.65 -0.375
vt -0.375 1.65
v 3.75394e-014 1.08287e-015 -0.375
vt -0.375 1.08287e-015
v 0 1.08287e-015 -0
vt 0 1.08287e-015
f 1/1/1 2/2/1 3/3/1 4/4/1 

v 3 1.65 -5.19776e-014
vt 3 5.19776e-014
vn 0 1 -0
v 3 1.65 -0.375
vt 3 0.375
vt 3.75394e-014 0.375
vt 0 0
f 5/5/2 6/6/2 2/7/2 1/8/2 

v 3 0 -5.19776e-014
vt 2.77214e-013 1.18131e-014
vn 1 -3.9377e-015 7.50788e-014
v 3 0 -0.375
vt 0.375 1.18131e-014
vt 0.375 1.65
vt 2.77214e-013 1.65
f 7/9/3 8/10/3 6/11/3 5/12/3 

vt 6.51445e-032 1.34319e-032
vn -6.01593e-017 -1 -1.2404e-017
vt -3.75394e-014 0.375
v 6.35282e-014 1.08287e-015 -2.625
vt -6.35282e-014 2.625
v 6.64159e-014 1.08287e-015 -3
vt -6.64159e-014 3
v 3 1.08287e-015 -3
vt -3 3
v 3 1.08287e-015 -2.625
vt -3 2.625
vt -3 0.375
vt -3 5.19776e-014
f 4/13/4 3/14/4 9/15/4 10/16/4 11/17/4 12/18/4 8/19/4 7/20/4 

usemtl Stone
v 6.06406e-014 1.73 -2.625
vt -2.625 1.73
vn -1 -1.38519e-015 -3.25786e-015
v 6.06406e-014 1.65 -2.625
vt -2.625 1.65
vt -2.625 1.08287e-015
v 3.75394e-014 1.73 -0.375
vt -0.375 1.73
v 7.21911e-014 1.73 -0.75
vt -0.75 1.73
v 7.21911e-014 0.6 -0.75
vt -0.75 0.6
v 7.21911e-014 0.3 -0.75
vt -0.75 0.3
v 4.62023e-014 0.3 -2.25
vt -2.25 0.3
v 5.19776e-014 0.6 -2.25
vt -2.25 0.6
v 5.19776e-014 1.73 -2.25
vt -2.25 1.73
f 13/21/5 14/22/5 9/23/5 3/3/5 2/2/5 15/24/5 16/25/5 17/26/5 18/27/5 19/28/5 20/29/5 21/30/5 

vt -1.01068e-013 1.73
vn -1.54008e-014 0 -1
v 3 1.73 -2.625
vt -3 1.73
v 3 1.65 -2.625
vt -3 1.65
vt -1.01068e-013 1.65
f 13/31/6 22/32/6 23/33/6 14/34/6 

v 3 1.73 -2.25
vt 3 2.25
vt 3 2.625
vt 6.06406e-014 2.625
vt 5.19776e-014 2.25
f 24/35/2 22/36/2 13/37/2 21/38/2 

vt 0.375 -1.74642e-014
vn 1 5.82139e-015 -1.36238e-014
vt 2.625 -1.63813e-014
vt 2.625 1.65
vt 2.625 1.73
vt 2.25 1.73
v 3 0.6 -2.25
vt 2.25 0.6
v 3 0.3 -2.25
vt 2.25 0.3
v 3 0.3 -0.75
vt 0.75 0.3
v 3 0.6 -0.75
vt 0.75 0.6
v 3 1.73 -0.75
vt 0.75 1.73
v 3 1.73 -0.375
vt 0.375 1.73
f 8/39/7 12/40/7 23/41/7 22/42/7 24/43/7 25/44/7 26/45/7 27/46/7 28/47/7 29/48/7 30/49/7 6/11/7 

usemtl Grass
v 3 1.65 -3
vt 3 1.65
vn 1 8.31292e-015 1.63633e-013
vt 2.625 -2.38559e-014
vt 3 -2.38559e-014
f 31/50/8 23/41/8 12/51/8 11/52/8 

v 6.64159e-014 1.65 -3
vt 6.64159e-014 3
vt 3 3
f 32/53/2 14/37/2 23/36/2 31/54/2 

vt -3 1.08287e-015
vn -1 -4.37522e-016 -2.11761e-014
f 10/55/9 9/23/9 14/22/9 32/33/9 

vn -1.63633e-014 0 -1
vt -1.15506e-013 1.08287e-015
vt -1.15506e-013 1.65
f 11/55/10 10/56/10 32/57/10 31/33/10 

usemtl Stone
vt 8.88648e-014 0.6
vn 1.63943e-014 0 1
vt 3 0.6
vt 3 1.73
vt 8.88648e-014 1.73
f 20/58/11 25/59/11 24/60/11 21/61/11 

usemtl Asphalt
vt 7.21911e-014 0.75
vt 3 0.75
f 25/35/2 20/38/2 17/62/2 28/63/2 

vn -1 9.62549e-015 1.54008e-014
f 20/29/12 19/28/12 18/27/12 17/26/12 

usemtl Stone
vt -3 0.6
vn -1.63943e-014 0 -1
vt -8.44869e-014 0.6
vt -8.44869e-014 1.73
f 28/64/13 17/65/13 16/66/13 29/32/13 

f 16/62/2 15/7/2 30/6/2 29/63/2 

vn 2.31012e-014 0 1
vt 4.62023e-014 1.73
vt 4.62023e-014 1.65
f 30/60/14 15/67/14 2/68/14 6/50/14 

usemtl Asphalt
vn 1 -1.9251e-014 -1.54008e-014
f 28/47/15 27/46/15 26/45/15 25/44/15 

usemtl Grass
vn 1.6243e-014 -1.11873e-030 1
vt 3 -3.63432e-045
f 4/4/16 7/69/16 5/50/16 1/1/16 

