# Alias OBJ Model File
# Exported from SketchUp, (c) 2000-2012 Trimble Navigation Limited
# File units = meters

mtllib roadTile_111.mtl

g Mesh1 Group1 Model

usemtl Stone
v 0.768845 0.6 -1.85616
vt -1.8019 0.6
vn -0.707107 9.37181e-017 -0.707107
v 1.027 0.6 -2.08255
vt -2.14526 0.6
vn -0.608761 1.28516e-016 -0.793353
v 1.027 1.44382e-015 -2.08255
vt -2.14526 1.34487e-015
v 0.768845 1.44382e-015 -1.85616
vt -1.8019 1.34487e-015
f 1/1/1 2/2/2 3/3/2 4/4/1 

v 2.625 0.6 -2.25
vt 2.625 2.25
vn -2.1467e-017 1 3.36778e-016
v 2.625 0.6 -2.625
vt 2.625 2.625
v 2.28237 0.6 -2.60254
vt 2.28237 2.60254
v 1.9456 0.6 -2.53556
vt 1.9456 2.53556
v 1.62046 0.6 -2.42518
vt 1.62046 2.42518
v 1.3125 0.6 -2.27332
vt 1.3125 2.27332
vt 1.027 2.08255
vt 0.768845 1.85616
v 0.542447 0.6 -1.598
vt 0.542447 1.598
v 0.351683 0.6 -1.3125
vt 0.351683 1.3125
v 0.199816 0.6 -1.00454
vt 0.199816 1.00454
v 0.0894447 0.6 -0.6794
vt 0.0894447 0.6794
v 0.0224572 0.6 -0.342631
vt 0.0224572 0.342631
v 0 0.6 -1.11768e-008
vt 1.28802e-017 1.11768e-008
v 0.375 0.6 -0
vt 0.375 2.02067e-016
v 0.394249 0.6 -0.293684
vt 0.394249 0.293684
v 0.451667 0.6 -0.582343
vt 0.451667 0.582343
v 0.546271 0.6 -0.861038
vt 0.546271 0.861038
v 0.676443 0.6 -1.125
vt 0.676443 1.125
v 0.839955 0.6 -1.36971
vt 0.839955 1.36971
v 1.03401 0.6 -1.59099
vt 1.03401 1.59099
v 1.25529 0.6 -1.78505
vt 1.25529 1.78505
v 1.5 0.6 -1.94856
vt 1.5 1.94856
v 1.76396 0.6 -2.07873
vt 1.76396 2.07873
v 2.04266 0.6 -2.17333
vt 2.04266 2.17333
v 2.33132 0.6 -2.23075
vt 2.33132 2.23075
f 5/5/3 6/6/3 7/7/3 8/8/3 9/9/3 10/10/3 2/11/3 1/12/3 11/13/3 12/14/3 13/15/3 14/16/3 15/17/3 16/18/3 17/19/3 18/20/3 19/21/3 20/22/3 21/23/3 22/24/3 23/25/3 24/26/3 25/27/3 26/28/3 27/29/3 28/30/3 

v 2.625 0 -2.23535e-008
vt 2.23535e-008 -8.36422e-015
vn 1 3.18637e-015 -1.37014e-014
v 2.625 0 -2.625
vt 2.625 -8.36422e-015
vt 2.625 0.6
vt 2.25 0.6
v 2.625 0.3 -2.25
vt 2.25 0.3
v 2.625 0.3 -2.23535e-008
vt 2.23535e-008 0.3
f 29/31/4 30/32/4 6/33/4 5/34/4 31/35/4 32/36/4 

vt -2.625 2.23535e-008
vn 0 -1 -0
v 0 0 -1.67652e-008
vt 0 1.67652e-008
v 0.0224572 7.21911e-016 -0.342631
vt -0.0224572 0.342631
v 0.0894447 7.21911e-016 -0.6794
vt -0.0894447 0.6794
v 0.199816 1.08287e-015 -1.00454
vt -0.199816 1.00454
v 0.351683 1.08287e-015 -1.3125
vt -0.351683 1.3125
v 0.542447 1.44382e-015 -1.598
vt -0.542447 1.598
vt -0.768845 1.85616
vt -1.027 2.08255
v 1.3125 1.44382e-015 -2.27332
vt -1.3125 2.27332
v 1.62046 1.80478e-015 -2.42518
vt -1.62046 2.42518
v 1.9456 1.80478e-015 -2.53556
vt -1.9456 2.53556
v 2.28237 1.80478e-015 -2.60254
vt -2.28237 2.60254
vt -2.625 2.625
f 29/37/5 33/38/5 34/39/5 35/40/5 36/41/5 37/42/5 38/43/5 4/44/5 3/45/5 39/46/5 40/47/5 41/48/5 42/49/5 30/50/5 

vt 4.19272e-017 0.6
vn 3.75127e-009 -1.62513e-008 1
vt 6.28908e-017 -2.72456e-016
vt 2.625 -2.03245e-016
vt 2.625 0.3
v 0.375 0.3 -5.58838e-009
vt 0.375 0.3
vt 0.375 0.6
f 16/51/6 33/52/6 29/53/6 32/54/6 43/55/6 17/56/6 

vt -1.11529e-008 0.6
vn -0.997859 3.04581e-010 -0.0654031
vt -0.343366 0.6
vn -0.991445 1.52617e-010 -0.130526
vt -0.343366 7.21633e-016
vt -1.67293e-008 -3.33972e-019
f 16/57/7 15/58/8 34/59/8 33/60/7 

vt -0.340429 0.6
vt -0.683795 0.6
vn -0.965926 -5.52063e-017 -0.258819
vt -0.683795 7.2521e-016
vt -0.340429 7.2521e-016
f 15/61/8 14/62/9 35/63/9 34/64/8 

vt -0.672095 0.6
vt -1.01546 0.6
vn -0.92388 -1.77878e-017 -0.382683
vt -1.01546 1.08776e-015
vt -0.672095 7.26801e-016
f 14/65/9 13/66/10 36/67/10 35/68/9 

vt -0.989325 0.6
vt -1.33269 0.6
vn -0.866025 1.99352e-017 -0.5
vt -1.33269 1.08258e-015
vt -0.989325 1.08258e-015
f 13/69/10 12/70/11 37/71/11 36/72/10 

vt -1.28669 0.6
vt -1.63006 0.6
vn -0.793353 5.7317e-017 -0.608761
vt -1.63006 1.42692e-015
vt -1.28669 1.06596e-015
f 12/73/11 11/74/12 38/75/12 37/76/11 

vt -1.5591 0.6
vt -1.90247 0.6
vt -1.90247 1.39495e-015
vt -1.5591 1.39495e-015
f 11/77/12 1/78/1 4/79/1 38/80/12 

usemtl Asphalt
vn 8.69308e-009 -9.31397e-009 1
v 2.625 0.6 -2.23535e-008
f 17/56/13 43/55/13 32/54/13 44/33/13 

vt 2.23535e-008 0.6
vn 1 -4.92846e-030 -1.66842e-014
f 44/81/14 32/36/14 31/35/14 5/34/14 

vt 2.625 2.23535e-008
vn -1.88775e-016 1 -2.93567e-018
vt 0.375 -1.7614e-018
f 44/82/15 5/5/15 28/30/15 27/29/15 26/28/15 25/27/15 24/26/15 23/25/15 22/24/15 21/23/15 20/22/15 19/21/15 18/20/15 17/83/15 

usemtl Stone
vt -2.01092 0.6
vt -2.35429 0.6
vn -0.5 1.61114e-016 -0.866025
vt -2.35429 1.27533e-015
vt -2.01092 1.27533e-015
f 2/84/2 10/85/16 39/86/16 3/87/2 

vt -2.18261 0.6
vt -2.52597 0.6
vn -0.382683 1.90956e-016 -0.92388
vt -2.52597 1.5475e-015
vt -2.18261 1.18655e-015
f 10/88/16 9/89/17 40/90/17 39/91/16 

vt -2.31401 0.6
vt -2.65737 0.6
vn -0.258819 2.17531e-016 -0.965926
vt -2.65737 1.44135e-015
vt -2.31401 1.44135e-015
f 9/92/17 8/93/18 41/94/18 40/95/17 

vt -2.40288 0.6
vt -2.74624 0.6
vn -0.130526 1.15283e-016 -0.991445
vt -2.74624 1.32127e-015
vt -2.40288 1.32127e-015
f 8/96/18 7/97/19 42/98/19 41/99/18 

vt -2.4477 0.6
vt -2.79106 0.6
vn -0.0654031 6.24286e-019 -0.997859
vt -2.79106 -1.52806e-018
vt -2.4477 1.80325e-015
f 7/100/19 6/101/20 30/102/20 42/103/19 

