# Alias OBJ Model File
# Exported from SketchUp, (c) 2000-2012 Trimble Navigation Limited
# File units = meters

mtllib roadTile_284.mtl

g Mesh1 Group1 Model

usemtl Stone
v 1.14384 0.55 -1.14384
vt 0.105799 0.55
vn -0.707107 -5.12471e-016 0.707107
v 1.402 0.55 -0.917448
vt 0.449165 0.55
vn -0.608761 -4.90385e-016 0.793353
v 1.402 0.63 -0.917448
vt 0.449165 0.63
v 1.14384 0.63 -1.14384
vt 0.105799 0.63
f 1/1/1 2/2/2 3/3/2 4/4/1 

usemtl Grass
v 3 0.55 -0
vt 3 -8.92733e-019
vn -1.83456e-016 1 -1.62315e-018
v 3 0.55 -0.375
vt 3 0.375
v 2.65737 0.55 -0.397457
vt 2.65737 0.397457
v 2.3206 0.55 -0.464445
vt 2.3206 0.464445
v 1.99546 0.55 -0.574816
vt 1.99546 0.574816
v 1.6875 0.55 -0.726683
vt 1.6875 0.726683
vt 1.402 0.917448
vt 1.14384 1.14384
v 0.917447 0.55 -1.402
vt 0.917447 1.402
v 0.726683 0.55 -1.6875
vt 0.726683 1.6875
v 0.574816 0.55 -1.99546
vt 0.574816 1.99546
v 0.464445 0.55 -2.3206
vt 0.464445 2.3206
v 0.397457 0.55 -2.65737
vt 0.397457 2.65737
v 0.375 0.55 -3
vt 0.375 3
v 5.54428e-013 0.55 -3
vt 5.54529e-013 3
v 0 0.55 -4.0427e-013
vt 1.00901e-016 4.0427e-013
f 5/5/3 6/6/3 7/7/3 8/8/3 9/9/3 10/10/3 2/11/3 1/12/3 11/13/3 12/14/3 13/15/3 14/16/3 15/17/3 16/18/3 17/19/3 18/20/3 

v 3 2.52669e-015 -0
vt 5.08226e-013 2.17614e-012
vn 1 -7.24537e-013 1.69409e-013
v 3 2.52669e-015 -0.375
vt 0.375 2.17614e-012
vt 0.375 0.55
vt 5.08226e-013 0.55
f 19/21/4 20/22/4 6/23/4 5/24/4 

vt -3 0.375
vn 1.01643e-016 -1 1.07501e-016
vt -3 -2.38842e-031
v 0 5.41434e-016 -4.0427e-013
vt -5.5033e-032 4.0427e-013
v 5.54428e-013 0 -3
vt -5.54428e-013 3
v 0.375 3.60956e-016 -3
vt -0.375 3
v 0.75 5.41434e-016 -3
vt -0.75 3
v 1.875 1.44382e-015 -3
vt -1.875 3
v 3 2.52669e-015 -3
vt -3 3
v 3 2.52669e-015 -1.875
vt -3 1.875
v 3 2.52669e-015 -0.75
vt -3 0.75
f 20/25/5 19/26/5 21/27/5 22/28/5 23/29/5 24/30/5 25/31/5 26/32/5 27/33/5 28/34/5 

vt -4.98086e-026 0.55
vn -1.23206e-013 4.40302e-026 1
vt -4.98086e-026 5.41434e-016
vt 3 2.52669e-015
vt 3 0.55
f 18/35/6 21/36/6 19/37/6 5/38/6 

vt -4.0427e-013 0.55
vn -1 -2.29178e-015 -2.0736e-013
vt -3 0.55
vt -3 1.55047e-028
vt -4.0427e-013 5.41434e-016
f 18/39/7 17/40/7 22/41/7 21/42/7 

vt -1.84809e-013 0.55
vn 1.23206e-013 1.42604e-030 -1
vt -0.375 0.55
vt -0.375 3.60956e-016
vt -1.84809e-013 -4.27812e-030
f 17/43/8 16/44/8 23/45/8 22/46/8 

usemtl Stone
vt -0.75 5.41434e-016
vn 2.46412e-013 5.9914e-028 -1
v 0.375 0.63 -3
vt -0.375 0.63
v 0.75 0.63 -3
vt -0.75 0.63
v 0.75 0.455 -3
vt -0.75 0.455
f 24/47/9 23/45/9 16/44/9 29/48/9 30/49/9 31/50/9 

vt -2.96905 0.55
vn -0.997859 -4.74714e-016 0.0654031
vt -2.62568 0.55
vn -0.991445 -4.89128e-016 0.130526
v 0.397457 0.63 -2.65737
vt -2.62568 0.63
vt -2.96905 0.63
f 16/51/10 15/52/11 32/53/11 29/54/10 

vt -2.52877 0.55
vt -2.1854 0.55
vn -0.965926 -5.11621e-016 0.258819
v 0.464445 0.63 -2.3206
vt -2.1854 0.63
vt -2.52877 0.63
f 15/55/11 14/56/12 33/57/12 32/58/11 

vt -2.04816 0.55
vt -1.70479 0.55
vn -0.92388 -5.25359e-016 0.382683
v 0.574816 0.63 -1.99546
vt -1.70479 0.63
vt -2.04816 0.63
f 14/59/12 13/60/13 34/61/13 33/62/12 

vt -1.53544 0.55
vt -1.19207 0.55
vn -0.866025 -5.30109e-016 0.5
v 0.726683 0.63 -1.6875
vt -1.19207 0.63
vt -1.53544 0.63
f 13/63/13 12/64/14 35/65/14 34/66/13 

vt -0.999381 0.55
vt -0.656015 0.55
vn -0.793353 -5.25788e-016 0.608761
v 0.917447 0.63 -1.402
vt -0.656015 0.63
vt -0.999381 0.63
f 12/67/14 11/68/15 36/69/15 35/70/14 

vt -0.449165 0.55
vt -0.105799 0.55
vt -0.105799 0.63
vt -0.449165 0.63
f 11/71/15 1/72/1 4/73/1 36/74/15 

vt 0.75 3
vn -4.58267e-016 1 2.66476e-016
v 1.6875 0.63 -0.726683
v 1.99546 0.63 -0.574816
v 2.3206 0.63 -0.464445
v 2.65737 0.63 -0.397457
v 3 0.63 -0.375
v 3 0.63 -0.75
vt 3 0.75
v 2.70632 0.63 -0.769249
vt 2.70632 0.769249
v 2.41766 0.63 -0.826667
vt 2.41766 0.826667
v 2.13896 0.63 -0.921271
vt 2.13896 0.921271
v 1.875 0.63 -1.05144
vt 1.875 1.05144
v 1.63029 0.63 -1.21495
vt 1.63029 1.21495
v 1.40901 0.63 -1.40901
vt 1.40901 1.40901
v 1.21495 0.63 -1.63029
vt 1.21495 1.63029
v 1.05144 0.63 -1.875
vt 1.05144 1.875
v 0.921271 0.63 -2.13896
vt 0.921271 2.13896
v 0.826667 0.63 -2.41766
vt 0.826667 2.41766
v 0.769249 0.63 -2.70632
vt 0.769249 2.70632
f 30/75/16 29/18/16 32/17/16 33/16/16 34/15/16 35/14/16 36/13/16 4/12/16 3/11/16 37/10/16 38/9/16 39/8/16 40/7/16 41/6/16 42/76/16 43/77/16 44/78/16 45/79/16 46/80/16 47/81/16 48/82/16 49/83/16 50/84/16 51/85/16 52/86/16 53/87/16 

vt 0.656015 0.55
vt 0.999381 0.55
vn -0.5 -4.59908e-016 0.866025
vt 0.999381 0.63
vt 0.656015 0.63
f 2/88/2 10/89/17 37/90/17 3/91/2 

vt 1.19207 0.55
vt 1.53544 0.55
vn -0.382683 -4.21563e-016 0.92388
vt 1.53544 0.63
vt 1.19207 0.63
f 10/92/17 9/93/18 38/94/18 37/95/17 

vt 1.70479 0.55
vt 2.04816 0.55
vn -0.258819 -3.76004e-016 0.965926
vt 2.04816 0.63
vt 1.70479 0.63
f 9/96/18 8/97/19 39/98/19 38/99/18 

vt 2.1854 0.55
vt 2.52877 0.55
vn -0.130526 -3.24012e-016 0.991445
vt 2.52877 0.63
vt 2.1854 0.63
f 8/100/19 7/101/20 40/102/20 39/103/19 

vt 2.62568 0.55
vt 2.96905 0.55
vn -0.0654031 -2.95878e-016 0.997859
vt 2.96905 0.63
vt 2.62568 0.63
f 7/104/20 6/105/21 41/106/21 40/107/20 

vt 0.375 0.63
vn 1 -4.99001e-013 1.24275e-013
vt 0.375 1.49953e-012
vt 0.75 1.49953e-012
v 3 0.455 -0.75
vt 0.75 0.455
vt 0.75 0.63
f 41/108/22 6/23/22 20/109/22 28/110/22 54/111/22 42/112/22 

usemtl Sand
vt 0.75 2.0984e-011
vn 1 -6.99381e-012 2.72594e-012
vt 1.875 2.0984e-011
v 3 0.455 -1.875
vt 1.875 0.455
f 28/113/23 27/114/23 55/115/23 54/111/23 

usemtl Water
v 3 0.455 -3
vt 3 0.455
vn 1 -6.75265e-012 -2.63867e-012
vt 1.875 2.02605e-011
vt 3 2.02605e-011
f 56/116/24 55/115/24 27/117/24 26/118/24 

vt 3 3
vn -8.55467e-014 1 9.29379e-017
v 1.875 0.455 -3
vt 1.875 3
v 1.88462 0.455 -2.85316
vt 1.88462 2.85316
v 1.91333 0.455 -2.70883
vt 1.91333 2.70883
v 1.96064 0.455 -2.56948
vt 1.96064 2.56948
v 2.02572 0.455 -2.4375
vt 2.02572 2.4375
v 2.10748 0.455 -2.31514
vt 2.10748 2.31514
v 2.2045 0.455 -2.2045
vt 2.2045 2.2045
v 2.31514 0.455 -2.10748
vt 2.31514 2.10748
v 2.4375 0.455 -2.02572
vt 2.4375 2.02572
v 2.56948 0.455 -1.96064
vt 2.56948 1.96064
v 2.70883 0.455 -1.91333
vt 2.70883 1.91333
v 2.85316 0.455 -1.88462
vt 2.85316 1.88462
vt 3 1.875
f 56/119/25 57/120/25 58/121/25 59/122/25 60/123/25 61/124/25 62/125/25 63/126/25 64/127/25 65/128/25 66/129/25 67/130/25 68/131/25 55/132/25 

vt -3 -2.056e-011
vn -2.5668e-012 6.85419e-012 -1
vt -1.875 -2.05611e-011
vt -1.875 0.455
vt -3 0.455
f 26/133/26 25/134/26 57/135/26 56/136/26 

usemtl Sand
vt -0.75 -2.0562e-011
vn 2.99802e-012 6.85419e-012 -1
f 24/137/27 31/50/27 57/135/27 25/134/27 

vn 1.04802e-013 1 -1.22083e-013
v 0.769249 0.455 -2.70632
v 0.826667 0.455 -2.41766
v 0.921271 0.455 -2.13896
v 1.05144 0.455 -1.875
v 1.21495 0.455 -1.63029
v 1.40901 0.455 -1.40901
v 1.63029 0.455 -1.21495
v 1.875 0.455 -1.05144
v 2.13896 0.455 -0.921271
v 2.41766 0.455 -0.826667
v 2.70632 0.455 -0.769249
f 54/76/28 55/132/28 68/131/28 67/130/28 66/129/28 65/128/28 64/127/28 63/126/28 62/125/28 61/124/28 60/123/28 59/122/28 58/121/28 57/120/28 31/75/28 69/87/28 70/86/28 71/85/28 72/84/28 73/83/28 74/82/28 75/81/28 76/80/28 77/79/28 78/78/28 79/77/28 

usemtl Stone
vt 2.94452 0.455
vn 0.997859 -3.08902e-014 -0.0654031
vt 2.94452 0.63
vt 2.65021 0.63
vn 0.991445 -3.36588e-014 -0.130526
vt 2.65021 0.455
f 31/138/29 30/139/29 53/140/30 69/141/30 

vt 2.50424 0.455
vt 2.50424 0.63
vt 2.20993 0.63
vn 0.965926 -3.87523e-014 -0.258819
vt 2.20993 0.455
f 69/142/30 53/143/30 52/144/31 70/145/31 

vt 2.02363 0.455
vt 2.02363 0.63
vt 1.72931 0.63
vn 0.92388 -4.31828e-014 -0.382683
vt 1.72931 0.455
f 70/146/31 52/147/31 51/148/32 71/149/32 

vt 1.51091 0.455
vt 1.51091 0.63
vt 1.2166 0.63
vn 0.866025 -4.68744e-014 -0.5
vt 1.2166 0.455
f 71/150/32 51/151/32 50/152/33 72/153/33 

vt 0.974855 0.455
vt 0.974855 0.63
vt 0.680541 0.63
vn 0.793353 -4.9764e-014 -0.608761
vt 0.680541 0.455
f 72/154/33 50/155/33 49/156/34 73/157/34 

vt 0.424639 0.455
vt 0.424639 0.63
vt 0.130325 0.63
vn 0.707107 -5.18022e-014 -0.707107
vt 0.130325 0.455
f 73/158/34 49/159/34 48/160/35 74/161/35 

vt -0.130325 0.455
vt -0.130325 0.63
vt -0.424639 0.63
vn 0.608761 -5.29539e-014 -0.793353
vt -0.424639 0.455
f 74/162/35 48/163/35 47/164/36 75/165/36 

vt -0.680541 0.455
vt -0.680541 0.63
vt -0.974855 0.63
vn 0.5 -5.31996e-014 -0.866025
vt -0.974855 0.455
f 75/166/36 47/167/36 46/168/37 76/169/37 

vt -1.2166 0.455
vt -1.2166 0.63
vt -1.51091 0.63
vn 0.382683 -5.25351e-014 -0.92388
vt -1.51091 0.455
f 76/170/37 46/171/37 45/172/38 77/173/38 

vt -1.72931 0.455
vt -1.72931 0.63
vt -2.02363 0.63
vn 0.258819 -5.09716e-014 -0.965926
vt -2.02363 0.455
f 77/174/38 45/175/38 44/176/39 78/177/39 

vt -2.20993 0.455
vt -2.20993 0.63
vt -2.50424 0.63
vn 0.130526 -4.85361e-014 -0.991445
vt -2.50424 0.455
f 78/178/39 44/179/39 43/180/40 79/181/40 

vt -2.65021 0.455
vt -2.65021 0.63
vt -2.94452 0.63
vn 0.0654031 -4.70037e-014 -0.997859
vt -2.94452 0.455
f 79/182/40 43/183/40 42/184/41 54/185/41 

