# Alias OBJ Model File
# Exported from SketchUp, (c) 2000-2012 Trimble Navigation Limited
# File units = meters

mtllib roadTile_157.mtl

g Mesh1 Group1 Model

usemtl Grass
v 0.769249 0.55 -2.70632
vt 0.769249 2.70632
vn -4.13875e-016 1 4.97758e-016
v 0.75 0.55 -3
vt 0.75 3
v 5.55872e-013 0.55 -3
vt 5.56099e-013 3
v 0 0.55 -3.9272e-013
vt 2.27631e-016 3.92994e-013
v 3 0.55 -0
vt 3 2.73767e-016
v 3 0.55 -0.75
vt 3 0.75
v 2.70632 0.55 -0.769249
vt 2.70632 0.769249
v 2.41766 0.55 -0.826667
vt 2.41766 0.826667
v 2.13896 0.55 -0.921271
vt 2.13896 0.921271
v 1.875 0.55 -1.05144
vt 1.875 1.05144
v 1.63029 0.55 -1.21495
vt 1.63029 1.21495
v 1.40901 0.55 -1.40901
vt 1.40901 1.40901
v 1.21495 0.55 -1.63029
vt 1.21495 1.63029
v 1.05144 0.55 -1.875
vt 1.05144 1.875
v 0.921271 0.55 -2.13896
vt 0.921271 2.13896
v 0.826667 0.55 -2.41766
vt 0.826667 2.41766
f 1/1/1 2/2/1 3/3/1 4/4/1 5/5/1 6/6/1 7/7/1 8/8/1 9/9/1 10/10/1 11/11/1 12/12/1 13/13/1 14/14/1 15/15/1 16/16/1 

v 0.769249 0.455 -2.70632
vt 2.65021 0.455
vn 0.991445 -2.47894e-017 -0.130526
v 0.75 0.455 -3
vt 2.94452 0.455
vn 0.997859 -4.62774e-018 -0.0654031
vt 2.94452 0.55
vt 2.65021 0.55
f 17/17/2 18/18/3 2/19/3 1/20/2 

usemtl Sand
v 3 0.455 -0.75
vn 2.84592e-014 1 -4.55231e-014
v 3 0.455 -1.875
vt 3 1.875
v 2.85316 0.455 -1.88462
vt 2.85316 1.88462
v 2.70883 0.455 -1.91333
vt 2.70883 1.91333
v 2.56948 0.455 -1.96064
vt 2.56948 1.96064
v 2.4375 0.455 -2.02572
vt 2.4375 2.02572
v 2.31514 0.455 -2.10748
vt 2.31514 2.10748
v 2.2045 0.455 -2.2045
vt 2.2045 2.2045
v 2.10748 0.455 -2.31514
vt 2.10748 2.31514
v 2.02572 0.455 -2.4375
vt 2.02572 2.4375
v 1.96064 0.455 -2.56948
vt 1.96064 2.56948
v 1.91333 0.455 -2.70883
vt 1.91333 2.70883
v 1.88462 0.455 -2.85316
vt 1.88462 2.85316
v 1.875 0.455 -3
vt 1.875 3
v 0.826667 0.455 -2.41766
v 0.921271 0.455 -2.13896
v 1.05144 0.455 -1.875
v 1.21495 0.455 -1.63029
v 1.40901 0.455 -1.40901
v 1.63029 0.455 -1.21495
v 1.875 0.455 -1.05144
v 2.13896 0.455 -0.921271
v 2.41766 0.455 -0.826667
v 2.70632 0.455 -0.769249
f 19/6/4 20/21/4 21/22/4 22/23/4 23/24/4 24/25/4 25/26/4 26/27/4 27/28/4 28/29/4 29/30/4 30/31/4 31/32/4 32/33/4 18/2/4 17/1/4 33/16/4 34/15/4 35/14/4 36/13/4 37/12/4 38/11/4 39/10/4 40/9/4 41/8/4 42/7/4 

v 3 2.52669e-015 -0.75
vt 0.75 2.09269e-011
vn 1 -6.97477e-012 2.7131e-012
v 3 2.43645e-015 -1.875
vt 1.875 2.09268e-011
vt 1.875 0.455
vt 0.75 0.455
f 43/34/5 44/35/5 20/36/5 19/37/5 

usemtl Grass
vt -3 0.75
vn 1.01643e-016 -1 1.07501e-016
v 3 2.52669e-015 -0
vt -3 -2.38842e-031
v 0 5.41434e-016 -3.9272e-013
vt -5.5033e-032 3.9272e-013
v 5.55872e-013 0 -3
vt -5.55872e-013 3
v 0.75 5.41434e-016 -3
vt -0.75 3
v 1.875 1.44382e-015 -3
vt -1.875 3
v 3 2.43645e-015 -3
vt -3 3
vt -3 1.875
f 43/38/6 45/39/6 46/40/6 47/41/6 48/42/6 49/43/6 50/44/6 44/45/6 

vt 4.57856e-013 1.88346e-012
vn 1 -6.26978e-013 1.52619e-013
vt 0.75 1.88346e-012
vt 0.75 0.55
vt 4.57856e-013 0.55
f 45/46/7 43/47/7 19/37/7 6/48/7 5/49/7 

vt -2.94452 0.455
vn 0.0654031 4.62774e-018 -0.997859
vt -2.65021 0.455
vn 0.130526 1.90168e-017 -0.991445
vt -2.65021 0.55
vt -2.94452 0.55
f 19/50/8 42/51/9 7/52/9 6/53/8 

vt -2.50424 0.455
vt -2.20993 0.455
vn 0.258819 2.91756e-017 -0.965926
vt -2.20993 0.55
vt -2.50424 0.55
f 42/54/9 41/55/10 8/56/10 7/57/9 

vt -2.02363 0.455
vt -1.72931 0.455
vn 0.382683 2.05215e-017 -0.92388
vt -1.72931 0.55
vt -2.02363 0.55
f 41/58/10 40/59/11 9/60/11 8/61/10 

vt -1.51091 0.455
vt -1.2166 0.455
vn 0.5 1.15163e-017 -0.866025
vt -1.2166 0.55
vt -1.51091 0.55
f 40/62/11 39/63/12 10/64/12 9/65/11 

vt -0.974855 0.455
vt -0.680541 0.455
vn 0.608761 2.31402e-018 -0.793353
vt -0.680541 0.55
vt -0.974855 0.55
f 39/66/12 38/67/13 11/68/13 10/69/12 

vt -0.424639 0.455
vt -0.130325 0.455
vn 0.707107 -6.92784e-018 -0.707107
vt -0.130325 0.55
vt -0.424639 0.55
f 38/70/13 37/71/14 12/72/14 11/73/13 

vt 0.130325 0.455
vt 0.424639 0.455
vn 0.793353 -1.60512e-017 -0.608761
vt 0.424639 0.55
vt 0.130325 0.55
f 37/74/14 36/75/15 13/76/15 12/77/14 

vt 0.680541 0.455
vt 0.974855 0.455
vn 0.866025 -2.48999e-017 -0.5
vt 0.974855 0.55
vt 0.680541 0.55
f 36/78/15 35/79/16 14/80/16 13/81/15 

vt 1.2166 0.455
vt 1.51091 0.455
vn 0.92388 -3.33225e-017 -0.382683
vt 1.51091 0.55
vt 1.2166 0.55
f 35/82/16 34/83/17 15/84/17 14/85/16 

vt 1.72931 0.455
vt 2.02363 0.455
vn 0.965926 -4.1175e-017 -0.258819
vt 2.02363 0.55
vt 1.72931 0.55
f 34/86/17 33/87/18 16/88/18 15/89/17 

vt 2.20993 0.455
vt 2.50424 0.455
vt 2.50424 0.55
vt 2.20993 0.55
f 33/90/18 17/91/2 1/92/2 16/93/18 

vt -4.83855e-026 0.55
vn -1.23206e-013 4.40302e-026 1
vt -4.83855e-026 5.41434e-016
vt 3 2.52669e-015
vt 3 0.55
f 4/94/19 46/95/19 45/96/19 5/97/19 

vt -3.9272e-013 0.55
vn -1 -2.29178e-015 -2.0736e-013
vt -3 0.55
vt -3 1.51738e-028
vt -3.9272e-013 5.41434e-016
f 4/98/20 3/99/20 47/100/20 46/101/20 

vt -0.75 0.455
vn 2.0406e-013 -1.25905e-029 -1
vt -0.75 5.41434e-016
vt 5.63091e-014 3.77715e-029
vt 5.63091e-014 0.55
vt -0.75 0.55
f 18/102/21 48/103/21 47/104/21 3/105/21 2/106/21 

usemtl Sand
vn 2.98647e-012 6.87006e-012 -1
vt -1.875 0.455
vt -1.875 -2.06087e-011
vt -0.75 -2.06096e-011
f 18/102/22 32/107/22 49/108/22 48/109/22 

usemtl Water
vt -3 -2.06077e-011
vn -2.57065e-012 6.87006e-012 -1
v 3 0.455 -3
vt -3 0.455
f 50/110/23 49/108/23 32/107/23 51/111/23 

vt 3 3
vn -8.5583e-014 1 -5.2155e-017
f 51/112/24 32/33/24 31/32/24 30/31/24 29/30/24 28/29/24 27/28/24 26/27/24 25/26/24 24/25/24 23/24/24 22/23/24 21/22/24 20/21/24 

vt 3 0.455
vn 1 -6.72092e-012 -2.63097e-012
vt 1.875 2.01652e-011
vt 3 2.01652e-011
f 51/113/25 20/36/25 44/114/25 50/115/25 

