# Alias OBJ Model File
# Exported from SketchUp, (c) 2000-2012 Trimble Navigation Limited
# File units = meters

mtllib roadTile_195.mtl

g Mesh1 Group1 Model

usemtl Grass
v 3 1.80478e-016 -5.34214e-014
vt -3 5.34214e-014
vn 1.20638e-033 -1 -1.33118e-033
v 5.48653e-014 1.80478e-016 -0
vt -5.48653e-014 2.40248e-049
v 4.62023e-014 0 -0.75
vt -4.62023e-014 0.75
v 2.59888e-014 0 -2.25
vt -2.59888e-014 2.25
v 0 1.80478e-016 -3
vt -2.17725e-049 3
v 3 1.80478e-016 -3
vt -3 3
v 3 0 -2.25
vt -3 2.25
v 3 0 -0.75
vt -3 0.75
f 1/1/1 2/2/1 3/3/1 4/4/1 5/5/1 6/6/1 7/7/1 8/8/1 

v 5.48653e-014 1.65 -0
vt 5.48653e-014 1.65
vn 1.63943e-014 0 1
vt 5.48653e-014 1.80478e-016
vt 3 1.80478e-016
v 3 1.65 -5.34214e-014
vt 3 1.65
f 9/9/2 2/10/2 1/11/2 10/12/2 

v 4.62023e-014 1.65 -0.75
vt -0.75 1.65
vn -1 -5.25082e-032 7.70039e-015
v 4.62023e-014 0.455 -0.75
vt -0.75 0.455
vt -0.75 -2.72925e-045
vt 4.22484e-028 1.80478e-016
vt 4.22484e-028 1.65
f 11/13/3 12/14/3 3/15/3 2/16/3 9/17/3 

vt -5.84974e-014 1.65
vn -1.63934e-014 0 -1
v 3 1.65 -0.75
vt -3 1.65
v 3 0.455 -0.75
vt -3 0.455
vt -5.84974e-014 0.455
f 11/18/4 13/19/4 14/20/4 12/21/4 

vt 3 5.32229e-014
vn -2.03597e-030 1 -1.20319e-016
vt 3 0.75
vt 4.62023e-014 0.75
vt 5.48653e-014 -1.98526e-016
f 10/22/5 13/23/5 11/24/5 9/25/5 

vt 1.6805e-013 4.95498e-014
vn 1 -1.64564e-014 3.82094e-014
vt 0.75 4.93693e-014
vt 0.75 0.455
vt 0.75 1.65
vt 1.6805e-013 1.65
f 1/26/6 8/27/6 14/28/6 13/29/6 10/30/6 

usemtl Water
vt 0.75 1.65008e-013
vn 1 -5.50028e-014 -1.15506e-014
vt 2.25 1.65008e-013
v 3 0.455 -2.25
vt 2.25 0.455
f 8/31/7 7/32/7 15/33/7 14/28/7 

usemtl Grass
v 3 1.65 -2.25
vt 2.25 1.65
vn 1 -1.64564e-014 -7.67113e-014
vt 2.25 4.93693e-014
vt 3 4.95498e-014
v 3 1.65 -3
f 16/34/8 15/33/8 7/35/8 6/36/8 17/12/8 

vn 1.73259e-014 0 1
v 2.59888e-014 1.65 -2.25
vt 6.4972e-014 1.65
v 2.59888e-014 0.455 -2.25
vt 6.4972e-014 0.455
vt 3 0.455
f 16/12/9 18/37/9 19/38/9 15/39/9 

v 0 1.65 -3
vt -3.37956e-030 3
vn 2.04822e-030 1 1.20319e-016
vt 2.59888e-014 2.25
vt 3 2.25
vt 3 3
f 20/40/10 18/41/10 16/42/10 17/43/10 

vt -3 1.80478e-016
vn -1 4.41069e-030 3.08016e-014
vt -2.25 4.20305e-043
vt -2.25 0.455
vt -2.25 1.65
f 5/44/11 4/45/11 19/46/11 18/47/11 20/19/11 

usemtl Water
vt -2.25 -1.45916e-043
vn -1 -2.40624e-030 1.54008e-014
vt -0.75 -1.38967e-043
f 4/48/12 3/49/12 12/14/12 19/46/12 

vn 0 1 -0
f 19/41/13 12/24/13 14/23/13 15/42/13 

usemtl Grass
vn -1.63943e-014 0 -1
vt -4.91829e-014 1.80478e-016
vt -4.91829e-014 1.65
f 17/19/14 6/44/14 5/50/14 20/51/14 

