# Alias OBJ Model File
# Exported from SketchUp, (c) 2000-2012 Trimble Navigation Limited
# File units = meters

mtllib roadTile_155.mtl

g Mesh1 Group1 Model

usemtl Stone
v 2.0625 0.63 -1.3762
vt -1.24112 0.63
vn 0.5 7.7038e-017 -0.866025
v 2.28247 0.63 -1.26773
vt -1.48638 0.63
vn 0.382683 9.4559e-017 -0.92388
v 2.28247 0.6 -1.26773
vt -1.48638 0.6
v 2.0625 0.6 -1.3762
vt -1.24112 0.6
f 1/1/1 2/2/2 3/3/2 4/4/1 

v 1.125 0.63 -3
vt 1.125 3
vn 4.83858e-016 1 -3.91817e-016
v 0.5625 0.63 -3
vt 0.5625 3
v 0.583353 0.63 -2.68184
vt 0.583353 2.68184
v 0.645556 0.63 -2.36913
vt 0.645556 2.36913
v 0.748044 0.63 -2.06721
vt 0.748044 2.06721
v 0.889063 0.63 -1.78125
vt 0.889063 1.78125
v 1.0662 0.63 -1.51614
vt 1.0662 1.51614
v 1.27643 0.63 -1.27643
vt 1.27643 1.27643
v 1.51614 0.63 -1.0662
vt 1.51614 1.0662
v 1.78125 0.63 -0.889063
vt 1.78125 0.889063
v 2.06721 0.63 -0.748044
vt 2.06721 0.748044
v 2.36913 0.63 -0.645556
vt 2.36913 0.645556
v 2.68184 0.63 -0.583353
vt 2.68184 0.583353
v 3 0.63 -0.5625
vt 3 0.5625
v 3 0.63 -1.125
vt 3 1.125
v 2.75526 0.63 -1.14104
vt 2.75526 1.14104
v 2.51471 0.63 -1.18889
vt 2.51471 1.18889
vt 2.28247 1.26773
vt 2.0625 1.3762
v 1.85857 0.63 -1.51246
vt 1.85857 1.51246
v 1.67417 0.63 -1.67417
vt 1.67417 1.67417
v 1.51246 0.63 -1.85857
vt 1.51246 1.85857
v 1.3762 0.63 -2.0625
vt 1.3762 2.0625
v 1.26773 0.63 -2.28247
vt 1.26773 2.28247
v 1.18889 0.63 -2.51471
vt 1.18889 2.51471
v 1.14104 0.63 -2.75526
vt 1.14104 2.75526
f 5/5/3 6/6/3 7/7/3 8/8/3 9/9/3 10/10/3 11/11/3 12/12/3 13/13/3 14/14/3 15/15/3 16/16/3 17/17/3 18/18/3 19/19/3 20/20/3 21/21/3 2/22/3 1/23/3 22/24/3 23/25/3 24/26/3 25/27/3 26/28/3 27/29/3 28/30/3 

v 2.4375 0 -3
vt -2.4375 -1.34758e-013
vn 3.96254e-022 4.49193e-014 -1
v 0.5625 0 -3
vt -0.5625 -1.34758e-013
v 0.5625 0.55 -3
vt -0.5625 0.55
vt -0.5625 0.63
vt -1.125 0.63
v 1.125 0.6 -3
vt -1.125 0.6
v 1.125 0.3 -3
vt -1.125 0.3
v 1.875 0.3 -3
vt -1.875 0.3
v 1.875 0.6 -3
vt -1.875 0.6
v 1.875 0.63 -3
vt -1.875 0.63
v 2.4375 0.63 -3
vt -2.4375 0.63
v 2.4375 0.55 -3
vt -2.4375 0.55
f 29/31/4 30/32/4 31/33/4 6/34/4 5/35/4 32/36/4 33/37/4 34/38/4 35/39/4 36/40/4 37/41/4 38/42/4 

usemtl Grass
vt -2.4375 3
vn 1.17384e-017 -1 -1.17384e-017
v 3 0 -3
vt -3 3
v 3 0 -2.4375
vt -3 2.4375
v 3 0 -0.5625
vt -3 0.5625
v 3 0 -0
vt -3 -4.1337e-034
v 0 0 -3.46517e-014
vt 0 3.46517e-014
v 1.73259e-014 0 -3
vt -1.73259e-014 3
vt -0.5625 3
f 29/43/5 39/44/5 40/45/5 41/46/5 42/47/5 43/48/5 44/49/5 30/50/5 

vt -3 -6.30032e-014
vn 6.16031e-014 2.10011e-014 -1
vt -2.4375 -6.30032e-014
v 3 0.55 -3
vt -3 0.55
f 39/51/6 29/52/6 38/42/6 45/53/6 

vt 3 3
vn 2.53772e-016 1 3.56082e-016
vt 2.4375 3
v 2.44231 0.55 -2.92658
vt 2.44231 2.92658
v 2.45667 0.55 -2.85441
vt 2.45667 2.85441
v 2.48032 0.55 -2.78474
vt 2.48032 2.78474
v 2.51286 0.55 -2.71875
vt 2.51286 2.71875
v 2.55374 0.55 -2.65757
vt 2.55374 2.65757
v 2.60225 0.55 -2.60225
vt 2.60225 2.60225
v 2.65757 0.55 -2.55374
vt 2.65757 2.55374
v 2.71875 0.55 -2.51286
vt 2.71875 2.51286
v 2.78474 0.55 -2.48032
vt 2.78474 2.48032
v 2.85441 0.55 -2.45667
vt 2.85441 2.45667
v 2.92658 0.55 -2.44231
vt 2.92658 2.44231
v 3 0.55 -2.4375
vt 3 2.4375
f 45/54/7 38/55/7 46/56/7 47/57/7 48/58/7 49/59/7 50/60/7 51/61/7 52/62/7 53/63/7 54/64/7 55/65/7 56/66/7 57/67/7 

usemtl Stone
vt 2.83416 0.63
vn 0.997859 -2.29939e-016 -0.0654031
v 2.44231 0.63 -2.92658
vt 2.76058 0.63
vn 0.991445 -2.05123e-016 -0.130526
vt 2.76058 0.55
vt 2.83416 0.55
f 37/68/8 58/69/9 46/70/9 38/71/8 

v 3 0.63 -1.875
vt 3 1.875
vn -2.06645e-016 1 6.58736e-016
v 3 0.63 -2.4375
v 2.92658 0.63 -2.44231
v 2.85441 0.63 -2.45667
v 2.78474 0.63 -2.48032
v 2.71875 0.63 -2.51286
v 2.65757 0.63 -2.55374
v 2.60225 0.63 -2.60225
v 2.55374 0.63 -2.65757
v 2.51286 0.63 -2.71875
v 2.48032 0.63 -2.78474
v 2.45667 0.63 -2.85441
vt 1.875 3
v 1.88462 0.63 -2.85316
vt 1.88462 2.85316
v 1.91333 0.63 -2.70883
vt 1.91333 2.70883
v 1.96064 0.63 -2.56948
vt 1.96064 2.56948
v 2.02572 0.63 -2.4375
vt 2.02572 2.4375
v 2.10748 0.63 -2.31514
vt 2.10748 2.31514
v 2.2045 0.63 -2.2045
vt 2.2045 2.2045
v 2.31514 0.63 -2.10748
vt 2.31514 2.10748
v 2.4375 0.63 -2.02572
vt 2.4375 2.02572
v 2.56948 0.63 -1.96064
vt 2.56948 1.96064
v 2.70883 0.63 -1.91333
vt 2.70883 1.91333
v 2.85316 0.63 -1.88462
vt 2.85316 1.88462
f 59/72/10 60/67/10 61/66/10 62/65/10 63/64/10 64/63/10 65/62/10 66/61/10 67/60/10 68/59/10 69/58/10 70/57/10 58/56/10 37/55/10 36/73/10 71/74/10 72/75/10 73/76/10 74/77/10 75/78/10 76/79/10 77/80/10 78/81/10 79/82/10 80/83/10 81/84/10 

vt 0.5625 -3.14477e-022
vn 1 1.04826e-022 6.1072e-015
vt 2.4375 -3.14477e-022
vt 2.4375 0.55
vt 2.4375 0.63
vt 1.875 0.63
v 3 0.6 -1.875
vt 1.875 0.6
v 3 0.3 -1.875
vt 1.875 0.3
v 3 0.3 -1.125
vt 1.125 0.3
v 3 0.6 -1.125
vt 1.125 0.6
vt 1.125 0.63
vt 0.5625 0.63
v 3 0.55 -0.5625
vt 0.5625 0.55
f 41/85/11 40/86/11 57/87/11 60/88/11 59/89/11 82/90/11 83/91/11 84/92/11 85/93/11 19/94/11 18/95/11 86/96/11 

usemtl Grass
vt 3 0.55
vn 1 -2.69561e-028 6.41699e-015
vt 2.4375 8.08683e-028
vt 3 8.08683e-028
f 45/97/12 57/87/12 40/98/12 39/99/12 

usemtl Stone
vt -2.76058 0.63
vn 0.130526 3.19912e-016 -0.991445
vt -2.83416 0.63
vn 0.0654031 3.38722e-016 -0.997859
vt -2.83416 0.55
vt -2.76058 0.55
f 61/100/13 60/101/14 57/102/14 56/103/13 

vt -2.3203 0.63
vn 0.258819 2.78268e-016 -0.965926
vt -2.39387 0.63
vt -2.39387 0.55
vt -2.3203 0.55
f 62/104/15 61/105/13 56/106/13 55/107/15 

vt -1.83968 0.63
vn 0.382683 2.31863e-016 -0.92388
vt -1.91326 0.63
vt -1.91326 0.55
vt -1.83968 0.55
f 63/108/16 62/109/15 55/110/15 54/111/16 

vt -1.32696 0.63
vn 0.5 1.8149e-016 -0.866025
vt -1.40054 0.63
vt -1.40054 0.55
vt -1.32696 0.55
f 64/112/17 63/113/16 54/114/16 53/115/17 

vt -0.790909 0.63
vn 0.608761 1.28012e-016 -0.793353
vt -0.864487 0.63
vt -0.864487 0.55
vt -0.790909 0.55
f 65/116/18 64/117/17 53/118/17 52/119/18 

vt -0.240693 0.63
vn 0.707107 7.23443e-017 -0.707107
vt -0.314271 0.63
vt -0.314271 0.55
vt -0.240693 0.55
f 66/120/19 65/121/18 52/122/18 51/123/19 

vt 0.314271 0.63
vn 0.793353 1.54384e-017 -0.608761
vt 0.240693 0.63
vt 0.240693 0.55
vt 0.314271 0.55
f 67/124/20 66/125/19 51/126/19 50/127/20 

vt 0.864487 0.63
vn 0.866025 -4.17317e-017 -0.5
vt 0.790909 0.63
vt 0.790909 0.55
vt 0.864487 0.55
f 68/128/21 67/129/20 50/130/20 49/131/21 

vt 1.40054 0.63
vn 0.92388 -9.81878e-017 -0.382683
vt 1.32696 0.63
vt 1.32696 0.55
vt 1.40054 0.55
f 69/132/22 68/133/21 49/134/21 48/135/22 

vt 1.91326 0.63
vn 0.965926 -1.52964e-016 -0.258819
vt 1.83968 0.63
vt 1.83968 0.55
vt 1.91326 0.55
f 70/136/23 69/137/22 48/138/22 47/139/23 

vt 2.39387 0.63
vt 2.3203 0.63
vt 2.3203 0.55
vt 2.39387 0.55
f 58/140/9 70/141/23 47/142/23 46/143/9 

vt 2.87095 0.63
vn -0.0654031 -1.30697e-016 0.997859
vt 2.72379 0.63
vn -0.130526 -1.24475e-016 0.991445
v 2.85316 0.6 -1.88462
vt 2.72379 0.6
vt 2.87095 0.6
f 59/144/24 81/145/25 87/146/25 82/147/24 

vt 2.43066 0.63
vt 2.28351 0.63
vn -0.258819 -1.10462e-016 0.965926
v 2.70883 0.6 -1.91333
vt 2.28351 0.6
vt 2.43066 0.6
f 81/148/25 80/149/26 88/150/26 87/151/25 

vt 1.95005 0.63
vt 1.80289 0.63
vn -0.382683 -9.4559e-017 0.92388
v 2.56948 0.6 -1.96064
vt 1.80289 0.6
vt 1.95005 0.6
f 80/152/26 79/153/27 89/154/27 88/155/26 

vt 1.43733 0.63
vt 1.29017 0.63
vn -0.5 -7.7038e-017 0.866025
v 2.4375 0.6 -2.02572
vt 1.29017 0.6
vt 1.43733 0.6
f 79/156/27 78/157/28 90/158/28 89/159/27 

vt 0.901277 0.63
vt 0.75412 0.63
vn -0.608761 -5.81989e-017 0.793353
v 2.31514 0.6 -2.10748
vt 0.75412 0.6
vt 0.901277 0.6
f 78/160/28 77/161/29 91/162/29 90/163/28 

vt 0.35106 0.63
vt 0.203903 0.63
vn -0.707107 -3.8364e-017 0.707107
v 2.2045 0.6 -2.2045
vt 0.203903 0.6
vt 0.35106 0.6
f 77/164/29 76/165/30 92/166/30 91/167/29 

vt -0.203903 0.63
vt -0.35106 0.63
vn -0.793353 -1.78726e-017 0.608761
v 2.10748 0.6 -2.31514
vt -0.35106 0.6
vt -0.203903 0.6
f 76/168/30 75/169/31 93/170/31 92/171/30 

vt -0.75412 0.63
vt -0.901277 0.63
vn -0.866025 2.92456e-018 0.5
v 2.02572 0.6 -2.4375
vt -0.901277 0.6
vt -0.75412 0.6
f 75/172/31 74/173/32 94/174/32 93/175/31 

vt -1.29017 0.63
vt -1.43733 0.63
vn -0.92388 2.36717e-017 0.382683
v 1.96064 0.6 -2.56948
vt -1.43733 0.6
vt -1.29017 0.6
f 74/176/32 73/177/33 95/178/33 94/179/32 

vt -1.80289 0.63
vt -1.95005 0.63
vn -0.965926 4.40138e-017 0.258819
v 1.91333 0.6 -2.70883
vt -1.95005 0.6
vt -1.80289 0.6
f 73/180/33 72/181/34 96/182/34 95/183/33 

vt -2.28351 0.63
vt -2.43066 0.63
vn -0.991445 6.36028e-017 0.130526
v 1.88462 0.6 -2.85316
vt -2.43066 0.6
vt -2.28351 0.6
f 72/184/34 71/185/35 97/186/35 96/187/34 

vt -2.72379 0.63
vt -2.87095 0.63
vn -0.997859 7.30095e-017 0.0654031
vt -2.87095 0.6
vt -2.72379 0.6
f 71/188/35 36/189/36 35/190/36 97/191/35 

usemtl Asphalt
vn 8.21035e-017 1 1.36358e-016
v 1.14104 0.6 -2.75526
v 1.18889 0.6 -2.51471
v 1.26773 0.6 -2.28247
v 1.3762 0.6 -2.0625
v 1.51246 0.6 -1.85857
v 1.67417 0.6 -1.67417
v 1.85857 0.6 -1.51246
v 2.51471 0.6 -1.18889
v 2.75526 0.6 -1.14104
f 35/73/37 32/5/37 98/30/37 99/29/37 100/28/37 101/27/37 102/26/37 103/25/37 104/24/37 4/23/37 3/22/37 105/21/37 106/20/37 85/19/37 82/72/37 87/84/37 88/83/37 89/82/37 90/81/37 91/80/37 92/79/37 93/78/37 94/77/37 95/76/37 96/75/37 97/74/37 

vn 8.14477e-015 -4.81274e-015 -1
f 35/39/38 34/38/38 33/37/38 32/36/38 

usemtl Stone
vt 2.92 0.63
vn 0.997859 -7.30095e-017 -0.0654031
vt 2.67474 0.63
vn 0.991445 -6.36028e-017 -0.130526
vt 2.67474 0.6
vt 2.92 0.6
f 5/192/39 28/193/40 98/194/40 32/195/39 

vt 2.47972 0.63
vt 2.23445 0.63
vn 0.965926 -4.40138e-017 -0.258819
vt 2.23445 0.6
vt 2.47972 0.6
f 28/196/40 27/197/41 99/198/41 98/199/40 

vt 1.9991 0.63
vt 1.75384 0.63
vn 0.92388 -2.36717e-017 -0.382683
vt 1.75384 0.6
vt 1.9991 0.6
f 27/200/41 26/201/42 100/202/42 99/203/41 

vt 1.48638 0.63
vt 1.24112 0.63
vn 0.866025 -2.92456e-018 -0.5
vt 1.24112 0.6
vt 1.48638 0.6
f 26/204/42 25/205/43 101/206/43 100/207/42 

vt 0.950329 0.63
vt 0.705067 0.63
vn 0.793353 1.78726e-017 -0.608761
vt 0.705067 0.6
vt 0.950329 0.6
f 25/208/43 24/209/44 102/210/44 101/211/43 

vt 0.400113 0.63
vt 0.154851 0.63
vn 0.707107 3.8364e-017 -0.707107
vt 0.154851 0.6
vt 0.400113 0.6
f 24/212/44 23/213/45 103/214/45 102/215/44 

vt -0.154851 0.63
vt -0.400113 0.63
vn 0.608761 5.81989e-017 -0.793353
vt -0.400113 0.6
vt -0.154851 0.6
f 23/216/45 22/217/46 104/218/46 103/219/45 

vt -0.705067 0.63
vt -0.950329 0.63
vt -0.950329 0.6
vt -0.705067 0.6
f 22/220/46 1/221/1 4/222/1 104/223/46 

vt -1.75384 0.63
vt -1.9991 0.63
vn 0.258819 1.10462e-016 -0.965926
vt -1.9991 0.6
vt -1.75384 0.6
f 2/224/2 21/225/47 105/226/47 3/227/2 

vt -2.23445 0.63
vt -2.47972 0.63
vn 0.130526 1.24475e-016 -0.991445
vt -2.47972 0.6
vt -2.23445 0.6
f 21/228/47 20/229/48 106/230/48 105/231/47 

vt -2.67474 0.63
vt -2.92 0.63
vn 0.0654031 1.30697e-016 -0.997859
vt -2.92 0.6
vt -2.67474 0.6
f 20/232/48 19/233/49 85/234/49 106/235/48 

usemtl Asphalt
vn 1 0 6.21967e-015
f 85/93/50 84/92/50 83/91/50 82/90/50 

usemtl Stone
vt 2.95679 0.63
vn -0.0654031 -9.09839e-017 0.997859
vt 2.63795 0.63
vn -0.130526 -9.60076e-017 0.991445
v 2.68184 0.55 -0.583353
vt 2.63795 0.55
vt 2.95679 0.55
f 18/236/51 17/237/52 107/238/52 86/239/51 

vt 2.51651 0.63
vt 2.19766 0.63
vn -0.258819 -1.04802e-016 0.965926
v 2.36913 0.55 -0.645556
vt 2.19766 0.55
vt 2.51651 0.55
f 17/240/52 16/241/53 108/242/53 107/243/52 

vt 2.03589 0.63
vt 1.71705 0.63
vn -0.382683 -1.11803e-016 0.92388
v 2.06721 0.55 -0.748044
vt 1.71705 0.55
vt 2.03589 0.55
f 16/244/53 15/245/54 109/246/54 108/247/53 

vt 1.52317 0.63
vt 1.20433 0.63
vn -0.5 -1.16892e-016 0.866025
v 1.78125 0.55 -0.889063
vt 1.20433 0.55
vt 1.52317 0.55
f 15/248/54 14/249/55 110/250/55 109/251/54 

vt 0.987118 0.63
vt 0.668278 0.63
vn -0.608761 -1.1998e-016 0.793353
v 1.51614 0.55 -1.0662
vt 0.668278 0.55
vt 0.987118 0.55
f 14/252/55 13/253/56 111/254/56 110/255/55 

vt 0.436902 0.63
vt 0.118062 0.63
vn -0.707107 -1.21015e-016 0.707107
v 1.27643 0.55 -1.27643
vt 0.118062 0.55
vt 0.436902 0.55
f 13/256/56 12/257/57 112/258/57 111/259/56 

vt -0.118062 0.63
vt -0.436902 0.63
vn -0.793353 -1.1998e-016 0.608761
v 1.0662 0.55 -1.51614
vt -0.436902 0.55
vt -0.118062 0.55
f 12/260/57 11/261/58 113/262/58 112/263/57 

vt -0.668278 0.63
vt -0.987118 0.63
vn -0.866025 -1.16892e-016 0.5
v 0.889063 0.55 -1.78125
vt -0.987118 0.55
vt -0.668278 0.55
f 11/264/58 10/265/59 114/266/59 113/267/58 

vt -1.20433 0.63
vt -1.52317 0.63
vn -0.92388 -1.11803e-016 0.382683
v 0.748044 0.55 -2.06721
vt -1.52317 0.55
vt -1.20433 0.55
f 10/268/59 9/269/60 115/270/60 114/271/59 

vt -1.71705 0.63
vt -2.03589 0.63
vn -0.965926 -1.04802e-016 0.258819
v 0.645556 0.55 -2.36913
vt -2.03589 0.55
vt -1.71705 0.55
f 9/272/60 8/273/61 116/274/61 115/275/60 

vt -2.19766 0.63
vt -2.51651 0.63
vn -0.991445 -9.60076e-017 0.130526
v 0.583353 0.55 -2.68184
vt -2.51651 0.55
vt -2.19766 0.55
f 8/276/61 7/277/62 117/278/62 116/279/61 

vt -2.63795 0.63
vt -2.95679 0.63
vn -0.997859 -9.09839e-017 0.0654031
vt -2.95679 0.55
vt -2.63795 0.55
f 7/280/62 6/281/63 31/282/63 117/283/62 

usemtl Grass
v 3 0.55 -0
vt 3 4.70638e-017
vn -8.55705e-017 1 8.55705e-017
v 1.73259e-014 0.55 -3
vt 1.73729e-014 3
v 0 0.55 -3.46517e-014
vt 4.70638e-017 3.46988e-014
f 118/284/64 86/18/64 107/17/64 108/16/64 109/15/64 110/14/64 111/13/64 112/12/64 113/11/64 114/10/64 115/9/64 116/8/64 117/7/64 31/6/64 119/285/64 120/286/64 

vt 1.9251e-014 4.04341e-028
vn 1 -1.3478e-028 6.41699e-015
vt 0.5625 4.04341e-028
vt 1.9251e-014 0.55
f 42/287/65 41/288/65 86/96/65 118/289/65 

vt -2.15522e-028 0.55
vn -6.21967e-015 0 1
vt -2.15522e-028 0
vt 3 0
f 120/290/66 43/291/66 42/292/66 118/97/66 

vn -1 0 -6.21967e-015
vt -3 0
vt -3.46517e-014 0
vt -3.46517e-014 0.55
f 119/53/67 44/293/67 43/294/67 120/295/67 

vt -2.02135e-013 0.55
vn -6.16031e-014 2.10011e-014 -1
vt -0.5625 -6.30032e-014
vt -2.02135e-013 -6.30032e-014
f 119/296/68 31/33/68 30/297/68 44/298/68 

