# Alias OBJ Model File
# Exported from SketchUp, (c) 2000-2012 Trimble Navigation Limited
# File units = meters

mtllib roadTile_290.mtl

g Mesh1 Group1 Model

usemtl Asphalt
v 2.25 0.6 -3
vt -2.25 0.6
vn 1.95397e-013 -2.64701e-013 -1
v 2.25 0.3 -3
vt -2.25 0.3
v 0.75 0.3 -3
vt -0.75 0.3
v 0.75 0.6 -3
vt -0.75 0.6
f 1/1/1 2/2/1 3/3/1 4/4/1 

usemtl Stone
v 3 0.63 -3
vt -3 0.63
vn -2.01276e-013 -5.02319e-013 -1
v 3 0 -3
vt -3 1.50696e-012
v 0 9.02389e-017 -3
vt -6.03829e-013 1.50705e-012
v 0 0.63 -3
vt -6.03829e-013 0.63
v 0.75 0.63 -3
vt -0.75 0.63
v 2.25 0.63 -3
vt -2.25 0.63
f 5/5/2 6/6/2 7/7/2 8/8/2 9/9/2 4/4/2 3/3/2 2/2/2 1/1/2 10/10/2 

vt 3 5.60432e-014
vn 1 -1.86811e-014 1.01514e-014
vt 3 0.63
v 3 0.63 -2.25
vt 2.25 0.63
v 3 0.6 -2.25
vt 2.25 0.6
v 3 0.3 -2.25
vt 2.25 0.3
v 3 0.3 -0.75
vt 0.75 0.3
v 3 0.6 -0.75
vt 0.75 0.6
v 3 0.63 -0.75
vt 0.75 0.63
v 3 0.63 -0
vt 3.04542e-014 0.63
v 3 9.92628e-016 -0
vt 3.04542e-014 5.70359e-014
f 6/11/3 5/12/3 11/13/3 12/14/3 13/15/3 14/16/3 15/17/3 16/18/3 17/19/3 18/20/3 

vt 3 2.25
vn -6.38492e-016 1 6.38492e-016
vt 3 3
vt 2.25 3
v 2.25915 0.63 -2.90314
vt 2.25915 2.90314
v 2.28037 0.63 -2.80819
vt 2.28037 2.80819
v 2.31332 0.63 -2.71665
vt 2.31332 2.71665
v 2.35748 0.63 -2.62996
vt 2.35748 2.62996
v 2.41217 0.63 -2.54949
vt 2.41217 2.54949
v 2.47651 0.63 -2.47651
vt 2.47651 2.47651
v 2.54949 0.63 -2.41217
vt 2.54949 2.41217
v 2.62996 0.63 -2.35748
vt 2.62996 2.35748
v 2.71665 0.63 -2.31332
vt 2.71665 2.31332
v 2.80819 0.63 -2.28037
vt 2.80819 2.28037
v 2.90314 0.63 -2.25915
vt 2.90314 2.25915
f 11/21/4 5/22/4 10/23/4 19/24/4 20/25/4 21/26/4 22/27/4 23/28/4 24/29/4 25/30/4 26/31/4 27/32/4 28/33/4 29/34/4 

vt -2.77515 0.6
vn -0.99557 2.38051e-015 0.0940266
v 2.25915 0.6 -2.90314
vt -2.67786 0.6
vn -0.9877 2.4995e-015 0.156361
vt -2.67786 0.63
vt -2.77515 0.63
f 1/35/5 30/36/6 19/37/6 10/38/5 

usemtl Asphalt
vn -4.00666e-016 1 4.33076e-016
vt 0.75 3
v 0.756827 0.6 -2.70191
vt 0.756827 2.70191
v 0.804783 0.6 -2.40763
vt 0.804783 2.40763
v 0.892946 0.6 -2.12279
vt 0.892946 2.12279
v 1.01963 0.6 -1.85287
vt 1.01963 1.85287
v 1.18239 0.6 -1.60305
vt 1.18239 1.60305
v 1.37812 0.6 -1.37812
vt 1.37812 1.37812
v 1.60305 0.6 -1.18239
vt 1.60305 1.18239
v 1.85287 0.6 -1.01963
vt 1.85287 1.01963
v 2.12279 0.6 -0.892946
vt 2.12279 0.892946
v 2.40763 0.6 -0.804783
vt 2.40763 0.804783
v 2.70191 0.6 -0.756827
vt 2.70191 0.756827
vt 3 0.75
v 2.90314 0.6 -2.25915
v 2.80819 0.6 -2.28037
v 2.71665 0.6 -2.31332
v 2.62996 0.6 -2.35748
v 2.54949 0.6 -2.41217
v 2.47651 0.6 -2.47651
v 2.41217 0.6 -2.54949
v 2.35748 0.6 -2.62996
v 2.31332 0.6 -2.71665
v 2.28037 0.6 -2.80819
f 30/24/7 1/23/7 4/39/7 31/40/7 32/41/7 33/42/7 34/43/7 35/44/7 36/45/7 37/46/7 38/47/7 39/48/7 40/49/7 41/50/7 15/51/7 12/21/7 42/34/7 43/33/7 44/32/7 45/31/7 46/30/7 47/29/7 48/28/7 49/27/7 50/26/7 51/25/7 

usemtl Stone
vt 2.68387 0.6
vn 0.995751 3.5296e-016 -0.0920874
vt 2.98204 0.6
vn 0.999738 3.30854e-016 -0.022898
vt 2.98204 0.63
v 0.756827 0.63 -2.70191
vt 2.68387 0.63
f 31/52/8 4/53/9 9/54/9 52/55/8 

v 4.66454e-015 0.63 -0
vt 4.79951e-015 1.02419e-016
vn -2.14244e-016 1 1.6257e-016
vt 3 1.02419e-016
v 2.70191 0.63 -0.756827
v 2.40763 0.63 -0.804783
v 2.12279 0.63 -0.892946
v 1.85287 0.63 -1.01963
v 1.60305 0.63 -1.18239
v 1.37812 0.63 -1.37812
v 1.18239 0.63 -1.60305
v 1.01963 0.63 -1.85287
v 0.892946 0.63 -2.12279
v 0.804783 0.63 -2.40763
vt 1.34974e-016 3
f 53/56/10 17/57/10 16/51/10 54/50/10 55/49/10 56/48/10 57/47/10 58/46/10 59/45/10 60/44/10 61/43/10 62/42/10 63/41/10 52/40/10 9/39/10 8/58/10 

v 4.66454e-015 9.02389e-017 -0
vt 4.66454e-015 9.02389e-017
vn 1.84889e-032 -2.10007e-017 1
vt 3 9.92628e-016
vt 4.66454e-015 0.63
f 64/59/11 18/60/11 17/12/11 53/61/11 

vt -1.04923e-032 3
vn 1.16272e-016 -1 1.79896e-016
vt -3 3
vt -3 -1.15819e-031
vt -4.66454e-015 -1.62337e-032
f 7/62/12 6/63/12 18/64/12 64/65/12 

vt -3 9.02389e-017
vn -1 -6.50022e-017 1.84889e-032
vt 8.62423e-047 9.02389e-017
vt 8.62423e-047 0.63
f 7/66/13 64/67/13 53/68/13 8/5/13 

vt -2.98204 0.6
vn 0.022898 3.45431e-016 -0.999738
vt -2.68387 0.6
vn 0.0920874 3.66445e-016 -0.995751
vt -2.68387 0.63
vt -2.98204 0.63
f 15/69/14 41/70/15 54/71/15 16/72/14 

vt -2.54501 0.6
vt -2.24684 0.6
vn 0.228809 4.03099e-016 -0.973471
vt -2.24684 0.63
vt -2.54501 0.63
f 41/73/15 40/74/16 55/75/16 54/76/15 

vt -2.06201 0.6
vt -1.76384 0.6
vn 0.36114 4.32019e-016 -0.932512
vt -1.76384 0.63
vt -2.06201 0.63
f 40/77/16 39/78/17 56/79/17 55/80/16 

vt -1.5423 0.6
vt -1.24413 0.6
vn 0.486541 4.52649e-016 -0.873658
vt -1.24413 0.63
vt -1.5423 0.63
f 39/81/17 38/82/18 57/83/18 56/84/17 

vt -0.995851 0.6
vt -0.697684 0.6
vn 0.602606 4.64592e-016 -0.798039
vt -0.697684 0.63
vt -0.995851 0.63
f 38/85/18 37/86/19 58/87/19 57/88/18 

vt -0.433156 0.6
vt -0.134989 0.6
vn 0.707107 4.67621e-016 -0.707107
vt -0.134989 0.63
vt -0.433156 0.63
f 37/89/19 36/90/20 59/91/20 58/92/19 

vt 0.134989 0.6
vt 0.433156 0.6
vn 0.798039 4.61676e-016 -0.602606
vt 0.433156 0.63
vt 0.134989 0.63
f 36/93/20 35/94/21 60/95/21 59/96/20 

vt 0.697684 0.6
vt 0.995851 0.6
vn 0.873658 4.46872e-016 -0.486541
vt 0.995851 0.63
vt 0.697684 0.63
f 35/97/21 34/98/22 61/99/22 60/100/21 

vt 1.24413 0.6
vt 1.5423 0.6
vn 0.932512 4.23493e-016 -0.36114
vt 1.5423 0.63
vt 1.24413 0.63
f 34/101/22 33/102/23 62/103/23 61/104/22 

vt 1.76384 0.6
vt 2.06201 0.6
vn 0.973471 3.91988e-016 -0.228809
vt 2.06201 0.63
vt 1.76384 0.63
f 33/105/23 32/106/24 63/107/24 62/108/23 

vt 2.24684 0.6
vt 2.54501 0.6
vt 2.54501 0.63
vt 2.24684 0.63
f 32/109/24 31/110/8 52/111/8 63/112/24 

usemtl Asphalt
vn 1 9.62549e-015 -5.77529e-015
f 15/17/25 14/16/25 13/15/25 12/14/25 

usemtl Stone
vt 2.67786 0.6
vn -0.156361 2.4995e-015 0.9877
vt 2.77515 0.6
vn -0.0940266 2.38051e-015 0.99557
vt 2.77515 0.63
vt 2.67786 0.63
f 42/113/26 12/114/27 11/115/27 29/116/26 

vt 2.2433 0.6
vn -0.278934 2.70746e-015 0.96031
vt 2.34059 0.6
vt 2.34059 0.63
vt 2.2433 0.63
f 43/117/28 42/118/26 29/119/26 28/120/28 

vt 1.77259 0.6
vn -0.397107 2.8727e-015 0.917772
vt 1.86989 0.6
vt 1.86989 0.63
vt 1.77259 0.63
f 44/121/29 43/122/28 28/123/28 27/124/29 

vt 1.27316 0.6
vn -0.509016 2.99263e-015 0.860757
vt 1.37045 0.6
vt 1.37045 0.63
vt 1.27316 0.63
f 45/125/30 44/126/29 27/127/29 26/128/30 

vt 0.752869 0.6
vn -0.612895 3.06535e-015 0.790164
vt 0.850161 0.6
vt 0.850161 0.63
vt 0.752869 0.63
f 46/129/31 45/130/30 26/131/30 25/132/31 

vt 0.219938 0.6
vn -0.707107 3.08972e-015 0.707107
vt 0.31723 0.6
vt 0.31723 0.63
vt 0.219938 0.63
f 47/133/32 46/134/31 25/135/31 24/136/32 

vt -0.31723 0.6
vn -0.790164 3.06535e-015 0.612895
vt -0.219938 0.6
vt -0.219938 0.63
vt -0.31723 0.63
f 48/137/33 47/138/32 24/139/32 23/140/33 

vt -0.850161 0.6
vn -0.860757 2.99263e-015 0.509016
vt -0.752869 0.6
vt -0.752869 0.63
vt -0.850161 0.63
f 49/141/34 48/142/33 23/143/33 22/144/34 

vt -1.37045 0.6
vn -0.917772 2.8727e-015 0.397107
vt -1.27316 0.6
vt -1.27316 0.63
vt -1.37045 0.63
f 50/145/35 49/146/34 22/147/34 21/148/35 

vt -1.86989 0.6
vn -0.96031 2.70746e-015 0.278934
vt -1.77259 0.6
vt -1.77259 0.63
vt -1.86989 0.63
f 51/149/36 50/150/35 21/151/35 20/152/36 

vt -2.34059 0.6
vt -2.2433 0.6
vt -2.2433 0.63
vt -2.34059 0.63
f 30/153/6 51/154/36 20/155/36 19/156/6 

