# Alias OBJ Model File
# Exported from SketchUp, (c) 2000-2012 Trimble Navigation Limited
# File units = meters

mtllib roadTile_262.mtl

g Mesh1 Group1 Model

usemtl Asphalt
v 6.35282e-014 1.7 -1.875
vt -1.875 1.7
vn -1 9.62549e-015 1.54008e-014
v 5.77529e-014 1.4 -1.875
vt -1.875 1.4
v 8.08541e-014 1.4 -0.375
vt -0.375 1.4
v 8.08541e-014 1.7 -0.375
vt -0.375 1.7
f 1/1/1 2/2/1 3/3/1 4/4/1 

usemtl Stone
v 9.24047e-014 1.1 -2.25
vt -2.25 1.1
vn -1 2.55416e-014 -1.09089e-014
v 0 1.1 -0
vt 0 1.1
v 4.62023e-014 1.73 -2.31012e-014
vt -2.31012e-014 1.73
v 8.08541e-014 1.73 -0.375
vt -0.375 1.73
v 6.35282e-014 1.73 -1.875
vt -1.875 1.73
v 6.93035e-014 1.73 -2.25
vt -2.25 1.73
f 5/5/2 6/6/2 7/7/2 8/8/2 4/4/2 3/3/2 2/2/2 1/1/2 9/9/2 10/10/2 

v 3 6.85816e-015 -1.15506e-013
vt -1.81271e-013 -2.81663
vn -0.344255 -0.938876 -7.54671e-015
vt 1.28237e-030 0.37868
vt -2.25 0.37868
v 3 0 -2.25
vt -2.25 -2.81663
f 11/11/3 6/12/3 5/13/3 12/14/3 

vt 3 6.85816e-015
vn 2.82003e-014 -8.38199e-015 1
v 3 1.73 -9.24047e-014
vt 3 1.73
vt 4.62023e-014 1.73
f 11/15/4 13/16/4 7/17/4 6/6/4 

v 3 1.73 -0.375
vt 0.375 1.73
vn 1 -1.21968e-014 1.22416e-014
vt 1.2913e-013 1.73
vt 1.52231e-013 4.34485e-014
vt 2.25 3.65903e-014
v 3 1.73 -2.25
vt 2.25 1.73
v 3 1.73 -1.875
vt 1.875 1.73
v 3 1.7 -1.875
vt 1.875 1.7
v 3 1.4 -1.875
vt 1.875 1.4
v 3 1.4 -0.375
vt 0.375 1.4
v 3 1.7 -0.375
vt 0.375 1.7
f 14/18/5 13/19/5 11/20/5 12/21/5 15/22/5 16/23/5 17/24/5 18/25/5 19/26/5 20/27/5 

vt 8.08541e-014 0.375
vn 0 1 -0
vt 4.62023e-014 2.31012e-014
vt 3 9.24047e-014
vt 3 0.375
f 8/28/6 7/29/6 13/30/6 14/31/6 

vt -3 1.7
vn -1.63943e-014 0 -1
vt -8.70019e-014 1.7
vt -8.70019e-014 1.73
vt -3 1.73
f 20/32/7 4/33/7 8/34/7 14/35/7 

usemtl Asphalt
vt 3 1.875
vt 6.35282e-014 1.875
f 17/36/6 1/37/6 4/28/6 20/31/6 

usemtl Stone
vt 9.42675e-014 1.7
vn 1.63943e-014 0 1
vt 3 1.7
vt 9.42675e-014 1.73
f 1/38/8 17/39/8 16/16/8 9/40/8 

vt 3 2.25
vt 6.93035e-014 2.25
f 16/36/6 15/41/6 10/42/6 9/37/6 

vt -3 -1.88595e-014
vn -2.82003e-014 8.38199e-015 -1
vt -1.55855e-013 1.1
vt -1.32754e-013 1.73
f 12/43/9 5/44/9 10/45/9 15/35/9 

usemtl Asphalt
vn 1 -1.9251e-014 -1.54008e-014
f 20/27/10 19/26/10 18/25/10 17/24/10 

