# Alias OBJ Model File
# Exported from SketchUp, (c) 2000-2012 Trimble Navigation Limited
# File units = meters

mtllib roadTile_241.mtl

g Mesh1 Group1 Model

usemtl Stone
v 0 9.02389e-016 -0
vt 0 9.02389e-016
vn 1.6243e-014 -1.11873e-030 1
v 3 0 -4.909e-014
vt 3 -4.03813e-046
v 3 1.26 -4.909e-014
vt 3 1.26
v 0 1.26 -0
vt 0 1.26
f 1/1/1 2/2/1 3/3/1 4/4/1 

vt 5.42871e-032 1.11932e-032
vn -6.01593e-017 -1 -1.2404e-017
v 6.77668e-014 9.92628e-016 -3
vt -6.77668e-014 3
v 3 9.92628e-016 -3
vt -3 3
vt -3 4.909e-014
f 1/5/2 5/6/2 6/7/2 2/8/2 

v 6.77668e-014 1.26 -3
vt -3 1.26
vn -1 2.74907e-015 1.63933e-014
vt -3 9.92628e-016
v 6.78364e-014 1.26 -0.75
vt -0.75 1.26
v 6.78364e-014 0.6 -0.75
vt -0.75 0.6
v 6.78364e-014 0.3 -0.75
vt -0.75 0.3
v 4.54107e-014 0.3 -2.25
vt -2.25 0.3
v 4.97422e-014 0.6 -2.25
vt -2.25 0.6
v 4.97422e-014 1.26 -2.25
vt -2.25 1.26
f 7/9/3 5/10/3 1/1/3 4/4/3 8/11/3 9/12/3 10/13/3 11/14/3 12/15/3 13/16/3 

vn -1.63633e-014 0 -1
vt -1.16857e-013 9.92628e-016
vt -1.16857e-013 1.26
v 3 1.26 -3
f 6/10/4 5/17/4 7/18/4 14/9/4 

v 3 1.26 -2.25
vt 3 2.25
vn 0 1 -0
vt 3 3
vt 6.77668e-014 3
vt 4.97422e-014 2.25
f 15/19/5 14/20/5 7/21/5 13/22/5 

vt 8.08132e-015 1.26
vn 1 -3.13365e-015 -1.36696e-014
vt 8.08132e-015 9.40095e-015
vt 3 1.03936e-014
vt 2.25 1.26
v 3 0.6 -2.25
vt 2.25 0.6
v 3 0.3 -2.25
vt 2.25 0.3
v 3 0.3 -0.75
vt 0.75 0.3
v 3 0.6 -0.75
vt 0.75 0.6
v 3 1.26 -0.75
vt 0.75 1.26
f 3/23/6 2/24/6 6/25/6 14/3/6 15/26/6 16/27/6 17/28/6 18/29/6 19/30/6 20/31/6 

vt 8.66294e-014 0.6
vn 1.63943e-014 0 1
vt 3 0.6
vt 8.66294e-014 1.26
f 12/32/7 16/33/7 15/3/7 13/34/7 

usemtl Asphalt
vt 6.78364e-014 0.75
vt 3 0.75
f 16/19/5 12/22/5 9/35/5 19/36/5 

vn -1 9.62549e-015 1.54008e-014
f 12/15/8 11/14/8 10/13/8 9/12/8 

usemtl Stone
vt -3 0.6
vn -1.63943e-014 0 -1
vt -8.01322e-014 0.6
vt -8.01322e-014 1.26
f 19/37/9 9/38/9 8/39/9 20/9/9 

vt 0 0
vt 3 4.909e-014
f 8/35/5 4/40/5 3/41/5 20/36/5 

usemtl Asphalt
vn 1 -1.9251e-014 -1.54008e-014
f 19/30/10 18/29/10 17/28/10 16/27/10 

