# Alias OBJ Model File
# Exported from SketchUp, (c) 2000-2012 Trimble Navigation Limited
# File units = meters

mtllib roadTile_261.mtl

g Mesh1 Group1 Model

usemtl Stone
v 3 0.63 -1.875
vt 1.875 -2.59975
vn 0.344255 0.938876 2.18484e-014
v 3 0.63 -2.25
vt 2.25 -2.59975
v 2.31012e-014 1.73 -2.25
vt 2.25 0.595561
v 2.31012e-014 1.73 -1.875
vt 1.875 0.595561
f 1/1/1 2/2/1 3/3/1 4/4/1 

v 3 0.63 -9.24047e-014
vt 1.91917e-013 0.63
vn 1 1.73584e-013 3.31709e-014
v 3 1.19115e-014 -9.24047e-014
vt 1.91917e-013 -5.08841e-013
v 3 9.58157e-013 -2.25
vt 2.25 4.37404e-013
vt 2.25 0.63
vt 1.875 0.63
v 3 0.6 -1.875
vt 1.875 0.6
v 3 0.3 -1.875
vt 1.875 0.3
v 3 0.3 -0.375
vt 0.375 0.3
v 3 0.6 -0.375
vt 0.375 0.6
v 3 0.63 -0.375
vt 0.375 0.63
f 5/5/2 6/6/2 7/7/2 2/8/2 1/9/2 8/10/2 9/11/2 10/12/2 11/13/2 12/14/2 

v 1.5 0 -2.31012e-014
vt 1.5 -2.0468e-027
vn 3.77688e-014 6.10037e-014 1
vt 3 1.19115e-014
vt 3 0.63
v 0 1.73 -6.93035e-014
vt 2.61751e-027 1.73
v 1.15506e-014 1.1 -0
vt 1.15506e-014 1.1
v 1.5 0.55 -0
vt 1.5 0.55
f 13/15/3 6/16/3 5/17/3 14/18/3 15/19/3 16/20/3 

vt -1.5 2.31012e-014
vn -4.36756e-014 -1 -4.54965e-013
v 1.5 1.1011e-012 -2.25
vt -1.5 2.25
vt -3 2.25
vt -3 9.24047e-014
f 13/21/4 17/22/4 7/23/4 6/24/4 

vt -2.88765e-014 2.43484e-028
vn -1 1.62323e-028 -3.85019e-015
vt -5.77529e-015 0.55
v 1.5 0.55 -2.25
vt -2.25 0.55
vt -2.25 1.1011e-012
f 13/25/5 16/26/5 18/27/5 17/28/5 

vt -2.1768e-012 -1.21897
vn -0.344255 -0.938876 -4.99583e-013
vt -1.66802e-026 0.37868
v 3.11866e-013 1.1 -2.25
vt -2.25 0.37868
vt -2.25 -1.21897
f 16/29/6 15/30/6 19/31/6 18/32/6 

vt -2.25 1.73
vn -1 -2.01061e-013 -3.34671e-014
vt -2.25 1.1
vt -3.86564e-028 1.1
vt -6.93035e-014 1.73
v 3.46517e-014 1.73 -0.375
vt -0.375 1.73
v 3.46517e-014 1.7 -0.375
vt -0.375 1.7
v 5.19776e-014 1.4 -0.375
vt -0.375 1.4
v 2.31012e-014 1.4 -1.875
vt -1.875 1.4
v 2.31012e-014 1.7 -1.875
vt -1.875 1.7
vt -1.875 1.73
f 3/33/7 19/34/7 15/35/7 14/36/7 20/37/7 21/38/7 22/39/7 23/40/7 24/41/7 4/42/7 

vt -1.5 0.55
vn -1.36945e-012 -3.68586e-012 -1
vt -3.39313e-012 1.1
vt -3.10437e-012 1.73
vt -3 0.63
vt -3 9.25135e-012
vt -1.5 9.39429e-012
f 18/43/8 19/44/8 3/45/8 2/46/8 7/47/8 17/48/8 

vt 0.375 0.595561
vn 0.344255 0.938876 7.30458e-015
vt 6.93035e-014 0.595561
vt 1.5606e-013 -2.59975
vt 0.375 -2.59975
f 20/49/9 14/50/9 5/51/9 12/52/9 

vt -3 0.6
vn -2.06948e-014 2.17631e-026 -1
vt -4.24123e-014 1.7
vt -4.24123e-014 1.73
f 11/53/10 21/54/10 20/55/10 12/46/10 

usemtl Asphalt
vt 1.875 -2.61008
vn 0.344255 0.938876 -2.67495e-015
vt 1.875 0.585233
vt 0.375 0.585233
vt 0.375 -2.61008
f 8/56/11 24/57/11 21/58/11 11/59/11 

usemtl Stone
vt 7.3635e-014 1.7
vn 2.69514e-014 -2.17631e-026 1
vt 3 0.6
vt 7.3635e-014 1.73
f 24/60/12 8/61/12 1/17/12 4/62/12 

usemtl Asphalt
vn -1 -2.88765e-014 9.62549e-015
f 21/38/13 24/41/13 23/40/13 22/39/13 

vn 1 0 -7.70039e-015
f 8/10/14 11/13/14 10/12/14 9/11/14 

