# Alias OBJ Model File
# Exported from SketchUp, (c) 2000-2012 Trimble Navigation Limited
# File units = meters

mtllib roadTile_218.mtl

g Mesh1 Group1 Model

usemtl Stone
v 3 0.6 -0.375
vt 0.375 -1.69706
vn 0.707107 0.707107 -1.08568e-014
v 2.34 1.26 -0.375
vt 0.375 -0.763675
v 2.34 1.26 -2.31012e-014
vt -1.28267e-014 -0.763675
v 3 0.6 -4.62023e-014
vt 1.40917e-016 -1.69706
f 1/1/1 2/2/1 3/3/1 4/4/1 

v 6.93035e-014 1.26 -0.375
vt -7.5791e-014 1.26
vn -1.73e-014 5.31279e-017 -1
vt -2.34 1.26
vt -3 0.6
v 6.93035e-014 0.6 -0.375
vt -7.5791e-014 0.6
f 5/5/2 2/6/2 1/7/2 6/8/2 

vt 6.93035e-014 0.375
vn 0 1 -0
v 0 1.26 -0
vt 0 0
vt 2.34 2.31012e-014
vt 2.34 0.375
f 5/9/3 7/10/3 3/11/3 2/12/3 

v 6.93035e-014 1.26 -2.25
vt -2.25 1.26
vn -1 3.78606e-015 -1.20639e-014
v 6.35282e-014 2.05745e-014 -2.25
vt -2.25 2.05745e-014
v 0 0 -0
vt 0 1.26
vt -0.375 1.26
vt -0.375 0.6
v 6.93035e-014 0.3 -0.375
vt -0.375 0.3
v 4.62023e-014 0.3 -1.875
vt -1.875 0.3
v 4.62023e-014 0.6 -1.875
vt -1.875 0.6
v 4.62023e-014 1.26 -1.875
vt -1.875 1.26
f 8/13/4 9/14/4 10/10/4 7/15/4 5/16/4 6/17/4 11/18/4 12/19/4 13/20/4 14/21/4 

v 2.34 1.26 -2.25
vn -1.94119e-014 3.17799e-014 -1
v 3 0.6 -2.25
v 3 2.32816e-014 -2.25
vt -3 -4.82231e-014
vt -1.07205e-013 -5.09303e-014
vt -1.1298e-013 1.26
f 15/6/5 16/7/5 17/22/5 9/23/5 8/24/5 

v 2.34 1.26 -1.875
vt 1.875 -0.763675
vn 0.707107 0.707107 -8.15987e-015
v 3 0.6 -1.875
vt 1.875 -1.69706
vt 2.25 -1.69706
vt 2.25 -0.763675
f 18/25/6 19/26/6 16/27/6 15/28/6 

vt 8.2784e-014 0.6
vn 1.95102e-014 5.31279e-016 1
vt 3 0.6
vt 2.34 1.26
vt 8.2784e-014 1.26
f 13/29/7 19/30/7 18/31/7 14/32/7 

usemtl Asphalt
vt 3 1.875
vt 4.62023e-014 1.875
vt 3 0.375
f 19/33/3 13/34/3 6/9/3 1/35/3 

vn -1 9.62549e-015 1.54008e-014
f 13/20/8 12/19/8 11/18/8 6/17/8 

vt 0.375 0.6
vn 1 -1.44382e-014 -1.63633e-014
v 3 0.3 -0.375
vt 0.375 0.3
v 3 0.3 -1.875
vt 1.875 0.3
vt 1.875 0.6
f 1/36/9 20/37/9 21/38/9 19/39/9 

usemtl Stone
v 3 1.94916e-014 -6.93035e-014
vt 2.75437e-014 7.98697e-014
vn 1 -2.0126e-014 -1.39199e-014
vt 2.25 8.36597e-014
vt 2.25 0.6
vt 4.44253e-015 0.6
f 22/40/10 17/41/10 16/42/10 19/39/10 21/38/10 20/37/10 1/36/10 4/43/10 

vt -3 2.25
vn 2.46653e-015 -1 -4.5749e-015
vt -3 6.93035e-014
vt -6.35282e-014 2.25
f 17/44/11 22/45/11 10/10/11 9/46/11 

vn 1.70523e-014 -1.37819e-014 1
vt 3 1.94916e-014
f 7/15/12 10/10/12 22/47/12 4/30/12 3/31/12 

vt 2.34 1.875
vt 2.34 2.25
vt 6.93035e-014 2.25
f 18/48/3 15/49/3 8/50/3 14/34/3 

