# Alias OBJ Model File
# Exported from SketchUp, (c) 2000-2012 Trimble Navigation Limited
# File units = meters

mtllib roadTile_208.mtl

g Mesh1 Group1 Model

usemtl Stone
v 3 1.73 -1.875
vt 3 1.875
vn -6.01593e-017 1 -4.81274e-016
v 3 1.73 -2.25
vt 3 2.25
v 6.93035e-014 1.73 -2.25
vt 6.94076e-014 2.25
v 4.0427e-014 1.73 -1.875
vt 4.05311e-014 1.875
f 1/1/1 2/2/1 3/3/1 4/4/1 

v 3 1.73 -8.37417e-014
vt 1.02223e-013 1.73
vn 1 -3.00543e-016 6.16031e-015
v 3 8.40124e-014 -8.37417e-014
vt 1.02223e-013 8.49141e-014
v 3 7.85079e-014 -2.25
vt 2.25 7.94095e-014
vt 2.25 1.73
vt 1.875 1.73
v 3 1.7 -1.875
vt 1.875 1.7
v 3 1.4 -1.875
vt 1.875 1.4
v 3 1.4 -0.375
vt 0.375 1.4
v 3 1.7 -0.375
vt 0.375 1.7
v 3 1.73 -0.375
vt 0.375 1.73
f 5/5/2 6/6/2 7/7/2 2/8/2 1/9/2 8/10/2 9/11/2 10/12/2 11/13/2 12/14/2 

v 5.19776e-014 1.73 -6.06406e-014
vt 5.19776e-014 1.73
vn 1.968e-014 -1.20762e-014 1
v 0 1.1 -0
vt 0 1.1
v 1.27 1.1 -2.88765e-014
vt 1.27 1.1
v 1.41358 1.09059 -6.64159e-014
vt 1.41358 1.09059
v 1.5547 1.06252 -5.91967e-014
vt 1.5547 1.06252
v 1.69095 1.01627 -7.07473e-014
vt 1.69095 1.01627
v 1.82 0.952628 -7.3635e-014
vt 1.82 0.952628
v 1.93964 0.872689 -7.50788e-014
vt 1.93964 0.872689
v 2.04782 0.777817 -6.78597e-014
vt 2.04782 0.777817
v 2.14269 0.669638 -6.93035e-014
vt 2.14269 0.669638
v 2.22263 0.55 -7.07473e-014
vt 2.22263 0.55
v 2.28627 0.420952 -7.21911e-014
vt 2.28627 0.420952
v 2.33252 0.284701 -1.06843e-013
vt 2.33252 0.284701
v 2.36059 0.143579 -1.08287e-013
vt 2.36059 0.143579
v 2.37 0 -1.1695e-013
vt 2.37 -8.4905e-028
vt 3 8.40124e-014
vt 3 1.73
f 13/15/3 14/16/3 15/17/3 16/18/3 17/19/3 18/20/3 19/21/3 20/22/3 21/23/3 22/24/3 23/25/3 24/26/3 25/27/3 26/28/3 27/29/3 6/30/3 5/31/3 

vt -2.25 1.73
vn -1 3.21221e-014 -6.16031e-015
v 6.93035e-014 1.1 -2.25
vt -2.25 1.1
vt -6.06406e-014 1.73
v 6.35282e-014 1.73 -0.375
vt -0.375 1.73
v 6.35282e-014 1.7 -0.375
vt -0.375 1.7
v 6.35282e-014 1.4 -0.375
vt -0.375 1.4
v 4.0427e-014 1.4 -1.875
vt -1.875 1.4
v 4.0427e-014 1.7 -1.875
vt -1.875 1.7
vt -1.875 1.73
f 3/32/4 28/33/4 14/16/4 13/34/4 29/35/4 30/36/4 31/37/4 32/38/4 33/39/4 4/40/4 

vt -8.99701e-014 1.73
vn -9.18517e-015 4.47465e-014 -1
vt -3 1.73
vt -3 -2.21719e-014
v 2.37 9.15925e-014 -2.25
vt -2.37 -9.08723e-015
v 2.36059 0.143579 -2.25
vt -2.36059 0.143579
v 2.33252 0.284701 -2.25
vt -2.33252 0.284701
v 2.28627 0.420952 -2.25
vt -2.28627 0.420952
v 2.22263 0.55 -2.25
vt -2.22263 0.55
v 2.14269 0.669638 -2.25
vt -2.14269 0.669638
v 2.04782 0.777817 -2.25
vt -2.04782 0.777817
v 1.93964 0.872689 -2.25
vt -1.93964 0.872689
v 1.82 0.952628 -2.25
vt -1.82 0.952628
v 1.69095 1.01627 -2.25
vt -1.69095 1.01627
v 1.5547 1.06252 -2.25
vt -1.5547 1.06252
v 1.41358 1.09059 -2.25
vt -1.41358 1.09059
v 1.27 1.1 -2.25
vt -1.27 1.1
vt -8.99701e-014 1.1
f 3/41/5 2/42/5 7/43/5 34/44/5 35/45/5 36/46/5 37/47/5 38/48/5 39/49/5 40/50/5 41/51/5 42/52/5 43/53/5 44/54/5 45/55/5 46/56/5 28/57/5 

vt -3 8.37417e-014
vn 5.64282e-014 -1 -1.65765e-014
vt -2.37 1.1695e-013
vt -2.37 2.25
vt -3 2.25
f 6/58/6 27/59/6 34/60/6 7/61/6 

vt -2.25 -0.0111185
vn -0.991445 -0.130526 1.22478e-014
vt -2.25 -0.155005
vn -0.997859 -0.0654031 1.32233e-014
vt -8.55433e-014 -0.155005
vt -7.70051e-014 -0.0111185
f 35/62/7 34/63/8 27/64/8 26/65/7 

vt -2.25 -0.175821
vn -0.965926 -0.258819 8.86314e-015
vt -2.25 -0.319708
vt -8.12824e-014 -0.319708
vt -8.01597e-014 -0.175821
f 36/66/9 35/67/7 26/68/7 25/69/9 

vt -2.25 -0.336285
vn -0.92388 -0.382683 4.04612e-015
vt -2.25 -0.480172
vt -9.09095e-014 -0.480172
vt -5.65736e-014 -0.336285
f 37/70/10 36/71/9 25/72/9 24/73/10 

vt -2.25 -0.489763
vn -0.866025 -0.5 -8.40122e-016
vt -2.25 -0.63365
vt -6.80961e-014 -0.63365
vt -6.67662e-014 -0.489763
f 38/74/11 37/75/10 24/76/10 23/77/11 

vt -2.25 -0.633631
vn -0.793353 -0.608761 -5.71199e-015
vt -2.25 -0.777518
vt -7.95234e-014 -0.777518
vt -7.7764e-014 -0.633631
f 39/78/12 38/79/11 23/80/11 22/81/12 

vt -2.25 -0.765426
vn -0.707107 -0.707107 -1.04861e-014
vt -2.25 -0.909313
vt -9.24348e-014 -0.909313
vt -8.99668e-014 -0.765426
f 40/82/13 39/83/12 22/84/12 21/85/13 

vt -2.25 -0.882893
vn -0.608761 -0.793353 -1.50808e-014
vt -2.25 -1.02678
vt -1.07648e-013 -1.02678
vt -1.12765e-013 -0.882893
f 41/86/14 40/87/13 21/88/13 20/89/14 

vt -2.25 -0.984023
vn -0.5 -0.866025 -1.94175e-014
vt -2.25 -1.12791
vt -1.35429e-013 -1.12791
vt -1.30263e-013 -0.984023
f 42/90/15 41/91/14 20/92/14 19/93/15 

vt -2.25 -1.06708
vn -0.382683 -0.92388 -2.3422e-014
vt -2.25 -1.21097
vt -1.61965e-013 -1.21097
vt -1.52815e-013 -1.06708
f 43/94/16 42/95/15 19/96/15 18/97/16 

vt -2.25 -1.13066
vn -0.258819 -0.965926 -2.70256e-014
vt -2.25 -1.27454
vt -2.03723e-013 -1.27454
vt -1.81458e-013 -1.13066
f 44/98/17 43/99/16 18/100/16 17/101/17 

vt -2.25 -1.17365
vn -0.130526 -0.991445 -3.01669e-014
vt -2.25 -1.31754
vt -2.87573e-013 -1.31754
vt -2.74062e-013 -1.17365
f 45/102/18 44/103/17 17/104/17 16/105/18 

vt -2.25 -1.19534
vn -0.0654031 -0.997859 -3.1547e-014
vt -2.25 -1.33922
vt -7.48252e-013 -1.33922
vt -6.41457e-013 -1.19534
f 46/106/19 45/107/18 16/108/18 15/109/19 

vt -2.69409e-014 2.25
vn -3.85114e-014 -1 -1.63633e-014
vt -1.27 2.25
vt -1.27 4.68761e-014
vt 4.23626e-014 1.79997e-014
f 28/110/20 46/111/20 15/112/20 14/113/20 

vt 6.41527e-014 0.375
vn -3.60956e-016 1 -2.88765e-015
vt 5.26021e-014 5.56449e-014
vt 3 7.87461e-014
vt 3 0.375
f 29/114/21 13/115/21 5/116/21 12/117/21 

vt -3 1.7
vn -1.63943e-014 0 -1
vt -6.96761e-014 1.7
vt -6.96761e-014 1.73
f 11/118/22 30/119/22 29/120/22 12/42/22 

usemtl Asphalt
vn 0 1 -0
vt 4.0427e-014 1.875
vt 6.35282e-014 0.375
f 8/1/23 33/121/23 30/122/23 11/117/23 

usemtl Stone
vt 7.11663e-014 1.7
vn 1.63943e-014 0 1
vt 3 1.7
vt 7.11663e-014 1.73
f 33/123/24 8/124/24 1/31/24 4/125/24 

usemtl Asphalt
vn -1 9.62549e-015 1.54008e-014
f 33/39/25 32/38/25 31/37/25 30/36/25 

vn 1 -1.9251e-014 -1.54008e-014
f 11/13/26 10/12/26 9/11/26 8/10/26 

