# Alias OBJ Model File
# Exported from SketchUp, (c) 2000-2012 Trimble Navigation Limited
# File units = meters

mtllib roadTile_282.mtl

g Mesh1 Group1 Model

usemtl Grass
v 3.11866e-013 0.55 -1.07074e-011
vt 2.41191e-013 1.07072e-011
vn 1.285e-013 1 -4.21115e-016
v 0.375 0.55 -9.43683e-012
vt 0.375 9.43659e-012
v 0.375 0.55 -3
vt 0.375 3
v 1.03233e-011 0.55 -3
vt 1.02527e-011 3
f 1/1/1 2/2/1 3/3/1 4/4/1 

v 0 9.70068e-014 -1.04648e-011
vt -3.5779e-023 9.70068e-014
vn -3.41897e-012 4.41022e-013 1
v 0.375 8.50953e-014 -9.19426e-012
vt 0.375 8.50953e-014
vt 0.375 0.55
vt 3.11866e-013 0.55
f 5/5/2 6/6/2 2/7/2 1/8/2 

v 3 0 -3
vt -3 3
vn 3.26025e-017 -1 4.51195e-017
v 3 0 -0
vt -3 4.41302e-033
v 1.875 3.63663e-014 -3.96185e-012
vt -1.875 3.96185e-012
v 0.75 7.28228e-014 -7.9468e-012
vt -0.75 7.9468e-012
vt -0.375 9.19426e-012
vt -3.16266e-030 1.04648e-011
v 1.03233e-011 9.64654e-014 -3
vt -1.03233e-011 3
v 0.375 8.44636e-014 -3
vt -0.375 3
v 0.75 7.22814e-014 -3
vt -0.75 3
f 7/9/3 8/10/3 9/11/3 10/12/3 6/13/3 5/14/3 11/15/3 12/16/3 13/17/3 

usemtl Water
v 3 0.455 -3
vt 3 0.455
vn 1 -2.60837e-015 3.5518e-012
v 3 0.455 -0
vt 1.06554e-011 0.455
vt 1.06554e-011 7.82511e-015
vt 3 7.82511e-015
f 14/18/4 15/19/4 8/20/4 7/21/4 

v 0.75 0.455 -3
vt 0.75 3
vn 2.5668e-016 1 -8.02124e-018
v 1.875 0.455 -4.03115e-012
vt 1.875 4.03115e-012
vt 3 -3.64966e-018
vt 3 3
f 16/22/5 17/23/5 15/24/5 14/25/5 

usemtl Sand
v 0.75 0.455 -8.15471e-012
vt 0.75 8.15471e-012
vn 1.60425e-016 1 5.35213e-028
f 18/26/6 17/23/6 16/22/6

vt 0.75 7.28228e-014
vn -3.57555e-012 3.36363e-013 1
vt 1.875 3.63663e-014
vt 1.875 0.455
vt 0.75 0.455
f 10/27/7 9/28/7 17/29/7 18/30/7 

usemtl Water
vn -3.5794e-012 1.11063e-013 1
vt 3 1.19262e-024
f 15/18/8 17/29/8 9/28/8 8/31/8 

usemtl Stone
vn -3.33071e-012 4.10917e-013 1
v 0.75 0.63 -8.15471e-012
vt 0.75 0.63
v 0.375 0.63 -9.43683e-012
vt 0.375 0.63
f 18/30/9 19/32/9 20/33/9 2/7/9 6/6/9 10/27/9 

vn 1 -4.29709e-015 3.33442e-012
v 0.75 0.63 -3
vt 3 0.63
vt 1.06555e-011 0.63
vt 1.06555e-011 0.455
f 16/18/10 21/34/10 19/35/10 18/36/10 

vt -0.75 4.04793e-013
vn 3.46751e-012 -1.10837e-013 -1
vt -0.375 4.16975e-013
vt -0.375 0.55
v 0.375 0.63 -3
vt -0.375 0.63
vt -0.75 0.63
vt -0.75 0.455
f 13/37/11 12/38/11 3/39/11 22/40/11 21/41/11 16/42/11 

usemtl Grass
vt 2.59885e-014 0.55
vn 3.44977e-012 -4.20021e-014 -1
vt -0.375 2.1047e-013
vt 2.59885e-014 2.22472e-013
f 4/43/12 3/39/12 12/44/12 11/45/12 

vt -3 9.64654e-014
vn -1 2.58971e-013 -3.38961e-012
vt -1.04648e-011 9.70068e-014
vt -1.07074e-011 0.55
vt -3 0.55
f 11/46/13 5/47/13 1/48/13 4/49/13 

usemtl Stone
vn -1 1.285e-013 -3.34197e-012
vt -1.06901e-011 0.55
vt -1.06901e-011 0.63
vt -3 0.63
f 3/49/14 2/50/14 20/51/14 22/52/14 

vn 1.285e-013 1 -3.00796e-016
vt 0.375 9.43664e-012
vt 0.75 8.15452e-012
f 21/22/15 22/3/15 20/53/15 19/54/15 

usemtl Water
vt -0.75 3.32487e-013
vn 3.60956e-012 -8.67351e-014 -1
vt -3 0.455
vt -3 2.60205e-013
f 13/55/16 16/42/16 14/56/16 7/57/16 

