# Alias OBJ Model File
# Exported from SketchUp, (c) 2000-2012 Trimble Navigation Limited
# File units = meters

mtllib roadTile_105.mtl

g Mesh1 Group1 Model

usemtl Grey_Asphalt
v 3.46517e-014 0.57 -1.125
vt 6.09106e-014 1.125
vn -4.60681e-014 1 -4.37639e-013
v 3.46517e-014 0.57 -0.9375
vt 6.09106e-014 0.9375
v 3 0.57 -0.9375
vt 3 0.9375
v 3 0.57 -1.125
vt 3 1.125
f 1/1/1 2/2/1 3/3/1 4/4/1 

usemtl Asphalt
v 1.73259e-014 0.6 -3
vt -3 0.6
vn -1 -7.89783e-014 1.60008e-015
v 3.46517e-014 0.3 -3
vt -3 0.3
v 1.03955e-013 0.3 -6.93035e-014
vt -6.93035e-014 0.3
v 8.66294e-014 0.6 -0
vt 1.38614e-028 0.6
v 0 0.6 -0.9375
vt -0.9375 0.6
vt -0.9375 0.57
vt -1.125 0.57
v 0 0.6 -1.125
vt -1.125 0.6
v 3.46517e-014 0.6 -1.875
vt -1.875 0.6
v 1.03955e-013 0.57 -1.875
vt -1.875 0.57
v 1.03955e-013 0.57 -2.0625
vt -2.0625 0.57
v 6.93035e-014 0.6 -2.0625
vt -2.0625 0.6
f 5/5/2 6/6/2 7/7/2 8/8/2 9/9/2 2/10/2 1/11/2 10/12/2 11/13/2 12/14/2 13/15/2 14/16/2 

vt -5.44527e-014 0.3
vn -6.60033e-015 2.5668e-014 -1
vt -3.71269e-014 0.6
v 2.25 0.6 -3
vt -2.25 0.6
v 2.25 0.3 -3
vt -2.25 0.3
f 6/17/3 5/18/3 15/19/3 16/20/3 

vt 2.25 3
vn 0 1 -0
vt 1.73259e-014 3
vt 6.93035e-014 2.0625
v 2.25 0.6 -2.0625
vt 2.25 2.0625
f 15/21/4 5/22/4 14/23/4 17/24/4 

usemtl Grey_Asphalt
vt 2.25 0.6
vn -1.92297e-014 -2.16972e-013 1
vt 2.96422e-014 0.6
vt 6.4294e-014 0.57
v 3 0.57 -2.0625
vt 3 0.57
v 3 0.63 -2.0625
vt 3 0.63
v 2.25 0.63 -2.0625
vt 2.25 0.63
f 17/25/5 14/26/5 13/27/5 18/28/5 19/29/5 20/30/5 

vt 1.23933e-013 1.875
vn -3.50488e-014 1 4.4951e-013
v 3 0.57 -1.875
vt 3 1.875
vt 3 2.0625
vt 1.23933e-013 2.0625
f 12/31/6 21/32/6 18/33/6 13/34/6 

v 3 0.63 -1.875
vt -3 0.63
vn 2.10735e-008 5.99719e-013 -1
vt -3 0.57
vt 3.95126e-008 0.57
vt 3.95127e-008 0.6
v 2.25 0.6 -1.875
v 2.25 0.63 -1.875
vt -2.25 0.63
f 22/35/7 21/36/7 12/37/7 11/38/7 23/19/7 24/39/7 

usemtl Stone
v 3 1.08287e-015 -0
vt 2.86846e-015 1.08287e-015
vn 1 0 9.56154e-016
v 3 1.08287e-015 -3
vt 3 1.08287e-015
v 3 0.63 -3
vt 2.0625 0.63
vt 2.0625 0.57
vt 1.875 0.57
vt 1.875 0.63
v 3 0.63 -1.125
vt 1.125 0.63
vt 1.125 0.57
vt 0.9375 0.57
v 3 0.63 -0.9375
vt 0.9375 0.63
v 3 0.63 -0
vt 2.86846e-015 0.63
f 25/40/8 26/41/8 27/29/8 19/42/8 18/43/8 21/44/8 22/45/8 28/46/8 4/47/8 3/48/8 29/49/8 30/50/8 

v 3.46517e-014 7.21911e-016 -3
vt -3.46517e-014 3
vn 1.2404e-017 -1 -6.01593e-017
vt -3 3
vt -3 6.29059e-032
v 5.19776e-014 0 -6.93035e-014
vt -5.19776e-014 6.93035e-014
f 31/51/9 26/52/9 25/53/9 32/54/9 

vt 1.54321e-014 1.91508e-014
vn 1.66946e-014 -6.14298e-015 -1
vt 1.54321e-014 0.3
v 2.25 0.63 -3
vt -3 1.95118e-014
f 31/55/10 6/56/10 16/20/10 15/19/10 33/39/10 27/35/10 26/57/10 

vt -6.93035e-014 4.00248e-027
vn -1 7.70039e-014 7.70039e-015
vt -3 7.21911e-016
f 32/58/11 7/7/11 6/6/11 31/59/11 

v 2.25 0.3 -3.46517e-014
vt 2.25 0.3
vn -2.0694e-014 1.15711e-014 1
vt 1.03955e-013 0.3
vt 5.19776e-014 8.0192e-028
v 2.25 0.63 -3.46517e-014
v 2.25 0.6 -3.46517e-014
f 34/60/12 7/61/12 32/62/12 25/41/12 30/29/12 35/30/12 36/25/12 

usemtl Asphalt
vt 8.66294e-014 0.6
vn 2.20011e-015 -5.13359e-014 1
f 8/63/13 7/61/13 34/60/13 36/25/13 

vt 2.25 3.46517e-014
v 2.25 0.6 -0.9375
vt 2.25 0.9375
vt 0 0.9375
vt 8.66294e-014 0
f 36/64/4 37/65/4 9/66/4 8/67/4 

usemtl Stone
vt -1.81778e-014 0.63
vn -1 2.3837e-027 7.32176e-015
v 2.25 0.63 -0.9375
vt -0.9375 0.63
vt -1.81778e-014 0.6
f 35/68/14 38/69/14 37/9/14 36/70/14 

vt 3 -4.69964e-015
vn -1.02872e-014 1 -7.45975e-015
vt 2.25 2.99521e-014
f 30/71/15 29/3/15 38/65/15 35/72/15 

usemtl Grey_Asphalt
vt -3.46517e-014 0.57
vn -2.95823e-031 0 -1
vt -2.77334e-031 0.6
f 2/73/16 9/74/16 37/19/16 38/39/16 29/35/16 3/36/16 

usemtl Stone
vn -1 5.13899e-029 3.1963e-014
vt -2.0625 0.63
f 15/5/17 17/16/17 20/75/17 33/35/17 

vn -2.40637e-016 1 -3.85019e-016
vt 3 3
f 33/21/18 20/24/18 19/33/18 27/76/18 

vt 2.25 1.875
vn -4.35553e-014 1 5.53465e-015
v 2.25 0.63 -1.125
vt 2.25 1.125
f 24/77/19 39/78/19 28/4/19 22/32/19 

vt -1.125 0.63
vn -1 2.10007e-029 -4.8121e-014
vt -1.875 0.63
v 2.25 0.6 -1.125
f 39/79/20 24/80/20 23/13/20 40/12/20 

usemtl Asphalt
vt 3.46517e-014 1.875
vt 0 1.125
f 11/81/4 10/82/4 40/78/4 23/77/4 

usemtl Grey_Asphalt
vn -2.10735e-008 3.77523e-013 1
vt -2.37077e-008 0.6
vt -2.37076e-008 0.57
f 40/25/21 10/83/21 1/84/21 4/28/21 28/29/21 39/30/21 

