# Alias OBJ Model File
# Exported from SketchUp, (c) 2000-2012 Trimble Navigation Limited
# File units = meters

mtllib roadTile_132.mtl

g Mesh1 Group1 Model

usemtl Stone
v 2.59884 0.63 -3
vt -2.59884 0.63
vn -2.99444e-012 7.48378e-030 -1
v 3 0.63 -3
vt -3 0.63
v 3 3.01398e-014 -3
vt -3 3.01398e-014
v 2.59884 4.26289e-013 -3
vt -2.59884 4.26289e-013
f 1/1/1 2/2/1 3/3/1 4/4/1 

v 3 0.63 -2.59884
vt 3 2.59884
vn 8.35028e-014 1 -7.40552e-014
vt 3 3
vt 2.59884 3
v 2.82583 0.63 -2.82583
vt 2.82583 2.82583
f 5/5/2 2/6/2 1/7/2 6/8/2 

vt 2.59884 0.63
vn 1 4.14755e-031 2.87927e-013
v 3 1.26334e-014 -2.59884
vt 2.59884 1.26334e-014
vt 3 3.01398e-014
vt 3 0.63
f 5/9/3 7/10/3 3/11/3 2/12/3 

vt -0.235511 0.63
vn -0.793353 1.16134e-017 0.608761
vt -0.521624 0.63
vn -0.707107 6.34824e-018 0.707107
v 2.82583 1.87697e-014 -2.82583
vt -0.521624 1.88157e-014
vt -0.235511 1.26795e-014
f 5/13/4 6/14/5 8/15/5 7/16/4 

vt 0.521624 0.63
vt 0.235511 0.63
vn -0.608761 9.74485e-019 0.793353
vt 0.235511 4.26293e-013
vt 0.521624 1.87736e-014
f 6/17/5 1/18/6 4/19/6 8/20/5 

vt -3 3
vn -8.92439e-013 -1 -1.38699e-013
vt -3 2.59884
vt -2.82583 2.82583
vt -2.59884 3
f 3/21/7 7/22/7 8/23/7 4/24/7 

g Mesh2 Group1 Model

v 0.401164 0.63 -3
vt 2.14455 0.63
vn 0.608761 2.11609e-020 0.793353
v 0.174175 0.63 -2.82583
vt 1.85844 0.63
vn 0.707107 -3.92397e-018 0.707107
v 0.174175 7.94103e-015 -2.82583
vt 1.85844 7.94107e-015
v 0.401164 4.23942e-013 -3
vt 2.14455 4.23943e-013
f 9/25/8 10/26/9 11/27/9 12/28/8 

vt 0.401164 3
vn -9.66484e-016 1 9.83077e-015
v 1.12618e-012 0.63 -3
vt 1.12679e-012 3
v 9.818e-013 0.63 -2.59884
vt 9.82408e-013 2.59884
vt 0.174175 2.82583
f 9/29/10 13/30/10 14/31/10 10/32/10 

vt -1.12618e-012 0.63
vn 0 0 -1
vt -0.401164 0.63
vt -0.401164 4.23942e-013
v 1.12618e-012 5.95577e-014 -3
vt -1.12618e-012 5.95577e-014
f 13/33/11 9/34/11 12/35/11 15/36/11 

vt -1.12618e-012 3
vn 8.07554e-013 -1 -2.35731e-013
vt -0.401164 3
vt -0.174175 2.82583
v 9.818e-013 5.41434e-015 -2.59884
vt -9.818e-013 2.59884
f 15/37/12 12/38/12 11/39/12 16/40/12 

vt 2.34791 0.63
vt 2.0618 0.63
vn 0.793353 -7.80197e-018 0.608761
vt 2.0618 5.40199e-015
vt 2.34791 7.92868e-015
f 10/41/9 14/42/13 16/43/13 11/44/9 

vt -3 5.95577e-014
vn -1 1.1312e-029 -3.67107e-013
vt -2.59884 5.41434e-015
f 15/45/14 16/46/14 14/1/14 13/2/14 

g Mesh3 Group1 Model

v 1.01645e-012 0.63 -0.401164
vn -1 3.41476e-013 -1.99029e-012
v 5.83304e-013 3.12227e-014 -0.401164
vt -0.401164 3.12227e-014
v 0 2.68912e-014 -1.10886e-012
vt -1.10886e-012 2.68912e-014
v 0 0.63 -1.10886e-012
vt -1.10886e-012 0.63
f 17/34/15 18/47/15 19/48/15 20/49/15 

vt 0.318265 0.63
vn 0.793353 -2.69084e-013 -0.608761
v 0.174175 0.63 -0.174175
vt 0.0321513 0.63
vn 0.707107 -1.34998e-013 -0.707107
v 0.174175 0 -0.174175
vt 0.0321513 6.57138e-014
vt 0.318265 9.69365e-014
f 17/50/16 21/51/17 22/52/17 18/53/16 

vt 1.04519e-012 0.401164
vn -4.56215e-014 1 4.33721e-014
vt 2.87415e-014 1.13618e-012
v 0.401164 0.63 -0
vt 0.401164 2.73244e-014
vt 0.174175 0.174175
f 17/54/18 20/55/18 23/56/18 21/57/18 

vt -3.06499e-024 2.68912e-014
vn -2.7641e-012 8.22666e-029 1
v 0.401164 1.11896e-014 -0
vt 0.401164 1.11896e-014
vt 0.401164 0.63
vt -3.06499e-024 0.63
f 19/58/19 24/59/19 23/60/19 20/61/19 

vt 1.37182e-027 1.10886e-012
vn -5.10138e-014 -1 1.07653e-015
vt -5.83304e-013 0.401164
vt -0.174175 0.174175
vt -0.401164 -3.40769e-029
f 19/62/20 18/63/20 22/64/20 24/65/20 

vt -0.0321513 0.63
vt -0.318265 0.63
vn 0.608761 1.39828e-015 -0.793353
vt -0.318265 1.08481e-014
vt -0.0321513 -3.41479e-016
f 21/66/17 23/67/21 24/68/21 22/69/17 

g Mesh4 Group1 Model

v 2.82583 0.63 -0.174175
vt -1.85844 0.63
vn -0.707107 1.50914e-018 -0.707107
v 3 0.63 -0.401164
vt -2.14455 0.63
vn -0.793353 6.79866e-019 -0.608761
v 3 5.05338e-015 -0.401164
vt -2.14455 5.05483e-015
v 2.82583 2.52669e-015 -0.174175
vt -1.85844 2.52814e-015
f 25/70/22 26/71/23 27/72/23 28/73/22 

v 2.59884 0.63 -0
vt 2.59884 -1.35562e-014
vn -2.01682e-014 1 -2.15178e-014
v 3 0.63 -1.66328e-012
vt 3 1.64973e-012
vt 3 0.401164
vt 2.82583 0.174175
f 29/74/24 30/75/24 26/76/24 25/77/24 

vn 4.14615e-012 1.47911e-028 1
v 2.59884 1.01068e-014 -0
vt 2.59884 1.01068e-014
v 3 5.57677e-014 -1.66328e-012
vt 3 5.57677e-014
f 29/9/25 31/78/25 32/79/25 30/12/25 

vt -2.0618 0.63
vn -0.608761 2.31258e-018 -0.793353
vt -2.34791 0.63
vt -2.34791 2.53035e-015
vt -2.0618 1.01104e-014
f 29/80/26 25/81/22 28/82/22 31/83/26 

vt -3 1.66328e-012
vn 1.19985e-013 -1 1.32582e-013
vt -2.59884 4.0002e-026
vt -2.82583 0.174175
vt -3 0.401164
f 32/84/27 31/85/27 28/86/27 27/87/27 

vt 9.65325e-012 5.57677e-014
vn 1 2.52314e-029 2.66332e-012
vt 0.401164 5.05338e-015
vt 9.65325e-012 0.63
f 32/88/28 27/89/28 26/60/28 30/90/28 

