# Alias OBJ Model File
# Exported from SketchUp, (c) 2000-2012 Trimble Navigation Limited
# File units = meters

mtllib roadTile_101.mtl

g Mesh1 Group1 Model

usemtl Stone
v 3 0 -4.62023e-014
vt -5.1985e-015 8.47554e-015
vn 1 -2.82518e-015 -1.71336e-014
v 3 0 -3
vt 3 8.47554e-015
v 3 0.63 -3
vt 3 0.63
v 3 0.63 -2.16072
vt 2.16072 0.63
v 3 0.57 -2.16072
vt 2.16072 0.57
v 3 0.57 -1.92896
vt 1.92896 0.57
v 3 0.63 -1.92896
vt 1.92896 0.63
v 3 0.63 -6.93035e-014
vt 1.79027e-014 0.63
f 1/1/1 2/2/1 3/3/1 4/4/1 5/5/1 6/6/1 7/7/1 8/8/1 

vt -3 4.62023e-014
vn 0 -1 -0
v 4.62023e-014 0 -0
vt -4.62023e-014 0
v 0 0 -3
vt 0 3
vt -3 3
f 1/9/2 9/10/2 10/11/2 2/12/2 

v 4.62023e-014 0.63 -0
vt 4.62023e-014 0.63
vn 1.9251e-014 1.83343e-014 1
vt 4.62023e-014 -1.63072e-041
vt 3 -2.11771e-028
f 11/13/3 9/14/3 1/15/3 8/3/3 

vt -3 0
vn -1 0 1.73259e-014
vt 8.00496e-028 0
vt 8.00496e-028 0.63
v 0 0.63 -3
vt -3 0.63
f 10/16/4 9/17/4 11/18/4 12/19/4 

vt 3 6.73773e-014
vn 4.01408e-015 1 -3.05747e-015
vt 3 1.92896
v 2.91815 0.63 -1.98365
vt 2.91815 1.98365
v 2.42027 0.63 -2.42027
vt 2.42027 2.42027
v 1.98365 0.63 -2.91815
vt 1.98365 2.91815
v 1.92896 0.63 -3
vt 1.92896 3
vt -2.52887e-015 3
vt 4.36735e-014 -1.92621e-015
f 8/20/5 7/21/5 13/22/5 14/23/5 15/24/5 16/25/5 12/26/5 11/27/5 

usemtl Grey_Asphalt
vt -1.32429 0.63
vn 0.608761 -4.86414e-013 -0.793353
vt -1.42274 0.63
vn 0.55557 -4.80742e-013 -0.83147
vt -1.42274 0.57
v 2.91815 0.57 -1.98365
vt -1.32429 0.57
f 13/28/6 7/29/7 6/30/7 17/31/6 

v 2.16072 0.57 -3
vt 2.16072 3
vn 3.52276e-013 1 -3.428e-013
v 1.92896 0.57 -3
v 1.98365 0.57 -2.91815
v 2.42027 0.57 -2.42027
vt 3 2.16072
v 2.55285 0.57 -2.55285
vt 2.55285 2.55285
f 18/32/8 19/25/8 20/24/8 21/23/8 17/22/8 6/21/8 5/33/8 22/34/8 

usemtl Stone
vt -4.45983e-014 -1.92847e-014
vn -1.48661e-014 6.42825e-015 -1
vt -4.45983e-014 0.63
vt -1.92896 0.63
vt -1.92896 0.57
vt -2.16072 0.57
v 2.16072 0.63 -3
vt -2.16072 0.63
vt -3 -1.92847e-014
f 10/35/9 12/36/9 16/37/9 19/38/9 18/39/9 23/40/9 3/19/9 2/41/9 

usemtl Grey_Asphalt
vt 1.42274 0.63
vn 0.83147 -4.83356e-013 -0.55557
vt 1.32429 0.63
vn 0.793353 -4.88163e-013 -0.608761
vt 1.32429 0.57
vt 1.42274 0.57
f 16/42/10 15/43/11 20/44/11 19/45/10 

vt 0.886067 0.63
vt 0.223861 0.63
vn 0.707107 -4.91493e-013 -0.707107
vt 0.223861 0.57
vt 0.886067 0.57
f 15/46/11 14/47/12 21/48/12 20/49/11 

vt -0.223861 0.63
vt -0.886067 0.63
vt -0.886067 0.57
vt -0.223861 0.57
f 14/50/12 13/51/6 17/52/6 21/53/12 

v 2.55285 0.63 -2.55285
vt -0.236124 0.63
vn -0.707107 4.91493e-013 0.707107
vt -0.830859 0.63
vn -0.75184 4.90879e-013 0.659346
vt -0.830859 0.57
vt -0.236124 0.57
f 24/54/13 23/55/14 18/56/14 22/57/13 

usemtl Stone
vt 3 3
vn -1.15813e-013 1 1.39037e-013
f 3/58/15 23/32/15 24/34/15 4/33/15 

usemtl Grey_Asphalt
vt 0.830859 0.63
vn -0.659346 4.90002e-013 0.75184
vt 0.236124 0.63
vt 0.236124 0.57
vt 0.830859 0.57
f 4/59/16 24/60/13 22/61/13 5/62/16 

