# Alias OBJ Model File
# Exported from SketchUp, (c) 2000-2012 Trimble Navigation Limited
# File units = meters

mtllib roadTile_226.mtl

g Mesh1 Group1 Model

usemtl Stone
v 2.31012e-014 1.1 -0.375
vt -3.14276e-014 1.1
vn -2.22038e-014 -1.28154e-015 -1
v 0.591492 0.88312 -0.375
vt -0.591492 0.88312
v 0.591492 4.69242e-015 -0.375
vt -0.591492 5.173e-015
v 6.93035e-014 4.69242e-015 -0.375
vt -7.76299e-014 5.173e-015
f 1/1/1 2/2/1 3/3/1 4/4/1 

v 5.77529e-015 1.1 -1.875
vt -1.875 0.37868
vn -0.344255 -0.938876 5.13581e-015
v 0.591492 0.88312 -1.875
vt -1.875 -0.25132
v 0.591492 0.88312 -2.25
vt -2.25 -0.25132
v 3 2.67107e-014 -2.25
vt -2.25 -2.81663
v 3 4.89095e-014 -9.24047e-014
vt -4.76488e-014 -2.81663
v 0.591492 0.88312 -6.93035e-014
vt -6.04792e-014 -0.25132
vt -0.375 -0.25132
vt -0.375 0.37868
f 5/5/2 6/6/2 7/7/2 8/8/2 9/9/2 10/10/2 2/11/2 1/12/2 

vt 0.591492 0.88312
vn 2.22038e-014 1.28154e-015 1
vt 4.74074e-014 1.1
v 2.31012e-014 2.38231e-014 -1.875
vt 6.47333e-014 2.6226e-014
v 0.591492 2.38231e-014 -1.875
vt 0.591492 2.6226e-014
f 6/13/3 5/14/3 11/15/3 12/16/3 

vt -0.375 4.69242e-015
vn -1 -3.24713e-014 8.02806e-015
v 1.15506e-013 1.04677e-014 -4.62023e-014
vt -4.62023e-014 1.04677e-014
v 2.31012e-014 1.73 -0
vt 1.85458e-028 1.73
v 1.73259e-014 1.73 -0.375
vt -0.375 1.73
v 1.73259e-014 1.7 -0.375
vt -0.375 1.7
v 1.73259e-014 1.4 -0.375
vt -0.375 1.4
v 1.15506e-014 1.4 -1.875
vt -1.875 1.4
v 1.15506e-014 1.7 -1.875
vt -1.875 1.7
v 1.15506e-014 1.73 -1.875
vt -1.875 1.73
v 0 1.73 -2.25
vt -2.25 1.73
v 2.31012e-014 2.61693e-014 -2.25
vt -2.25 2.61693e-014
vt -1.875 2.38231e-014
vt -1.875 1.1
vt -0.375 1.1
f 4/17/4 13/18/4 14/19/4 15/20/4 16/21/4 17/22/4 18/23/4 19/24/4 20/25/4 21/26/4 22/27/4 11/28/4 5/29/4 1/30/4 

vt -1.15506e-013 4.62023e-014
vn -8.84857e-015 -1 1.44382e-015
vt -6.93035e-014 0.375
vt -0.591492 0.375
v 0.591492 0 -0
vt -0.591492 -7.55676e-030
f 13/31/5 4/32/5 3/33/5 23/34/5 

vt 0.375 0.88312
vn 1 -3.26982e-015 -3.85019e-014
vt 4.65299e-014 0.88312
vt -2.27736e-014 1.93408e-015
vt 0.375 6.6265e-015
f 2/35/6 10/36/6 23/37/6 3/38/6 

vt 2.31012e-014 1.73
vn 1.8393e-014 -1.78932e-014 1
vt 1.15506e-013 1.04677e-014
vt 0.591492 1.94665e-028
vt 3 4.89095e-014
v 3 0.63 -6.93035e-014
vt 3 0.63
f 14/39/7 13/40/7 23/41/7 10/13/7 9/42/7 24/43/7 

vt 8.79621e-014 3.37224e-014
vn 1 5.06238e-015 -1.48084e-015
vt 2.25 1.15236e-014
v 3 0.63 -2.25
vt 2.25 0.63
v 3 0.63 -1.875
vt 1.875 0.63
v 3 0.6 -1.875
vt 1.875 0.6
v 3 0.3 -1.875
vt 1.875 0.3
v 3 0.3 -0.375
vt 0.375 0.3
v 3 0.6 -0.375
vt 0.375 0.6
v 3 0.63 -0.375
vt 0.375 0.63
vt 6.4861e-014 0.63
f 9/44/8 8/45/8 25/46/8 26/47/8 27/48/8 28/49/8 29/50/8 30/51/8 31/52/8 24/53/8 

vt -3 0.63
vn -2.77122e-014 1.06278e-014 -1
vt -3 2.79808e-015
v 0.591492 2.85155e-014 -2.25
vt -0.591492 4.60286e-015
vt -8.54537e-014 2.25665e-015
vt -6.23525e-014 1.73
f 25/54/9 8/55/9 7/2/9 32/56/9 22/57/9 21/58/9 

vt 1.875 2.38231e-014
vn 1 -3.11843e-031 -3.85019e-014
vt 2.25 2.85155e-014
vt 2.25 0.88312
vt 1.875 0.88312
f 12/59/10 32/60/10 7/61/10 6/62/10 

vt -2.31012e-014 2.25
vn 1.9833e-015 -1 -9.38485e-015
vt -0.591492 2.25
vt -0.591492 1.875
vt -2.31012e-014 1.875
f 22/63/11 32/64/11 12/65/11 11/66/11 

vt 1.875 -2.59975
vn 0.344255 0.938876 -4.48885e-016
vt 2.25 -2.59975
vt 2.25 0.595561
vt 1.875 0.595561
f 26/67/12 25/68/12 21/69/12 20/70/12 

vt 6.20844e-014 1.7
vn 2.69514e-014 -2.17631e-026 1
vt 3 0.6
vt 6.20844e-014 1.73
f 19/71/13 27/72/13 26/43/13 20/73/13 

usemtl Asphalt
vt 1.875 -2.61008
vn 0.344255 0.938876 -2.67495e-015
vt 1.875 0.585233
vt 0.375 0.585233
vt 0.375 -2.61008
f 27/74/14 19/75/14 16/76/14 30/77/14 

vn -1 -3.82521e-029 7.70039e-015
f 16/21/15 19/24/15 18/23/15 17/22/15 

usemtl Stone
vt -3 0.6
vn -2.06948e-014 2.17631e-026 -1
vt -2.50864e-014 1.7
vt -2.50864e-014 1.73
f 30/78/16 16/79/16 15/80/16 31/54/16 

vt 0.375 0.595561
vn 0.344255 0.938876 -4.92141e-015
vt -3.28968e-028 0.595561
vt 2.6416e-014 -2.59975
vt 0.375 -2.59975
f 15/81/17 14/82/17 24/83/17 31/84/17 

usemtl Asphalt
vn 1 -1.9251e-014 -1.15506e-014
f 27/48/18 30/51/18 29/50/18 28/49/18 

