# Alias OBJ Model File
# Exported from SketchUp, (c) 2000-2012 Trimble Navigation Limited
# File units = meters

mtllib roadTile_231.mtl

g Mesh1 Group1 Model

usemtl Stone
v 3 0.63 -2.625
vt -3 0.63
vn -1.9251e-014 7.65108e-027 -1
v 3 0.55 -2.625
vt -3 0.55
v 0 1.65 -2.625
vt -5.05338e-014 1.65
v 8.08541e-014 1.73 -2.625
vt -1.31388e-013 1.73
f 1/1/1 2/2/1 3/3/1 4/4/1 

v 3 0 -0.375
vt 0.375 -1.05162e-013
vn 1 3.5054e-014 3.62807e-015
v 3 0 -2.625
vt 2.625 -1.05162e-013
vt 2.625 0.55
vt 2.625 0.63
v 3 0.63 -2.25
vt 2.25 0.63
v 3 0.6 -2.25
vt 2.25 0.6
v 3 0.3 -2.25
vt 2.25 0.3
v 3 0.3 -0.75
vt 0.75 0.3
v 3 0.6 -0.75
vt 0.75 0.6
v 3 0.63 -0.75
vt 0.75 0.63
v 3 0.63 -0.375
vt 0.375 0.63
v 3 0.55 -0.375
vt 0.375 0.55
f 5/5/2 6/6/2 2/7/2 1/8/2 7/9/2 8/10/2 9/11/2 10/12/2 11/13/2 12/14/2 13/15/2 14/16/2 

usemtl Grass
v 3 0 -5.77529e-014
vt -3 5.77529e-014
vn 1.20638e-033 -1 -1.33118e-033
v 1.15506e-013 0 -2.88765e-014
vt -1.15506e-013 2.88765e-014
v 9.818e-014 0 -0.375
vt -9.818e-014 0.375
v 4.62023e-014 0 -2.625
vt -4.62023e-014 2.625
v 7.50788e-014 0 -3
vt -7.50788e-014 3
v 3 0 -3
vt -3 3
vt -3 2.625
vt -3 0.375
f 15/17/3 16/18/3 17/19/3 18/20/3 19/21/3 20/22/3 6/23/3 5/24/3 

vt 3 -2.03763e-028
vn 1.46307e-014 -1.47007e-014 1
v 3 0.55 -5.77529e-014
vt 3 0.55
v 5.77529e-015 1.65 -0
vt 5.77529e-015 1.65
vt 1.15506e-013 -4.24505e-028
f 15/25/4 21/26/4 22/27/4 16/28/4 

vt 5.19776e-014 -3.62268e-013
vn 1 1.20756e-013 -1.9251e-015
vt 0.375 -3.62268e-013
vt 5.19776e-014 0.55
f 15/29/5 5/30/5 14/16/5 21/31/5 

vt 3.29374e-013 -2.62729
vn 0.344255 0.938876 3.11689e-014
vt 0.375 -2.62729
v 4.0427e-014 1.65 -0.375
vt 0.375 0.56802
vt 5.12638e-028 0.56802
f 21/32/6 14/33/6 23/34/6 22/35/6 

usemtl Stone
vt 4.62023e-014 1.65
vn 1.54008e-014 0 1
vt 3 0.63
v 4.0427e-014 1.73 -0.375
vt 4.62023e-014 1.73
f 23/36/7 14/26/7 13/37/7 24/38/7 

v 9.24047e-014 1.73 -0.75
vt 0.75 0.595561
vn 0.344255 0.938876 3.55109e-014
vt 0.375 0.595561
vt 0.375 -2.59975
vt 0.75 -2.59975
f 25/39/8 24/40/8 13/41/8 12/42/8 

vt -2.625 -4.80199e-028
vn -1 -6.75571e-015 9.4774e-015
vt -0.375 -6.87285e-028
vt -0.375 1.65
vt -0.375 1.73
vt -0.75 1.73
v 6.93035e-014 0.6 -0.75
vt -0.75 0.6
v 6.93035e-014 0.3 -0.75
vt -0.75 0.3
v 5.19776e-014 0.3 -2.25
vt -2.25 0.3
v 5.19776e-014 0.6 -2.25
vt -2.25 0.6
v 6.93035e-014 1.73 -2.25
vt -2.25 1.73
vt -2.625 1.73
vt -2.625 1.65
f 18/43/9 17/44/9 23/45/9 24/46/9 25/47/9 26/48/9 27/49/9 28/50/9 29/51/9 30/52/9 4/53/9 3/54/9 

usemtl Grass
vt -1.00062e-028 1.65
vn -1 -5.11901e-014 -1.73259e-014
vt -0.375 -4.69325e-027
vt -2.88765e-014 -5.91275e-027
f 22/55/10 23/45/10 17/56/10 16/57/10 

usemtl Stone
vt -1.04677e-013 1.73
vn -1.63633e-014 3.34426e-028 -1
vt -3 0.6
vt -8.1576e-014 0.6
f 25/58/11 12/1/11 11/59/11 26/60/11 

usemtl Asphalt
vt 6.93035e-014 0.75
vn 0 1 -0
vt 3 0.75
vt 3 2.25
vt 5.19776e-014 2.25
f 26/61/12 11/62/12 8/63/12 29/64/12 

vn 1 -1.9251e-014 -1.15506e-014
f 8/10/13 11/13/13 10/12/13 9/11/13 

usemtl Stone
vt 1.03955e-013 1.73
vn 1.54008e-014 -2.31148e-028 1
vt 8.66294e-014 0.6
vt 3 0.6
f 30/65/14 29/66/14 8/67/14 7/37/14 

vt 2.25 -2.59975
vn 0.344255 0.938876 1.52702e-014
vt 2.625 -2.59975
vt 2.625 0.595561
vt 2.25 0.595561
f 7/68/15 1/69/15 4/70/15 30/71/15 

usemtl Asphalt
vn -1 1.48929e-028 1.54008e-014
f 26/48/16 29/51/16 28/50/16 27/49/16 

usemtl Grass
vt -3 4.47247e-027
vn -1 -1.31257e-014 -1.38607e-013
vt -2.625 4.16925e-027
v 7.50788e-014 1.65 -3
vt -3 1.65
f 19/72/17 18/73/17 3/54/17 31/74/17 

v 3 0.55 -3
vt 3 -2.62729
vn 0.344255 0.938876 3.58537e-014
vt 3 0.56802
vt 2.625 0.56802
vt 2.625 -2.62729
f 32/75/18 31/76/18 3/77/18 2/78/18 

vt -1.23591e-013 -1.8901e-014
vn -1.61708e-014 6.30032e-015 -1
vt -1.23591e-013 1.65
vt -3 -1.8901e-014
f 19/79/19 31/80/19 32/2/19 20/81/19 

vn 1 1.83759e-014 -1.54008e-014
vt 2.625 -5.51278e-014
vt 3 -5.51278e-014
f 32/26/20 2/7/20 6/82/20 20/83/20 

