# Alias OBJ Model File
# Exported from SketchUp, (c) 2000-2012 Trimble Navigation Limited
# File units = meters

mtllib roadTile_093.mtl

g Mesh1 Group1 Model

usemtl Light_Asphalt
v 1.14104 0.63 -2.75526
vt -2.67474 0.63
vn -0.991445 -3.21681e-014 0.130526
v 1.125 0.63 -3
vt -2.92 0.63
vn -0.997859 -3.11593e-014 0.0654031
v 1.125 0.57 -3
vt -2.92 0.57
v 1.14104 0.57 -2.75526
vt -2.67474 0.57
f 1/1/1 2/2/2 3/3/2 4/4/1 

usemtl Stone
v 1.875 0.63 -3
vt 1.875 3
vn -2.57696e-014 1 9.45216e-015
vt 1.125 3
vt 1.14104 2.75526
v 1.18889 0.63 -2.51471
vt 1.18889 2.51471
v 1.26773 0.63 -2.28247
vt 1.26773 2.28247
v 1.3762 0.63 -2.0625
vt 1.3762 2.0625
v 2.38246 0.63 -2.0625
vt 2.38246 2.0625
v 2.31514 0.63 -2.10748
vt 2.31514 2.10748
v 2.2045 0.63 -2.2045
vt 2.2045 2.2045
v 2.10748 0.63 -2.31514
vt 2.10748 2.31514
v 2.02572 0.63 -2.4375
vt 2.02572 2.4375
v 1.96064 0.63 -2.56948
vt 1.96064 2.56948
v 1.91333 0.63 -2.70883
vt 1.91333 2.70883
v 1.88462 0.63 -2.85316
vt 1.88462 2.85316
f 5/5/3 2/6/3 1/7/3 6/8/3 7/9/3 8/10/3 9/11/3 10/12/3 11/13/3 12/14/3 13/15/3 14/16/3 15/17/3 16/18/3 

v 3 0.63 -3
vt -3 0.63
vn -2.92724e-014 -1.83343e-014 -1
v 3 0 -3
vt -3 5.50028e-014
v 2.88765e-015 0 -3
vt -9.07048e-014 5.50028e-014
v 2.88765e-015 0.63 -3
vt -9.07048e-014 0.63
v 0.9375 0.63 -3
vt -0.9375 0.63
v 0.9375 0.57 -3
vt -0.9375 0.57
vt -1.125 0.57
vt -1.125 0.63
vt -1.875 0.63
v 1.875 0.57 -3
vt -1.875 0.57
v 2.0625 0.57 -3
vt -2.0625 0.57
v 2.0625 0.63 -3
vt -2.0625 0.63
f 17/19/4 18/20/4 19/21/4 20/22/4 21/23/4 22/24/4 3/25/4 2/26/4 5/27/4 23/28/4 24/29/4 25/30/4 

v 3 0 -0
vt -5.7671e-014 2.75014e-014
vn 1 -9.16713e-015 -1.92237e-014
vt 3 2.75014e-014
vt 3 0.63
v 3 0.63 -2.0625
vt 2.0625 0.63
v 3 0.57 -2.0625
vt 2.0625 0.57
v 3 0.57 -1.875
vt 1.875 0.57
v 3 0.63 -1.875
vt 1.875 0.63
v 3 0.63 -1.125
vt 1.125 0.63
v 3 0.57 -1.125
vt 1.125 0.57
v 3 0.57 -0.9375
vt 0.9375 0.57
v 3 0.63 -0.9375
vt 0.9375 0.63
v 3 0.63 -4.62023e-014
vt -1.14687e-014 0.63
f 26/31/5 18/32/5 17/33/5 27/34/5 28/35/5 29/36/5 30/37/5 31/38/5 32/39/5 33/40/5 34/41/5 35/42/5 

vt -3 -4.81772e-066
vn 1.20638e-033 -1 -1.33118e-033
v 6.93035e-014 0 -0
vt -6.93035e-014 -1.11295e-079
vt -2.88765e-015 3
vt -3 3
f 26/43/6 36/44/6 19/45/6 18/46/6 

v 6.93035e-014 0.63 -0
vt 6.93035e-014 0.63
vn 1.63943e-014 0 1
vt 6.93035e-014 0
vt 3 0
f 37/47/7 36/48/7 26/49/7 35/33/7 

vt -3 8.79898e-044
vn -1 1.68564e-030 1.64374e-014
vt 1.13917e-027 1.1682e-043
vt 1.13917e-027 0.63
v 2.88765e-015 0.63 -0.9375
v 2.88765e-015 0.57 -0.9375
v 0 0.57 -1.125
v 0 0.63 -1.125
v 2.88765e-015 0.63 -1.875
v 2.88765e-015 0.57 -1.875
v 0 0.57 -2.0625
v 0 0.63 -2.0625
f 19/50/8 36/51/8 37/52/8 38/23/8 39/24/8 40/25/8 41/26/8 42/27/8 43/28/8 44/29/8 45/30/8 20/19/8 

vt 3 4.66268e-014
vn 3.00796e-017 1 6.73784e-016
vt 3 0.9375
vt 2.8687e-015 0.9375
vt 6.92845e-014 4.24484e-016
f 35/53/9 34/54/9 38/55/9 37/56/9 

usemtl Light_Asphalt
vt -1.73259e-014 0.63
vn -1.54008e-014 1.84477e-014 -1
vt -3 0.57
vt -1.73259e-014 0.57
f 38/57/10 34/19/10 33/58/10 39/59/10 

usemtl Grey_Asphalt
v 1.50149 0.57 -1.875
vt 1.50149 1.875
vn -3.0017e-014 1 1.84477e-014
vt 3 1.875
vt 3 2.0625
v 2.87763 0.57 -2.07052
vt 2.87763 2.07052
v 2.75736 0.57 -2.09444
vt 2.75736 2.09444
v 2.64123 0.57 -2.13386
vt 2.64123 2.13386
v 2.53125 0.57 -2.1881
vt 2.53125 2.1881
v 2.42929 0.57 -2.25623
vt 2.42929 2.25623
v 2.33709 0.57 -2.33709
vt 2.33709 2.33709
v 2.25623 0.57 -2.42929
vt 2.25623 2.42929
v 2.1881 0.57 -2.53125
vt 2.1881 2.53125
v 2.13386 0.57 -2.64123
vt 2.13386 2.64123
v 2.09444 0.57 -2.75736
vt 2.09444 2.75736
v 2.07052 0.57 -2.87763
vt 2.07052 2.87763
vt 2.0625 3
v 1.88462 0.57 -2.85316
v 1.91333 0.57 -2.70883
v 1.96064 0.57 -2.56948
v 2.02572 0.57 -2.4375
v 2.10748 0.57 -2.31514
v 2.2045 0.57 -2.2045
v 2.31514 0.57 -2.10748
v 2.38246 0.57 -2.0625
v 1.3762 0.57 -2.0625
v 1.26773 0.57 -2.28247
v 1.18889 0.57 -2.51471
vt 0.9375 3
v 0.955145 0.57 -2.73079
vt 0.955145 2.73079
v 1.00778 0.57 -2.46619
vt 1.00778 2.46619
v 1.0945 0.57 -2.21072
vt 1.0945 2.21072
v 1.16759 0.57 -2.0625
vt 1.16759 2.0625
vt 1.71097e-014 2.0625
vt 1.99973e-014 1.875
v 1.27646 0.57 -1.875
vt 1.27646 1.875
v 1.36371 0.57 -1.74443
vt 1.36371 1.74443
v 1.54159 0.57 -1.54159
vt 1.54159 1.54159
v 1.74443 0.57 -1.36371
vt 1.74443 1.36371
v 1.96875 0.57 -1.21382
vt 1.96875 1.21382
v 2.14886 0.57 -1.125
vt 2.14886 1.125
vt 1.71097e-014 1.125
vt 1.99973e-014 0.9375
vt 3 1.125
v 2.75526 0.57 -1.14104
vt 2.75526 1.14104
v 2.51471 0.57 -1.18889
vt 2.51471 1.18889
v 2.28247 0.57 -1.26773
vt 2.28247 1.26773
v 2.0625 0.57 -1.3762
vt 2.0625 1.3762
v 1.85857 0.57 -1.51246
vt 1.85857 1.51246
v 1.67417 0.57 -1.67417
vt 1.67417 1.67417
v 1.51246 0.57 -1.85857
vt 1.51246 1.85857
f 46/60/11 29/61/11 28/62/11 47/63/11 48/64/11 49/65/11 50/66/11 51/67/11 52/68/11 53/69/11 54/70/11 55/71/11 56/72/11 57/73/11 24/74/11 23/5/11 58/18/11 59/17/11 60/16/11 61/15/11 62/14/11 63/13/11 64/12/11 65/11/11 66/10/11 67/9/11 68/8/11 4/7/11 3/6/11 22/75/11 69/76/11 70/77/11 71/78/11 72/79/11 44/80/11 43/81/11 73/82/11 74/83/11 75/84/11 76/85/11 77/86/11 78/87/11 40/88/11 39/89/11 33/54/11 32/90/11 79/91/11 80/92/11 81/93/11 82/94/11 83/95/11 84/96/11 85/97/11 

v 1.50149 0.63 -1.875
vt -1.50149 0.63
vn -2.10735e-008 1.84477e-014 -1
vt -1.50149 0.57
f 86/98/12 30/19/12 29/58/12 46/99/12 

usemtl Stone
vn -1.92904e-014 1 -1.37593e-014
v 1.51246 0.63 -1.85857
v 1.67417 0.63 -1.67417
v 1.85857 0.63 -1.51246
v 2.0625 0.63 -1.3762
v 2.28247 0.63 -1.26773
v 2.51471 0.63 -1.18889
v 2.75526 0.63 -1.14104
f 30/61/13 86/60/13 87/97/13 88/96/13 89/95/13 90/94/13 91/93/13 92/92/13 93/91/13 31/90/13 

usemtl Grey_Asphalt
vt -0.705067 0.63
vn -0.793353 -3.50444e-014 0.608761
vt -0.724825 0.63
vn -0.83147 -3.52072e-014 0.55557
vt -0.724825 0.57
vt -0.705067 0.57
f 87/100/14 86/101/15 46/102/15 85/103/14 

vt -0.154851 0.63
vn -0.707107 -3.42697e-014 0.707107
vt -0.400113 0.63
vt -0.400113 0.57
vt -0.154851 0.57
f 88/104/16 87/105/14 85/106/14 84/107/16 

vt 0.400113 0.63
vn -0.608761 -3.29088e-014 0.793353
vt 0.154851 0.63
vt 0.154851 0.57
vt 0.400113 0.57
f 89/108/17 88/109/16 84/110/16 83/111/17 

vt 0.950329 0.63
vn -0.5 -3.09847e-014 0.866025
vt 0.705067 0.63
vt 0.705067 0.57
vt 0.950329 0.57
f 90/112/18 89/113/17 83/114/17 82/115/18 

vt 1.48638 0.63
vn -0.382683 -2.85305e-014 0.92388
vt 1.24112 0.63
vt 1.24112 0.57
vt 1.48638 0.57
f 91/116/19 90/117/18 82/118/18 81/119/19 

vt 1.9991 0.63
vn -0.258819 -2.55881e-014 0.965926
vt 1.75384 0.63
vt 1.75384 0.57
vt 1.9991 0.57
f 92/120/20 91/121/19 81/122/19 80/123/20 

vt 2.47972 0.63
vn -0.130526 -2.22079e-014 0.991445
vt 2.23445 0.63
vt 2.23445 0.57
vt 2.47972 0.57
f 93/124/21 92/125/20 80/126/20 79/127/21 

vt 2.92 0.63
vn -0.0654031 -2.03714e-014 0.997859
vt 2.67474 0.63
vt 2.67474 0.57
vt 2.92 0.57
f 31/128/22 93/129/21 79/130/21 32/131/22 

vt 2.85868 0.63
v 2.87763 0.63 -2.07052
vt 2.73605 0.63
vt 2.73605 0.57
vt 2.85868 0.57
f 27/132/22 94/133/21 47/134/21 28/135/22 

usemtl Stone
vt 3 3
vn 1.71185e-016 1 -5.75034e-016
v 2.07052 0.63 -2.87763
v 2.09444 0.63 -2.75736
v 2.13386 0.63 -2.64123
v 2.1881 0.63 -2.53125
v 2.25623 0.63 -2.42929
v 2.33709 0.63 -2.33709
v 2.42929 0.63 -2.25623
v 2.53125 0.63 -2.1881
v 2.64123 0.63 -2.13386
v 2.75736 0.63 -2.09444
f 17/136/23 25/74/23 95/73/23 96/72/23 97/71/23 98/70/23 99/69/23 100/68/23 101/67/23 102/66/23 103/65/23 104/64/23 94/63/23 27/62/23 

usemtl Grey_Asphalt
vt -2.73605 0.63
vt -2.85868 0.63
vt -2.85868 0.57
vt -2.73605 0.57
f 95/137/1 25/138/2 24/139/2 57/140/1 

vt -2.29577 0.63
vn -0.965926 -3.37688e-014 0.258819
vt -2.4184 0.63
vt -2.4184 0.57
vt -2.29577 0.57
f 96/141/24 95/142/1 57/143/1 56/144/24 

vt -1.81516 0.63
vn -0.92388 -3.47917e-014 0.382683
vt -1.93779 0.63
vt -1.93779 0.57
vt -1.81516 0.57
f 97/145/25 96/146/24 56/147/24 55/148/25 

vt -1.30244 0.63
vn -0.866025 -3.52194e-014 0.5
vt -1.42507 0.63
vt -1.42507 0.57
vt -1.30244 0.57
f 98/149/26 97/150/25 55/151/25 54/152/26 

vt -0.766383 0.63
vt -0.889014 0.63
vt -0.889014 0.57
vt -0.766383 0.57
f 99/153/14 98/154/26 54/155/26 53/156/14 

vt -0.216167 0.63
vt -0.338797 0.63
vt -0.338797 0.57
vt -0.216167 0.57
f 100/157/16 99/158/14 53/159/14 52/160/16 

vt 0.338797 0.63
vt 0.216167 0.63
vt 0.216167 0.57
vt 0.338797 0.57
f 101/161/17 100/162/16 52/163/16 51/164/17 

vt 0.889014 0.63
vt 0.766383 0.63
vt 0.766383 0.57
vt 0.889014 0.57
f 102/165/18 101/166/17 51/167/17 50/168/18 

vt 1.42507 0.63
vt 1.30244 0.63
vt 1.30244 0.57
vt 1.42507 0.57
f 103/169/19 102/170/18 50/171/18 49/172/19 

vt 1.93779 0.63
vt 1.81516 0.63
vt 1.81516 0.57
vt 1.93779 0.57
f 104/173/20 103/174/19 49/175/19 48/176/20 

vt 2.4184 0.63
vt 2.29577 0.63
vt 2.29577 0.57
vt 2.4184 0.57
f 94/177/21 104/178/20 48/179/20 47/180/21 

vt 2.87095 0.63
vn 0.997859 3.11593e-014 -0.0654031
vt 2.72379 0.63
vn 0.991445 3.21681e-014 -0.130526
vt 2.72379 0.57
vt 2.87095 0.57
f 5/181/27 16/182/28 58/183/28 23/184/27 

vt 2.43066 0.63
vt 2.28351 0.63
vn 0.965926 3.37688e-014 -0.258819
vt 2.28351 0.57
vt 2.43066 0.57
f 16/185/28 15/186/29 59/187/29 58/188/28 

vt 1.95005 0.63
vt 1.80289 0.63
vn 0.92388 3.47917e-014 -0.382683
vt 1.80289 0.57
vt 1.95005 0.57
f 15/189/29 14/190/30 60/191/30 59/192/29 

vt 1.43733 0.63
vt 1.29017 0.63
vn 0.866025 3.52194e-014 -0.5
vt 1.29017 0.57
vt 1.43733 0.57
f 14/193/30 13/194/31 61/195/31 60/196/30 

vt 0.901277 0.63
vt 0.75412 0.63
vn 0.793353 3.50444e-014 -0.608761
vt 0.75412 0.57
vt 0.901277 0.57
f 13/197/31 12/198/32 62/199/32 61/200/31 

vt 0.35106 0.63
vt 0.203903 0.63
vn 0.707107 3.42697e-014 -0.707107
vt 0.203903 0.57
vt 0.35106 0.57
f 12/201/32 11/202/33 63/203/33 62/204/32 

vt -0.203903 0.63
vt -0.35106 0.63
vn 0.608761 3.29088e-014 -0.793353
vt -0.35106 0.57
vt -0.203903 0.57
f 11/205/33 10/206/34 64/207/34 63/208/33 

vt -0.75412 0.63
vt -0.835077 0.63
vn 0.55557 3.20153e-014 -0.83147
vt -0.835077 0.57
vt -0.75412 0.57
f 10/209/34 9/210/35 65/211/35 64/212/34 

vt 2.38246 0.63
vn 9.18303e-014 -1.84477e-014 1
vt 1.3762 0.63
vt 1.3762 0.57
vt 2.38246 0.57
f 9/213/36 8/214/36 66/215/36 65/216/36 

usemtl Light_Asphalt
vt -1.24112 0.63
vn -0.896873 -3.50807e-014 0.442289
vt -1.48638 0.63
vt -1.48638 0.57
vt -1.24112 0.57
f 8/217/37 7/218/25 67/219/25 66/220/37 

vt -1.75384 0.63
vt -1.9991 0.63
vt -1.9991 0.57
vt -1.75384 0.57
f 7/221/25 6/222/24 68/223/24 67/224/25 

vt -2.23445 0.63
vt -2.47972 0.63
vt -2.47972 0.57
vt -2.23445 0.57
f 6/225/24 1/226/1 4/227/1 68/228/24 

usemtl Grey_Asphalt
vt 2.93226 0.63
v 0.955145 0.63 -2.73079
vt 2.66247 0.63
vt 2.66247 0.57
vt 2.93226 0.57
f 21/229/27 105/230/28 69/231/28 22/232/27 

usemtl Stone
vt -1.04558e-015 2.0625
vn 1.65965e-015 1 2.99314e-015
v 1.16759 0.63 -2.0625
v 1.0945 0.63 -2.21072
v 1.00778 0.63 -2.46619
vt 1.84206e-015 3
f 45/233/38 106/79/38 107/78/38 108/77/38 105/76/38 21/75/38 20/234/38 

usemtl Grey_Asphalt
vt 1.16759 0.63
vn -1.97853e-014 -1.84477e-014 1
vt -4.08073e-014 0.63
vt -4.08073e-014 0.57
vt 1.16759 0.57
f 106/235/39 45/236/39 44/237/39 72/238/39 

vt 1.49865 0.63
vt 1.33339 0.63
vn 0.896873 3.50807e-014 -0.442289
vt 1.33339 0.57
vt 1.49865 0.57
f 107/239/30 106/240/40 72/241/40 71/242/30 

vt 2.01137 0.63
vt 1.74158 0.63
vt 1.74158 0.57
vt 2.01137 0.57
f 108/243/29 107/244/30 71/245/30 70/246/29 

vt 2.49198 0.63
vt 2.22219 0.63
vt 2.22219 0.57
vt 2.49198 0.57
f 105/247/28 108/248/29 70/249/29 69/250/28 

vt -3.95127e-008 0.63
v 1.27646 0.63 -1.875
vt -1.27646 0.63
vt -1.27646 0.57
vt -3.95127e-008 0.57
f 42/251/12 109/252/12 73/253/12 43/254/12 

usemtl Stone
vt 7.58992e-014 1.125
vn -1.20475e-013 1 7.41504e-014
v 2.14886 0.63 -1.125
v 1.96875 0.63 -1.21382
v 1.74443 0.63 -1.36371
v 1.54159 0.63 -1.54159
v 1.36371 0.63 -1.74443
vt 7.87869e-014 1.875
f 41/255/41 110/87/41 111/86/41 112/85/41 113/84/41 114/83/41 109/82/41 42/256/41 

usemtl Grey_Asphalt
vt 2.14886 0.63
vn 2.10735e-008 -1.84477e-014 1
vt 2.37076e-008 0.63
vt 2.37076e-008 0.57
vt 2.14886 0.57
f 110/257/42 41/258/42 40/259/42 78/260/42 

vt -1.22886 0.63
vn 0.5 3.09847e-014 -0.866025
vt -1.42968 0.63
vn 0.442289 2.98214e-014 -0.896873
vt -1.42968 0.57
vt -1.22886 0.57
f 111/261/43 110/262/44 78/263/44 77/264/43 

vt -0.692804 0.63
vt -0.962592 0.63
vt -0.962592 0.57
vt -0.692804 0.57
f 112/265/34 111/266/43 77/267/43 76/268/34 

vt -0.142588 0.63
vt -0.412376 0.63
vt -0.412376 0.57
vt -0.142588 0.57
f 113/269/33 112/270/34 76/271/34 75/272/33 

vt 0.412376 0.63
vt 0.142588 0.63
vt 0.142588 0.57
vt 0.412376 0.57
f 114/273/32 113/274/33 75/275/33 74/276/32 

vt 0.84984 0.63
vn 0.83147 3.52072e-014 -0.55557
vt 0.692804 0.63
vt 0.692804 0.57
vt 0.84984 0.57
f 109/277/45 114/278/32 74/279/32 73/280/45 

