# Alias OBJ Model File
# Exported from SketchUp, (c) 2000-2012 Trimble Navigation Limited
# File units = meters

mtllib roadTile_154.mtl

g Mesh1 Group1 Model

usemtl Grass
v 3 0.55 -3
vt 3 0.55
vn 1 -5.90655e-014 -6.73784e-014
v 3 0.55 -2.625
vt 2.625 0.55
v 3 3.57346e-014 -2.625
vt 2.625 2.12931e-013
v 3 4.31342e-014 -3
vt 3 2.20331e-013
f 1/1/1 2/2/1 3/3/1 4/4/1 

v 5.77529e-014 1.65 -2.625
vt 2.625 0.56802
vn 0.344255 0.938876 1.20954e-014
vt 2.625 -2.62729
vt 3 -2.62729
v 7.50788e-014 1.65 -3
vt 3 0.56802
f 5/5/2 2/6/2 1/7/2 6/8/2 

usemtl Stone
vt -3 0.55
vn -2.31012e-014 1.53022e-027 -1
vt -1.18393e-013 1.65
v 5.77529e-014 1.73 -2.625
vt -1.18393e-013 1.73
v 3 0.63 -2.625
vt -3 0.63
f 2/9/3 5/10/3 7/11/3 8/12/3 

v 5.19776e-014 3.77199e-014 -2.625
vt -2.625 3.77199e-014
vn -1 6.37238e-015 -4.14636e-015
v 3.46517e-014 5.41434e-015 -0.375
vt -0.375 5.41434e-015
v 3.46517e-014 1.65 -0.375
vt -0.375 1.65
v 3.46517e-014 1.73 -0.375
vt -0.375 1.73
v 6.35282e-014 1.73 -0.75
vt -0.75 1.73
v 6.35282e-014 1.7 -0.75
vt -0.75 1.7
v 8.08541e-014 1.4 -0.75
vt -0.75 1.4
v 5.77529e-014 1.4 -2.25
vt -2.25 1.4
v 5.77529e-014 1.7 -2.25
vt -2.25 1.7
v 5.77529e-014 1.73 -2.25
vt -2.25 1.73
vt -2.625 1.73
vt -2.625 1.65
f 9/13/4 10/14/4 11/15/4 12/16/4 13/17/4 14/18/4 15/19/4 16/20/4 17/21/4 18/22/4 7/23/4 5/24/4 

usemtl Grass
v 4.62023e-014 4.31342e-014 -3
vt -4.62023e-014 3
vn 5.75615e-015 -1 -8.07593e-015
vt -3 3
vt -3 2.625
v 3 3.57346e-014 -0.375
vt -3 0.375
v 3 3.45615e-014 -4.62023e-014
vt -3 4.62023e-014
v 3.46517e-014 0 -0
vt -3.46517e-014 -1.61083e-042
vt -3.46517e-014 0.375
vt -5.19776e-014 2.625
f 19/25/5 4/26/5 3/27/5 20/28/5 21/29/5 22/30/5 10/31/5 9/32/5 

vt -1.64942e-012 8.40996e-012
vn -5.34407e-013 -2.78894e-012 -1
vt -1.6783e-012 1.65
vt -3 8.40996e-012
f 19/33/6 6/34/6 1/9/6 4/35/6 

vt -3 4.31342e-014
vn -1 1.05005e-014 -1.54008e-014
vt -3 1.65
f 19/36/7 9/13/7 5/24/7 6/37/7 

usemtl Stone
vt 0.375 -3.10681e-015
vn 1 1.29471e-014 9.18123e-015
vt 2.625 -3.10681e-015
vt 2.625 0.63
v 3 0.63 -2.25
vt 2.25 0.63
v 3 0.6 -2.25
vt 2.25 0.6
v 3 0.3 -2.25
vt 2.25 0.3
v 3 0.3 -0.75
vt 0.75 0.3
v 3 0.6 -0.75
vt 0.75 0.6
v 3 0.63 -0.75
vt 0.75 0.63
v 3 0.63 -0.375
vt 0.375 0.63
v 3 0.55 -0.375
vt 0.375 0.55
f 20/38/8 3/39/8 2/2/8 8/40/8 23/41/8 24/42/8 25/43/8 26/44/8 27/45/8 28/46/8 29/47/8 30/48/8 

vt 2.25 -2.59975
vn 0.344255 0.938876 2.18484e-014
vt 2.625 -2.59975
vt 2.625 0.595561
vt 2.25 0.595561
f 23/49/9 8/50/9 7/51/9 18/52/9 

vt 1.18393e-013 1.7
vn 2.69514e-014 -2.17631e-026 1
vt 3 0.6
vt 3 0.63
vt 1.18393e-013 1.73
f 17/53/10 24/54/10 23/55/10 18/56/10 

usemtl Asphalt
vt 2.25 -2.61008
vn 0.344255 0.938876 -2.67495e-015
vt 2.25 0.585233
vt 0.75 0.585233
vt 0.75 -2.61008
f 24/57/11 17/58/11 14/59/11 27/60/11 

vn -1 -2.88765e-014 9.62549e-015
f 14/18/12 17/21/12 16/20/12 15/19/12 

usemtl Stone
vt -3 0.6
vn -2.06948e-014 2.17631e-026 -1
vt -7.90493e-014 1.7
vt -7.90493e-014 1.73
f 27/61/13 14/62/13 13/63/13 28/12/13 

vt 0.75 0.595561
vn 0.344255 0.938876 7.30458e-015
vt 0.375 0.595561
vt 0.375 -2.59975
vt 0.75 -2.59975
f 13/64/14 12/65/14 29/66/14 28/67/14 

vt 4.33147e-014 1.65
vn 2.31012e-014 -1.53022e-027 1
vt 4.33147e-014 1.73
f 11/68/15 30/1/15 29/55/15 12/69/15 

usemtl Grass
vt 0.375 -2.62729
vn 0.344255 0.938876 3.10628e-014
vt 0.375 0.56802
v 0 1.65 -0
vt -1.0259e-029 0.56802
v 3 0.55 -4.62023e-014
vt 3.16899e-013 -2.62729
f 30/70/16 11/71/16 31/72/16 32/73/16 

vt 0 1.65
vn -1 -1.22506e-014 -4.62023e-014
vt -1.60099e-027 -4.24505e-028
f 31/74/17 11/15/17 10/14/17 22/75/17 

vt 3 3.45615e-014
vn 1.69409e-014 -1.26006e-014 1
vt 3.46517e-014 7.39695e-042
f 21/76/18 32/1/18 31/74/18 22/77/18 

vt 2.54113e-013 8.18139e-014
vn 1 -1.57508e-014 6.93035e-014
vt 0.375 8.2987e-014
vt 2.54113e-013 0.55
f 21/78/19 20/79/19 30/48/19 32/80/19 

usemtl Asphalt
vn 1 0 -7.70039e-015
f 24/42/20 27/45/20 26/44/20 25/43/20 

