# Alias OBJ Model File
# Exported from SketchUp, (c) 2000-2012 Trimble Navigation Limited
# File units = meters

mtllib roadTile_056.mtl

g Mesh1 Group1 Model

usemtl Asphalt
v 3.20529e-013 0.6 -1.06958e-011
vt -1.06958e-011 0.6
vn -1 3.08016e-013 -3.36764e-012
v 7.83418e-012 0.6 -2.25
vt -2.25 0.6
v 7.80819e-012 0.3 -2.25
vt -2.25 0.3
v 1.55933e-013 0.3 -1.06265e-011
vt -1.06265e-011 0.3
f 1/1/1 2/2/1 3/3/1 4/4/1 

v 3 0.6 -3
vt 3 3
vn 3.32284e-014 1 1.70489e-015
v 0.75 0.6 -3
vt 0.75 3
v 0.75 0.6 -2.25
vt 0.75 2.25
vt 7.81425e-012 2.25
vt 3.00592e-013 1.06969e-011
v 3 0.6 -0
vt 3 1.02293e-015
f 5/5/2 6/6/2 7/7/2 2/8/2 1/9/2 8/10/2 

v 3 0.3 -3
vt -3 0.3
vn 3.59351e-012 7.70039e-014 -1
v 0.75 0.3 -3
vt -0.75 0.3
vt -0.75 0.6
vt -3 0.6
f 9/11/3 10/12/3 6/13/3 5/14/3 

usemtl Stone
v 3 0 -3
vt -3 2.03776e-013
vn 3.59422e-012 -6.79254e-014 -1
v 0.375 8.44636e-014 -3
vt -0.375 2.8824e-013
v 0.375 0.55 -3
vt -0.375 0.55
v 0.375 0.63 -3
vt -0.375 0.63
v 0.75 0.63 -3
vt -0.75 0.63
f 11/15/4 12/16/4 13/17/4 14/18/4 15/19/4 6/13/4 10/12/4 9/11/4 

usemtl Grass
vt -3 3
vn 3.26025e-017 -1 4.51195e-017
v 3 0 -0
vt -3 4.41302e-033
v 0 9.70068e-014 -1.04186e-011
vt -3.16266e-030 1.04186e-011
v 9.06865e-012 9.66459e-014 -2.625
vt -9.06865e-012 2.625
v 1.03421e-011 9.64654e-014 -3
vt -1.03421e-011 3
vt -0.375 3
f 11/20/5 16/21/5 17/22/5 18/23/5 19/24/5 12/25/5 

usemtl Stone
vt 3 5.77529e-014
vn 1 -1.9251e-014 3.5518e-012
vt 3 0.3
v 3 0.3 -3.46517e-014
vt 1.06901e-011 0.3
vt 1.06554e-011 5.77529e-014
f 11/26/6 9/27/6 20/28/6 16/29/6 

usemtl Asphalt
vt 1.06554e-011 0.6
vn 1 1.9251e-014 3.5518e-012
vt 3 0.6
f 8/30/7 20/28/7 9/27/7 5/31/7 

vt 3.20529e-013 0.6
vn -3.56291e-012 2.05344e-013 1
vt 1.55933e-013 0.3
f 1/32/8 4/33/8 20/27/8 8/31/8 

usemtl Stone
vn -3.51569e-012 3.9426e-013 1
vt -3.66287e-023 9.70068e-014
vt 3 4.15829e-024
f 20/27/9 4/33/9 17/34/9 16/35/9 

v 9.08598e-012 0.63 -2.625
vt -2.625 0.63
vn -1 1.12239e-013 -3.42023e-012
v 9.08598e-012 0.55 -2.625
vt -2.625 0.55
vt -2.625 9.66459e-014
vt -1.04186e-011 9.70068e-014
v 7.83418e-012 0.63 -2.25
vt -2.25 0.63
f 21/36/10 22/37/10 18/38/10 17/39/10 4/4/10 3/3/10 2/2/10 23/40/10 

vt 1.31388e-013 0.63
vn 3.51138e-012 -6.25657e-015 -1
v 0.375 0.63 -2.625
v 0.375 0.55 -2.625
vt 1.31388e-013 0.55
f 21/41/11 24/18/11 25/17/11 22/42/11 

vt 7.82887e-012 2.25
vn 8.43909e-015 1 -1.62962e-014
v 0.75 0.63 -2.25
vt 0.375 3
vt 0.375 2.625
vt 9.08066e-012 2.625
f 23/43/12 26/7/12 15/6/12 14/44/12 24/45/12 21/46/12 

vt -1.35719e-013 0.6
vn -3.54218e-012 1.25733e-014 1
vt 0.75 0.6
vt 0.75 0.63
vt -1.35719e-013 0.63
f 2/47/13 7/48/13 26/49/13 23/50/13 

vt 2.25 0.6
vn 1 -1.22123e-014 3.55758e-012
vt 3 0.63
vt 2.25 0.63
f 7/51/14 6/31/14 15/52/14 26/53/14 

vn -1 1.87697e-014 -3.44977e-012
vt -3 0.63
vt -3 0.55
f 24/36/15 14/54/15 13/55/15 25/37/15 

usemtl Grass
v 1.03421e-011 0.55 -3
vt 1.03318e-011 3
vn 1.87697e-014 1 -6.25657e-015
vt 9.07565e-012 2.625
f 27/56/16 22/57/16 25/45/16 13/44/16 

vt -3 9.64654e-014
vn -1 1.57508e-014 -3.37277e-012
f 19/58/17 18/38/17 22/37/17 27/55/17 

vt 9.96235e-014 0.55
vn 3.48058e-012 -2.10011e-014 -1
vt -0.375 1.47467e-013
vt 9.96235e-014 1.59469e-013
f 27/59/18 13/17/18 12/60/18 19/61/18 

