# Alias OBJ Model File
# Exported from SketchUp, (c) 2000-2012 Trimble Navigation Limited
# File units = meters

mtllib roadTile_086.mtl

g Mesh1 Group1 Model

usemtl Grey_Asphalt
v 3 0.63 -2.0625
vt 2.85868 0.63
vn -0.0654031 -3.3893e-013 0.997859
v 2.87763 0.63 -2.07052
vt 2.73605 0.63
vn -0.130526 -3.50419e-013 0.991445
v 2.87763 0.57 -2.07052
vt 2.73605 0.57
v 3 0.57 -2.0625
vt 2.85868 0.57
f 1/1/1 2/2/2 3/3/2 4/4/1 

usemtl Stone
v 3 0.63 -3
vt 3 3
vn -1.89961e-016 1 -3.87629e-016
v 2.0625 0.63 -3
vt 2.0625 3
v 2.07052 0.63 -2.87763
vt 2.07052 2.87763
v 2.09444 0.63 -2.75736
vt 2.09444 2.75736
v 2.13386 0.63 -2.64123
vt 2.13386 2.64123
v 2.1881 0.63 -2.53125
vt 2.1881 2.53125
v 2.25623 0.63 -2.42929
vt 2.25623 2.42929
v 2.33709 0.63 -2.33709
vt 2.33709 2.33709
v 2.42929 0.63 -2.25623
vt 2.42929 2.25623
v 2.53125 0.63 -2.1881
vt 2.53125 2.1881
v 2.64123 0.63 -2.13386
vt 2.64123 2.13386
v 2.75736 0.63 -2.09444
vt 2.75736 2.09444
vt 2.87763 2.07052
vt 3 2.0625
f 5/5/3 6/6/3 7/7/3 8/8/3 9/9/3 10/10/3 11/11/3 12/12/3 13/13/3 14/14/3 15/15/3 16/16/3 2/17/3 1/18/3 

vt -3 0.63
vn -1.39808e-014 -2.44457e-014 -1
v 3 0 -3
vt -3 7.3337e-014
v 0 0 -3
vt -4.19425e-014 7.3337e-014
v 0 0.63 -3
vt -4.19425e-014 0.63
v 0.9375 0.63 -3
vt -0.9375 0.63
v 0.9375 0.57 -3
vt -0.9375 0.57
v 1.125 0.57 -3
vt -1.125 0.57
v 1.125 0.63 -3
vt -1.125 0.63
v 1.875 0.63 -3
vt -1.875 0.63
v 1.875 0.57 -3
vt -1.875 0.57
v 2.0625 0.57 -3
vt -2.0625 0.57
vt -2.0625 0.63
f 5/19/4 17/20/4 18/21/4 19/22/4 20/23/4 21/24/4 22/25/4 23/26/4 24/27/4 25/28/4 26/29/4 6/30/4 

v 3 0 -4.62023e-014
vt -9.83028e-016 -8.25042e-014
vn 1 2.75014e-014 -1.57285e-014
vt 3 -8.25042e-014
vt 3 0.63
vt 2.0625 0.63
vt 2.0625 0.57
v 3 0.57 -1.875
vt 1.875 0.57
v 3 0.63 -1.875
vt 1.875 0.63
v 3 0.63 -1.125
vt 1.125 0.63
v 3 0.57 -1.125
vt 1.125 0.57
v 3 0.57 -0.9375
vt 0.9375 0.57
v 3 0.63 -0.9375
vt 0.9375 0.63
v 3 0.63 -8.08541e-014
vt 3.36687e-014 0.63
f 27/31/5 17/32/5 5/33/5 1/34/5 4/35/5 28/36/5 29/37/5 30/38/5 31/39/5 32/40/5 33/41/5 34/42/5 

vt -3 4.62023e-014
vn 1.20638e-033 -1 -1.33118e-033
v 6.64159e-014 0 -0
vt -6.64159e-014 -1.06658e-079
vt 0 3
vt -3 3
f 27/43/6 35/44/6 18/45/6 17/46/6 

v 6.64159e-014 0.63 -0
vt 6.64159e-014 0.63
vn 1.63943e-014 0 1
vt 6.64159e-014 0
vt 3 0
f 36/47/7 35/48/7 27/49/7 34/33/7 

vt -3 8.31222e-044
vn -1 1.68564e-030 1.64374e-014
vt 1.0917e-027 1.11953e-043
vt 1.0917e-027 0.63
f 18/50/8 35/51/8 36/52/8 19/19/8 

vt 3 8.07896e-014
vn 5.96653e-017 1 -1.02351e-016
vt 3 0.9375
v 2.73079 0.63 -0.955145
vt 2.73079 0.955145
v 2.46619 0.63 -1.00778
vt 2.46619 1.00778
v 2.21072 0.63 -1.0945
vt 2.21072 1.0945
v 1.96875 0.63 -1.21382
vt 1.96875 1.21382
v 1.74443 0.63 -1.36371
vt 1.74443 1.36371
v 1.54159 0.63 -1.54159
vt 1.54159 1.54159
v 1.36371 0.63 -1.74443
vt 1.36371 1.74443
v 1.21382 0.63 -1.96875
vt 1.21382 1.96875
v 1.0945 0.63 -2.21072
vt 1.0945 2.21072
v 1.00778 0.63 -2.46619
vt 1.00778 2.46619
v 0.955145 0.63 -2.73079
vt 0.955145 2.73079
vt 0.9375 3
vt -3.75892e-017 3
vt 6.63783e-014 -6.44809e-017
f 34/53/9 33/54/9 37/55/9 38/56/9 39/57/9 40/58/9 41/59/9 42/60/9 43/61/9 44/62/9 45/63/9 46/64/9 47/65/9 20/66/9 19/67/9 36/68/9 

usemtl Grey_Asphalt
vt -2.66247 0.63
vn 0.130526 -5.00637e-014 -0.991445
vt -2.93226 0.63
vn 0.0654031 -4.4293e-014 -0.997859
vt -2.93226 0.57
v 2.73079 0.57 -0.955145
vt -2.66247 0.57
f 37/69/10 33/70/11 32/71/11 48/72/10 

vt 1.125 3
vn 9.23863e-014 1 -3.83328e-014
v 0.955145 0.57 -2.73079
v 1.00778 0.57 -2.46619
v 1.0945 0.57 -2.21072
v 1.21382 0.57 -1.96875
v 1.36371 0.57 -1.74443
v 1.54159 0.57 -1.54159
v 1.74443 0.57 -1.36371
v 1.96875 0.57 -1.21382
v 2.21072 0.57 -1.0945
v 2.46619 0.57 -1.00778
vt 3 1.125
v 2.75526 0.57 -1.14104
vt 2.75526 1.14104
v 2.51471 0.57 -1.18889
vt 2.51471 1.18889
v 2.28247 0.57 -1.26773
vt 2.28247 1.26773
v 2.0625 0.57 -1.3762
vt 2.0625 1.3762
v 1.85857 0.57 -1.51246
vt 1.85857 1.51246
v 1.67417 0.57 -1.67417
vt 1.67417 1.67417
v 1.51246 0.57 -1.85857
vt 1.51246 1.85857
v 1.3762 0.57 -2.0625
vt 1.3762 2.0625
v 1.26773 0.57 -2.28247
vt 1.26773 2.28247
v 1.18889 0.57 -2.51471
vt 1.18889 2.51471
v 1.14104 0.57 -2.75526
vt 1.14104 2.75526
f 22/73/12 21/66/12 49/65/12 50/64/12 51/63/12 52/62/12 53/61/12 54/60/12 55/59/12 56/58/12 57/57/12 58/56/12 48/55/12 32/54/12 31/74/12 59/75/12 60/76/12 61/77/12 62/78/12 63/79/12 64/80/12 65/81/12 66/82/12 67/83/12 68/84/12 69/85/12 

vt 2.93226 0.63
vn 0.997859 -9.46956e-014 -0.0654031
vt 2.66247 0.63
vn 0.991445 -9.65994e-014 -0.130526
vt 2.66247 0.57
vt 2.93226 0.57
f 20/86/13 47/87/14 49/88/14 21/89/13 

vt 2.49198 0.63
vt 2.22219 0.63
vn 0.965926 -9.91596e-014 -0.258819
vt 2.22219 0.57
vt 2.49198 0.57
f 47/90/14 46/91/15 50/92/15 49/93/14 

vt 2.01137 0.63
vt 1.74158 0.63
vn 0.92388 -1.00023e-013 -0.382683
vt 1.74158 0.57
vt 2.01137 0.57
f 46/94/15 45/95/16 51/96/16 50/97/15 

vt 1.49865 0.63
vt 1.22886 0.63
vn 0.866025 -9.91753e-014 -0.5
vt 1.22886 0.57
vt 1.49865 0.57
f 45/98/16 44/99/17 52/100/17 51/101/16 

vt 0.962592 0.63
vt 0.692804 0.63
vn 0.793353 -9.66305e-014 -0.608761
vt 0.692804 0.57
vt 0.962592 0.57
f 44/102/17 43/103/18 53/104/18 52/105/17 

vt 0.412376 0.63
vt 0.142588 0.63
vn 0.707107 -9.24324e-014 -0.707107
vt 0.142588 0.57
vt 0.412376 0.57
f 43/106/18 42/107/19 54/108/19 53/109/18 

vt -0.142588 0.63
vt -0.412376 0.63
vn 0.608761 -8.66527e-014 -0.793353
vt -0.412376 0.57
vt -0.142588 0.57
f 42/110/19 41/111/20 55/112/20 54/113/19 

vt -0.692804 0.63
vt -0.962592 0.63
vn 0.5 -7.93903e-014 -0.866025
vt -0.962592 0.57
vt -0.692804 0.57
f 41/114/20 40/115/21 56/116/21 55/117/20 

vt -1.22886 0.63
vt -1.49865 0.63
vn 0.382683 -7.07696e-014 -0.92388
vt -1.49865 0.57
vt -1.22886 0.57
f 40/118/21 39/119/22 57/120/22 56/121/21 

vt -1.74158 0.63
vt -2.01137 0.63
vn 0.258819 -6.09379e-014 -0.965926
vt -2.01137 0.57
vt -1.74158 0.57
f 39/122/22 38/123/23 58/124/23 57/125/22 

vt -2.22219 0.63
vt -2.49198 0.63
vt -2.49198 0.57
vt -2.22219 0.57
f 38/126/23 37/127/10 48/128/10 58/129/23 

vt 2.92 0.63
vn -0.0654031 4.4293e-014 0.997859
v 2.75526 0.63 -1.14104
vt 2.67474 0.63
vn -0.130526 5.00637e-014 0.991445
vt 2.67474 0.57
vt 2.92 0.57
f 30/130/24 70/131/25 59/132/25 31/133/24 

usemtl Stone
vt 1.875 3
vn 5.7601e-014 1 8.31807e-014
v 1.14104 0.63 -2.75526
v 1.18889 0.63 -2.51471
v 1.26773 0.63 -2.28247
v 1.3762 0.63 -2.0625
v 1.51246 0.63 -1.85857
v 1.67417 0.63 -1.67417
v 1.85857 0.63 -1.51246
v 2.0625 0.63 -1.3762
v 2.28247 0.63 -1.26773
v 2.51471 0.63 -1.18889
vt 3 1.875
v 2.85316 0.63 -1.88462
vt 2.85316 1.88462
v 2.70883 0.63 -1.91333
vt 2.70883 1.91333
v 2.56948 0.63 -1.96064
vt 2.56948 1.96064
v 2.4375 0.63 -2.02572
vt 2.4375 2.02572
v 2.31514 0.63 -2.10748
vt 2.31514 2.10748
v 2.2045 0.63 -2.2045
vt 2.2045 2.2045
v 2.10748 0.63 -2.31514
vt 2.10748 2.31514
v 2.02572 0.63 -2.4375
vt 2.02572 2.4375
v 1.96064 0.63 -2.56948
vt 1.96064 2.56948
v 1.91333 0.63 -2.70883
vt 1.91333 2.70883
v 1.88462 0.63 -2.85316
vt 1.88462 2.85316
f 24/134/26 23/73/26 71/85/26 72/84/26 73/83/26 74/82/26 75/81/26 76/80/26 77/79/26 78/78/26 79/77/26 80/76/26 70/75/26 30/74/26 29/135/26 81/136/26 82/137/26 83/138/26 84/139/26 85/140/26 86/141/26 87/142/26 88/143/26 89/144/26 90/145/26 91/146/26 

usemtl Grey_Asphalt
vt -2.67474 0.63
vn -0.991445 9.65994e-014 0.130526
vt -2.92 0.63
vn -0.997859 9.46956e-014 0.0654031
vt -2.92 0.57
vt -2.67474 0.57
f 71/147/27 23/148/28 22/149/28 69/150/27 

vt -2.23445 0.63
vn -0.965926 9.91596e-014 0.258819
vt -2.47972 0.63
vt -2.47972 0.57
vt -2.23445 0.57
f 72/151/29 71/152/27 69/153/27 68/154/29 

vt -1.75384 0.63
vn -0.92388 1.00023e-013 0.382683
vt -1.9991 0.63
vt -1.9991 0.57
vt -1.75384 0.57
f 73/155/30 72/156/29 68/157/29 67/158/30 

vt -1.24112 0.63
vn -0.866025 9.91753e-014 0.5
vt -1.48638 0.63
vt -1.48638 0.57
vt -1.24112 0.57
f 74/159/31 73/160/30 67/161/30 66/162/31 

vt -0.705067 0.63
vn -0.793353 9.66305e-014 0.608761
vt -0.950329 0.63
vt -0.950329 0.57
vt -0.705067 0.57
f 75/163/32 74/164/31 66/165/31 65/166/32 

vt -0.154851 0.63
vn -0.707107 9.24324e-014 0.707107
vt -0.400113 0.63
vt -0.400113 0.57
vt -0.154851 0.57
f 76/167/33 75/168/32 65/169/32 64/170/33 

vt 0.400113 0.63
vn -0.608761 8.66527e-014 0.793353
vt 0.154851 0.63
vt 0.154851 0.57
vt 0.400113 0.57
f 77/171/34 76/172/33 64/173/33 63/174/34 

vt 0.950329 0.63
vn -0.5 7.93903e-014 0.866025
vt 0.705067 0.63
vt 0.705067 0.57
vt 0.950329 0.57
f 78/175/35 77/176/34 63/177/34 62/178/35 

vt 1.48638 0.63
vn -0.382683 7.07696e-014 0.92388
vt 1.24112 0.63
vt 1.24112 0.57
vt 1.48638 0.57
f 79/179/36 78/180/35 62/181/35 61/182/36 

vt 1.9991 0.63
vn -0.258819 6.09379e-014 0.965926
vt 1.75384 0.63
vt 1.75384 0.57
vt 1.9991 0.57
f 80/183/37 79/184/36 61/185/36 60/186/37 

vt 2.47972 0.63
vt 2.23445 0.63
vt 2.23445 0.57
vt 2.47972 0.57
f 70/187/25 80/188/37 60/189/37 59/190/25 

vt -2.72379 0.63
vn 0.130526 3.50419e-013 -0.991445
vt -2.87095 0.63
vn 0.0654031 3.3893e-013 -0.997859
vt -2.87095 0.57
v 2.85316 0.57 -1.88462
vt -2.72379 0.57
f 81/191/38 29/192/39 28/193/39 92/194/38 

vn -2.08524e-013 1 3.2599e-013
v 1.88462 0.57 -2.85316
v 1.91333 0.57 -2.70883
v 1.96064 0.57 -2.56948
v 2.02572 0.57 -2.4375
v 2.10748 0.57 -2.31514
v 2.2045 0.57 -2.2045
v 2.31514 0.57 -2.10748
v 2.4375 0.57 -2.02572
v 2.56948 0.57 -1.96064
v 2.70883 0.57 -1.91333
v 2.75736 0.57 -2.09444
v 2.64123 0.57 -2.13386
v 2.53125 0.57 -2.1881
v 2.42929 0.57 -2.25623
v 2.33709 0.57 -2.33709
v 2.25623 0.57 -2.42929
v 2.1881 0.57 -2.53125
v 2.13386 0.57 -2.64123
v 2.09444 0.57 -2.75736
v 2.07052 0.57 -2.87763
f 26/6/40 25/134/40 93/146/40 94/145/40 95/144/40 96/143/40 97/142/40 98/141/40 99/140/40 100/139/40 101/138/40 102/137/40 92/136/40 28/135/40 4/18/40 3/17/40 103/16/40 104/15/40 105/14/40 106/13/40 107/12/40 108/11/40 109/10/40 110/9/40 111/8/40 112/7/40 

vt 2.87095 0.63
vn 0.997859 2.29398e-013 -0.0654031
vt 2.72379 0.63
vn 0.991445 2.4929e-013 -0.130526
vt 2.72379 0.57
vt 2.87095 0.57
f 24/195/41 91/196/42 93/197/42 25/198/41 

vt 2.43066 0.63
vt 2.28351 0.63
vn 0.965926 2.85791e-013 -0.258819
vt 2.28351 0.57
vt 2.43066 0.57
f 91/199/42 90/200/43 94/201/43 93/202/42 

vt 1.95005 0.63
vt 1.80289 0.63
vn 0.92388 3.17402e-013 -0.382683
vt 1.80289 0.57
vt 1.95005 0.57
f 90/203/43 89/204/44 95/205/44 94/206/43 

vt 1.43733 0.63
vt 1.29017 0.63
vn 0.866025 3.43582e-013 -0.5
vt 1.29017 0.57
vt 1.43733 0.57
f 89/207/44 88/208/45 96/209/45 95/210/44 

vt 0.901277 0.63
vt 0.75412 0.63
vn 0.793353 3.63883e-013 -0.608761
vt 0.75412 0.57
vt 0.901277 0.57
f 88/211/45 87/212/46 97/213/46 96/214/45 

vt 0.351061 0.63
vt 0.203903 0.63
vn 0.707107 3.77958e-013 -0.707107
vt 0.203903 0.57
vt 0.351061 0.57
f 87/215/46 86/216/47 98/217/47 97/218/46 

vt -0.203903 0.63
vt -0.351061 0.63
vn 0.608761 3.85566e-013 -0.793353
vt -0.351061 0.57
vt -0.203903 0.57
f 86/219/47 85/220/48 99/221/48 98/222/47 

vt -0.75412 0.63
vt -0.901277 0.63
vn 0.5 3.86577e-013 -0.866025
vt -0.901277 0.57
vt -0.75412 0.57
f 85/223/48 84/224/49 100/225/49 99/226/48 

vt -1.29017 0.63
vt -1.43733 0.63
vn 0.382683 3.80974e-013 -0.92388
vt -1.43733 0.57
vt -1.29017 0.57
f 84/227/49 83/228/50 101/229/50 100/230/49 

vt -1.80289 0.63
vt -1.95005 0.63
vn 0.258819 3.68852e-013 -0.965926
vt -1.95005 0.57
vt -1.80289 0.57
f 83/231/50 82/232/51 102/233/51 101/234/50 

vt -2.28351 0.63
vt -2.43066 0.63
vt -2.43066 0.57
vt -2.28351 0.57
f 82/235/51 81/236/38 92/237/38 102/238/51 

vt 2.4184 0.63
vt 2.29577 0.63
vn -0.258819 -3.68852e-013 0.965926
vt 2.29577 0.57
vt 2.4184 0.57
f 2/239/2 16/240/52 103/241/52 3/242/2 

vt 1.93779 0.63
vt 1.81516 0.63
vn -0.382683 -3.80974e-013 0.92388
vt 1.81516 0.57
vt 1.93779 0.57
f 16/243/52 15/244/53 104/245/53 103/246/52 

vt 1.42507 0.63
vt 1.30244 0.63
vn -0.5 -3.86577e-013 0.866025
vt 1.30244 0.57
vt 1.42507 0.57
f 15/247/53 14/248/54 105/249/54 104/250/53 

vt 0.889014 0.63
vt 0.766383 0.63
vn -0.608761 -3.85566e-013 0.793353
vt 0.766383 0.57
vt 0.889014 0.57
f 14/251/54 13/252/55 106/253/55 105/254/54 

vt 0.338797 0.63
vt 0.216167 0.63
vn -0.707107 -3.77958e-013 0.707107
vt 0.216167 0.57
vt 0.338797 0.57
f 13/255/55 12/256/56 107/257/56 106/258/55 

vt -0.216167 0.63
vt -0.338797 0.63
vn -0.793353 -3.63883e-013 0.608761
vt -0.338797 0.57
vt -0.216167 0.57
f 12/259/56 11/260/57 108/261/57 107/262/56 

vt -0.766383 0.63
vt -0.889014 0.63
vn -0.866025 -3.43582e-013 0.5
vt -0.889014 0.57
vt -0.766383 0.57
f 11/263/57 10/264/58 109/265/58 108/266/57 

vt -1.30244 0.63
vt -1.42507 0.63
vn -0.92388 -3.17402e-013 0.382683
vt -1.42507 0.57
vt -1.30244 0.57
f 10/267/58 9/268/59 110/269/59 109/270/58 

vt -1.81516 0.63
vt -1.93779 0.63
vn -0.965926 -2.85791e-013 0.258819
vt -1.93779 0.57
vt -1.81516 0.57
f 9/271/59 8/272/60 111/273/60 110/274/59 

vt -2.29577 0.63
vt -2.4184 0.63
vn -0.991445 -2.4929e-013 0.130526
vt -2.4184 0.57
vt -2.29577 0.57
f 8/275/60 7/276/61 112/277/61 111/278/60 

vt -2.73605 0.63
vt -2.85868 0.63
vn -0.997859 -2.29398e-013 0.0654031
vt -2.85868 0.57
vt -2.73605 0.57
f 7/279/61 6/280/62 26/281/62 112/282/61 

