# Alias OBJ Model File
# Exported from SketchUp, (c) 2000-2012 Trimble Navigation Limited
# File units = meters

mtllib roadTile_047.mtl

g Mesh1 Group1 Model

usemtl Stone
v 0.265165 1.73 -2.73483
vt -2.23099 1.73
vn -0.707107 3.59731e-016 -0.707107
v 0.297508 1.73 -2.77171
vt -2.28005 1.73
vn -0.793353 4.02031e-016 -0.608761
v 0.297508 1.65 -2.77171
vt -2.28005 1.65
v 0.265165 1.65 -2.73483
vt -2.23099 1.65
f 1/1/1 2/2/2 3/3/2 4/4/1 

v 0.75 1.73 -3
vt 0.75 3
vn 7.65528e-016 1 1.52928e-016
v 0.375 1.73 -3
vt 0.375 3
v 0.371792 1.73 -2.95105
vt 0.371792 2.95105
v 0.362222 1.73 -2.90294
vt 0.362222 2.90294
v 0.346455 1.73 -2.85649
vt 0.346455 2.85649
v 0.32476 1.73 -2.8125
vt 0.32476 2.8125
vt 0.297508 2.77171
vt 0.265165 2.73483
v 0.228286 1.73 -2.70249
vt 0.228286 2.70249
v 0.1875 1.73 -2.67524
vt 0.1875 2.67524
v 0.143506 1.73 -2.65355
vt 0.143506 2.65355
v 0.0970571 1.73 -2.63778
vt 0.0970571 2.63778
v 0.0489473 1.73 -2.62821
vt 0.0489473 2.62821
v 1.24458e-012 1.73 -2.625
vt 1.24325e-012 2.625
v 0 1.73 -2.25
vt -1.32436e-015 2.25
v 0.0978946 1.73 -2.25642
vt 0.0978946 2.25642
v 0.194114 1.73 -2.27556
vt 0.194114 2.27556
v 0.287013 1.73 -2.30709
vt 0.287013 2.30709
v 0.375 1.73 -2.35048
vt 0.375 2.35048
v 0.456571 1.73 -2.40498
vt 0.456571 2.40498
v 0.53033 1.73 -2.46967
vt 0.53033 2.46967
v 0.595015 1.73 -2.54343
vt 0.595015 2.54343
v 0.649519 1.73 -2.625
vt 0.649519 2.625
v 0.69291 1.73 -2.71299
vt 0.69291 2.71299
v 0.724444 1.73 -2.80589
vt 0.724444 2.80589
v 0.743584 1.73 -2.90211
vt 0.743584 2.90211
f 5/5/3 6/6/3 7/7/3 8/8/3 9/9/3 10/10/3 2/11/3 1/12/3 11/13/3 12/14/3 13/15/3 14/16/3 15/17/3 16/18/3 17/19/3 18/20/3 19/21/3 20/22/3 21/23/3 22/24/3 23/25/3 24/26/3 25/27/3 26/28/3 27/29/3 28/30/3 

v 3 0 -3
vt -3 -5.95085e-012
vn -4.13747e-013 1.98362e-012 -1
v 0.375 0 -3
vt -0.375 -5.95085e-012
v 0.375 1.65 -3
vt -0.375 1.65
vt -0.375 1.73
vt -0.75 1.73
v 0.75 0.6 -3
vt -0.75 0.6
v 0.75 0.3 -3
vt -0.75 0.3
v 3 0.3 -3
vt -3 0.3
f 29/31/4 30/32/4 31/33/4 6/34/4 5/35/4 32/36/4 33/37/4 34/38/4 

usemtl Grass
v 3 0 -9.24047e-014
vt -3 9.24047e-014
vn 1.14893e-033 -1 -1.26779e-033
v 2.5469e-012 0 -0
vt -2.5469e-012 -3.70983e-078
v 1.87119e-012 0 -2.625
vt -1.87119e-012 2.625
v 2.48915e-012 0 -3
vt -2.48915e-012 3
vt -0.375 3
vt -3 3
f 35/39/5 36/40/5 37/41/5 38/42/5 30/43/5 29/44/5 

usemtl Stone
vt 3 1.05609e-054
vn 3.08016e-014 -1.34651e-029 1
v 3 0.3 -9.24047e-014
vt 3 0.3
v 2.5469e-012 0.3 -0
vt 2.5469e-012 0.3
vt 2.5469e-012 1.05632e-054
f 35/45/6 39/46/6 40/47/6 36/48/6 

vt 3 0
vn 1 0 -1.73259e-014
vt 4.0427e-014 0.3
vt 4.0427e-014 0
f 29/49/7 34/46/7 39/50/7 35/51/7 

usemtl Asphalt
v 3 0.6 -9.24047e-014
vt 4.0427e-014 0.6
vn 1 -2.89531e-030 -1.73259e-014
v 3 0.6 -3
vt 3 0.6
f 41/52/8 39/50/8 34/46/8 42/53/8 

v 2.5469e-012 0.6 -0
vt 2.5469e-012 0.6
vn 3.08016e-014 -1.52934e-029 1
f 43/54/9 40/47/9 39/46/9 41/53/9 

v 0 0.6 -2.25
vt -2.25 0.6
vn -1 -1.03955e-012 9.9335e-013
v 6.23731e-013 0.3 -2.25
vt -2.25 0.3
vt 2.52997e-024 0.3
vt 2.52997e-024 0.6
f 44/55/10 45/56/10 40/57/10 43/58/10 

usemtl Stone
vt -2.625 1.73
vn -1 -1.9132e-012 3.93474e-013
v 1.24458e-012 1.65 -2.625
vt -2.625 1.65
vt -2.625 -5.55606e-024
vt 1.00214e-024 -4.87274e-024
vt 1.00214e-024 0.3
vt -2.25 1.73
f 16/59/11 46/60/11 37/61/11 36/62/11 40/63/11 45/56/11 44/55/11 17/64/11 

vt -0.171683 1.73
vn -0.0654031 4.12394e-017 -0.997859
vt -0.220736 1.73
vn -0.130526 7.37587e-017 -0.991445
v 0.0489473 1.65 -2.62821
vt -0.220736 1.65
vt -0.171683 1.65
f 16/65/12 15/66/13 47/67/13 46/68/12 

vt -0.560745 1.73
vt -0.609797 1.73
vn -0.258819 1.37712e-016 -0.965926
v 0.0970571 1.65 -2.63778
vt -0.609797 1.65
vt -0.560745 1.65
f 15/69/13 14/70/14 48/71/14 47/72/13 

vt -0.939792 1.73
vt -0.988845 1.73
vn -0.382683 1.99309e-016 -0.92388
v 0.143506 1.65 -2.65355
vt -0.988845 1.65
vt -0.939792 1.65
f 14/73/14 13/74/15 49/75/15 48/76/14 

vt -1.30234 1.73
vt -1.35139 1.73
vn -0.5 2.57496e-016 -0.866025
v 0.1875 1.65 -2.67524
vt -1.35139 1.65
vt -1.30234 1.65
f 13/77/15 12/78/16 50/79/16 49/80/15 

vt -1.64218 1.73
vt -1.69124 1.73
vn -0.608761 3.11277e-016 -0.793353
v 0.228286 1.65 -2.70249
vt -1.69124 1.65
vt -1.64218 1.65
f 12/81/16 11/82/17 51/83/17 50/84/16 

vt -1.95351 1.73
vt -2.00256 1.73
vt -2.00256 1.65
vt -1.95351 1.65
f 11/85/17 1/86/1 4/87/1 51/88/17 

usemtl Grass
v 2.48915e-012 1.65 -3
vt 2.48833e-012 3
vn 5.00194e-016 1 8.54342e-018
vt 1.24375e-012 2.625
v 0.32476 1.65 -2.8125
v 0.346455 1.65 -2.85649
v 0.362222 1.65 -2.90294
v 0.371792 1.65 -2.95105
f 52/89/18 46/90/18 47/17/18 48/16/18 49/15/18 50/14/18 51/13/18 4/12/18 3/11/18 53/10/18 54/9/18 55/8/18 56/7/18 31/6/18 

vt -3 2.82604e-024
vn -1 -5.69654e-013 -2.48338e-012
vt -2.625 2.64756e-024
vt -3 1.65
f 38/91/19 37/92/19 46/60/19 52/93/19 

vt 5.08803e-012 1.65
vn 2.52573e-012 5.8803e-013 -1
vt -0.375 -1.76409e-012
vt 5.08803e-012 -1.76409e-012
f 52/94/20 31/33/20 30/95/20 38/96/20 

usemtl Stone
vt -2.46988 1.73
vt -2.51894 1.73
vn -0.866025 4.37452e-016 -0.5
vt -2.51894 1.65
vt -2.46988 1.65
f 2/97/2 10/98/21 53/99/21 3/100/2 

vt -2.66609 1.73
vt -2.71514 1.73
vn -0.92388 4.65388e-016 -0.382683
vt -2.71514 1.65
vt -2.66609 1.65
f 10/101/21 9/102/22 54/103/22 53/104/21 

vt -2.81626 1.73
vt -2.86532 1.73
vn -0.965926 4.85361e-016 -0.258819
vt -2.86532 1.65
vt -2.81626 1.65
f 9/105/22 8/106/23 55/107/23 54/108/22 

vt -2.91783 1.73
vt -2.96688 1.73
vn -0.991445 4.9703e-016 -0.130526
vt -2.96688 1.65
vt -2.91783 1.65
f 8/109/23 7/110/24 56/111/24 55/112/23 

vt -2.96905 1.73
vt -3.0181 1.73
vn -0.997859 4.99681e-016 -0.0654031
vt -3.0181 1.65
vt -2.96905 1.65
f 7/113/24 6/114/25 31/115/25 56/116/24 

vt 0.147157 0.6
vn 0.0654031 -5.51651e-017 0.997859
v 0.0978946 0.6 -2.25642
vt 0.245262 0.6
vn 0.130526 -9.504e-017 0.991445
vt 0.245262 1.73
vt 0.147157 1.73
f 44/117/26 57/118/27 18/119/27 17/120/26 

usemtl Asphalt
vt 3 3
vn 1.58704e-016 1 -8.22034e-017
v 0.743584 0.6 -2.90211
v 0.724444 0.6 -2.80589
v 0.69291 0.6 -2.71299
v 0.649519 0.6 -2.625
v 0.595015 0.6 -2.54343
v 0.53033 0.6 -2.46967
v 0.456571 0.6 -2.40498
v 0.375 0.6 -2.35048
v 0.287013 0.6 -2.30709
v 0.194114 0.6 -2.27556
vt -9.52226e-017 2.25
vt 2.54681e-012 -4.9322e-017
vt 3 9.23553e-014
f 42/121/28 32/5/28 58/30/28 59/29/28 60/28/28 61/27/28 62/26/28 63/25/28 64/24/28 65/23/28 66/22/28 67/21/28 57/20/28 44/122/28 43/123/28 41/124/28 

vt -3 0.6
vn -1.03699e-012 1.07805e-012 -1
f 42/125/29 34/38/29 33/37/29 32/36/29 

usemtl Stone
vt 2.94452 0.6
vn 0.991445 -6.10497e-016 0.130526
vt 3.04263 0.6
vn 0.997859 -6.13454e-016 0.0654031
vt 3.04263 1.73
vt 2.94452 1.73
f 58/126/30 32/127/31 5/128/31 28/129/30 

vt 2.8933 0.6
vn 0.965926 -5.96765e-016 0.258819
vt 2.99141 0.6
vt 2.99141 1.73
vt 2.8933 1.73
f 59/130/32 58/131/30 28/132/30 27/133/32 

vt 2.79174 0.6
vn 0.92388 -5.72823e-016 0.382683
vt 2.88984 0.6
vt 2.88984 1.73
vt 2.79174 1.73
f 60/134/33 59/135/32 27/136/32 26/137/33 

vt 2.64157 0.6
vn 0.866025 -5.39079e-016 0.5
vt 2.73967 0.6
vt 2.73967 1.73
vt 2.64157 1.73
f 61/138/34 60/139/33 26/140/33 25/141/34 

vt 2.44536 0.6
vn 0.793353 -4.96111e-016 0.608761
vt 2.54346 0.6
vt 2.54346 1.73
vt 2.44536 1.73
f 62/142/35 61/143/34 25/144/34 24/145/35 

vt 2.20647 0.6
vn 0.707107 -4.44655e-016 0.707107
vt 2.30457 0.6
vt 2.30457 1.73
vt 2.20647 1.73
f 63/146/36 62/147/35 24/148/35 23/149/36 

vt 1.92899 0.6
vn 0.608761 -3.85591e-016 0.793353
vt 2.02709 0.6
vt 2.02709 1.73
vt 1.92899 1.73
f 64/150/37 63/151/36 23/152/36 22/153/37 

vt 1.61766 0.6
vn 0.5 -3.19929e-016 0.866025
vt 1.71576 0.6
vt 1.71576 1.73
vt 1.61766 1.73
f 65/154/38 64/155/37 22/156/37 21/157/38 

vt 1.27781 0.6
vn 0.382683 -2.48793e-016 0.92388
vt 1.37592 0.6
vt 1.37592 1.73
vt 1.27781 1.73
f 66/158/39 65/159/38 21/160/38 20/161/39 

vt 0.915266 0.6
vn 0.258819 -1.734e-016 0.965926
vt 1.01337 0.6
vt 1.01337 1.73
vt 0.915266 1.73
f 67/162/40 66/163/39 20/164/39 19/165/40 

vt 0.536219 0.6
vt 0.634323 0.6
vt 0.634323 1.73
vt 0.536219 1.73
f 57/166/27 67/167/40 19/168/40 18/169/27 

