# Alias OBJ Model File
# Exported from SketchUp, (c) 2000-2012 Trimble Navigation Limited
# File units = meters

mtllib roadTile_007.mtl

g Mesh1 Group1 Model

usemtl Stone
v 0 1.65 -3
vt 7.90038e-046 3
vn -4.78811e-046 1 -7.18836e-032
v 4.62023e-014 1.65 -0
vt 4.62023e-014 -1.18608e-031
v 3 1.65 -4.62023e-014
vt 3 4.62023e-014
v 3 1.65 -3
vt 3 3
f 1/1/1 2/2/1 3/3/1 4/4/1 

v 0 0 -3
vt -3 2.77074e-044
vn -1 5.61879e-031 1.64374e-014
v 4.62023e-014 0 -0
vt 7.59445e-028 2.59601e-044
vt 7.59445e-028 1.65
vt -3 1.65
f 5/5/2 6/6/2 2/7/2 1/8/2 

v 3 0 -4.62023e-014
vt -3 4.62023e-014
vn 3.61914e-033 -1 -3.99353e-033
vt -4.62023e-014 -6.67769e-079
vt 0 3
v 3 0 -3
vt -3 3
f 7/9/3 6/10/3 5/11/3 8/12/3 

vt 4.62023e-014 1.65
vn 1.63943e-014 0 1
vt 4.62023e-014 0
vt 3 0
vt 3 1.65
f 2/13/4 6/14/4 7/15/4 3/16/4 

vt -6.46316e-028 -2.08874e-030
vn 1 6.96247e-031 -1.54008e-014
vt 3 -2.08874e-030
vt -6.46316e-028 1.65
f 7/17/5 8/18/5 4/16/5 3/19/5 

vn -1.63943e-014 0 -1
vt -3 0
vt -4.91829e-014 0
vt -4.91829e-014 1.65
f 4/8/6 8/20/6 5/21/6 1/22/6 

