# Alias OBJ Model File
# Exported from SketchUp, (c) 2000-2012 Trimble Navigation Limited
# File units = meters

mtllib roadTile_179.mtl

g Mesh1 Group1 Model

usemtl Grass
v 3 1.65 -5.19776e-014
vt 3 5.19776e-014
vn 0 1 -0
v 3 1.65 -0.375
vt 3 0.375
v 3.17641e-014 1.65 -0.375
vt 3.17641e-014 0.375
v 0 1.65 -0
vt 0 0
f 1/1/1 2/2/1 3/3/1 4/4/1 

v 3 0 -5.19776e-014
vt 2.80102e-013 1.11568e-014
vn 1 -3.71894e-015 7.60413e-014
v 3 0 -0.375
vt 0.375 1.11568e-014
vt 0.375 1.65
vt 2.80102e-013 1.65
f 5/5/2 6/6/2 2/7/2 1/8/2 

v 0 7.21911e-016 -0
vt 4.34297e-032 8.95457e-033
vn -6.01593e-017 -1 -1.2404e-017
v 3.17641e-014 7.21911e-016 -0.375
vt -3.17641e-014 0.375
v 5.48653e-014 7.21911e-016 -2.625
vt -5.48653e-014 2.625
v 6.06406e-014 7.21911e-016 -3
vt -6.06406e-014 3
v 3 7.21911e-016 -3
vt -3 3
v 3 7.21911e-016 -2.625
vt -3 2.625
vt -3 0.375
vt -3 5.19776e-014
f 7/9/3 8/10/3 9/11/3 10/12/3 11/13/3 12/14/3 6/15/3 5/16/3 

vt 0 1.65
vn -1 -2.59433e-043 -8.47043e-014
vt -0.375 1.65
vt -0.375 7.21911e-016
vt 0 7.21911e-016
f 4/17/4 3/18/4 8/19/4 7/20/4 

usemtl Stone
vt -2.625 7.21911e-016
vn -1 4.72344e-015 -4.84024e-015
v 3.17641e-014 1.73 -0.375
vt -0.375 1.73
v 6.93035e-014 1.73 -0.75
vt -0.75 1.73
v 8.66294e-014 1.4 -0.75
vt -0.75 1.4
v 5.77529e-014 1.4 -2.25
vt -2.25 1.4
v 5.19776e-014 1.73 -2.25
vt -2.25 1.73
v 5.48653e-014 1.73 -2.625
vt -2.625 1.73
v 5.48653e-014 1.65 -2.625
vt -2.625 1.65
f 9/21/5 8/19/5 3/18/5 13/22/5 14/23/5 15/24/5 16/25/5 17/26/5 18/27/5 19/28/5 

v 3 1.73 -0.375
vt 3 1.73
vn 1.15506e-014 0 1
vt 3.60956e-014 1.73
vt 3.60956e-014 1.65
vt 3 1.65
f 20/29/6 13/30/6 3/31/6 2/32/6 

vt 6.93035e-014 0.75
v 3 1.73 -0.75
vt 3 0.75
f 14/33/1 13/3/1 20/2/1 21/34/1 

vt 0.375 3.50572e-015
vn 1 -1.16857e-015 6.29359e-015
vt 2.625 4.22763e-015
v 3 1.65 -2.625
vt 2.625 1.65
v 3 1.73 -2.625
vt 2.625 1.73
v 3 1.73 -2.25
vt 2.25 1.73
v 3 0.6 -2.25
vt 2.25 0.6
v 3 0.3 -2.25
vt 2.25 0.3
v 3 0.3 -0.75
vt 0.75 0.3
v 3 0.6 -0.75
vt 0.75 0.6
vt 0.75 1.73
vt 0.375 1.73
f 6/35/7 12/36/7 22/37/7 23/38/7 24/39/7 25/40/7 26/41/7 27/42/7 28/43/7 21/44/7 20/45/7 2/7/7 

usemtl Grass
v 3 1.65 -3
vn 1 -8.75044e-016 4.62023e-014
vt 2.625 3.34704e-015
vt 3 3.34704e-015
f 29/32/8 22/37/8 12/46/8 11/47/8 

v 6.06406e-014 1.65 -3
vt 6.06406e-014 3
vt 5.48653e-014 2.625
vt 3 2.625
vt 3 3
f 30/48/1 19/49/1 22/50/1 29/51/1 

vt -3 7.21911e-016
vn -1 4.37522e-016 -1.34757e-014
vt -3 1.65
f 10/52/9 9/21/9 19/28/9 30/53/9 

vn -1.63633e-014 0 -1
vt -1.09731e-013 7.21911e-016
vt -1.09731e-013 1.65
f 11/52/10 10/54/10 30/55/10 29/53/10 

usemtl Stone
vt -8.51855e-014 1.73
vn -1.15506e-014 0 -1
vt -3 1.73
vt -8.51855e-014 1.65
f 18/56/11 23/57/11 22/53/11 19/58/11 

vt 3 2.25
vt 5.19776e-014 2.25
f 24/59/1 23/50/1 18/49/1 17/60/1 

vn 1.54008e-014 0 1
vt 8.66294e-014 1.73
vt 3 0.6
f 24/29/12 17/61/12 25/62/12

usemtl Asphalt
vt 0.75 0.609809
vn 0.35249 0.935815 -6.77213e-015
vt 0.75 -2.59595
vt 2.25 -2.59595
vt 2.25 0.609809
f 14/63/13 28/64/13 25/65/13 17/66/13 

usemtl Stone
vn -1.9251e-014 0 -1
vt -3 0.6
vt -8.37417e-014 1.73
f 21/57/14 28/67/14 14/68/14

usemtl Asphalt
vn 1 -9.62549e-015 -1.73259e-014
f 28/43/15 27/42/15 26/41/15 25/40/15 

vn -1 -3.50018e-014 1.54008e-014
f 14/23/16 17/26/16 16/25/16 15/24/16 

usemtl Grass
vn 1.6243e-014 -1.11873e-030 1
vt 3 -3.63432e-045
f 7/20/17 5/69/17 1/32/17 4/17/17 

