# Alias OBJ Model File
# Exported from SketchUp, (c) 2000-2012 Trimble Navigation Limited
# File units = meters

mtllib roadTile_205.mtl

g Mesh1 Group1 Model

usemtl Water
v 2.02135e-014 0 -2.25
vt -2.25 -1.32019e-043
vn -1 -2.40624e-030 1.54008e-014
v 3.75394e-014 0 -0.75
vt -0.75 -1.18122e-043
v 3.75394e-014 0.455 -0.75
vt -0.75 0.455
v 2.02135e-014 0.455 -2.25
vt -2.25 0.455
f 1/1/1 2/2/1 3/3/1 4/4/1 

usemtl Grass
v 3 1.80478e-016 -5.77529e-014
vt -3 5.77529e-014
vn 1.20638e-033 -1 -1.33118e-033
v 5.48653e-014 1.80478e-016 -0
vt -5.48653e-014 2.40248e-049
v 3.75394e-014 9.02389e-017 -0.375
vt -3.75394e-014 0.375
vt -3.75394e-014 0.75
vt -2.02135e-014 2.25
v 5.77529e-015 9.02389e-017 -2.625
vt -5.77529e-015 2.625
v 0 1.80478e-016 -3
vt -2.17725e-049 3
v 3 1.80478e-016 -3
vt -3 3
v 3 9.02389e-017 -2.625
vt -3 2.625
v 3 0 -2.25
vt -3 2.25
v 3 0 -0.75
vt -3 0.75
v 3 9.02389e-017 -0.375
vt -3 0.375
f 5/5/2 6/6/2 7/7/2 2/8/2 1/9/2 8/10/2 9/11/2 10/12/2 11/13/2 12/14/2 13/15/2 14/16/2 

v 5.48653e-014 1.65 -0
vt 5.48653e-014 1.65
vn 1.63943e-014 0 1
vt 5.48653e-014 1.80478e-016
vt 3 1.80478e-016
v 3 1.65 -5.77529e-014
vt 3 1.65
f 15/17/3 6/18/3 5/19/3 16/20/3 

vt 1.68994e-027 1.65
vn -1 -9.61722e-032 3.08016e-014
v 3.75394e-014 1.65 -0.375
vt -0.375 1.65
vt -0.375 9.02389e-017
vt 1.68994e-027 1.80478e-016
f 15/21/4 17/22/4 7/23/4 6/24/4 

vt 3 5.61647e-014
vn -2.03836e-029 1 -9.62549e-016
v 3 1.65 -0.375
vt 3 0.375
vt 3.75394e-014 0.375
vt 5.48653e-014 -1.58821e-015
f 16/25/5 18/26/5 17/27/5 15/28/5 

vt 1.03955e-013 1.0681e-014
vn 1 -3.50018e-015 1.54008e-014
vt 0.375 1.05908e-014
vt 0.375 1.65
vt 1.03955e-013 1.65
f 5/29/6 14/30/6 18/31/6 16/32/6 

usemtl Stone
v 3 0.455 -0.75
vt 0.75 0.455
vn 1 -7.70718e-015 4.87371e-014
v 3 1.73 -0.75
vt 0.75 1.73
v 3 1.73 -0.375
vt 0.375 1.73
vt 0.375 2.32118e-014
vt 0.75 2.31216e-014
f 19/33/7 20/34/7 21/35/7 18/31/7 14/36/7 13/37/7 

vt -4.98344e-014 0.455
vn -1.63934e-014 0 -1
v 3.75394e-014 1.73 -0.75
vt -4.98344e-014 1.73
vt -3 1.73
vt -3 0.455
f 3/38/8 22/39/8 20/40/8 19/41/8 

vt -0.75 2.35559e-045
vn -1 9.06386e-032 -1.54008e-014
v 3.75394e-014 1.73 -0.375
vt -0.375 1.73
vt -0.75 1.73
f 2/42/9 7/23/9 17/22/9 23/43/9 22/44/9 3/3/9 

vt 4.62023e-014 1.65
vn 2.31012e-014 0 1
vt 3 1.73
vt 4.62023e-014 1.73
f 17/45/10 18/20/10 21/46/10 23/47/10 

vt 3.75394e-014 0.75
vn 0 1 -0
vt 3 0.75
f 22/48/11 23/27/11 21/26/11 20/49/11 

usemtl Water
vt 2.02135e-014 2.25
v 3 0.455 -2.25
vt 3 2.25
f 4/50/11 3/48/11 19/49/11 24/51/11 

vt 0.75 1.65008e-013
vn 1 -5.50028e-014 -1.15506e-014
vt 2.25 1.65008e-013
vt 2.25 0.455
f 13/52/12 12/53/12 24/54/12 19/33/12 

usemtl Stone
vt 2.25 2.31216e-014
vn 1 -7.70718e-015 -9.49395e-014
vt 2.625 2.32118e-014
v 3 1.65 -2.625
vt 2.625 1.65
v 3 1.73 -2.625
vt 2.625 1.73
v 3 1.73 -2.25
vt 2.25 1.73
f 12/55/13 11/56/13 25/57/13 26/58/13 27/59/13 24/54/13 

usemtl Grass
v 3 1.65 -3
vn 1 -3.50018e-015 -6.16031e-014
vt 2.625 1.05908e-014
vt 3 1.0681e-014
f 28/20/14 25/57/14 11/60/14 10/61/14 

v 0 1.65 -3
vt 0 3
v 5.77529e-015 1.65 -2.625
vt 5.77529e-015 2.625
vt 3 2.625
vt 3 3
f 29/62/11 30/63/11 25/64/11 28/65/11 

vt -3 1.80478e-016
vn -1 2.07454e-031 1.54008e-014
vt -2.625 9.02389e-017
vt -2.625 1.65
vt -3 1.65
f 9/66/15 8/67/15 30/68/15 29/69/15 

usemtl Stone
vn -1 0 4.62023e-014
v 2.02135e-014 1.73 -2.25
vt -2.25 1.73
v 5.77529e-015 1.73 -2.625
vt -2.625 1.73
vt -2.25 0
f 4/4/16 31/70/16 32/71/16 30/68/16 8/67/16 1/72/16 

vt 3 0.455
vn 1.73259e-014 0 1
vt 5.91967e-014 1.73
vt 5.91967e-014 0.455
f 24/73/17 27/46/17 31/74/17 4/75/17 

f 27/51/11 26/64/11 32/63/11 31/50/11 

vn -1.73259e-014 0 -1
vt -5.12557e-014 1.65
vt -5.12557e-014 1.73
f 25/69/18 30/76/18 32/77/18 26/40/18 

usemtl Grass
vn -1.63943e-014 0 -1
vt -4.91829e-014 1.80478e-016
vt -4.91829e-014 1.65
f 28/69/19 10/66/19 9/78/19 29/79/19 

