# Alias OBJ Model File
# Exported from SketchUp, (c) 2000-2012 Trimble Navigation Limited
# File units = meters

mtllib roadTile_015.mtl

g Mesh1 Group1 Model

usemtl Grass
v 6.35282e-014 0.55 -3
vt -3 0.55
vn -1 1.88814e-014 -1.34757e-014
v 6.35282e-014 9.92628e-016 -3
vt -3 9.92628e-016
v 0 8.1215e-016 -0
vt 0 8.1215e-016
v 0 0.55 -0
vt 0 0.55
v 5.19776e-014 0.55 -0.75
vt -0.75 0.55
v 5.19776e-014 0.455 -0.75
vt -0.75 0.455
v 5.19776e-014 0.3 -0.75
vt -0.75 0.3
v 3.75394e-014 0.3 -2.25
vt -2.25 0.3
v 4.62023e-014 0.455 -2.25
vt -2.25 0.455
v 4.62023e-014 0.55 -2.25
vt -2.25 0.55
f 1/1/1 2/2/1 3/3/1 4/4/1 5/5/1 6/6/1 7/7/1 8/8/1 9/9/1 10/10/1 

v 3 9.92628e-016 -3
vn -1.63633e-014 0 -1
vt -1.12618e-013 9.92628e-016
vt -1.12618e-013 0.55
v 3 0.55 -3
f 11/2/2 2/11/2 1/12/2 12/1/2 

vt 4.88584e-032 1.00739e-032
vn -6.01593e-017 -1 -1.2404e-017
vt -6.35282e-014 3
vt -3 3
v 3 0 -2.88765e-013
vt -3 2.88765e-013
f 3/13/3 2/14/3 11/15/3 13/16/3 

v 3 0.55 -2.88765e-013
vt 3.44207e-013 0.55
vn 1 -2.20718e-014 1.84809e-014
vt 3.44207e-013 6.62155e-014
vt 3 6.72082e-014
vt 3 0.55
v 3 0.55 -2.25
vt 2.25 0.55
v 3 0.455 -2.25
vt 2.25 0.455
v 3 0.3 -2.25
vt 2.25 0.3
v 3 0.3 -0.75
vt 0.75 0.3
v 3 0.455 -0.75
vt 0.75 0.455
v 3 0.55 -0.75
vt 0.75 0.55
f 14/17/4 13/18/4 11/19/4 12/20/4 15/21/4 16/22/4 17/23/4 18/24/4 19/25/4 20/26/4 

vn 1.6243e-014 -1.11873e-030 1
vt 3 -2.68536e-043
f 3/3/5 13/27/5 14/20/5 4/4/5 

vt 3 2.885e-013
vn -2.96454e-029 1 -4.81274e-016
vt 3 0.75
vt 5.19776e-014 0.75
vt 1.6305e-029 -2.64701e-016
f 14/28/6 20/29/6 5/30/6 4/31/6 

usemtl Alternate_Dirt
v 2.25 0.205 -0.75
vt -2.25 0.205
vn -4.42772e-014 1.09731e-013 -1
v 0.75 0.205 -0.75
vt -0.75 0.205
vt -8.51855e-014 0.455
vt -8.51855e-014 0.55
vt -3 0.455
f 21/32/7 22/33/7 6/34/7 5/35/7 20/1/7 19/36/7 

vt 0.75 0.75
vn 0.160182 0.987087 7.76367e-014
vt 2.25 0.75
vn -0.160182 0.987087 8.71898e-014
v 2.25 0.205 -2.25
vt 2.25 2.25
v 0.75 0.205 -2.25
vt 0.75 2.25
f 22/37/8 21/38/9 23/39/9 24/40/8 

vt -0.75 2.19936
vt -0.75 2.98993
vn -0.316228 0.948683 6.23973e-014
vt -2.25 2.98993
vt -2.25 2.19936
f 21/41/9 19/42/10 16/43/10 23/44/9 

vn 1 -3.72599e-014 -1.54008e-014
f 19/25/11 18/24/11 17/23/11 16/22/11 

vt 0.75 0.205
vn 4.92825e-014 -1.84809e-013 1
vt 2.25 0.205
vt 3 0.455
vt 1.57088e-013 0.55
vt 1.57088e-013 0.455
f 24/45/12 23/46/12 16/47/12 15/20/12 10/48/12 9/49/12 

usemtl Grass
vt 3 2.25
vn 5.92897e-029 1 9.62549e-016
vt 3 3
vt 6.35282e-014 3
vt 4.62023e-014 2.25
f 15/50/13 12/51/13 1/52/13 10/53/13 

usemtl Alternate_Dirt
vt 0.75 0.143884
vn 0.316228 0.948683 4.35379e-014
vt 0.75 -0.646686
vt 2.25 -0.646686
vt 2.25 0.143884
f 6/54/14 22/55/8 24/56/8 9/57/14 

vn -1 1.863e-014 9.62549e-015
f 9/9/15 8/8/15 7/7/15 6/6/15 

