# Alias OBJ Model File
# Exported from SketchUp, (c) 2000-2012 Trimble Navigation Limited
# File units = meters

mtllib roadTile_006.mtl

g Mesh1 Group1 Model

usemtl Stone
v 3 0 -3
vt -3 3
vn -1.33118e-033 -1 -1.20638e-033
v 3 0 -8.54743e-013
vt -3 8.54743e-013
v 8.54743e-013 0 -0
vt -8.54743e-013 1.37264e-078
v 0 0 -3
vt 0 3
f 1/1/1 2/2/1 3/3/1 4/4/1 

v 3 1.65 -8.54743e-013
vt -1.4042e-014 1.65
vn 1 -2.83514e-014 -2.89595e-013
vt -1.4042e-014 8.50543e-014
vt 3 8.50543e-014
v 3 0.55 -3
vt 3 0.55
f 5/5/2 2/6/2 1/7/2 6/8/2 

vt 8.54743e-013 -1.06734e-040
vn 2.85408e-013 4.37522e-016 1
vt 3 -6.47852e-031
vt 3 1.65
v 1.13773e-012 1.65 -0
vt 1.13773e-012 1.65
f 3/9/3 2/10/3 5/11/3 7/12/3 

v 2.82989e-013 1.65 -3
vt 2.82989e-013 3
vn 0 1 -0
vt 1.13773e-012 0
vt 3 8.54743e-013
f 8/13/4 7/14/4 5/15/4

vt -3 1.45731e-025
vn -1 1.70634e-013 2.84686e-013
vt 2.43333e-025 1.45848e-025
vt 3.23897e-025 1.65
vt -3 1.65
f 4/16/5 3/17/5 7/18/5 8/19/5 

vt -3 0.55
vn -2.98055e-009 2.43839e-008 -1
vt -3 -7.31518e-008
vt -8.94164e-009 -7.31518e-008
vt -8.94192e-009 1.65
f 6/20/6 1/21/6 4/22/6 8/23/6 

vt 2.12132 -1.12364
vn 0.325506 0.887745 -0.325506
vt -2.12132 -1.12364
vt -3.16109e-008 -3.5132
f 8/24/7 5/25/7 6/26/7

