# Alias OBJ Model File
# Exported from SketchUp, (c) 2000-2012 Trimble Navigation Limited
# File units = meters

mtllib roadTile_013.mtl

g Mesh1 Group1 Model

usemtl Alternate_Dirt
v 3 0.455 -0.75
vt 0.75 0.455
vn 1 0 2.34862e-013
v 3 0.3 -0.75
vt 0.75 0.3
v 3 0.3 -2.25
vt 2.25 0.3
v 3 0.455 -2.25
vt 2.25 0.455
f 1/1/1 2/2/1 3/3/1 4/4/1 

usemtl Grass
v 3 7.21911e-016 -3
vt 3 2.26671e-013
vn 1 -7.53162e-014 1.9482e-013
v 3 0.55 -3
vt 3 0.55
v 3 0.55 -2.25
vt 2.25 0.55
v 3 0.55 -0.75
vt 0.75 0.55
v 3 0.55 -6.93035e-014
vt 6.53763e-013 0.55
v 3 0 -1.38607e-013
vt 7.23066e-013 2.25949e-013
f 5/5/2 6/6/2 7/7/2 4/4/2 3/3/2 2/2/2 1/1/2 8/8/2 9/9/2 10/10/2 

v 0.75 0.455 -3
vt -0.75 0.455
vn 9.39447e-014 -4.82442e-013 -1
v 0.75 0.3 -3
vt -0.75 0.3
v 2.25 0.3 -3
vt -2.25 0.3
v 2.25 0.455 -3
vt -2.25 0.455
v 2.25 0.55 -3
vt -2.25 0.55
vt -3 0.55
vt -3 1.44805e-012
v 3.98495e-013 9.69166e-014 -3
vt -1.16661e-013 1.54424e-012
v 4.10046e-013 0.55 -3
vt -1.28211e-013 0.55
v 0.75 0.55 -3
vt -0.75 0.55
f 11/11/3 12/12/3 13/13/3 14/14/3 15/15/3 6/16/3 5/17/3 16/18/3 17/19/3 18/20/3 

usemtl Alternate_Dirt
vn 5.39027e-014 -5.21639e-013 -1
f 14/14/4 13/13/4 12/12/4 11/11/4 

v 0.9375 0.455 -0.75
vt 0.9375 0.75
vn 1.1263e-014 1 1.96779e-015
v 0.75 0.455 -1.38607e-013
vt 0.75 1.39502e-013
v 2.25 0.455 -1.50158e-013
vt 2.25 1.51053e-013
v 2.39044 0.455 -0.614148
vt 2.39044 0.614148
vt 3 0.75
vt 3 2.25
v 2.47523 0.455 -2.47252
vt 2.47523 2.47252
vt 2.25 3
vt 0.75 3
v 0.5625 0.455 -2.25
vt 0.5625 2.25
f 19/21/5 20/22/5 21/23/5 22/24/5 1/25/5 4/26/5 23/27/5 14/28/5 11/29/5 24/30/5 

vt 0.181902 0.455
vn 0.970143 -8.57305e-014 0.242536
vt 0.954984 0.455
v 0.9375 0.55 -0.75
vt 0.954984 0.55
v 0.75 0.55 -1.38607e-013
vt 0.181902 0.55
f 20/31/6 19/32/6 25/33/6 26/34/6 

vt 0.50023 0.455
vn 0.970143 -8.63647e-014 -0.242536
vt 2.04639 0.455
v 0.5625 0.55 -2.25
vt 2.04639 0.55
vt 0.50023 0.55
f 19/35/7 24/36/7 27/37/7 25/38/7 

vt 2.31925 0.455
vt 3.09233 0.455
vt 3.09233 0.55
vt 2.31925 0.55
f 24/39/6 11/40/6 18/41/6 27/42/6 

usemtl Grass
vt 0.75 1.37888e-013
vn 8.86959e-014 1 -1.30738e-015
vt 3.61263e-013 3
v 3.29192e-013 0.55 -2.0791e-013
vt 2.80409e-013 2.07191e-013
f 26/43/8 25/21/8 27/30/8 18/29/8 17/44/8 28/45/8 

vt -3 9.69166e-014
vn -1 2.58971e-013 -7.94103e-014
v 0 9.70971e-014 -0
vt 0 9.70971e-014
vt -2.0791e-013 0.55
f 16/46/9 29/47/9 28/48/9 17/16/9 

vt -3 1.38607e-013
vn -3.23242e-014 -1 -6.19061e-017
vt 3.13858e-027 6.0109e-030
vt -3.98495e-013 3
vt -3 3
f 10/49/10 29/50/10 16/51/10 5/52/10 

vn 3.21855e-027 2.42686e-013 1
vt 3 3.36379e-026
v 2.25 0.55 -1.50158e-013
v 2.25 0.3 -1.15506e-014
v 0.75 0.3 -6.93035e-014
vt 3.29192e-013 0.55
f 29/47/11 10/53/11 9/6/11 30/7/11 21/4/11 31/3/11 32/2/11 20/1/11 26/8/11 28/54/11 

vt 3 7.05674e-014
vn 2.4984e-015 1 2.29797e-015
v 2.39044 0.55 -0.614148
vt 2.25 1.51421e-013
f 9/55/12 8/25/12 33/24/12 30/56/12 

usemtl Alternate_Dirt
vt -3.09131 0.455
vn -0.217531 2.78643e-015 -0.976053
vt -2.46679 0.455
vt -2.46679 0.55
vt -3.09131 0.55
f 1/57/13 22/58/13 33/59/13 8/60/13 

vt -1.13156 0.455
vn -0.974838 2.94779e-015 -0.222915
vt -0.501558 0.455
vt -0.501558 0.55
vt -1.13156 0.55
f 22/61/14 21/62/14 30/63/14 33/64/14 

vn -3.08016e-014 7.45199e-013 1
f 20/1/15 32/2/15 31/3/15 21/4/15 

vt 1.31359 0.455
vn -0.390384 3.71606e-016 0.920652
vt 1.88359 0.455
vt 1.88359 0.55
v 2.47523 0.55 -2.47252
vt 1.31359 0.55
f 23/65/16 4/66/16 7/67/16 34/68/16 

usemtl Grass
vt 3 3
vn 3.35325e-016 1 -2.61446e-016
f 6/69/17 15/28/17 34/27/17 7/26/17 

usemtl Alternate_Dirt
vt -1.87546 0.455
vn -0.919671 4.11055e-016 0.392689
vt -1.30191 0.455
vt -1.30191 0.55
vt -1.87546 0.55
f 14/70/18 23/71/18 34/72/18 15/73/18 

