# Alias OBJ Model File
# Exported from SketchUp, (c) 2000-2012 Trimble Navigation Limited
# File units = meters

mtllib roadTile_275.mtl

g Mesh1 Group1 Model

usemtl Stone
v 3 1.44382e-015 -4.62023e-014
vt 5.27477e-014 6.35968e-014
vn 1 -2.07177e-014 2.18178e-015
v 3 2.16573e-015 -2.25
vt 2.25 6.43187e-014
v 3 0.63 -2.25
vt 2.25 0.63
v 3 0.63 -1.875
vt 1.875 0.63
v 3 0.6 -1.875
vt 1.875 0.6
v 3 0.3 -1.875
vt 1.875 0.3
v 3 0.3 -0.375
vt 0.375 0.3
v 3 0.6 -0.375
vt 0.375 0.6
v 3 0.63 -0.375
vt 0.375 0.63
v 3 0.63 -4.62023e-014
vt 5.27477e-014 0.63
f 1/1/1 2/2/1 3/3/1 4/4/1 5/5/1 6/6/1 7/7/1 8/8/1 9/9/1 10/10/1 

vt -3 2.25
vn 2.40637e-016 -1 -3.46965e-016
vt -3 4.62023e-014
v 0 0 -0
vt 0 0
v 2.31012e-014 1.44382e-015 -2.25
vt -2.31012e-014 2.25
f 2/11/2 1/12/2 11/13/2 12/14/2 

vt 3 0.63
vn 1.54008e-014 -1.37954e-028 1
v 0 0.63 -0
vt 0 0.63
vt 3 1.44382e-015
f 10/15/3 13/16/3 11/13/3 1/17/3 

v 3.46517e-014 0.63 -0.375
vt 3.46517e-014 0.375
vn 0 1 -0
vt 3 4.62023e-014
vt 3 0.375
f 14/18/4 13/13/4 10/19/4 9/20/4 

vt -2.25 1.44382e-015
vn -1 1.14881e-014 -1.2834e-015
vt -0.375 0.63
v 3.46517e-014 0.6 -0.375
vt -0.375 0.6
v 3.46517e-014 0.3 -0.375
vt -0.375 0.3
v 1.15506e-014 0.3 -1.875
vt -1.875 0.3
v 1.73259e-014 0.6 -1.875
vt -1.875 0.6
v 1.73259e-014 0.63 -1.875
vt -1.875 0.63
v 2.31012e-014 0.63 -2.25
vt -2.25 0.63
f 12/21/5 11/13/5 13/16/5 14/22/5 15/23/5 16/24/5 17/25/5 18/26/5 19/27/5 20/28/5 

vt -3 0.6
vn -1.63943e-014 0 -1
vt -4.07996e-014 0.6
vt -4.07996e-014 0.63
vt -3 0.63
f 8/29/6 15/30/6 14/31/6 9/32/6 

usemtl Asphalt
vt 3 1.875
vt 1.73259e-014 1.875
f 5/33/4 18/34/4 15/18/4 8/20/4 

usemtl Stone
vt 4.80652e-014 0.6
vn 1.63943e-014 0 1
vt 3 0.6
vt 4.80652e-014 0.63
f 18/35/7 5/36/7 4/15/7 19/37/7 

vt 3 2.25
vt 2.31012e-014 2.25
f 4/33/4 3/38/4 20/39/4 19/34/4 

vt -5.77529e-014 0.63
vn -1.54008e-014 3.48246e-029 -1
vt -3 2.16573e-015
vt -5.77529e-014 1.44382e-015
f 20/40/8 3/32/8 2/41/8 12/42/8 

usemtl Asphalt
vn -1 9.62549e-015 1.54008e-014
f 18/26/9 17/25/9 16/24/9 15/23/9 

vn 1 -1.9251e-014 -1.54008e-014
f 8/8/10 7/7/10 6/6/10 5/5/10 

