# Alias OBJ Model File
# Exported from SketchUp, (c) 2000-2012 Trimble Navigation Limited
# File units = meters

mtllib roadTile_228.mtl

g Mesh1 Group1 Model

usemtl Stone
v 3 1.26 -9.24047e-014
vt 3 1.26
vn 3.08016e-014 -1.39223e-028 1
v 1.15506e-014 1.26 -0
vt 1.15506e-014 1.26
v 0 1.26334e-015 -0
vt 0 1.26334e-015
v 3 0 -9.24047e-014
vt 3 2.48614e-056
f 1/1/1 2/2/1 3/3/1 4/4/1 

v 4.62023e-014 1.26 -0.375
vt 4.62023e-014 0.375
vn 0 1 -0
vt 1.15506e-014 0
vt 3 9.24047e-014
v 3 1.26 -0.375
vt 3 0.375
f 5/5/2 2/6/2 1/7/2 6/8/2 

v 3.46517e-014 1.26334e-015 -2.25
vt -2.25 1.26334e-015
vn -1 4.16332e-015 -2.31012e-015
vt -2.66832e-029 1.26
vt -0.375 1.26
v 4.62023e-014 0.6 -0.375
vt -0.375 0.6
v 4.62023e-014 0.3 -0.375
vt -0.375 0.3
v 2.31012e-014 0.3 -1.875
vt -1.875 0.3
v 2.31012e-014 0.6 -1.875
vt -1.875 0.6
v 2.31012e-014 1.26 -1.875
vt -1.875 1.26
v 3.46517e-014 1.26 -2.25
vt -2.25 1.26
f 7/9/3 3/3/3 2/10/3 5/11/3 8/12/3 9/13/3 10/14/3 11/15/3 12/16/3 13/17/3 

v 3 1.80478e-016 -2.25
vt -3 2.25
vn -3.40903e-016 -1 -8.11451e-017
vt -3 9.24047e-014
vt 4.30678e-031 1.02514e-031
vt -3.46517e-014 2.25
f 14/18/4 4/19/4 3/20/4 7/21/4 

vt 9.62549e-014 8.65e-015
vn 1 -2.88333e-015 1.2834e-015
vt 2.25 8.83048e-015
v 3 1.26 -2.25
vt 2.25 1.26
v 3 1.26 -1.875
vt 1.875 1.26
v 3 0.6 -1.875
vt 1.875 0.6
v 3 0.3 -1.875
vt 1.875 0.3
v 3 0.3 -0.375
vt 0.375 0.3
v 3 0.6 -0.375
vt 0.375 0.6
vt 0.375 1.26
vt 9.62549e-014 1.26
f 4/22/5 14/23/5 15/24/5 16/25/5 17/26/5 18/27/5 19/28/5 20/29/5 6/30/5 1/31/5 

vt -7.79664e-014 1.26
vn -1.9251e-014 9.16713e-015 -1
vt -3 1.26
vt -3 -2.04456e-014
vt -7.79664e-014 -1.93627e-014
f 13/32/6 15/33/6 14/34/6 7/35/6 

vt 3 1.875
vt 3 2.25
vt 3.46517e-014 2.25
vt 2.31012e-014 1.875
f 16/36/2 15/37/2 13/38/2 12/39/2 

vt 5.38405e-014 0.6
vn 1.63943e-014 0 1
vt 3 0.6
vt 5.38405e-014 1.26
f 11/40/7 17/41/7 16/1/7 12/42/7 

usemtl Asphalt
f 17/36/2 11/39/2 8/5/2 20/8/2 

vn -1 9.62549e-015 1.54008e-014
f 11/15/8 10/14/8 9/13/8 8/12/8 

usemtl Stone
vt -3 0.6
vn -1.63943e-014 0 -1
vt -5.23502e-014 0.6
vt -5.23502e-014 1.26
f 20/43/9 8/44/9 5/45/9 6/33/9 

usemtl Asphalt
vn 1 -1.9251e-014 -1.54008e-014
f 20/29/10 19/28/10 18/27/10 17/26/10 

