# Alias OBJ Model File
# Exported from SketchUp, (c) 2000-2012 Trimble Navigation Limited
# File units = meters

mtllib roadTile_159.mtl

g Mesh1 Group1 Model

usemtl Grass
v 0.69291 0.55 -0.287013
vt 0.0490523 0.55
vn 0.92388 9.77424e-017 -0.382683
v 0.724444 0.55 -0.194114
vt -0.0490523 0.55
vn 0.965926 6.04239e-017 -0.258819
v 0.724444 0.455 -0.194114
vt -0.0490523 0.455
v 0.69291 0.455 -0.287013
vt 0.0490523 0.455
f 1/1/1 2/2/2 3/3/2 4/4/1 

v 0 0.55 -0
vt 6.62201e-016 8.3396e-016
vn -1.204e-015 1 1.51629e-015
v 0.75 0.55 -5.19776e-014
vt 0.75 5.28116e-014
v 0.743584 0.55 -0.0978946
vt 0.743584 0.0978946
vt 0.724444 0.194114
vt 0.69291 0.287013
v 0.649519 0.55 -0.375
vt 0.649519 0.375
v 0.595015 0.55 -0.456571
vt 0.595015 0.456571
v 0.53033 0.55 -0.53033
vt 0.53033 0.53033
v 0.456571 0.55 -0.595015
vt 0.456571 0.595015
v 0.375 0.55 -0.649519
vt 0.375 0.649519
v 0.287013 0.55 -0.69291
vt 0.287013 0.69291
v 0.194114 0.55 -0.724444
vt 0.194114 0.724444
v 0.0978946 0.55 -0.743584
vt 0.0978946 0.743584
v 5.19776e-014 0.55 -0.75
vt 5.26398e-014 0.75
f 5/5/3 6/6/3 7/7/3 2/8/3 1/9/3 8/10/3 9/11/3 10/12/3 11/13/3 12/14/3 13/15/3 14/16/3 15/17/3 16/18/3 

v 0 3.60956e-016 -0
vt 0 3.60956e-016
vn 1.06731e-013 -8.28271e-014 1
v 0.75 8.1215e-016 -1.32832e-013
vt 0.75 8.1215e-016
v 0.75 0.455 -5.19776e-014
vt 0.75 0.455
vt 0.75 0.55
vt 0 0.55
f 17/19/4 18/20/4 19/21/4 6/22/4 5/23/4 

vt -0.75 1.32832e-013
vn 5.11354e-016 -1 8.21688e-017
vt -1.84576e-031 -2.96593e-032
v 7.79664e-014 4.51195e-016 -0.75
vt -7.79664e-014 0.75
v 4.07158e-013 0 -3
vt -4.07158e-013 3
v 3 1.71454e-015 -3
vt -3 3
v 3 1.71454e-015 -1.32832e-013
vt -3 1.32832e-013
f 18/24/5 17/25/5 20/26/5 21/27/5 22/28/5 23/29/5 

v 5.19776e-014 0.455 -0.75
vt -0.75 0.455
vn -1 -2.38781e-014 -8.14809e-014
vt -0.75 4.51195e-016
vt -0.75 0.55
f 24/30/6 20/31/6 17/19/6 5/23/6 16/32/6 

usemtl Water
vn -1 -1.26929e-014 -1.54283e-013
v 4.07158e-013 0.455 -3
vt -3 0.455
vt -3 7.06874e-028
f 24/30/7 25/33/7 21/34/7 20/31/7 

v 3 0.455 -3
vt 3 3
vn 5.47907e-016 1 -5.95471e-016
vt 4.06909e-013 3
vt 5.17283e-014 0.75
v 0.0978946 0.455 -0.743584
v 0.194114 0.455 -0.724444
v 0.287013 0.455 -0.69291
v 0.375 0.455 -0.649519
v 0.456571 0.455 -0.595015
v 0.53033 0.455 -0.53033
v 0.595015 0.455 -0.456571
v 0.649519 0.455 -0.375
v 0.743584 0.455 -0.0978946
vt 0.75 5.17067e-014
v 3 0.455 -1.32832e-013
vt 3 1.32561e-013
f 26/35/8 25/36/8 24/37/8 27/17/8 28/16/8 29/15/8 30/14/8 31/13/8 32/12/8 33/11/8 34/10/8 4/9/8 3/8/8 35/7/8 19/38/8 36/39/8 

vt -4.7424e-013 -1.52315e-013
vn -2.23607e-014 5.07718e-014 -1
vt -4.7424e-013 0.455
vt -3 -1.50601e-013
f 21/40/9 25/41/9 26/33/9 22/42/9 

vt 6.81484e-013 0.455
vn 1 -1.33098e-027 1.82884e-013
vt 6.81484e-013 1.71454e-015
vt 3 1.71454e-015
vt 3 0.455
f 36/43/10 23/44/10 22/45/10 26/46/10 

vn 1.90905e-014 -8.80573e-014 1
f 19/21/11 18/20/11 23/45/11 36/46/11 

usemtl Grass
vn 0.0654031 -7.58348e-015 -0.997859
vn 0.130526 -3.65622e-015 -0.991445
f 16/1/12 15/2/13 27/3/13 24/4/12 

vn 0.258819 2.81246e-016 -0.965926
f 15/1/13 14/2/14 28/3/14 27/4/13 

vn 0.382683 2.66752e-016 -0.92388
f 14/1/14 13/2/15 29/3/15 28/4/14 

vn 0.5 2.47694e-016 -0.866025
f 13/1/15 12/2/16 30/3/16 29/4/15 

vn 0.608761 2.24398e-016 -0.793353
f 12/1/16 11/2/17 31/3/17 30/4/16 

vn 0.707107 1.97263e-016 -0.707107
f 11/1/17 10/2/18 32/3/18 31/4/17 

vn 0.793353 1.66752e-016 -0.608761
f 10/1/18 9/2/19 33/3/19 32/4/18 

vn 0.866025 1.33389e-016 -0.5
f 9/1/19 8/2/20 34/3/20 33/4/19 

f 8/1/20 1/2/1 4/3/1 34/4/20 

vn 0.991445 2.04364e-017 -0.130526
f 2/1/2 7/2/21 35/3/21 3/4/2 

vn 0.997859 -5.50841e-019 -0.0654031
f 7/1/21 6/2/22 19/3/22 35/4/21 

