# Alias OBJ Model File
# Exported from SketchUp, (c) 2000-2012 Trimble Navigation Limited
# File units = meters

mtllib roadTile_100.mtl

g Mesh1 Group1 Model

usemtl Stone
v 3 0.63 -3
vt 3 3
vn 2.39803e-016 1 -5.52733e-016
v 0.461802 0.63 -3
vt 0.461802 3
v 0.603002 0.63 -2.87617
vt 0.603002 2.87617
v 1.03125 0.63 -2.59002
vt 1.03125 2.59002
v 1.49318 0.63 -2.36222
vt 1.49318 2.36222
v 1.9809 0.63 -2.19667
vt 1.9809 2.19667
v 2.48605 0.63 -2.09619
vt 2.48605 2.09619
v 3 0.63 -2.0625
vt 3 2.0625
f 1/1/1 2/2/1 3/3/1 4/4/1 5/5/1 6/6/1 7/7/1 8/8/1 

vt -3 0.63
vn -2.05266e-014 -1.00575e-014 -1
v 3 0 -3
vt -3 3.01724e-014
v 0 3.60956e-016 -3
vt -6.15797e-014 3.05333e-014
v 0 0.63 -3
vt -6.15797e-014 0.63
v 0.178038 0.63 -3
vt -0.178038 0.63
v 0.178038 0.57 -3
vt -0.178038 0.57
v 0.461802 0.57 -3
vt -0.461802 0.57
vt -0.461802 0.63
f 1/9/2 9/10/2 10/11/2 11/12/2 12/13/2 13/14/2 14/15/2 2/16/2 

v 3 0 -4.62023e-014
vt -9.83028e-016 -8.25042e-014
vn 1 2.75014e-014 -1.57285e-014
vt 3 -8.25042e-014
vt 3 0.63
vt 2.0625 0.63
v 3 0.57 -2.0625
vt 2.0625 0.57
v 3 0.57 -1.875
vt 1.875 0.57
v 3 0.63 -1.875
vt 1.875 0.63
v 3 0.63 -1.125
vt 1.125 0.63
v 3 0.57 -1.125
vt 1.125 0.57
v 3 0.57 -0.9375
vt 0.9375 0.57
v 3 0.63 -0.9375
vt 0.9375 0.63
v 3 0.63 -6.93035e-014
vt 2.21181e-014 0.63
f 15/17/3 9/18/3 1/19/3 8/20/3 16/21/3 17/22/3 18/23/3 19/24/3 20/25/3 21/26/3 22/27/3 23/28/3 

vt -3 4.62023e-014
vn -1.20319e-016 -1 2.08441e-030
v 4.62023e-014 3.60956e-016 -0
vt -4.62023e-014 -7.52379e-046
vt 4.34297e-032 3
vt -3 3
f 15/29/4 24/30/4 10/31/4 9/32/4 

v 4.62023e-014 0.63 -2.31012e-014
vt 4.62023e-014 0.63
vn 1.54008e-014 3.66685e-014 1
vt 4.62023e-014 3.60956e-016
vt 3 -3.32399e-041
f 25/33/5 24/34/5 15/35/5 23/19/5 

vt -3 3.60956e-016
vn -1 2.82518e-015 1.71336e-014
vt 7.91613e-028 3.60956e-016
vt -2.31012e-014 0.63
v 2.31012e-014 0.63 -1.92896
vt -1.92896 0.63
v 2.31012e-014 0.57 -1.92896
vt -1.92896 0.57
v 2.31012e-014 0.57 -2.16072
vt -2.16072 0.57
v 2.31012e-014 0.63 -2.16072
vt -2.16072 0.63
f 10/36/6 24/37/6 25/38/6 26/39/6 27/40/6 28/41/6 29/42/6 11/9/6 

vt 3 6.39908e-014
vn -3.34676e-015 1 -8.43286e-015
vt 3 0.9375
v 2.33921 0.63 -0.98081
vt 2.33921 0.98081
v 1.68973 0.63 -1.11
vt 1.68973 1.11
v 1.06267 0.63 -1.32286
vt 1.06267 1.32286
v 0.46875 0.63 -1.61575
vt 0.46875 1.61575
vt 2.52096e-014 1.92896
vt 4.83108e-014 1.77885e-014
f 23/43/7 22/44/7 30/45/7 31/46/7 32/47/7 33/48/7 26/49/7 25/50/7 

usemtl Grey_Asphalt
vt -2.27005 0.63
vn 0.130526 -3.87838e-013 -0.991445
vt -2.93226 0.63
vn 0.0654031 -3.81193e-013 -0.997859
vt -2.93226 0.57
v 2.33921 0.57 -0.98081
vt -2.27005 0.57
f 30/51/8 22/52/9 21/53/9 34/54/8 

vt -5.60031e-014 2.16072
vn 1.38779e-013 1 -3.72914e-013
vt -5.60031e-014 1.92896
v 0.46875 0.57 -1.61575
v 1.06267 0.57 -1.32286
v 1.68973 0.57 -1.11
vt 3 1.125
v 2.36368 0.57 -1.16671
vt 2.36368 1.16671
v 1.73826 0.57 -1.29111
vt 1.73826 1.29111
v 1.13442 0.57 -1.49609
vt 1.13442 1.49609
v 0.5625 0.57 -1.77813
vt 0.5625 1.77813
v 0.032288 0.57 -2.1324
vt 0.032288 2.1324
f 28/55/10 27/56/10 35/48/10 36/47/10 37/46/10 34/45/10 21/44/10 20/57/10 38/58/10 39/59/10 40/60/10 41/61/10 42/62/10 

vt 1.07167 0.63
vn 0.55557 -3.87169e-013 -0.83147
vt 0.507909 0.63
vn 0.5 -3.92343e-013 -0.866025
vt 0.507909 0.57
vt 1.07167 0.57
f 26/63/11 33/64/12 35/65/12 27/66/11 

vt 0.294217 0.63
vt -0.367989 0.63
vn 0.382683 -3.97637e-013 -0.92388
vt -0.367989 0.57
vt 0.294217 0.57
f 33/67/12 32/68/13 36/69/13 35/70/12 

vt -0.58105 0.63
vt -1.24326 0.63
vn 0.258819 -3.96126e-013 -0.965926
vt -1.24326 0.57
vt -0.58105 0.57
f 32/71/13 31/72/14 37/73/14 36/74/13 

vt -1.44071 0.63
vt -2.10292 0.63
vt -2.10292 0.57
vt -1.44071 0.57
f 31/75/14 30/76/8 34/77/8 37/78/14 

vt 2.92 0.63
vn -0.0654031 3.81193e-013 0.997859
v 2.36368 0.63 -1.16671
vt 2.28232 0.63
vn -0.130526 3.87838e-013 0.991445
vt 2.28232 0.57
vt 2.92 0.57
f 19/79/15 43/80/16 38/81/16 20/82/15 

usemtl Stone
vt -1.67123e-014 3
vn 2.65275e-014 1 4.79777e-014
vt 6.38882e-015 2.16072
v 0.032288 0.63 -2.1324
v 0.5625 0.63 -1.77813
v 1.13442 0.63 -1.49609
v 1.73826 0.63 -1.29111
vt 3 1.875
v 2.46158 0.63 -1.91029
vt 2.46158 1.91029
v 1.93237 0.63 -2.01556
vt 1.93237 2.01556
v 1.42143 0.63 -2.189
vt 1.42143 2.189
v 0.9375 0.63 -2.42765
vt 0.9375 2.42765
v 0.488859 0.63 -2.72742
vt 0.488859 2.72742
vt 0.178038 3
f 11/83/17 29/84/17 44/62/17 45/61/17 46/60/17 47/59/17 43/58/17 19/57/17 18/85/17 48/86/17 49/87/17 50/88/17 51/89/17 52/90/17 12/91/17 

usemtl Grey_Asphalt
vt -1.38172 0.63
vn -0.608761 3.80337e-013 0.793353
vt -1.42466 0.63
vn -0.659346 3.71876e-013 0.75184
vt -1.42466 0.57
vt -1.38172 0.57
f 44/92/18 29/93/19 28/94/19 42/95/18 

vt -0.520172 0.63
vn -0.5 3.92343e-013 0.866025
vt -1.15785 0.63
vt -1.15785 0.57
vt -0.520172 0.57
f 45/96/20 44/97/18 42/98/18 41/99/20 

vt 0.355726 0.63
vn -0.382683 3.97637e-013 0.92388
vt -0.281954 0.63
vt -0.281954 0.57
vt 0.355726 0.57
f 46/100/21 45/101/20 41/102/20 40/103/21 

vt 1.23099 0.63
vn -0.258819 3.96126e-013 0.965926
vt 0.593313 0.63
vt 0.593313 0.57
vt 1.23099 0.57
f 47/104/22 46/105/21 40/106/21 39/107/22 

vt 2.09065 0.63
vt 1.45297 0.63
vt 1.45297 0.57
vt 2.09065 0.57
f 43/108/16 47/109/22 39/110/22 38/111/16 

vt -2.33137 0.63
vn 0.130526 5.13353e-013 -0.991445
vt -2.87095 0.63
vn 0.0654031 5.05232e-013 -0.997859
vt -2.87095 0.57
v 2.46158 0.57 -1.91029
vt -2.33137 0.57
f 48/112/23 18/113/24 17/114/24 53/115/23 

vn -1.73459e-013 1 4.94947e-013
v 0.488859 0.57 -2.72742
v 0.9375 0.57 -2.42765
v 1.42143 0.57 -2.189
v 1.93237 0.57 -2.01556
v 2.48605 0.57 -2.09619
v 1.9809 0.57 -2.19667
v 1.49318 0.57 -2.36222
v 1.03125 0.57 -2.59002
v 0.603002 0.57 -2.87617
f 14/2/25 13/91/25 54/90/25 55/89/25 56/88/25 57/87/25 53/86/25 17/85/25 16/8/25 58/7/25 59/6/25 60/5/25 61/4/25 62/3/25 

vt 1.84418 0.63
vn 0.659346 4.8649e-013 -0.75184
vt 1.43077 0.63
vn 0.608761 4.98263e-013 -0.793353
vt 1.43077 0.57
vt 1.84418 0.57
f 12/116/26 52/117/27 54/118/27 13/119/26 

vt 1.1088 0.63
vt 0.569225 0.63
vn 0.5 5.15366e-013 -0.866025
vt 0.569225 0.57
vt 1.1088 0.57
f 52/120/27 51/121/28 55/122/28 54/123/27 

vt 0.232902 0.63
vt -0.306674 0.63
vn 0.382683 5.23651e-013 -0.92388
vt -0.306674 0.57
vt 0.232902 0.57
f 51/124/28 50/125/29 56/126/29 55/127/28 

vt -0.642366 0.63
vt -1.18194 0.63
vn 0.258819 5.22976e-013 -0.965926
vt -1.18194 0.57
vt -0.642366 0.57
f 50/128/29 49/129/30 57/130/30 56/131/29 

vt -1.50203 0.63
vt -2.0416 0.63
vt -2.0416 0.57
vt -1.50203 0.57
f 49/132/30 48/133/23 53/134/23 57/135/30 

vt 2.85868 0.63
vn -0.0654031 -5.05232e-013 0.997859
vt 2.34363 0.63
vn -0.130526 -5.13353e-013 0.991445
vt 2.34363 0.57
vt 2.85868 0.57
f 8/136/31 7/137/32 58/138/32 16/139/31 

vt 2.02934 0.63
vt 1.51429 0.63
vn -0.258819 -5.22976e-013 0.965926
vt 1.51429 0.57
vt 2.02934 0.57
f 7/140/32 6/141/33 59/142/33 58/143/32 

vt 1.16968 0.63
vt 0.654629 0.63
vn -0.382683 -5.23651e-013 0.92388
vt 0.654629 0.57
vt 1.16968 0.57
f 6/144/33 5/145/34 60/146/34 59/147/33 

vt 0.294411 0.63
vt -0.220639 0.63
vn -0.5 -5.15366e-013 0.866025
vt -0.220639 0.57
vt 0.294411 0.57
f 5/148/34 4/149/35 61/150/35 60/151/34 

vt -0.581488 0.63
vt -1.09654 0.63
vn -0.608761 -4.98263e-013 0.793353
vt -1.09654 0.57
vt -0.581488 0.57
f 4/152/35 3/153/36 62/154/36 61/155/35 

vt -1.44303 0.63
vt -1.63084 0.63
vn -0.659346 -4.8649e-013 0.75184
vt -1.63084 0.57
vt -1.44303 0.57
f 3/156/36 2/157/37 14/158/37 62/159/36 

