# Alias OBJ Model File
# Exported from SketchUp, (c) 2000-2012 Trimble Navigation Limited
# File units = meters

mtllib roadTile_034.mtl

g Mesh1 Group1 Model

usemtl Asphalt
v 0 0.6 -3.58068e-013
vt -4.33284e-026 0.6
vn -1.21006e-013 5.14166e-026 1
v 0 0.3 -3.58068e-013
vt -4.33284e-026 0.3
v 3 0.3 -0
vt 3 0.3
v 3 0.6 -0
vt 3 0.6
f 1/1/1 2/2/1 3/3/1 4/4/1 

v 6.23731e-013 0.6 -3
vt -3 0.6
vn -1 -2.75014e-015 -2.08186e-013
v 6.23731e-013 0.3 -3
vt -3 0.3
vt -3.58068e-013 0.3
vt -3.58068e-013 0.6
f 5/5/2 6/6/2 2/7/2 1/8/2 

v 3 0.3 -3
vn 2.0791e-013 -1.46674e-014 -1
vt 4.50008e-024 0.3
vt 4.50008e-024 0.6
v 3 0.6 -3
f 7/6/3 6/9/3 5/10/3 8/5/3 

usemtl Stone
v 6.23731e-013 0 -3
vt -3.62087e-016 -3.80709e-014
vn 2.0779e-013 1.26903e-014 -1
vt -3.62087e-016 0.3
v 3 1.53406e-015 -3
vt -3 -3.65368e-014
f 9/11/4 6/12/4 7/6/4 10/13/4 

v 0 6.31672e-016 -3.58068e-013
vt -3.58068e-013 6.31672e-016
vn -1 2.75014e-015 -2.08186e-013
vt -3 -2.26898e-030
f 11/14/5 2/7/5 6/6/5 9/15/5 

v 3 1.6243e-015 -0
vt 3 1.6243e-015
vn -1.21006e-013 5.24184e-026 1
vt -4.33284e-026 6.31672e-016
f 12/16/6 3/3/6 2/2/6 11/17/6 

vn 1 -5.62184e-013 1.06466e-013
vt 3.19397e-013 0.3
vt 3.19397e-013 1.68817e-012
vt 3 1.68808e-012
f 7/3/7 3/18/7 12/19/7 10/20/7 

usemtl Asphalt
vn 1 -4.38189e-013 2.44443e-014
vt 7.33328e-014 0.6
vt 7.33328e-014 0.3
f 8/4/8 4/21/8 3/22/8 7/3/8 

vt -1.92998e-016 3.58e-013
vn 3.21663e-016 1 -1.13583e-016
vt 3 -6.81498e-017
vt 3 3
vt 6.23538e-013 3
f 1/23/9 4/24/9 8/25/9 5/26/9 

usemtl FrontColor
vt -118.11 118.11
vn 2.03575e-017 -1 3.16626e-017
vt -118.11 -3.73968e-016
vt -2.40443e-016 1.40968e-011
vt -2.45566e-011 118.11
f 7/27/10 3/28/10 2/29/10 6/30/10 

usemtl Stone
vt -3 3
vn 8.89377e-017 -1 9.40636e-017
vt -3 -1.2769e-031
vt -5.61795e-032 3.58068e-013
vt -6.23731e-013 3
f 10/31/11 12/32/11 11/33/11 9/34/11 

