# Alias OBJ Model File
# Exported from SketchUp, (c) 2000-2012 Trimble Navigation Limited
# File units = meters

mtllib roadTile_255.mtl

g Mesh1 Group1 Model

usemtl Stone
v 3 0.63 -1.875
vt 1.875 -2.59975
vn 0.344255 0.938876 2.18484e-014
v 3 0.63 -2.25
vt 2.25 -2.59975
v 2.31012e-014 1.73 -2.25
vt 2.25 0.595561
v 2.88765e-014 1.73 -1.875
vt 1.875 0.595561
f 1/1/1 2/2/1 3/3/1 4/4/1 

v 3 0.63 -4.62023e-014
vt 2.51447e-013 0.63
vn 1 1.36841e-013 6.8415e-014
v 3 0 -4.62023e-014
vt 2.51447e-013 -4.10523e-013
v 3 9.52923e-013 -2.25
vt 2.25 5.424e-013
vt 2.25 0.63
vt 1.875 0.63
v 3 0.6 -1.875
vt 1.875 0.6
v 3 0.3 -1.875
vt 1.875 0.3
v 3 0.3 -0.375
vt 0.375 0.3
v 3 0.6 -0.375
vt 0.375 0.6
v 3 0.63 -0.375
vt 0.375 0.63
f 5/5/2 6/6/2 7/7/2 2/8/2 1/9/2 8/10/2 9/11/2 10/12/2 11/13/2 12/14/2 

vt 3 0.63
vn 1.94039e-014 1.09177e-014 1
v 0 1.73 -0
vt 0 1.73
v 0 1.1 -0
vt 0 1.1
v 1.5 2.50864e-014 -2.31012e-014
vt 1.5 2.50864e-014
vt 3 -1.31116e-028
f 5/15/3 13/16/3 14/17/3 15/18/3 6/19/3 

v 3.46517e-014 1.73 -0.375
vt 0.375 0.595561
vn 0.344255 0.938876 7.30458e-015
vt 0 0.595561
vt 1.09858e-013 -2.59975
vt 0.375 -2.59975
f 16/20/4 13/21/4 5/22/4 12/23/4 

vt -2.25 1.73
vn -1 -1.93961e-013 -3.73173e-014
v 3.00315e-013 1.1 -2.25
vt -2.25 1.1
vt -0.375 1.73
v 3.46517e-014 1.7 -0.375
vt -0.375 1.7
v 5.77529e-014 1.4 -0.375
vt -0.375 1.4
v 2.88765e-014 1.4 -1.875
vt -1.875 1.4
v 2.88765e-014 1.7 -1.875
vt -1.875 1.7
vt -1.875 1.73
f 3/24/5 17/25/5 14/17/5 13/16/5 16/26/5 18/27/5 19/28/5 20/29/5 21/30/5 4/31/5 

vt -3 0.63
vn -1.44685e-012 -3.73595e-012 -1
vt -3 9.35881e-012
v 1.5 1.04533e-012 -2.25
vt -1.5 9.45122e-012
vt -3.55573e-012 1.1
vt -3.27852e-012 1.73
f 2/32/6 7/33/6 22/34/6 17/35/6 3/36/6 

vt -1.5 2.31012e-014
vn -3.91637e-014 -1 -4.38481e-013
vt -1.5 2.25
vt -3 2.25
vt -3 4.62023e-014
f 15/37/7 22/38/7 7/39/7 6/40/7 

vt -1.15006e-012 -1.20961
vn -0.591364 -0.806405 -4.44297e-013
vt 0 0.6505
vt -2.25 0.6505
vt -2.25 -1.20961
f 15/41/8 14/42/8 17/43/8 22/44/8 

vt -3 0.6
vn -2.06948e-014 2.17631e-026 -1
vt -4.24123e-014 1.7
vt -4.24123e-014 1.73
f 11/45/9 18/46/9 16/47/9 12/32/9 

usemtl Asphalt
vt 1.875 -2.61008
vn 0.344255 0.938876 -2.67495e-015
vt 1.875 0.585233
vt 0.375 0.585233
vt 0.375 -2.61008
f 8/48/10 21/49/10 18/50/10 11/51/10 

usemtl Stone
vt 7.94103e-014 1.7
vn 2.69514e-014 -2.17631e-026 1
vt 3 0.6
vt 7.94103e-014 1.73
f 21/52/11 8/53/11 1/15/11 4/54/11 

usemtl Asphalt
vn -1 -2.88765e-014 9.62549e-015
f 18/27/12 21/30/12 20/29/12 19/28/12 

vn 1 0 -7.70039e-015
f 8/10/13 11/13/13 10/12/13 9/11/13 

