# Alias OBJ Model File
# Exported from SketchUp, (c) 2000-2012 Trimble Navigation Limited
# File units = meters

mtllib roadTile_288.mtl

g Mesh1 Group1 Model

usemtl Stone
v 1.18889 0.63 -2.51471
vt 1.9991 0.63
vn 0.965926 -4.40138e-017 -0.258819
v 1.26773 0.63 -2.28247
vt 1.75384 0.63
vn 0.92388 -2.36717e-017 -0.382683
v 1.26773 0.6 -2.28247
vt 1.75384 0.6
v 1.18889 0.6 -2.51471
vt 1.9991 0.6
f 1/1/1 2/2/2 3/3/2 4/4/1 

v 3 0.63 -0
vt 3 -4.61404e-017
vn 1.68593e-016 1 -7.32388e-017
v 3 0.63 -1.125
vt 3 1.125
v 2.75526 0.63 -1.14104
vt 2.75526 1.14104
v 2.51471 0.63 -1.18889
vt 2.51471 1.18889
v 2.28247 0.63 -1.26773
vt 2.28247 1.26773
v 2.0625 0.63 -1.3762
vt 2.0625 1.3762
v 1.85857 0.63 -1.51246
vt 1.85857 1.51246
v 1.67417 0.63 -1.67417
vt 1.67417 1.67417
v 1.51246 0.63 -1.85857
vt 1.51246 1.85857
v 1.3762 0.63 -2.0625
vt 1.3762 2.0625
vt 1.26773 2.28247
vt 1.18889 2.51471
v 1.14104 0.63 -2.75526
vt 1.14104 2.75526
v 1.125 0.63 -3
vt 1.125 3
v 1.87697e-014 0.63 -3
vt 1.86635e-014 3
v 0 0.63 -2.31012e-014
vt -1.06213e-016 2.3055e-014
f 5/5/3 6/6/3 7/7/3 8/8/3 9/9/3 10/10/3 11/11/3 12/12/3 13/13/3 14/14/3 2/15/3 1/16/3 15/17/3 16/18/3 17/19/3 18/20/3 

v 3 0 -0
vt 1.8659e-014 0
vn 1 0 6.21967e-015
v 3 0 -3
vt 3 0
v 3 0.63 -3
vt 3 0.63
v 3 0.63 -1.875
vt 1.875 0.63
v 3 0.6 -1.875
vt 1.875 0.6
v 3 0.3 -1.875
vt 1.875 0.3
v 3 0.3 -1.125
vt 1.125 0.3
v 3 0.6 -1.125
vt 1.125 0.6
vt 1.125 0.63
vt 1.8659e-014 0.63
f 19/21/4 20/22/4 21/23/4 22/24/4 23/25/4 24/26/4 25/27/4 26/28/4 6/29/4 5/30/4 

v 1.87697e-014 0 -3
vt -1.87697e-014 3
vn 1.17384e-017 -1 -1.17384e-017
vt -3 3
vt -3 -4.1337e-034
v 0 0 -2.31012e-014
vt 0 2.31012e-014
f 27/31/5 20/32/5 19/33/5 28/34/5 

v 1.125 0.6 -3
vt -1.125 0.6
vn 6.54706e-015 -3.26934e-015 -1
v 1.125 0.3 -3
vt -1.125 0.3
v 1.875 0.3 -3
vt -1.875 0.3
v 1.875 0.6 -3
vt -1.875 0.6
v 1.875 0.63 -3
vt -1.875 0.63
vt -3 0.63
vt -3 9.80803e-015
vt 8.71493e-016 9.80803e-015
vt 8.71493e-016 0.63
vt -1.125 0.63
f 29/35/6 30/36/6 31/37/6 32/38/6 33/39/6 21/40/6 20/41/6 27/42/6 17/43/6 16/44/6 

usemtl Asphalt
vn 8.14477e-015 -4.81274e-015 -1
f 32/38/7 31/37/7 30/36/7 29/35/7 

vt 1.875 3
vn 8.21035e-017 1 1.36358e-016
v 1.14104 0.6 -2.75526
v 1.3762 0.6 -2.0625
v 1.51246 0.6 -1.85857
v 1.67417 0.6 -1.67417
v 1.85857 0.6 -1.51246
v 2.0625 0.6 -1.3762
v 2.28247 0.6 -1.26773
v 2.51471 0.6 -1.18889
v 2.75526 0.6 -1.14104
vt 3 1.875
v 2.85316 0.6 -1.88462
vt 2.85316 1.88462
v 2.70883 0.6 -1.91333
vt 2.70883 1.91333
v 2.56948 0.6 -1.96064
vt 2.56948 1.96064
v 2.4375 0.6 -2.02572
vt 2.4375 2.02572
v 2.31514 0.6 -2.10748
vt 2.31514 2.10748
v 2.2045 0.6 -2.2045
vt 2.2045 2.2045
v 2.10748 0.6 -2.31514
vt 2.10748 2.31514
v 2.02572 0.6 -2.4375
vt 2.02572 2.4375
v 1.96064 0.6 -2.56948
vt 1.96064 2.56948
v 1.91333 0.6 -2.70883
vt 1.91333 2.70883
v 1.88462 0.6 -2.85316
vt 1.88462 2.85316
f 32/45/8 29/18/8 34/17/8 4/16/8 3/15/8 35/14/8 36/13/8 37/12/8 38/11/8 39/10/8 40/9/8 41/8/8 42/7/8 26/6/8 23/46/8 43/47/8 44/48/8 45/49/8 46/50/8 47/51/8 48/52/8 49/53/8 50/54/8 51/55/8 52/56/8 53/57/8 

usemtl Stone
vt 2.92 0.63
vn 0.997859 -7.30095e-017 -0.0654031
vt 2.67474 0.63
vn 0.991445 -6.36028e-017 -0.130526
vt 2.67474 0.6
vt 2.92 0.6
f 16/58/9 15/59/10 34/60/10 29/61/9 

vt 2.47972 0.63
vt 2.23445 0.63
vt 2.23445 0.6
vt 2.47972 0.6
f 15/62/10 1/63/1 4/64/1 34/65/10 

vt 1.48638 0.63
vt 1.24112 0.63
vn 0.866025 -2.92456e-018 -0.5
vt 1.24112 0.6
vt 1.48638 0.6
f 2/66/2 14/67/11 35/68/11 3/69/2 

vt 0.950329 0.63
vt 0.705067 0.63
vn 0.793353 1.78726e-017 -0.608761
vt 0.705067 0.6
vt 0.950329 0.6
f 14/70/11 13/71/12 36/72/12 35/73/11 

vt 0.400113 0.63
vt 0.154851 0.63
vn 0.707107 3.8364e-017 -0.707107
vt 0.154851 0.6
vt 0.400113 0.6
f 13/74/12 12/75/13 37/76/13 36/77/12 

vt -0.154851 0.63
vt -0.400113 0.63
vn 0.608761 5.81989e-017 -0.793353
vt -0.400113 0.6
vt -0.154851 0.6
f 12/78/13 11/79/14 38/80/14 37/81/13 

vt -0.705067 0.63
vt -0.950329 0.63
vn 0.5 7.7038e-017 -0.866025
vt -0.950329 0.6
vt -0.705067 0.6
f 11/82/14 10/83/15 39/84/15 38/85/14 

vt -1.24112 0.63
vt -1.48638 0.63
vn 0.382683 9.4559e-017 -0.92388
vt -1.48638 0.6
vt -1.24112 0.6
f 10/86/15 9/87/16 40/88/16 39/89/15 

vt -1.75384 0.63
vt -1.9991 0.63
vn 0.258819 1.10462e-016 -0.965926
vt -1.9991 0.6
vt -1.75384 0.6
f 9/90/16 8/91/17 41/92/17 40/93/16 

vt -2.23445 0.63
vt -2.47972 0.63
vn 0.130526 1.24475e-016 -0.991445
vt -2.47972 0.6
vt -2.23445 0.6
f 8/94/17 7/95/18 42/96/18 41/97/17 

vt -2.67474 0.63
vt -2.92 0.63
vn 0.0654031 1.30697e-016 -0.997859
vt -2.92 0.6
vt -2.67474 0.6
f 7/98/18 6/99/19 26/100/19 42/101/18 

usemtl Asphalt
f 26/28/4 25/27/4 24/26/4 23/25/4 

usemtl Stone
vt 2.87095 0.63
vn -0.0654031 -1.30697e-016 0.997859
v 2.85316 0.63 -1.88462
vt 2.72379 0.63
vn -0.130526 -1.24475e-016 0.991445
vt 2.72379 0.6
vt 2.87095 0.6
f 22/102/20 54/103/21 43/104/21 23/105/20 

vt 3 3
vn -1.4073e-016 1 4.50218e-016
v 1.88462 0.63 -2.85316
v 1.91333 0.63 -2.70883
v 1.96064 0.63 -2.56948
v 2.02572 0.63 -2.4375
v 2.10748 0.63 -2.31514
v 2.2045 0.63 -2.2045
v 2.31514 0.63 -2.10748
v 2.4375 0.63 -2.02572
v 2.56948 0.63 -1.96064
v 2.70883 0.63 -1.91333
f 21/106/22 33/45/22 55/57/22 56/56/22 57/55/22 58/54/22 59/53/22 60/52/22 61/51/22 62/50/22 63/49/22 64/48/22 54/47/22 22/46/22 

vt -2.72379 0.63
vn -0.991445 6.36028e-017 0.130526
vt -2.87095 0.63
vn -0.997859 7.30095e-017 0.0654031
vt -2.87095 0.6
vt -2.72379 0.6
f 55/107/23 33/108/24 32/109/24 53/110/23 

vt -2.28351 0.63
vn -0.965926 4.40138e-017 0.258819
vt -2.43066 0.63
vt -2.43066 0.6
vt -2.28351 0.6
f 56/111/25 55/112/23 53/113/23 52/114/25 

vt -1.80289 0.63
vn -0.92388 2.36717e-017 0.382683
vt -1.95005 0.63
vt -1.95005 0.6
vt -1.80289 0.6
f 57/115/26 56/116/25 52/117/25 51/118/26 

vt -1.29017 0.63
vn -0.866025 2.92456e-018 0.5
vt -1.43733 0.63
vt -1.43733 0.6
vt -1.29017 0.6
f 58/119/27 57/120/26 51/121/26 50/122/27 

vt -0.75412 0.63
vn -0.793353 -1.78726e-017 0.608761
vt -0.901277 0.63
vt -0.901277 0.6
vt -0.75412 0.6
f 59/123/28 58/124/27 50/125/27 49/126/28 

vt -0.203903 0.63
vn -0.707107 -3.8364e-017 0.707107
vt -0.35106 0.63
vt -0.35106 0.6
vt -0.203903 0.6
f 60/127/29 59/128/28 49/129/28 48/130/29 

vt 0.35106 0.63
vn -0.608761 -5.81989e-017 0.793353
vt 0.203903 0.63
vt 0.203903 0.6
vt 0.35106 0.6
f 61/131/30 60/132/29 48/133/29 47/134/30 

vt 0.901277 0.63
vn -0.5 -7.7038e-017 0.866025
vt 0.75412 0.63
vt 0.75412 0.6
vt 0.901277 0.6
f 62/135/31 61/136/30 47/137/30 46/138/31 

vt 1.43733 0.63
vn -0.382683 -9.4559e-017 0.92388
vt 1.29017 0.63
vt 1.29017 0.6
vt 1.43733 0.6
f 63/139/32 62/140/31 46/141/31 45/142/32 

vt 1.95005 0.63
vn -0.258819 -1.10462e-016 0.965926
vt 1.80289 0.63
vt 1.80289 0.6
vt 1.95005 0.6
f 64/143/33 63/144/32 45/145/32 44/146/33 

vt 2.43066 0.63
vt 2.28351 0.63
vt 2.28351 0.6
vt 2.43066 0.6
f 54/147/21 64/148/33 44/149/33 43/150/21 

vn -1 0 -6.21967e-015
vt -3 0
vt -2.31012e-014 0
vt -2.31012e-014 0.63
f 17/40/34 27/151/34 28/152/34 18/153/34 

vt -1.43682e-028 0.63
vn -6.21967e-015 0 1
vt -1.43682e-028 0
f 18/154/35 28/155/35 19/22/35 5/23/35 

