# Alias OBJ Model File
# Exported from SketchUp, (c) 2000-2012 Trimble Navigation Limited
# File units = meters

mtllib roadTile_209.mtl

g Mesh1 Group1 Model

usemtl Stone
v 1.21281e-013 1.73 -2.25
vt -2.25 1.73
vn -1 2.60992e-014 -8.40042e-015
v 1.21281e-013 1.1 -2.25
vt -2.25 1.1
v 0 1.1 -0
vt 0 1.1
v 0 1.73 -0
vt 0 1.73
v 1.15506e-013 1.73 -0.375
vt -0.375 1.73
v 1.15506e-013 1.7 -0.375
vt -0.375 1.7
v 1.15506e-013 1.4 -0.375
vt -0.375 1.4
v 9.24047e-014 1.4 -1.875
vt -1.875 1.4
v 9.24047e-014 1.7 -1.875
vt -1.875 1.7
v 9.24047e-014 1.73 -1.875
vt -1.875 1.73
f 1/1/1 2/2/1 3/3/1 4/4/1 5/5/1 6/6/1 7/7/1 8/8/1 9/9/1 10/10/1 

v 2.37 3.19446e-014 -2.25
vt -2.37 5.8411e-014
vn -3.6428e-014 -1.17628e-014 -1
v 2.37 1.1 -2.25
vt -2.37 1.1
vt -2.03244e-013 1.1
vt -2.03244e-013 1.73
v 3 1.73 -2.25
vt -3 1.73
v 3 3.19446e-014 -2.25
vt -3 5.8411e-014
f 11/11/2 12/12/2 2/13/2 1/14/2 13/15/2 14/16/2 

vn -1 1.05005e-014 1.15506e-014
vt -2.25 5.68308e-014
v 2.37 0 -7.3635e-014
vt -4.62601e-014 2.48863e-014
v 2.37 1.1 -7.3635e-014
vt -4.62601e-014 1.1
f 12/2/3 11/17/3 15/18/3 16/19/3 

v 3 3.03203e-014 -7.50788e-014
vt -3 7.50788e-014
vn 2.41418e-014 -1 -5.43074e-015
vt -2.37 7.3635e-014
vt -2.37 2.25
vt -3 2.25
f 17/20/4 15/21/4 11/22/4 14/23/4 

vn 2.40445e-014 -1.07819e-014 1
vt 2.37 1.1
vt 2.37 -1.79511e-028
vt 3 3.03203e-014
v 3 1.73 -7.50788e-014
vt 3 1.73
f 4/4/5 3/3/5 16/24/5 15/25/5 17/26/5 18/27/5 

vt -1.14077e-013 2.25
vn -6.54899e-015 -1 -5.29402e-015
vt -2.37 7.94584e-014
vt 7.20388e-015 5.82342e-015
f 2/28/6 12/22/6 16/29/6 3/30/6 

vt 1.02873e-013 1.73
vn 1 3.69684e-015 9.26466e-015
vt 1.02873e-013 1.92298e-014
vt 2.25 2.08541e-014
vt 2.25 1.73
v 3 1.73 -1.875
vt 1.875 1.73
v 3 1.7 -1.875
vt 1.875 1.7
v 3 1.4 -1.875
vt 1.875 1.4
v 3 1.4 -0.375
vt 0.375 1.4
v 3 1.7 -0.375
vt 0.375 1.7
v 3 1.73 -0.375
vt 0.375 1.73
f 18/31/7 17/32/7 14/33/7 13/34/7 19/35/7 20/36/7 21/37/7 22/38/7 23/39/7 24/40/7 

vt 3 1.875
vn 0 1 -0
vt 3 2.25
vt 1.21281e-013 2.25
vt 9.24047e-014 1.875
f 19/41/8 13/42/8 1/43/8 10/44/8 

vt 1.23144e-013 1.7
vn 1.63943e-014 0 1
vt 3 1.7
vt 1.23144e-013 1.73
f 9/45/9 20/46/9 19/27/9 10/47/9 

usemtl Asphalt
vt 1.15506e-013 0.375
vt 3 0.375
f 20/41/8 9/44/8 6/48/8 23/49/8 

vn -1 9.62549e-015 1.54008e-014
f 9/9/10 8/8/10 7/7/10 6/6/10 

usemtl Stone
vt -3 1.7
vn -1.63943e-014 0 -1
vt -1.21654e-013 1.7
vt -1.21654e-013 1.73
f 23/50/11 6/51/11 5/52/11 24/15/11 

vt 0 0
vt 3 7.50788e-014
f 5/48/8 4/53/8 18/54/8 24/49/8 

usemtl Asphalt
vn 1 -1.9251e-014 -1.54008e-014
f 23/39/12 22/38/12 21/37/12 20/36/12 

