# Alias OBJ Model File
# Exported from SketchUp, (c) 2000-2012 Trimble Navigation Limited
# File units = meters

mtllib roadTile_216.mtl

g Mesh1 Group1 Model

usemtl Stone
v 4.47037e-008 1.65 -2.25
vt -2.25 1.65
vn -1 2.10828e-008 3.61872e-008
v 2.23519e-008 1.65 -2.625
vt -2.625 1.65
v 4.4263e-010 2.70717e-016 -2.625
vt -2.625 2.28273e-015
v 8.85266e-010 3.60956e-016 -2.25
vt -2.25 2.0962e-015
v 4.47037e-008 1.555 -2.25
vt -2.25 1.555
f 1/1/1 2/2/1 3/3/1 4/4/1 5/5/1 

v 3 0.55 -2.25
vt 2.25 -2.62729
vn 0.344255 0.938876 -2.05193e-008
v 3 0.55 -2.625
vt 2.625 -2.62729
vt 2.625 0.56802
vt 2.25 0.56802
f 6/6/2 7/7/2 2/8/2 1/9/2 

v 3 0 -2.25
vt 2.25 6.92461e-008
vn 1 -2.3082e-008 -5.23935e-008
v 3 9.02389e-017 -2.625
vt 2.625 6.92461e-008
vt 2.625 0.55
vt 2.25 0.55
v 3 0.455 -2.25
vt 2.25 0.455
f 8/10/3 9/11/3 7/12/3 6/13/3 10/14/3 

usemtl Grass
vt -4.4263e-010 2.625
vn 1.33118e-033 -1 1.20638e-033
v 0 0 -3
vt 0 3
v 3 0 -3
vt -3 3
vt -3 2.625
vt -3 2.25
v 3 0 -0.75
vt -3 0.75
v 3 9.02389e-017 -0.375
vt -3 0.375
v 3 0 -4.47037e-008
vt -3 4.47037e-008
v 4.47037e-008 0 -5.19776e-014
vt -4.47037e-008 5.19776e-014
v 4.10522e-008 1.80478e-016 -0.375
vt -4.10522e-008 0.375
v 3.74007e-008 9.02389e-017 -0.75
vt -3.74007e-008 0.75
vt -8.85266e-010 2.25
f 3/15/4 11/16/4 12/17/4 9/18/4 8/19/4 13/20/4 14/21/4 15/22/4 16/23/4 17/24/4 18/25/4 4/26/4 

vt -3 6.05345e-016
vn -1 6.63916e-009 3.03926e-008
vt -2.625 8.03332e-016
v 0 1.65 -3
vt -3 1.65
f 11/27/5 3/28/5 2/2/5 19/29/5 

vt 3 0.56802
v 3 0.55 -3
vt 3 -2.62729
f 19/30/2 2/8/2 7/7/2 20/31/2 

vt 3 0.55
vn 1 -7.19662e-009 -4.90499e-008
vt 2.625 2.15899e-008
vt 3 2.15899e-008
f 20/32/6 7/12/6 9/33/6 12/34/6 

vt -3 -8.26917e-014
vn -1.49012e-008 2.75639e-014 -1
vt -4.47037e-008 -8.26917e-014
vt -4.47037e-008 1.65
vt -3 0.55
f 12/35/7 11/36/7 19/37/7 20/38/7 

usemtl Water
vt 0.75 7.06172e-008
vn 1 -2.35391e-008 -3.41488e-009
vt 2.25 7.06172e-008
v 3 0.455 -0.75
vt 0.75 0.455
f 13/39/8 8/40/8 10/14/8 21/41/8 

vt 2.25 0.535316
vn 0.344255 0.938876 -4.6582e-015
v 4.47037e-008 1.555 -0.75
vt 0.75 0.535316
vt 0.75 -2.65999
vt 2.25 -2.65999
f 5/42/9 22/43/9 21/44/9 10/45/9 

vt -2.25 8.25682e-016
vn -1 1.64378e-008 1.21718e-008
vt -0.75 8.55081e-016
vt -0.75 1.555
f 4/46/10 18/47/10 22/48/10 5/5/10 

usemtl Stone
vt -0.75 2.31943e-016
vn -1 3.51381e-009 3.90291e-009
vt -0.375 3.2987e-016
v 4.47037e-008 1.65 -0.375
vt -0.375 1.65
v 4.47037e-008 1.65 -0.75
vt -0.75 1.65
f 18/49/11 17/50/11 23/51/11 24/52/11 22/48/11 

usemtl Grass
v 4.47037e-008 1.65 -0
vt 2.17649e-016 1.65
vn -1 1.10653e-009 4.86869e-009
vt -0.375 2.27924e-016
vt -5.176e-014 4.94661e-017
f 25/53/12 23/51/12 17/54/12 16/55/12 

v 3 0.55 -4.47037e-008
vt 4.47039e-008 -2.62729
vn 0.344255 0.938876 1.6119e-014
v 3 0.55 -0.375
vt 0.375 -2.62729
vt 0.375 0.56802
vt 2.09316e-021 0.56802
f 26/56/13 27/57/13 23/58/13 25/59/13 

vt 3.35279e-008 7.61998e-009
vn 1 -2.53999e-009 -3.72528e-009
vt 0.375 7.61998e-009
vt 0.375 0.55
vt 3.35279e-008 0.55
f 15/60/14 14/61/14 27/62/14 26/63/14 

usemtl Stone
v 3 0.55 -0.75
vt 0.75 0.55
vn 1 -8.14664e-009 -2.54517e-009
vt 0.375 2.44399e-008
vt 0.75 2.44399e-008
f 28/64/15 27/62/15 14/65/15 13/66/15 21/41/15 

vt 0.75 0.56802
vn 0.344255 0.938876 2.38725e-014
vt 0.75 -2.62729
f 24/67/16 23/58/16 27/57/16 28/68/16 

vt -5.58797e-008 1.555
vn -1.49012e-008 0 -1
vt -5.58797e-008 1.65
vt -3 0.455
f 22/69/17 24/70/17 28/38/17 21/71/17 

usemtl Grass
vt 4.47037e-008 -1.41434e-027
vn 1.49012e-008 -2.75639e-014 1
vt 3 -9.27945e-028
vt 4.47037e-008 1.65
f 16/72/18 15/73/18 26/32/18 25/74/18 

usemtl Stone
vt 3 0.455
vn 1.49012e-008 -1.13785e-021 1
vt 7.82315e-008 1.65
vt 7.82315e-008 1.555
f 10/75/19 6/32/19 1/76/19 5/77/19 

