# Alias OBJ Model File
# Exported from SketchUp, (c) 2000-2012 Trimble Navigation Limited
# File units = meters

mtllib roadTile_109.mtl

g Mesh1 Group1 Model

usemtl Stone
v 3.46517e-014 0.63 -0.375
vt 3.46517e-014 0.375
vn -5.18849e-029 1 -1.9251e-015
v 4.0427e-014 0.63 -0
vt 4.0427e-014 -1.21281e-015
v 3 0.63 -4.62023e-014
vt 3 4.49895e-014
v 3 0.63 -0.375
vt 3 0.375
f 1/1/1 2/2/1 3/3/1 4/4/1 

v 0 0 -2.25
vt -2.25 1.04674e-028
vn -1 2.78838e-015 1.66842e-014
v 4.0427e-014 7.86883e-014 -0
vt 6.74492e-028 7.86883e-014
vt 6.74492e-028 0.63
vt -0.375 0.63
v 3.46517e-014 0.6 -0.375
vt -0.375 0.6
v 4.0427e-014 0.3 -0.375
vt -0.375 0.3
v 1.15506e-014 0.3 -1.875
vt -1.875 0.3
v 1.15506e-014 0.6 -1.875
vt -1.875 0.6
v 1.15506e-014 0.63 -1.875
vt -1.875 0.63
v 5.77529e-015 0.63 -2.25
vt -2.25 0.63
f 5/5/2 6/6/2 2/7/2 1/8/2 7/9/2 8/10/2 9/11/2 10/12/2 11/13/2 12/14/2 

v 3 7.7786e-014 -2.25
vt -3 2.25
vn -1.00265e-016 -1 -9.57792e-015
v 3 0 -4.62023e-014
vt -3 4.62023e-014
vt -4.0427e-014 7.5367e-028
vt 0 2.25
f 13/15/3 14/16/3 6/17/3 5/18/3 

vt -9.24047e-015 2.12687e-028
vn 1 -7.08957e-029 -1.84809e-014
vt 2.25 7.7786e-014
v 3 0.63 -2.25
vt 2.25 0.63
v 3 0.63 -1.875
vt 1.875 0.63
v 3 0.6 -1.875
vt 1.875 0.6
v 3 0.3 -1.875
vt 1.875 0.3
v 3 0.3 -0.375
vt 0.375 0.3
v 3 0.6 -0.375
vt 0.375 0.6
vt 0.375 0.63
vt -9.24047e-015 0.63
f 14/19/4 13/20/4 15/21/4 16/22/4 17/23/4 18/24/4 19/25/4 20/26/4 4/27/4 3/28/4 

vt -4.0427e-014 0.63
vn -1.54008e-014 6.88817e-029 -1
vt -3 0.63
vt -3 7.7786e-014
vt -3.46517e-014 -1.54984e-028
f 12/29/5 15/30/5 13/31/5 5/32/5 

vt 3 1.875
vn 1.48251e-029 1 9.62549e-016
vt 3 2.25
vt 5.77529e-015 2.25
vt 1.15506e-014 1.875
f 16/33/6 15/34/6 12/35/6 11/36/6 

vt 4.30532e-014 0.63
vn 1.68014e-014 0 1
vt 4.30532e-014 0.6
vt 3 0.6
vt 3 0.63
f 11/37/7 10/38/7 17/39/7 16/40/7 

usemtl Asphalt
vn 0 1 -0
v 1.125 0.6 -1.6875
vt 1.125 1.6875
f 10/36/8 21/41/8 17/33/8

f 21/41/8 10/36/8 7/1/8

vn -1 -4.81274e-015 1.63633e-014
f 10/12/9 9/11/9 8/10/9 7/9/9 

v 1.125 0.6 -1.3125
vt 1.125 1.3125
f 7/1/8 22/42/8 21/41/8

v 1.125 0.6 -0.375
vt 1.125 0.375
f 22/42/8 7/1/8 23/43/8

usemtl Stone
vt -3 0.6
vn -1.68014e-014 0 -1
v 1.875 0.6 -0.375
vt -1.125 0.6
vt -4.09523e-014 0.6
vt -4.09523e-014 0.63
f 20/44/10 24/12/10 23/45/10 7/46/10 1/47/10 4/30/10 

usemtl Asphalt
v 1.875 0.6 -0.5625
vt 1.875 0.5625
vt 1.875 0.375
f 20/4/8 25/48/8 24/49/8

f 25/48/8 20/4/8 17/33/8

vn 1 4.81274e-015 -1.82884e-014
f 20/26/11 19/25/11 18/24/11 17/23/11 

v 1.875 0.6 -1.125
vt 1.875 1.125
f 17/33/8 26/50/8 25/48/8

v 1.875 0.6 -1.6875
vt 1.875 1.6875
f 17/33/8 27/51/8 26/50/8

f 17/33/8 21/41/8 27/51/8

usemtl White
v 1.875 0.6 -1.5
vt 1.875 1.5
v 1.125 0.6 -1.5
vt 1.125 1.5
f 28/52/8 27/51/8 21/41/8 29/53/8 

usemtl Asphalt
f 28/52/8 26/50/8 27/51/8

v 1.875 0.6 -1.3125
vt 1.875 1.3125
f 28/52/8 30/54/8 26/50/8

f 29/53/8 30/54/8 28/52/8

f 29/53/8 22/42/8 30/54/8

f 22/42/8 29/53/8 21/41/8

usemtl White
v 1.125 0.6 -1.125
vt 1.125 1.125
f 26/50/8 30/54/8 22/42/8 31/55/8 

usemtl Asphalt
v 1.125 0.6 -0.75
vt 1.125 0.75
f 32/56/8 31/55/8 22/42/8

v 1.125 0.6 -0.9375
vt 1.125 0.9375
f 31/55/8 32/56/8 33/57/8

usemtl White
v 1.875 0.6 -0.75
vt 1.875 0.75
v 1.875 0.6 -0.9375
vt 1.875 0.9375
f 34/58/8 35/59/8 33/57/8 32/56/8 

usemtl Asphalt
f 34/58/8 25/48/8 35/59/8

v 1.125 0.6 -0.5625
vt 1.125 0.5625
f 34/58/8 36/60/8 25/48/8

f 32/56/8 36/60/8 34/58/8

f 32/56/8 23/43/8 36/60/8

f 22/42/8 23/43/8 32/56/8

usemtl White
f 24/49/8 25/48/8 36/60/8 23/43/8 

usemtl Asphalt
f 35/59/8 25/48/8 26/50/8

f 31/55/8 35/59/8 26/50/8

f 31/55/8 33/57/8 35/59/8

usemtl Stone
vn 1.54008e-014 2.12892e-030 1
vt 4.0427e-014 0.63
vt 4.0427e-014 7.86883e-014
vt 3 -1.34342e-057
f 3/40/12 2/61/12 6/62/12 14/63/12 

