# Alias OBJ Model File
# Exported from SketchUp, (c) 2000-2012 Trimble Navigation Limited
# File units = meters

mtllib roadTile_236.mtl

g Mesh1 Group1 Model

usemtl Stone
v 2.34 1.26 -2.25
vt 2.34 2.25
vn 0 1 -0
v 2.34 1.26 -3
vt 2.34 3
v 6.77668e-014 1.26 -3
vt 6.77668e-014 3
v 4.97422e-014 1.26 -2.25
vt 4.97422e-014 2.25
f 1/1/1 2/2/1 3/3/1 4/4/1 

vt 2.25 -0.763675
vn 0.707107 0.707107 -8.15987e-015
v 3 0.6 -2.25
vt 2.25 -1.69706
v 3 0.6 -3
vt 3 -1.69706
vt 3 -0.763675
f 1/5/2 5/6/2 6/7/2 2/8/2 

v 4.97422e-014 0.6 -2.25
vt 9.36402e-014 0.6
vn 1.95102e-014 5.31279e-016 1
vt 3 0.6
vt 2.34 1.26
vt 9.36402e-014 1.26
f 7/9/3 5/10/3 1/11/3 4/12/3 

usemtl Asphalt
vt 3 2.25
v 6.78364e-014 0.6 -0.75
vt 6.78364e-014 0.75
v 3 0.6 -0.75
vt 3 0.75
f 5/13/1 7/4/1 8/14/1 9/15/1 

vt -2.25 0.6
vn -1 9.62549e-015 1.54008e-014
v 4.54107e-014 0.3 -2.25
vt -2.25 0.3
v 6.78364e-014 0.3 -0.75
vt -0.75 0.3
vt -0.75 0.6
f 7/16/4 10/17/4 11/18/4 8/19/4 

usemtl Stone
vt -3 1.26
vn -1 2.74907e-015 1.63933e-014
v 6.77668e-014 9.92628e-016 -3
vt -3 9.92628e-016
v 0 9.02389e-016 -0
vt 0 9.02389e-016
v 0 1.26 -0
vt 0 1.26
v 6.78364e-014 1.26 -0.75
vt -0.75 1.26
vt -2.25 1.26
f 3/20/5 12/21/5 13/22/5 14/23/5 15/24/5 8/19/5 11/18/5 10/17/5 7/16/5 4/25/5 

v 3 9.92628e-016 -3
vt -3 8.74623e-015
vn -1.8659e-014 -2.58453e-015 -1
vt -1.23744e-013 8.74623e-015
vt -1.23744e-013 1.26
vt -2.34 1.26
vt -3 0.6
f 16/26/6 12/27/6 3/28/6 2/29/6 6/30/6 

vt 5.42871e-032 1.11932e-032
vn -6.01593e-017 -1 -1.2404e-017
vt -6.77668e-014 3
vt -3 3
v 3 0 -5.19776e-014
vt -3 5.19776e-014
f 13/31/7 12/32/7 16/33/7 17/34/7 

vt 0.75 0.6
vn 1 -3.10641e-014 5.77529e-016
v 3 0.6 -5.48653e-014
vt 5.65979e-014 0.6
vt 5.37102e-014 9.31922e-014
vt 3 9.41848e-014
vt 2.25 0.6
v 3 0.3 -2.25
vt 2.25 0.3
v 3 0.3 -0.75
vt 0.75 0.3
f 9/35/8 18/36/8 17/37/8 16/38/8 6/10/8 5/39/8 19/40/8 20/41/8 

vt 0.75 -1.69706
vn 0.707107 0.707107 -1.08568e-014
v 2.34 1.26 -0.75
vt 0.75 -0.763675
v 2.34 1.26 -4.0427e-014
vt 4.49914e-015 -0.763675
vt 8.80385e-015 -1.69706
f 9/42/9 21/43/9 22/44/9 18/45/9 

vt -8.08114e-014 1.26
vn -1.73e-014 5.31279e-017 -1
vt -8.08114e-014 0.6
f 15/46/10 21/29/10 9/30/10 8/47/10 

vt 0 0
vt 2.34 4.0427e-014
vt 2.34 0.75
f 14/48/1 22/49/1 21/50/1 15/14/1 

vn 1.61438e-014 7.21718e-016 1
vt 3 2.55938e-030
f 13/22/11 17/51/11 18/10/11 22/11/11 14/23/11 

usemtl Asphalt
vn 1 -1.44382e-014 -1.63633e-014
f 9/35/12 20/41/12 19/40/12 5/39/12 

