# Alias OBJ Model File
# Exported from SketchUp, (c) 2000-2012 Trimble Navigation Limited
# File units = meters

mtllib roadTile_212.mtl

g Mesh1 Group1 Model

usemtl Stone
v 0.420952 1.01627 -2.25
vt -2.25 0.0719434
vn -0.382683 -0.92388 -1.49509e-014
v 0.55 0.952628 -2.25
vt -2.25 -0.0719434
vn -0.5 -0.866025 -1.27897e-014
v 0.55 0.952628 -8.66294e-014
vt -1.03914e-013 -0.0719434
v 0.420952 1.01627 -9.31266e-014
vt -1.06356e-013 0.0719434
f 1/1/1 2/2/2 3/3/2 4/4/1 

v 3 1.65137e-014 -2.25
vt -3 -4.14784e-014
vn -1.50424e-014 2.57743e-014 -1
v 1.1 5.54969e-014 -2.25
vt -1.1 -2.49515e-015
v 1.09059 0.143579 -2.25
vt -1.09059 0.143579
v 1.06252 0.284701 -2.25
vt -1.06252 0.284701
v 1.01627 0.420952 -2.25
vt -1.01627 0.420952
v 0.952628 0.55 -2.25
vt -0.952628 0.55
v 0.872689 0.669638 -2.25
vt -0.872689 0.669638
v 0.777817 0.777817 -2.25
vt -0.777817 0.777817
v 0.669638 0.872689 -2.25
vt -0.669638 0.872689
vt -0.55 0.952628
vt -0.420952 1.01627
v 0.284701 1.06252 -2.25
vt -0.284701 1.06252
v 0.143579 1.09059 -2.25
vt -0.143579 1.09059
v 6.93035e-014 1.1 -2.25
vt -1.03149e-013 1.1
v 6.93035e-014 1.73 -2.25
vt -1.03149e-013 1.73
v 3 1.73 -2.25
vt -3 1.73
f 5/5/3 6/6/3 7/7/3 8/8/3 9/9/3 10/10/3 11/11/3 12/12/3 13/13/3 2/14/3 1/15/3 14/16/3 15/17/3 16/18/3 17/19/3 18/20/3 

v 3 1.94014e-014 -1.61708e-013
vt -3 1.61708e-013
vn -5.15862e-015 -1 -1.00675e-014
v 1.1 0 -9.52923e-014
vt -1.1 9.52923e-014
vt -1.1 2.25
vt -3 2.25
f 19/21/4 20/22/4 6/23/4 5/24/4 

v 5.19776e-014 1.73 -0
vt 5.19776e-014 1.73
vn 2.90222e-014 -8.28208e-015 1
v 0 1.1 -6.93035e-014
vt 2.01134e-027 1.1
v 0.143579 1.09059 -1.06121e-013
vt 0.143579 1.09059
v 0.284701 1.06252 -9.09608e-014
vt 0.284701 1.06252
vt 0.420952 1.01627
vt 0.55 0.952628
v 0.669638 0.872689 -8.80732e-014
vt 0.669638 0.872689
v 0.777817 0.777817 -9.02389e-014
vt 0.777817 0.777817
v 0.872689 0.669638 -9.24047e-014
vt 0.872689 0.669638
v 0.952628 0.55 -9.31266e-014
vt 0.952628 0.55
v 1.01627 0.420952 -9.38485e-014
vt 1.01627 0.420952
v 1.06252 0.284701 -9.52923e-014
vt 1.06252 0.284701
v 1.09059 0.143579 -9.52923e-014
vt 1.09059 0.143579
vt 1.1 -5.24818e-028
vt 3 1.94014e-014
v 3 1.73 -1.61708e-013
vt 3 1.73
f 21/25/5 22/26/5 23/27/5 24/28/5 4/29/5 3/30/5 25/31/5 26/32/5 27/33/5 28/34/5 29/35/5 30/36/5 31/37/5 20/38/5 19/39/5 32/40/5 

vt -2.25 1.73
vn -1 3.21221e-014 -6.16031e-015
vt -2.25 1.1
vt -6.93035e-014 1.1
vt -3.20198e-028 1.73
v 6.35282e-014 1.73 -0.375
vt -0.375 1.73
v 6.35282e-014 1.7 -0.375
vt -0.375 1.7
v 6.35282e-014 1.4 -0.375
vt -0.375 1.4
v 5.77529e-014 1.4 -1.875
vt -1.875 1.4
v 5.77529e-014 1.7 -1.875
vt -1.875 1.7
v 5.77529e-014 1.73 -1.875
vt -1.875 1.73
f 17/41/6 16/42/6 22/43/6 21/44/6 33/45/6 34/46/6 35/47/6 36/48/6 37/49/6 38/50/6 

vn -0.0654031 -0.997859 -1.03786e-014
vn -0.130526 -0.991445 -1.40707e-014
vt -1.28905e-013 -0.0719434
vt -6.93035e-014 0.0719434
f 16/1/7 15/2/8 23/51/8 22/52/7 

vn -0.258819 -0.965926 -1.68562e-014
vt -1.16795e-013 -0.0719434
vt -1.19149e-013 0.0719434
f 15/1/8 14/2/9 24/53/9 23/54/8 

vt -1.13998e-013 -0.0719434
vt -1.05077e-013 0.0719434
f 14/1/9 1/2/1 4/55/1 24/56/9 

vt 6.48812e-014 0.375
vn -7.82071e-016 1 -6.25657e-015
vt 5.33306e-014 -1.08239e-014
vt 3 1.50884e-013
v 3 1.73 -0.375
vt 3 0.375
f 33/57/10 21/58/10 32/59/10 39/60/10 

vt 1.80189e-013 1.73
vn 1 -3.00543e-016 6.16031e-015
vt 1.80189e-013 2.0303e-014
vt 2.25 1.74154e-014
vt 2.25 1.73
v 3 1.73 -1.875
vt 1.875 1.73
v 3 1.7 -1.875
vt 1.875 1.7
v 3 1.4 -1.875
vt 1.875 1.4
v 3 1.4 -0.375
vt 0.375 1.4
v 3 1.7 -0.375
vt 0.375 1.7
vt 0.375 1.73
f 32/61/11 19/62/11 5/63/11 18/64/11 40/65/11 41/66/11 42/67/11 43/68/11 44/69/11 39/70/11 

vt 3 1.875
vn 6.01593e-017 1 4.81274e-016
vt 3 2.25
vt 6.91994e-014 2.25
vt 5.76488e-014 1.875
f 40/71/12 18/72/12 17/73/12 38/74/12 

vt 8.84922e-014 1.7
vn 1.63943e-014 0 1
vt 3 1.7
vt 8.84922e-014 1.73
f 37/75/13 41/76/13 40/40/13 38/77/13 

usemtl Asphalt
vn 0 1 -0
vt 5.77529e-014 1.875
vt 6.35282e-014 0.375
f 41/71/14 37/78/14 34/79/14 44/60/14 

vn -1 9.62549e-015 1.54008e-014
f 37/49/15 36/48/15 35/47/15 34/46/15 

usemtl Stone
vt -3 1.7
vn -1.63943e-014 0 -1
vt -6.96761e-014 1.7
vt -6.96761e-014 1.73
f 44/80/16 34/81/16 33/82/16 39/20/16 

usemtl Asphalt
vn 1 -1.9251e-014 -1.54008e-014
f 44/69/17 43/68/17 42/67/17 41/66/17 

usemtl Stone
vn -0.608761 -0.793353 -1.04096e-014
vt -1.02084e-013 -0.0719434
vt -9.81374e-014 0.0719434
f 2/1/2 13/2/18 25/83/18 3/84/2 

vn -0.707107 -0.707107 -7.8515e-015
vt -1.01033e-013 -0.0719434
vt -9.73662e-014 0.0719434
f 13/1/18 12/2/19 26/85/19 25/86/18 

vn -0.793353 -0.608761 -5.15902e-015
vt -9.99718e-014 -0.0719434
vt -9.69834e-014 0.0719434
f 12/1/19 11/2/20 27/87/20 26/88/19 

vn -0.866025 -0.5 -2.37826e-015
vt -9.74536e-014 -0.0719434
vt -9.63686e-014 0.0719434
f 11/1/20 10/2/21 28/89/21 27/90/20 

vn -0.92388 -0.382683 4.43184e-016
vt -9.49472e-014 -0.0719434
vt -9.41565e-014 0.0719434
f 10/1/21 9/2/22 29/91/22 28/92/21 

vn -0.965926 -0.258819 3.25705e-015
vt -9.32119e-014 -0.0719434
vt -9.18586e-014 0.0719434
f 9/1/22 8/2/23 30/93/23 29/94/22 

vn -0.991445 -0.130526 5.53025e-015
vt -9.01261e-014 -0.0719434
vt -9.02591e-014 0.0719434
f 8/1/23 7/2/24 31/95/24 30/96/23 

vn -0.997859 -0.0654031 6.39076e-015
vt -8.82474e-014 -0.0719434
vt -8.83077e-014 0.0719434
f 7/1/24 6/2/25 20/97/25 31/98/24 

