# Alias OBJ Model File
# Exported from SketchUp, (c) 2000-2012 Trimble Navigation Limited
# File units = meters

mtllib roadTile_054.mtl

g Mesh1 Group1 Model

usemtl Stone
v 1.14384 0.6 -1.85616
vt -2.08384 0.6
vn -0.707107 9.37181e-017 -0.707107
v 1.402 0.6 -2.08255
vt -2.4272 0.6
vn -0.608761 1.28516e-016 -0.793353
v 1.402 0.55 -2.08255
vt -2.4272 0.55
v 1.14384 0.55 -1.85616
vt -2.08384 0.55
f 1/1/1 2/2/2 3/3/2 4/4/1 

v 3 0.6 -2.25
vt 3 2.25
vn -2.1467e-017 1 3.36778e-016
v 3 0.6 -2.625
vt 3 2.625
v 2.65737 0.6 -2.60254
vt 2.65737 2.60254
v 2.3206 0.6 -2.53556
vt 2.3206 2.53556
v 1.99546 0.6 -2.42518
vt 1.99546 2.42518
v 1.6875 0.6 -2.27332
vt 1.6875 2.27332
vt 1.402 2.08255
vt 1.14384 1.85616
v 0.917447 0.6 -1.598
vt 0.917447 1.598
v 0.726683 0.6 -1.3125
vt 0.726683 1.3125
v 0.574816 0.6 -1.00454
vt 0.574816 1.00454
v 0.464445 0.6 -0.6794
vt 0.464445 0.6794
v 0.397457 0.6 -0.342631
vt 0.397457 0.342631
v 0.375 0.6 -1.11768e-008
vt 0.375 1.11768e-008
v 0.75 0.6 -0
vt 0.75 2.02067e-016
v 0.769249 0.6 -0.293684
vt 0.769249 0.293684
v 0.826667 0.6 -0.582343
vt 0.826667 0.582343
v 0.921271 0.6 -0.861038
vt 0.921271 0.861038
v 1.05144 0.6 -1.125
vt 1.05144 1.125
v 1.21495 0.6 -1.36971
vt 1.21495 1.36971
v 1.40901 0.6 -1.59099
vt 1.40901 1.59099
v 1.63029 0.6 -1.78505
vt 1.63029 1.78505
v 1.875 0.6 -1.94856
vt 1.875 1.94856
v 2.13896 0.6 -2.07873
vt 2.13896 2.07873
v 2.41766 0.6 -2.17333
vt 2.41766 2.17333
v 2.70632 0.6 -2.23075
vt 2.70632 2.23075
f 5/5/3 6/6/3 7/7/3 8/8/3 9/9/3 10/10/3 2/11/3 1/12/3 11/13/3 12/14/3 13/15/3 14/16/3 15/17/3 16/18/3 17/19/3 18/20/3 19/21/3 20/22/3 21/23/3 22/24/3 23/25/3 24/26/3 25/27/3 26/28/3 27/29/3 28/30/3 

v 3 0 -2.23535e-008
vt 2.23535e-008 -1.77871e-014
vn 1 5.92902e-015 -1.40119e-014
v 3 0 -2.625
vt 2.625 -1.77871e-014
v 3 0.55 -2.625
vt 2.625 0.55
vt 2.625 0.6
vt 2.25 0.6
v 3 0.3 -2.25
vt 2.25 0.3
v 3 0.3 -2.23535e-008
vt 2.23535e-008 0.3
f 29/31/4 30/32/4 31/33/4 6/34/4 5/35/4 32/36/4 33/37/4 

usemtl Grass
v 0 0 -3
vt 0 3
vn -1.14893e-033 -1 1.26779e-033
v 3 0 -3
vt -3 3
vt -3 2.625
vt -3 2.23535e-008
v 0.375 0 -1.67652e-008
vt -0.375 1.67652e-008
v 2.59888e-014 0 -2.23536e-008
vt -2.59888e-014 2.23536e-008
f 34/38/5 35/39/5 30/40/5 29/41/5 36/42/5 37/43/5 

v 3 0.55 -3
vt -3 0.55
vn -9.71908e-015 0 -1
vt -3 0
vt -2.91572e-014 0
v 0 0.55 -3
vt -2.91572e-014 0.55
f 38/44/6 35/45/6 34/46/6 39/47/6 

vt 3 0.55
vn 1 2.62513e-015 -3.85019e-015
vt 2.625 -7.8754e-015
vt 3 -7.8754e-015
f 38/48/7 31/33/7 30/49/7 35/50/7 

v 2.59888e-014 0.55 -2.23536e-008
vt 2.60584e-014 2.23536e-008
vn -1.26586e-016 1 2.59123e-016
v 0.375 0.55 -1.11768e-008
v 0.397457 0.55 -0.342631
v 0.464445 0.55 -0.6794
v 0.574816 0.55 -1.00454
v 0.726683 0.55 -1.3125
v 0.917447 0.55 -1.598
v 1.6875 0.55 -2.27332
v 1.99546 0.55 -2.42518
v 2.3206 0.55 -2.53556
v 2.65737 0.55 -2.60254
vt 3 3
vt 6.96221e-017 3
f 40/51/8 41/18/8 42/17/8 43/16/8 44/15/8 45/14/8 46/13/8 4/12/8 3/11/8 47/10/8 48/9/8 49/8/8 50/7/8 31/6/8 38/52/8 39/53/8 

vt 2.54891e-014 -1.13564e-016
vn -2.23535e-008 -5.08035e-009 1
vt 0.375 -1.27759e-016
vt 0.375 0.55
vt 2.54891e-014 0.55
f 37/54/9 36/55/9 41/56/9 40/57/9 

usemtl Stone
vt 0.375 0.6
vn 3.41465e-009 -1.38915e-008 1
vt 0.375 -2.15106e-016
vt 3 -1.68221e-016
vt 3 0.3
v 0.75 0.3 -5.58838e-009
vt 0.75 0.3
vt 0.75 0.6
f 16/58/10 41/56/10 36/59/10 29/60/10 33/61/10 51/62/10 17/63/10 

vt -0.0245262 0.6
vn -0.997859 -1.09367e-016 -0.0654031
vt -0.367893 0.6
vn -0.991445 -9.16803e-017 -0.130526
vt -0.367893 0.55
vt -0.0245262 0.55
f 16/64/11 15/65/12 42/66/12 41/67/11 

vt -0.413588 0.6
vt -0.756954 0.6
vn -0.965926 -5.52063e-017 -0.258819
vt -0.756954 0.55
vt -0.413588 0.55
f 15/68/12 14/69/13 43/70/13 42/71/12 

vt -0.792635 0.6
vt -1.136 0.6
vn -0.92388 -1.77878e-017 -0.382683
vt -1.136 0.55
vt -0.792635 0.55
f 14/72/13 13/73/14 44/74/14 43/75/13 

vt -1.15518 0.6
vt -1.49855 0.6
vn -0.866025 1.99352e-017 -0.5
vt -1.49855 0.55
vt -1.15518 0.55
f 13/76/14 12/77/15 45/78/15 44/79/14 

vt -1.49503 0.6
vt -1.83839 0.6
vn -0.793353 5.7317e-017 -0.608761
vt -1.83839 0.55
vt -1.49503 0.55
f 12/80/15 11/81/16 46/82/16 45/83/15 

vt -1.80635 0.6
vt -2.14972 0.6
vt -2.14972 0.55
vt -1.80635 0.55
f 11/84/16 1/85/1 4/86/1 46/87/16 

usemtl Asphalt
vn 8.69308e-009 -9.31397e-009 1
v 3 0.6 -2.23535e-008
vt 3 0.6
f 17/63/17 51/62/17 33/61/17 52/88/17 

vt 2.23535e-008 0.6
vn 1 -4.92846e-030 -1.66842e-014
f 52/89/18 33/37/18 32/36/18 5/35/18 

vt 3 2.23535e-008
vn -1.88775e-016 1 -2.93567e-018
vt 0.75 -1.7614e-018
f 52/90/19 5/5/19 28/30/19 27/29/19 26/28/19 25/27/19 24/26/19 23/25/19 22/24/19 21/23/19 20/22/19 19/21/19 18/20/19 17/91/19 

usemtl Grass
vt -3 5.74102e-044
vn -1 2.19318e-030 8.72556e-015
vt -2.23536e-008 5.69981e-044
vt -2.23536e-008 0.55
f 34/92/20 37/93/20 40/94/20 39/44/20 

usemtl Stone
vt -2.32273 0.6
vt -2.66609 0.6
vn -0.5 1.61114e-016 -0.866025
vt -2.66609 0.55
vt -2.32273 0.55
f 2/95/2 10/96/21 47/97/21 3/98/2 

vt -2.51894 0.6
vt -2.8623 0.6
vn -0.382683 1.90956e-016 -0.92388
vt -2.8623 0.55
vt -2.51894 0.55
f 10/99/21 9/100/22 48/101/22 47/102/21 

vt -2.66911 0.6
vt -3.01247 0.6
vn -0.258819 2.17531e-016 -0.965926
vt -3.01247 0.55
vt -2.66911 0.55
f 9/103/22 8/104/23 49/105/23 48/106/22 

vt -2.77067 0.6
vt -3.11404 0.6
vn -0.130526 2.40383e-016 -0.991445
vt -3.11404 0.55
vt -2.77067 0.55
f 8/107/23 7/108/24 50/109/24 49/110/23 

vt -2.82189 0.6
vt -3.16526 0.6
vn -0.0654031 2.50289e-016 -0.997859
vt -3.16526 0.55
vt -2.82189 0.55
f 7/111/24 6/112/25 31/113/25 50/114/24 

