# Alias OBJ Model File
# Exported from SketchUp, (c) 2000-2012 Trimble Navigation Limited
# File units = meters

mtllib roadTile_298.mtl

g Mesh1 Group1 Model

usemtl Stone
v 0.542447 2.28 -1.027
vt -0.552553 2.28
vn -0.793353 3.99283e-016 0.608761
v 0.351683 2.28 -1.3125
vt -0.895919 2.28
vn -0.866025 4.69062e-016 0.5
v 0.351683 1.65 -1.3125
vt -0.895919 1.65
v 0.542447 1.65 -1.027
vt -0.552553 1.65
f 1/1/1 2/2/2 3/3/2 4/4/1 

v 0.375 2.28 -2.625
vt 0.375 2.625
vn -1.05999e-015 1 1.8539e-015
v 0 2.28 -2.625
vt 2.41678e-015 2.625
v 0.0224572 2.28 -2.28237
vt 0.0224572 2.28237
v 0.0894447 2.28 -1.9456
vt 0.0894447 1.9456
v 0.199816 2.28 -1.62046
vt 0.199816 1.62046
vt 0.351683 1.3125
vt 0.542447 1.027
v 0.768845 2.28 -0.768845
vt 0.768845 0.768845
v 1.027 2.28 -0.542447
vt 1.027 0.542447
v 1.3125 2.28 -0.351683
vt 1.3125 0.351683
v 1.62046 2.28 -0.199816
vt 1.62046 0.199816
v 1.9456 2.28 -0.0894447
vt 1.9456 0.0894447
v 2.28237 2.28 -0.0224572
vt 2.28237 0.0224572
v 2.625 2.28 -2.77214e-013
vt 2.625 2.81441e-013
v 2.625 2.28 -0.375
vt 2.625 0.375
v 2.32691 2.28 -0.381827
vt 2.32691 0.381827
v 2.03263 2.28 -0.429783
vt 2.03263 0.429783
v 1.74779 2.28 -0.517946
vt 1.74779 0.517946
v 1.47787 2.28 -0.644626
vt 1.47787 0.644626
v 1.22805 2.28 -0.807391
vt 1.22805 0.807391
v 1.00312 2.28 -1.00312
vt 1.00312 1.00312
v 0.807391 2.28 -1.22805
vt 0.807391 1.22805
v 0.644626 2.28 -1.47787
vt 0.644626 1.47787
v 0.517946 2.28 -1.74779
vt 0.517946 1.74779
v 0.429783 2.28 -2.03263
vt 0.429783 2.03263
v 0.381827 2.28 -2.32691
vt 0.381827 2.32691
f 5/5/3 6/6/3 7/7/3 8/8/3 9/9/3 2/10/3 1/11/3 10/12/3 11/13/3 12/14/3 13/15/3 14/16/3 15/17/3 16/18/3 17/19/3 18/20/3 19/21/3 20/22/3 21/23/3 22/24/3 23/25/3 24/26/3 25/27/3 26/28/3 27/29/3 28/30/3 

v 2.25 1.65 -2.625
vt -2.25 1.65
vn -4.92825e-014 -5.82214e-013 -1
v 0 1.65 -2.625
vt -1.29367e-013 1.65
vt -1.29367e-013 2.28
vt -0.375 2.28
v 0.375 2.25 -2.625
vt -0.375 2.25
v 0.375 1.95 -2.625
vt -0.375 1.95
v 1.875 1.95 -2.625
vt -1.875 1.95
v 1.875 2.25 -2.625
vt -1.875 2.25
v 1.875 2.28 -2.625
vt -1.875 2.28
v 2.25 2.28 -2.625
vt -2.25 2.28
f 29/31/4 30/32/4 6/33/4 5/34/4 31/35/4 32/36/4 33/37/4 34/38/4 35/39/4 36/40/4 

vt -2.25 2.625
vn 5.02314e-015 -1 -5.76212e-015
v 0.0224572 1.65 -2.28237
vt -0.0224572 2.28237
vt -8.28818e-015 2.625
f 29/41/5 37/42/5 30/43/5

v 0.0894447 1.65 -1.9456
vt -0.0894447 1.9456
f 37/42/5 29/41/5 38/44/5

v 0.199816 1.65 -1.62046
vt -0.199816 1.62046
f 38/44/5 29/41/5 39/45/5

vt -0.351683 1.3125
f 39/45/5 29/41/5 3/46/5

v 1.25758 1.65 -1.78791
vt -1.25758 1.78791
f 3/46/5 29/41/5 40/47/5

v 1.78791 1.65 -1.25758
vt -1.78791 1.25758
f 40/47/5 29/41/5 41/48/5

v 1.9456 1.65 -0.0894447
vt -1.9456 0.0894447
f 41/48/5 29/41/5 42/49/5

v 2.28237 1.65 -0.0224572
vt -2.28237 0.0224572
f 42/49/5 29/41/5 43/50/5

v 2.25321 1.65 -2.57605
vt -2.25321 2.57605
f 43/50/5 29/41/5 44/51/5

vt 2.47222 2.28
vn 0.997859 -4.79637e-015 -0.0654031
v 2.25321 2.28 -2.57605
vt 2.42317 2.28
vn 0.991445 -4.34711e-016 -0.130526
vt 2.42317 1.65
vt 2.47222 1.65
f 36/52/6 45/53/7 44/54/7 29/55/6 

v 2.625 2.28 -1.875
vt 2.625 1.875
vn -2.53977e-015 1 1.92222e-015
v 2.625 2.28 -2.25
vt 2.625 2.25
v 2.57605 2.28 -2.25321
vt 2.57605 2.25321
v 2.52794 2.28 -2.26278
vt 2.52794 2.26278
v 2.48149 2.28 -2.27855
vt 2.48149 2.27855
v 2.4375 2.28 -2.30024
vt 2.4375 2.30024
v 2.39671 2.28 -2.32749
vt 2.39671 2.32749
v 2.35983 2.28 -2.35983
vt 2.35983 2.35983
v 2.32749 2.28 -2.39671
vt 2.32749 2.39671
v 2.30024 2.28 -2.4375
vt 2.30024 2.4375
v 2.27855 2.28 -2.48149
vt 2.27855 2.48149
v 2.26278 2.28 -2.52794
vt 2.26278 2.52794
vt 2.25321 2.57605
vt 2.25 2.625
vt 1.875 2.625
v 1.88415 2.28 -2.52814
vt 1.88415 2.52814
v 1.90537 2.28 -2.43319
vt 1.90537 2.43319
v 1.93832 2.28 -2.34165
vt 1.93832 2.34165
v 1.98248 2.28 -2.25496
vt 1.98248 2.25496
v 2.03717 2.28 -2.17449
vt 2.03717 2.17449
v 2.10151 2.28 -2.10151
vt 2.10151 2.10151
v 2.17449 2.28 -2.03717
vt 2.17449 2.03717
v 2.25496 2.28 -1.98248
vt 2.25496 1.98248
v 2.34165 2.28 -1.93832
vt 2.34165 1.93832
v 2.43319 2.28 -1.90537
vt 2.43319 1.90537
v 2.52814 2.28 -1.88415
vt 2.52814 1.88415
f 46/56/8 47/57/8 48/58/8 49/59/8 50/60/8 51/61/8 52/62/8 53/63/8 54/64/8 55/65/8 56/66/8 57/67/8 45/68/8 36/69/8 35/70/8 58/71/8 59/72/8 60/73/8 61/74/8 62/75/8 63/76/8 64/77/8 65/78/8 66/79/8 67/80/8 68/81/8 

v 2.625 1.65 -0
vt 6.06406e-015 1.65
vn 1 -2.91107e-014 2.31012e-015
v 2.625 1.65 -2.25
vt 2.25 1.65
vt 2.25 2.28
vt 1.875 2.28
v 2.625 2.25 -1.875
vt 1.875 2.25
v 2.625 1.95 -1.875
vt 1.875 1.95
v 2.625 1.95 -0.375
vt 0.375 1.95
v 2.625 2.25 -0.375
vt 0.375 2.25
vt 0.375 2.28
vt 2.83278e-013 2.28
f 69/82/9 70/83/9 47/84/9 46/85/9 71/86/9 72/87/9 73/88/9 74/89/9 17/90/9 16/91/9 

vt -2.625 9.5075e-015
v 2.57605 1.65 -2.25321
vt -2.57605 2.25321
vt -2.625 2.25
f 69/92/5 75/93/5 70/94/5

v 2.52794 1.65 -2.26278
vt -2.52794 2.26278
f 69/92/5 76/95/5 75/93/5

v 2.48149 1.65 -2.27855
vt -2.48149 2.27855
f 69/92/5 77/96/5 76/95/5

v 2.4375 1.65 -2.30024
vt -2.4375 2.30024
f 69/92/5 78/97/5 77/96/5

v 2.39671 1.65 -2.32749
vt -2.39671 2.32749
f 69/92/5 79/98/5 78/97/5

v 2.35983 1.65 -2.35983
vt -2.35983 2.35983
f 69/92/5 80/99/5 79/98/5

v 2.32749 1.65 -2.39671
vt -2.32749 2.39671
f 69/92/5 81/100/5 80/99/5

v 2.30024 1.65 -2.4375
vt -2.30024 2.4375
f 69/92/5 82/101/5 81/100/5

f 43/50/5 82/101/5 69/92/5

v 2.27855 1.65 -2.48149
vt -2.27855 2.48149
f 43/50/5 83/102/5 82/101/5

v 2.26278 1.65 -2.52794
vt -2.26278 2.52794
f 43/50/5 84/103/5 83/102/5

f 43/50/5 44/51/5 84/103/5

vt 2.08698 2.28
vt 2.03792 2.28
vn 0.965926 3.9211e-015 -0.258819
vt 2.03792 1.65
vt 2.08698 1.65
f 45/104/7 57/105/10 84/106/10 44/107/7 

vt 1.66644 2.28
vt 1.61739 2.28
vn 0.92388 3.85542e-015 -0.382683
vt 1.61739 1.65
vt 1.66644 1.65
f 57/108/10 56/109/11 83/110/11 84/111/10 

vt 1.21781 2.28
vt 1.16876 2.28
vn 0.866025 3.72378e-015 -0.5
vt 1.16876 1.65
vt 1.21781 1.65
f 56/112/11 55/113/12 82/114/12 83/115/11 

vt 0.748762 2.28
vt 0.69971 2.28
vn 0.793353 3.52841e-015 -0.608761
vt 0.69971 1.65
vt 0.748762 1.65
f 55/116/12 54/117/13 81/118/13 82/119/12 

vt 0.267323 2.28
vt 0.218271 2.28
vn 0.707107 3.27268e-015 -0.707107
vt 0.218271 1.65
vt 0.267323 1.65
f 54/120/13 53/121/14 80/122/14 81/123/13 

vt -0.218271 2.28
vt -0.267323 2.28
vn 0.608761 2.96095e-015 -0.793353
vt -0.267323 1.65
vt -0.218271 1.65
f 53/124/14 52/125/15 79/126/15 80/127/14 

vt -0.69971 2.28
vt -0.748762 2.28
vn 0.5 2.59855e-015 -0.866025
vt -0.748762 1.65
vt -0.69971 1.65
f 52/128/15 51/129/16 78/130/16 79/131/15 

vt -1.16876 2.28
vt -1.21781 2.28
vn 0.382683 2.1917e-015 -0.92388
vt -1.21781 1.65
vt -1.16876 1.65
f 51/132/16 50/133/17 77/134/17 78/135/16 

vt -1.61739 2.28
vt -1.66644 2.28
vn 0.258819 1.74734e-015 -0.965926
vt -1.66644 1.65
vt -1.61739 1.65
f 50/136/17 49/137/18 76/138/18 77/139/17 

vt -2.03792 2.28
vt -2.08698 2.28
vn 0.130526 -1.09397e-013 -0.991445
vt -2.08698 1.65
vt -2.03792 1.65
f 49/140/18 48/141/19 75/142/19 76/143/18 

vt -2.42317 2.28
vt -2.47222 2.28
vn 0.0654031 -2.1984e-013 -0.997859
vt -2.47222 1.65
vt -2.42317 1.65
f 48/144/19 47/145/20 70/146/20 75/147/19 

vt 2.61938 2.28
vn -0.0654031 2.2059e-013 0.997859
vt 2.27601 2.28
vn -0.130526 1.10497e-013 0.991445
vt 2.27601 1.65
vt 2.61938 1.65
f 16/148/21 15/149/22 43/150/22 69/151/21 

vt 2.23413 2.28
vt 1.89077 2.28
vn -0.258819 -2.46032e-017 0.965926
vt 1.89077 1.65
vt 2.23413 1.65
f 15/152/22 14/153/23 42/154/23 43/155/22 

vt 1.8136 2.28
vt 1.47023 2.28
vn -0.382683 6.54038e-017 0.92388
v 1.62046 1.65 -0.199816
vt 1.47023 1.65
vt 1.8136 1.65
f 14/156/23 13/157/24 85/158/24 42/159/23 

vt 1.36497 2.28
vt 1.0216 2.28
vn -0.5 1.54292e-016 0.866025
v 1.3125 1.65 -0.351683
vt 1.0216 1.65
vt 1.36497 1.65
f 13/160/24 12/161/25 86/162/25 85/163/24 

vt 0.895919 2.28
vt 0.552553 2.28
vn -0.608761 2.4054e-016 0.793353
v 1.027 1.65 -0.542447
vt 0.552553 1.65
vt 0.895919 1.65
f 12/164/25 11/165/26 87/166/26 86/167/25 

vt 0.41448 2.28
vt 0.0711135 2.28
vn -0.707107 3.22672e-016 0.707107
v 0.768845 1.65 -0.768845
vt 0.0711135 1.65
vt 0.41448 1.65
f 11/168/26 10/169/27 88/170/27 87/171/26 

vt -0.0711135 2.28
vt -0.41448 2.28
vt -0.41448 1.65
vt -0.0711135 1.65
f 10/172/27 1/173/1 4/174/1 88/175/27 

vt -0.542447 1.027
v 0.859835 1.65 -1.39017
vt -0.859835 1.39017
vt -0.768845 0.768845
f 4/176/5 89/177/5 88/178/5

f 3/46/5 89/177/5 4/176/5

f 3/46/5 40/47/5 89/177/5

vt -1.59099 1.65
vn -0.707107 4.59697e-015 -0.707107
vt -2.15349 1.65
v 1.25758 0 -1.78791
vt -2.15349 -1.72387e-015
v 0.859835 0 -1.39017
vt -1.59099 -1.72387e-015
f 89/179/28 40/180/28 90/181/28 91/182/28 

vt 0.375 1.65
vn 0.707107 -9.12308e-016 -0.707107
vt -0.375 1.65
v 1.78791 7.21911e-016 -1.25758
vt -0.375 2.68656e-015
vt 0.375 1.96465e-015
f 40/183/29 41/184/29 92/185/29 90/186/29 

vt 2.15349 1.65
vn 0.707107 -4.59697e-015 0.707107
v 1.39017 1.65 -0.859835
vt 1.59099 1.65
v 1.39017 1.44382e-015 -0.859835
vt 1.59099 3.16769e-015
vt 2.15349 2.44578e-015
f 41/187/30 93/188/30 94/189/30 92/190/30 

vt -1.62046 0.199816
vt -1.39017 0.859835
f 85/191/5 93/192/5 41/48/5

vt -1.3125 0.351683
f 86/193/5 93/192/5 85/191/5

vt -1.027 0.542447
f 87/194/5 93/192/5 86/193/5

f 87/194/5 89/177/5 93/192/5

f 89/177/5 87/194/5 88/178/5

vn -0.707107 9.12308e-016 0.707107
vt -0.375 1.45147e-015
vt 0.375 2.8953e-015
f 93/183/31 89/184/31 91/195/31 94/196/31 

vn -3.89565e-015 -1 -2.60545e-015
f 92/48/32 94/192/32 91/177/32 90/47/32 

f 85/191/5 41/48/5 42/49/5

v 2.52814 2.25 -1.88415
vt 2.33978 2.25
vn -0.156361 2.4995e-015 0.9877
vt 2.43707 2.25
vn -0.0940266 2.38051e-015 0.99557
vt 2.43707 2.28
vt 2.33978 2.28
f 95/197/33 71/198/34 46/199/34 68/200/33 

usemtl Asphalt
v 1.88415 2.25 -2.52814
vn -4.00666e-016 1 4.33076e-016
v 0.381827 2.25 -2.32691
v 0.429783 2.25 -2.03263
v 0.517946 2.25 -1.74779
v 0.644626 2.25 -1.47787
v 0.807391 2.25 -1.22805
v 1.00312 2.25 -1.00312
v 1.22805 2.25 -0.807391
v 1.47787 2.25 -0.644626
v 1.74779 2.25 -0.517946
v 2.03263 2.25 -0.429783
v 2.32691 2.25 -0.381827
v 2.43319 2.25 -1.90537
v 2.34165 2.25 -1.93832
v 2.25496 2.25 -1.98248
v 2.17449 2.25 -2.03717
v 2.10151 2.25 -2.10151
v 2.03717 2.25 -2.17449
v 1.98248 2.25 -2.25496
v 1.93832 2.25 -2.34165
v 1.90537 2.25 -2.43319
f 96/71/35 34/70/35 31/5/35 97/30/35 98/29/35 99/28/35 100/27/35 101/26/35 102/25/35 103/24/35 104/23/35 105/22/35 106/21/35 107/20/35 74/19/35 71/56/35 95/81/35 108/80/35 109/79/35 110/78/35 111/77/35 112/76/35 113/75/35 114/74/35 115/73/35 116/72/35 

usemtl Stone
vt -2.43707 2.25
vn -0.99557 2.38051e-015 0.0940266
vt -2.33978 2.25
vn -0.9877 2.4995e-015 0.156361
vt -2.33978 2.28
vt -2.43707 2.28
f 34/201/36 96/202/37 58/203/37 35/204/36 

vt -2.0564 2.25
vt -1.95911 2.25
vn -0.96031 2.70746e-015 0.278934
vt -1.95911 2.28
vt -2.0564 2.28
f 96/205/37 116/206/38 59/207/38 58/208/37 

vt -1.64406 2.25
vt -1.54677 2.25
vn -0.917772 2.8727e-015 0.397107
vt -1.54677 2.28
vt -1.64406 2.28
f 116/209/38 115/210/39 60/211/39 59/212/38 

vt -1.20655 2.25
vt -1.10926 2.25
vn -0.860757 2.99263e-015 0.509016
vt -1.10926 2.28
vt -1.20655 2.28
f 115/213/39 114/214/40 61/215/40 60/216/39 

vt -0.750776 2.25
vt -0.653484 2.25
vn -0.790164 3.06535e-015 0.612895
vt -0.653484 2.28
vt -0.750776 2.28
f 114/217/40 113/218/41 62/219/41 61/220/40 

vt -0.283926 2.25
vt -0.186634 2.25
vn -0.707107 3.08972e-015 0.707107
vt -0.186634 2.28
vt -0.283926 2.28
f 113/221/41 112/222/42 63/223/42 62/224/41 

vt 0.186634 2.25
vt 0.283926 2.25
vn -0.612895 3.06535e-015 0.790164
vt 0.283926 2.28
vt 0.186634 2.28
f 112/225/42 111/226/43 64/227/43 63/228/42 

vt 0.653484 2.25
vt 0.750776 2.25
vn -0.509016 2.99263e-015 0.860757
vt 0.750776 2.28
vt 0.653484 2.28
f 111/229/43 110/230/44 65/231/44 64/232/43 

vt 1.10926 2.25
vt 1.20655 2.25
vn -0.397107 2.8727e-015 0.917772
vt 1.20655 2.28
vt 1.10926 2.28
f 110/233/44 109/234/45 66/235/45 65/236/44 

vt 1.54677 2.25
vt 1.64406 2.25
vn -0.278934 2.70746e-015 0.96031
vt 1.64406 2.28
vt 1.54677 2.28
f 109/237/45 108/238/46 67/239/46 66/240/45 

vt 1.95911 2.25
vt 2.0564 2.25
vt 2.0564 2.28
vt 1.95911 2.28
f 108/241/46 95/242/33 68/243/33 67/244/46 

usemtl Asphalt
vn 1.95397e-013 -2.64701e-013 -1
f 34/38/47 33/37/47 32/36/47 31/35/47 

usemtl Stone
vt 2.31756 2.25
vn 0.995751 3.5296e-016 -0.0920874
vt 2.61572 2.25
vn 0.999738 3.30854e-016 -0.022898
vt 2.61572 2.28
vt 2.31756 2.28
f 97/245/48 31/246/49 5/247/49 28/248/48 

vt 1.93704 2.25
vn 0.973471 3.91988e-016 -0.228809
vt 2.23521 2.25
vt 2.23521 2.28
vt 1.93704 2.28
f 98/249/50 97/250/48 28/251/48 27/252/50 

vt 1.51649 2.25
vn 0.932512 4.23493e-016 -0.36114
vt 1.81466 2.25
vt 1.81466 2.28
vt 1.51649 2.28
f 99/253/51 98/254/50 27/255/50 26/256/51 

vt 1.06398 2.25
vn 0.873658 4.46872e-016 -0.486541
vt 1.36215 2.25
vt 1.36215 2.28
vt 1.06398 2.28
f 100/257/52 99/258/51 26/259/51 25/260/52 

vt 0.588193 2.25
vn 0.798039 4.61676e-016 -0.602606
vt 0.88636 2.25
vt 0.88636 2.28
vt 0.588193 2.28
f 101/261/53 100/262/52 25/263/52 24/264/53 

vt 0.0982573 2.25
vn 0.707107 4.67621e-016 -0.707107
vt 0.396424 2.25
vt 0.396424 2.28
vt 0.0982573 2.28
f 102/265/54 101/266/53 24/267/53 23/268/54 

vt -0.396424 2.25
vn 0.602606 4.64592e-016 -0.798039
vt -0.0982573 2.25
vt -0.0982573 2.28
vt -0.396424 2.28
f 103/269/55 102/270/54 23/271/54 22/272/55 

vt -0.88636 2.25
vn 0.486541 4.52649e-016 -0.873658
vt -0.588193 2.25
vt -0.588193 2.28
vt -0.88636 2.28
f 104/273/56 103/274/55 22/275/55 21/276/56 

vt -1.36215 2.25
vn 0.36114 4.32019e-016 -0.932512
vt -1.06398 2.25
vt -1.06398 2.28
vt -1.36215 2.28
f 105/277/57 104/278/56 21/279/56 20/280/57 

vt -1.81466 2.25
vn 0.228809 4.03099e-016 -0.973471
vt -1.51649 2.25
vt -1.51649 2.28
vt -1.81466 2.28
f 106/281/58 105/282/57 20/283/57 19/284/58 

vt -2.23521 2.25
vn 0.0920874 3.66445e-016 -0.995751
vt -1.93704 2.25
vt -1.93704 2.28
vt -2.23521 2.28
f 107/285/59 106/286/58 19/287/58 18/288/59 

vt -2.61572 2.25
vn 0.022898 3.45431e-016 -0.999738
vt -2.31756 2.25
vt -2.31756 2.28
vt -2.61572 2.28
f 74/289/60 107/290/59 18/291/59 17/292/60 

usemtl Asphalt
vn 1 9.62549e-015 -5.77529e-015
f 74/89/61 73/88/61 72/87/61 71/86/61 

usemtl Stone
vt -1.0216 2.28
vt -1.36497 2.28
vn -0.92388 5.30816e-016 0.382683
vt -1.36497 1.65
vt -1.0216 1.65
f 2/293/2 9/294/62 39/295/62 3/296/2 

vt -1.47023 2.28
vt -1.8136 2.28
vn -0.965926 5.83487e-016 0.258819
vt -1.8136 1.65
vt -1.47023 1.65
f 9/297/62 8/298/63 38/299/63 39/300/62 

vt -1.89077 2.28
vt -2.23413 2.28
vn -0.991445 7.51328e-015 0.130526
vt -2.23413 1.65
vt -1.89077 1.65
f 8/301/63 7/302/64 37/303/64 38/304/63 

vt -2.27601 2.28
vt -2.61938 2.28
vn -0.997859 1.43883e-014 0.0654031
vt -2.61938 1.65
vt -2.27601 1.65
f 7/305/64 6/306/65 30/307/65 37/308/64 

