# Alias OBJ Model File
# Exported from SketchUp, (c) 2000-2012 Trimble Navigation Limited
# File units = meters

mtllib roadTile_289.mtl

g Mesh1 Group1 Model

usemtl Asphalt
v 3.10422e-014 1.7 -0.75
vt -0.75 1.7
vn -1 -2.88765e-014 9.62549e-015
v 2.38231e-014 1.7 -2.25
vt -2.25 1.7
v 2.38231e-014 1.4 -2.25
vt -2.25 1.4
v 4.83681e-014 1.4 -0.75
vt -0.75 1.4
f 1/1/1 2/2/1 3/3/1 4/4/1 

v 3 0.6 -2.25
vt 2.25 -2.61008
vn 0.344255 0.938876 -2.67495e-015
vt 2.25 0.585233
vt 0.75 0.585233
v 3 0.6 -0.75
vt 0.75 -2.61008
f 5/5/2 2/6/2 1/7/2 6/8/2 

usemtl Stone
vt 8.44636e-014 1.7
vn 2.69514e-014 -2.17631e-026 1
vt 3 0.6
v 3 0.63 -2.25
vt 3 0.63
v 2.38231e-014 1.73 -2.25
vt 8.44636e-014 1.73
f 2/9/3 5/10/3 7/11/3 8/12/3 

vt 2.25 0.63
vn 1 3.73937e-030 -1.23206e-014
vt 2.25 0.6
v 3 0.3 -2.25
vt 2.25 0.3
v 3 0.3 -0.75
vt 0.75 0.3
vt 0.75 0.6
v 3 0.63 -0.75
vt 0.75 0.63
v 3 0.63 -5.77529e-014
vt 2.0791e-014 0.63
v 3 3.45615e-014 -5.77529e-014
vt 2.0791e-014 3.45615e-014
v 3 4.3044e-014 -3
vt 3 4.3044e-014
v 3 0.63 -3
f 7/13/4 5/14/4 9/15/4 10/16/4 6/17/4 11/18/4 12/19/4 13/20/4 14/21/4 15/11/4 

usemtl Asphalt
vn 1 0 -7.70039e-015
f 5/14/5 6/17/5 10/16/5 9/15/5 

usemtl Stone
vt -3 0.6
vn -2.06948e-014 2.17631e-026 -1
vt -4.65633e-014 1.7
v 3.10422e-014 1.73 -0.75
vt -4.65633e-014 1.73
vt -3 0.63
f 6/22/6 1/23/6 16/24/6 11/25/6 

vt -0.75 1.73
vn -1 9.99823e-015 1.46307e-014
vt -2.25 1.73
v 1.15506e-014 1.73 -3
vt -3 1.73
v 1.15506e-014 4.3044e-014 -3
vt -3 4.3044e-014
v 0 0 -2.31012e-014
vt -2.31012e-014 3.37927e-042
v 2.59888e-014 1.73 -0
vt 3.80235e-028 1.73
f 16/26/7 1/1/7 4/4/7 3/3/7 2/2/7 8/27/7 17/28/7 18/29/7 19/30/7 20/31/7 

vt 2.25 -2.59975
vn 0.344255 0.938876 -1.72045e-014
vt 3 -2.59975
vt 3 0.595561
vt 2.25 0.595561
f 7/32/8 15/33/8 17/34/8 8/35/8 

vn -2.40121e-014 9.43808e-015 -1
vt -3 1.47297e-014
vt -8.35868e-014 1.47297e-014
vt -8.35868e-014 1.73
f 15/25/9 14/36/9 18/37/9 17/38/9 

vt -1.15506e-014 3
vn 5.75615e-015 -1 -8.07593e-015
vt -3 3
vt -3 5.77529e-014
vt 0 2.31012e-014
f 18/39/10 14/40/10 13/41/10 19/42/10 

vt 2.59888e-014 1.73
vn 1.61426e-014 -1.10111e-014 1
vt 3.72914e-028 -2.54369e-028
vt 3 3.45615e-014
f 20/43/11 19/44/11 13/45/11 12/11/11 

vt 0.75 0.595561
vn 0.344255 0.938876 -1.18669e-014
vt -8.95866e-028 0.595561
vt -4.56608e-014 -2.59975
vt 0.75 -2.59975
f 16/46/12 20/47/12 12/48/12 11/49/12 

