# Alias OBJ Model File
# Exported from SketchUp, (c) 2000-2012 Trimble Navigation Limited
# File units = meters

mtllib roadTile_070.mtl

g Mesh1 Group1 Model

usemtl Stone
v 2.20509 0.6 -2.31474
vt -2.70045 0.6
vn -0.991445 -2.62233e-015 -0.130526
v 2.07111 0.6 -1.6412
vt -2.01372 0.6
vn -0.965926 -3.01123e-015 -0.258819
v 2.07111 0.63 -1.6412
vt -2.01372 0.63
v 2.20509 0.63 -2.31474
vt -2.70045 0.63
f 1/1/1 2/2/2 3/3/2 4/4/1 

usemtl Asphalt
v 5.77529e-014 0.6 -0
vt 5.455e-014 -2.88685e-016
vn 5.33819e-015 1 -4.81142e-016
v 1.29607 0.6 -4.62023e-014
vt 1.29607 4.59136e-014
v 1.54663 0.6 -0.375
vt 1.54663 0.375
v 1.85037 0.6 -0.990912
vt 1.85037 0.990912
vt 2.07111 1.6412
vt 2.20509 2.31474
v 2.25 0.6 -3
vt 2.25 3
v 0 0.6 -3
vt -3.20291e-015 3
f 5/5/3 6/6/3 7/7/3 8/8/3 2/9/3 1/10/3 9/11/3 10/12/3 

vt 5.77529e-014 0.6
vn 3.56481e-014 6.47416e-030 1
v 5.77529e-014 0.3 -0
vt 5.77529e-014 0.3
v 1.29607 0.3 -4.62023e-014
vt 1.29607 0.3
vt 1.29607 0.6
f 5/13/4 11/14/4 12/15/4 6/16/4 

vt -3 0.6
vn -1 -5.79062e-030 1.9251e-014
v 0 0.3 -3
vt -3 0.3
vt 1.1118e-027 0.3
vt 1.1118e-027 0.6
f 10/17/5 13/18/5 11/19/5 5/20/5 

vt -2.25 0.6
vn 7.38211e-012 7.9314e-012 -1
v 2.25 0.3 -3
vt -2.25 0.3
vt 2.21463e-011 0.3
vt 2.21463e-011 0.6
f 9/21/6 14/22/6 13/23/6 10/24/6 

usemtl Stone
v 3 0 -3
vt -3 -4.36957e-011
vn 6.71508e-013 1.45652e-011 -1
v 0 0 -3
vt 2.01452e-012 -4.36957e-011
vt 2.01452e-012 0.3
v 2.25 0.63 -3
vt -2.25 0.63
v 3 0.63 -3
vt -3 0.63
f 15/25/7 16/26/7 13/27/7 14/22/7 9/21/7 17/28/7 18/29/7 

usemtl FrontColor
vt 0 118.11
vn 0 -1 -0
vt -118.11 118.11
v 3 0 -9.24047e-014
vt -118.11 3.63798e-012
v 5.77529e-014 0 -0
vt -2.27374e-012 0
f 16/30/8 15/31/8 19/32/8 20/33/8 

usemtl Stone
vt 4.62023e-014 -8.3385e-031
vn 1 2.7795e-031 -1.54008e-014
vt 3 -8.3385e-031
vt 3 0.63
v 3 0.63 -9.24047e-014
vt 4.62023e-014 0.63
f 19/34/9 15/35/9 18/36/9 21/37/9 

vt 3 3
vn -2.18857e-015 1 -3.46668e-015
v 1.85037 0.63 -0.990912
v 1.54663 0.63 -0.375
v 1.29607 0.63 -4.62023e-014
vt 1.29607 4.40183e-014
vt 3 9.02207e-014
f 18/38/10 17/11/10 4/10/10 3/9/10 22/8/10 23/7/10 24/39/10 21/40/10 

vt -3.14073 0.6
vn -0.997859 -2.41061e-015 -0.0654031
vt -2.454 0.6
vt -2.454 0.63
vt -3.14073 0.63
f 9/41/11 1/42/1 4/43/1 17/44/11 

vt -2.21984 0.6
vt -1.53311 0.6
vn -0.92388 -3.34861e-015 -0.382683
vt -1.53311 0.63
vt -2.21984 0.63
f 2/45/2 8/46/12 22/47/12 3/48/2 

vt -1.70712 0.6
vt -1.02039 0.6
vn -0.866025 -3.62869e-015 -0.5
vt -1.02039 0.63
vt -1.70712 0.63
f 8/49/12 7/50/13 23/51/13 22/52/12 

vt -1.17106 0.6
vt -0.720056 0.6
vn -0.83147 -3.74571e-015 -0.55557
vt -0.720056 0.63
vt -1.17106 0.63
f 7/53/13 6/54/14 24/55/14 23/56/13 

vn 3.04576e-014 2.18095e-015 1
vt 5.77529e-014 -3.83632e-042
vt 3 2.25054e-030
vt 1.29607 0.63
f 11/14/15 20/57/15 19/58/15 21/36/15 24/59/15 6/16/15 12/15/15 

vt 1.1118e-027 0
vn -1 0 1.9251e-014
vt -3 0
f 20/60/16 11/19/16 13/18/16 16/61/16 

