# Alias OBJ Model File
# Exported from SketchUp, (c) 2000-2012 Trimble Navigation Limited
# File units = meters

mtllib roadTile_196.mtl

g Mesh1 Group1 Model

usemtl Water
v 3 0.455 -2.25
vt 3 2.25
vn 0 1 -0
v 7.21911e-014 0.455 -2.25
vt 7.21911e-014 2.25
v 8.80732e-014 0.455 -0.75
vt 8.80732e-014 0.75
v 3 0.455 -0.75
vt 3 0.75
f 1/1/1 2/2/1 3/3/1 4/4/1 

usemtl Grass
vt 3.35278e-008 0.455
vn 1.49012e-008 -7.15366e-016 1
vt 3 0.455
v 3 0.55 -2.25
vt 3 0.55
v 5.588e-009 1.65 -2.25
vt 3.91158e-008 1.65
f 2/5/2 1/6/2 5/7/2 6/8/2 

vt 2.25 0.55
vn 1 1.77156e-008 7.27511e-009
vt 2.25 0.455
v 3 0 -2.25
vt 2.25 -5.31468e-008
v 3 0 -3
vt 3 -5.31468e-008
v 3 0.55 -3
f 5/9/3 1/10/3 7/11/3 8/12/3 9/7/3 

usemtl Water
v 3 0 -0.75
vt 0.75 -6.44764e-008
vn 1 2.14921e-008 -4.65664e-009
vt 2.25 -6.44764e-008
vt 0.75 0.455
f 10/13/4 7/14/4 1/10/4 4/15/4 

usemtl Grass
v 2.79405e-009 1.80478e-016 -2.25
vt -2.79405e-009 2.25
vn 1.33118e-033 -1 1.20638e-033
v 0 0 -3
vt 0 3
vt -3 3
vt -3 2.25
vt -3 0.75
v 3 0 -4.47037e-008
vt -3 4.47037e-008
v 4.47037e-008 0 -5.19776e-014
vt -4.47037e-008 5.19776e-014
v 8.80732e-014 1.80478e-016 -0.75
vt -8.80732e-014 0.75
f 11/16/5 12/17/5 8/18/5 7/19/5 10/20/5 13/21/5 14/22/5 15/23/5 

vt -3 1.39561e-017
vn -1 1.18659e-009 3.92051e-009
vt -2.25 1.9426e-016
vt -2.25 0.455
vt -2.25 1.65
v 0 1.65 -3
vt -3 1.65
f 12/24/6 11/25/6 2/26/6 6/27/6 16/28/6 

usemtl Water
vt -2.25 1.78333e-016
vn -1 -3.0703e-009 -9.31314e-010
vt -0.75 1.82622e-016
vt -0.75 0.455
f 11/29/7 15/30/7 3/31/7 2/26/7 

usemtl Grass
v 2.70085e-008 1.65 -0.75
vt -0.75 1.65
vn -1 9.10274e-009 4.61042e-008
vt -0.75 4.95234e-016
vt -4.99166e-014 4.06926e-016
v 4.47037e-008 1.65 -0
vt 2.06103e-015 1.65
f 17/32/8 3/31/8 15/33/8 14/34/8 18/35/8 

vt -3 0.455
vn -1.49012e-008 -1.02408e-015 -1
vt -1.1176e-008 0.455
vt -3.81844e-008 1.65
v 3 0.55 -0.75
vt -3 0.55
f 4/36/9 3/37/9 17/38/9 19/39/9 

v 3 0.55 -4.47037e-008
vt -8.00939e-008 -2.62729
vn 0.344255 0.938876 -1.43207e-008
vt 0.75 -2.62729
vt 0.75 0.56802
vt -1.85964e-015 0.56802
f 20/40/10 19/41/10 17/42/10 18/43/10 

vt -1.076e-007 -5.1983e-008
vn 1 1.73277e-008 -5.0768e-008
vt 0.75 -5.1983e-008
vt 0.75 0.55
vt -1.076e-007 0.55
f 13/44/11 10/45/11 4/15/11 19/46/11 20/47/11 

vt 4.47037e-008 -1.41434e-027
vn 1.49012e-008 -2.75639e-014 1
vt 3 -1.00754e-027
vt 4.47037e-008 1.65
f 14/48/12 13/49/12 20/7/12 18/50/12 

vt 3 0.56802
vn 0.344255 0.938876 3.84735e-009
vt 2.25 0.56802
vt 2.25 -2.62729
vt 3 -2.62729
f 16/51/13 6/52/13 5/53/13 9/54/13 

vt -3 -8.26917e-014
vn -1.49012e-008 2.75639e-014 -1
vt -4.47037e-008 -8.26917e-014
vt -4.47037e-008 1.65
f 8/55/14 12/56/14 16/57/14 9/39/14 

