# Alias OBJ Model File
# Exported from SketchUp, (c) 2000-2012 Trimble Navigation Limited
# File units = meters

mtllib roadTile_003.mtl

g Mesh1 Group1 Model

usemtl Stone
v 4.0427e-014 1.73 -0
vt 4.0427e-014 1.73
vn 1.87571e-014 -6.63175e-015 1
v 4.62023e-014 0 -1.15506e-014
vt 4.62023e-014 -7.66006e-029
v 3 0 -6.93035e-014
vt 3 -8.64271e-029
v 3 0.63 -6.93035e-014
vt 3 0.63
f 1/1/1 2/2/1 3/3/1 4/4/1 

v 5.77529e-015 0 -3
vt -3 -2.10872e-028
vn -1 -4.1729e-015 1.49195e-014
vt -1.15506e-014 -1.92798e-028
vt 6.03151e-028 1.73
v 0 1.73 -3
vt -3 1.73
f 5/5/2 2/6/2 1/7/2 6/8/2 

vt -3 6.93035e-014
vn 1.20638e-033 -1 -1.33118e-033
vt -4.62023e-014 1.15506e-014
vt -5.77529e-015 3
v 3 0 -3
vt -3 3
f 3/9/3 2/10/3 5/11/3 7/12/3 

v 3 0.63 -3
vt -3 0.63
vn -1.73132e-014 6.63175e-015 -1
vt -3 -1.98953e-014
vt -5.7715e-014 -1.98953e-014
vt -5.19397e-014 1.73
f 8/13/4 7/14/4 5/15/4 6/16/4 

vt 2.31012e-014 -6.26623e-030
vn 1 2.08874e-030 -1.54008e-014
vt 3 -6.26623e-030
vt 2.31012e-014 0.63
f 3/17/5 7/18/5 8/4/5 4/19/5 

vt 3 0.595561
vn 0.344255 0.938876 -5.14279e-015
vt -6.02654e-028 0.595561
vt 2.44867e-014 -2.59975
vt 3 -2.59975
f 6/20/6 1/21/6 4/22/6 8/23/6 

