# Alias OBJ Model File
# Exported from SketchUp, (c) 2000-2012 Trimble Navigation Limited
# File units = meters

mtllib roadTile_097.mtl

g Mesh1 Group1 Model

usemtl Stone
v 0 0.63 -3
vt -1.11099e-016 3
vn 1.76348e-016 1 -5.88147e-017
v 4.62023e-014 0.63 -0.461802
vt 4.60912e-014 0.461802
v 0.215767 0.63 -0.215767
vt 0.215767 0.215767
v 0.461802 0.63 -0
vt 0.461802 -3.70533e-017
v 3 0.63 -6.93035e-014
vt 3 6.92664e-014
v 3 0.63 -3
vt 3 3
f 1/1/1 2/2/1 3/3/1 4/4/1 5/5/1 6/6/1 

v 0 0 -3
vt -3 9.60443e-029
vn -1 1.81511e-015 1.76379e-014
v 4.62023e-014 3.60956e-016 -0
vt 8.14912e-028 3.60956e-016
v 4.62023e-014 0.63 -0
vt 8.14912e-028 0.63
v 4.62023e-014 0.63 -0.178038
vt -0.178038 0.63
v 4.62023e-014 0.57 -0.178038
vt -0.178038 0.57
v 4.62023e-014 0.57 -0.461802
vt -0.461802 0.57
vt -0.461802 0.63
vt -3 0.63
f 7/7/2 8/8/2 9/9/2 10/10/2 11/11/2 12/12/2 2/13/2 1/14/2 

v 3 0 -4.62023e-014
vt -3 4.62023e-014
vn -6.01593e-017 -1 6.01593e-017
vt -4.62023e-014 -2.17148e-032
vt 0 3
v 3 0 -3
vt -3 3
f 13/15/3 8/16/3 7/17/3 14/18/3 

vt 3 -1.54657e-028
vn 2.05266e-014 1.00575e-014 1
vt 3 0.63
vt 0.461802 0.63
v 0.461802 0.57 -6.93035e-014
vt 0.461802 0.57
v 0.178038 0.57 -6.93035e-014
vt 0.178038 0.57
v 0.178038 0.63 -0
vt 0.178038 0.63
vt 4.62023e-014 0.63
vt 4.62023e-014 3.60956e-016
f 13/19/4 5/20/4 4/21/4 15/22/4 16/23/4 17/24/4 9/25/4 8/26/4 

vt -5.77529e-015 9.50929e-028
vn 1 -3.16976e-028 -1.73259e-014
vt 3 9.50929e-028
vt 1.73259e-014 0.63
f 13/27/5 14/28/5 6/20/5 5/29/5 

vn -1.54008e-014 -1.75916e-030 -1
vt -3 5.27748e-030
vt -4.62023e-014 5.27748e-030
vt -4.62023e-014 0.63
f 6/14/6 14/30/6 7/31/6 1/32/6 

usemtl Grey_Asphalt
vt 0.347201 0.63
vn -0.659346 -5.41925e-013 0.75184
vt 0.0199572 0.63
vn -0.707107 -5.42927e-013 0.707107
v 0.215767 0.57 -0.215767
vt 0.0199572 0.57
vt 0.347201 0.57
f 4/33/7 3/34/8 18/35/8 15/36/7 

vt -0.0199572 0.63
vt -0.347201 0.63
vn -0.75184 -5.41603e-013 0.659346
vt -0.347201 0.57
vt -0.0199572 0.57
f 3/37/8 2/38/9 12/39/9 18/40/8 

vt 2.64039e-013 0.461802
vn -3.82169e-013 1 3.85645e-013
vt 2.64039e-013 0.178038
v 0.0831845 0.57 -0.0831845
vt 0.0831845 0.0831845
vt 0.178038 2.89121e-013
vt 0.461802 2.89121e-013
f 12/41/10 11/42/10 19/43/10 16/44/10 15/45/10 18/3/10 

vt 0.133856 0.63
vn 0.75184 5.41603e-013 -0.659346
v 0.0831845 0.63 -0.0831845
vt 0.00769406 0.63
vn 0.707107 5.42927e-013 -0.707107
vt 0.00769406 0.57
vt 0.133856 0.57
f 10/46/11 20/47/12 19/48/12 11/49/11 

usemtl Stone
vt -3.25309e-013 -3.54587e-013
vn 5.897e-013 1 -5.62837e-013
vt 0.178038 -3.54587e-013
vt -3.25309e-013 0.178038
f 9/50/13 17/51/13 20/43/13 10/52/13 

usemtl Grey_Asphalt
vt -0.00769406 0.63
vt -0.133856 0.63
vn 0.659346 5.41925e-013 -0.75184
vt -0.133856 0.57
vt -0.00769406 0.57
f 20/53/12 17/54/14 16/55/14 19/56/12 

