# Alias OBJ Model File
# Exported from SketchUp, (c) 2000-2012 Trimble Navigation Limited
# File units = meters

mtllib roadTile_224.mtl

g Mesh1 Group1 Model

usemtl Stone
v 6.6558e-008 0 -2.31012e-014
vt -6.6558e-008 2.31012e-014
vn 1.33118e-033 -1 1.20638e-033
v 2.18543e-008 0 -3
vt -2.18543e-008 3
v 3 0 -3
vt -3 3
v 3 0 -4.47037e-008
vt -3 4.47037e-008
f 1/1/1 2/2/1 3/3/1 4/4/1 

vt -2.21204e-014 -6.762e-016
vn -1 -1.01596e-008 1.47357e-008
v 5.3356e-008 0.3 -0.75
vt -0.75 0.3
vt -3 -6.71154e-016
f 1/5/2 5/6/2 2/7/2

v 5.4505e-008 1.73647 -0.75
vt -0.75 1.73647
f 5/6/2 1/5/2 6/8/2

v 4.37103e-008 2.2 -0
vt 6.44101e-016 2.2
f 7/9/2 6/8/2 1/5/2

v 0 2.2 -3
vt -3 2.2
f 6/8/2 7/9/2 8/10/2

v 3 1.65 -4.47037e-008
vt 1.20762e-008 -2.65328
vn 0.180328 0.983607 -1.96121e-009
v 3 1.65 -3
vt 3 -2.65328
vt 3 0.396721
vt -4.75386e-016 0.396721
f 9/11/3 10/12/3 8/13/3 7/14/3 

vt 2.16813e-008 1.65
vn 1 5.56341e-009 -7.67413e-009
v 3 1.275 -0.75
vt 0.75 1.275
vt 3 1.65
f 9/15/4 11/16/4 10/17/4

vt 2.16813e-008 -1.66902e-008
f 11/16/4 9/15/4 4/18/4

vt 4.37103e-008 2.2
vn 1.49012e-008 -1.41272e-014 1
vt 6.6558e-008 -3.12343e-028
vt 3 -4.49456e-028
f 7/19/5 1/20/5 4/21/5 9/17/5 

v 3 0.6 -0.75
vt 0.75 0.6
f 11/16/4 4/18/4 12/22/4

v 3 0.3 -0.75
vt 0.75 0.3
f 12/22/4 4/18/4 13/23/4

vt 3 -1.66902e-008
f 3/24/4 13/23/4 4/18/4

v 3 0.3 -2.25
vt 2.25 0.3
f 13/23/4 3/24/4 14/25/4

v 3 0.6 -2.25
vt 2.25 0.6
f 14/25/4 3/24/4 15/26/4

v 3 1.275 -2.25
vt 2.25 1.275
f 15/26/4 3/24/4 16/27/4

f 10/17/4 16/27/4 3/24/4

f 10/17/4 11/16/4 16/27/4

vt -2.25 -2.77128
vn -0.152037 -0.988375 6.18976e-010
vt -0.75 -2.77128
vt -0.75 0.264008
v 4.83982e-008 1.73647 -2.25
vt -2.25 0.264008
f 16/28/6 11/29/6 6/30/6 17/31/6 

vt -3 1.275
vn -2.03563e-009 -4.45625e-015 -1
vt -3 0.6
v 5.3356e-008 0.6 -0.75
vt -5.48827e-008 0.6
vt -5.60317e-008 1.73647
f 11/32/7 12/33/7 18/34/7 6/35/7 

usemtl Asphalt
vt 3 0.75
vn 4.12446e-009 1 -6.35198e-023
vt 3 2.25
v 5.3356e-008 0.6 -2.25
vt 5.08813e-008 2.25
vt 5.08813e-008 0.75
f 12/36/8 15/37/8 19/38/8 18/39/8 

vn 1 -3.7253e-008 -7.45063e-009
f 15/26/9 12/22/9 13/23/9 14/25/9 

usemtl Stone
vt 3 0.6
vn 2.03563e-009 6.7764e-018 1
vt 3 1.275
vt 5.29783e-008 1.73647
vt 5.79361e-008 0.6
f 15/40/10 16/41/10 17/42/10 19/43/10 

vt -2.25 1.73647
vt -2.25 0.6
f 17/44/2 8/10/2 19/45/2

f 6/8/2 8/10/2 17/44/2

v 3.10041e-008 0.3 -2.25
vt -2.25 0.3
f 19/45/2 8/10/2 20/46/2

f 2/7/2 20/46/2 8/10/2

f 2/7/2 5/6/2 20/46/2

usemtl Asphalt
vt -0.75 0.6
vn -1 3.7253e-008 7.45062e-009
f 18/47/11 19/45/11 20/46/11 5/6/11 

usemtl Stone
f 5/6/2 6/8/2 18/47/2

vt -6.65581e-008 -2.98756e-014
vn -1.49012e-008 9.95852e-015 -1
vt -4.47037e-008 2.2
vt -3 1.65
vt -3 -2.98756e-014
f 2/48/12 8/49/12 10/50/12 3/51/12 

