# Alias OBJ Model File
# Exported from SketchUp, (c) 2000-2012 Trimble Navigation Limited
# File units = meters

mtllib roadTile_125.mtl

g Mesh1 Group1 Model

usemtl Stone
v 2.625 2.16573e-015 -2.625
vt -2.625 2.625
vn 7.15084e-016 -1 1.19693e-016
v 2.625 2.16573e-015 -0
vt -2.625 -3.45481e-032
v 0 7.21911e-016 -5.31327e-013
vt -5.16227e-031 5.31327e-013
v 5.31327e-013 0 -2.625
vt -5.31327e-013 2.625
f 1/1/1 2/2/1 3/3/1 4/4/1 

v 2.625 1.73 -0.375
vt 0.375 1.73
vn 1 -8.94135e-014 4.75242e-014
v 2.625 1.73 -0
vt 1.24751e-013 1.73
vt 1.24751e-013 2.36876e-013
vt 2.625 2.36876e-013
v 2.625 0.3 -2.625
vt 2.625 0.3
v 2.625 0.3 -0.375
vt 0.375 0.3
v 2.625 0.6 -0.375
vt 0.375 0.6
f 5/5/2 6/6/2 2/7/2 1/8/2 7/9/2 8/10/2 9/11/2 

v 0.375 1.73 -2.625
vt 0.375 2.625
vn -8.16862e-017 1 2.96844e-016
v 5.31327e-013 1.73 -2.625
vt 5.31468e-013 2.625
v 0 1.73 -5.31327e-013
vt 1.41317e-016 5.3184e-013
vt 2.625 5.1354e-016
vt 2.625 0.375
v 0.375 1.73 -0.375
vt 0.375 0.375
f 10/12/3 11/13/3 12/14/3 6/15/3 5/16/3 13/17/3 

vt -2.625 6.79398e-015
vn 2.07576e-013 -1.76314e-015 -1
vt 1.35604e-014 4.62825e-015
vt 1.35604e-014 1.73
vt -0.375 1.73
v 0.375 0.6 -2.625
vt -0.375 0.6
v 0.375 0.3 -2.625
vt -0.375 0.3
vt -2.625 0.3
f 1/18/4 4/19/4 11/20/4 10/21/4 14/22/4 15/23/4 7/24/4 

vt -5.31327e-013 1.73
vn -1 -2.78609e-030 -2.0681e-013
vt -2.625 1.73
vt -2.625 3.2181e-044
vt -5.31327e-013 7.21911e-016
f 12/25/5 11/26/5 4/27/5 3/28/5 

vt 2.625 1.73
vn -2.0241e-013 1.08155e-026 1
vt -1.07546e-025 1.73
vt -1.07546e-025 7.21911e-016
vt 2.625 2.16573e-015
f 6/29/6 12/30/6 3/31/6 2/32/6 

vn 1 1.75726e-028 2.08525e-013
v 0.375 0.6 -0.375
vt 2.625 0.6
f 13/5/7 16/11/7 14/33/7 10/29/7 

vt -2.625 0.6
vn -1.09357e-014 0 -1
f 9/34/8 16/22/8 13/21/8 5/26/8 

usemtl Asphalt
v 2.625 0.6 -2.625
vt 2.625 2.625
vn 1.80117e-016 1 -1.76027e-016
f 17/35/9 14/12/9 16/17/9 9/16/9 

vn 2.0791e-013 -1.9251e-014 -1
f 17/34/10 7/24/10 15/23/10 14/22/10 

vn 1 -2.02135e-013 1.41174e-014
f 9/11/11 8/10/11 7/9/11 17/33/11 

