# Alias OBJ Model File
# Exported from SketchUp, (c) 2000-2012 Trimble Navigation Limited
# File units = meters

mtllib roadTile_299.mtl

g Mesh1 Group1 Model

usemtl Stone
v 2.4375 7.21911e-016 -0
vt 1.57423e-014 -4.5795e-015
vn 1 2.17494e-015 6.45839e-015
v 2.4375 7.21911e-016 -1.875
vt 1.875 -4.5795e-015
v 2.4375 0.63 -1.875
vt 1.875 0.63
v 2.4375 0.63 -1.3125
vt 1.3125 0.63
v 2.4375 0.6 -1.3125
vt 1.3125 0.6
v 2.4375 0.3 -1.3125
vt 1.3125 0.3
v 2.4375 0.3 -0.5625
vt 0.5625 0.3
v 2.4375 0.6 -0.5625
vt 0.5625 0.6
v 2.4375 0.63 -0.5625
vt 0.5625 0.63
v 2.4375 0.63 -0
vt 1.57423e-014 0.63
f 1/1/1 2/2/1 3/3/1 4/4/1 5/5/1 6/6/1 7/7/1 8/8/1 9/9/1 10/10/1 

v 0 0 -2.4375
vt 0 2.4375
vn 5.9184e-016 -1 -5.61062e-016
v 1.875 7.21911e-016 -2.4375
vt -1.875 2.4375
v 1.87981 4.33147e-015 -2.36408
vt -1.87981 2.36408
v 1.89417 4.33147e-015 -2.29191
vt -1.89417 2.29191
v 1.91782 2.88765e-015 -2.22224
vt -1.91782 2.22224
v 1.95036 2.88765e-015 -2.15625
vt -1.95036 2.15625
v 1.99124 2.88765e-015 -2.09507
vt -1.99124 2.09507
v 2.03975 2.88765e-015 -2.03975
vt -2.03975 2.03975
v 2.09507 2.88765e-015 -1.99124
vt -2.09507 1.99124
v 2.15625 2.88765e-015 -1.95036
vt -2.15625 1.95036
v 2.22224 2.88765e-015 -1.91782
vt -2.22224 1.91782
v 2.29191 2.88765e-015 -1.89417
vt -2.29191 1.89417
v 2.36408 2.88765e-015 -1.87981
vt -2.36408 1.87981
vt -2.4375 1.875
vt -2.4375 -4.04356e-031
v 2.11934 0 -0.0208532
vt -2.11934 0.0208532
v 1.80663 0 -0.0830558
vt -1.80663 0.0830558
v 1.50471 0 -0.185544
vt -1.50471 0.185544
v 1.21875 0 -0.326563
vt -1.21875 0.326563
v 0.953644 0 -0.503701
vt -0.953644 0.503701
v 0.713927 0 -0.713927
vt -0.713927 0.713927
v 0.503701 0 -0.953644
vt -0.503701 0.953644
v 0.326563 0 -1.21875
vt -0.326563 1.21875
v 0.185544 0 -1.50471
vt -0.185544 1.50471
v 0.0830558 0 -1.80663
vt -0.0830558 1.80663
v 0.0208532 0 -2.11934
vt -0.0208532 2.11934
f 11/11/2 12/12/2 13/13/2 14/14/2 15/15/2 16/16/2 17/17/2 18/18/2 19/19/2 20/20/2 21/21/2 22/22/2 23/23/2 2/24/2 1/25/2 24/26/2 25/27/2 26/28/2 27/29/2 28/30/2 29/31/2 30/32/2 31/33/2 32/34/2 33/35/2 34/36/2 

vt -1.875 7.21911e-016
vn 0 0 -1
vt 0 0
v 0 0.63 -2.4375
vt 0 0.63
v 0.5625 0.63 -2.4375
vt -0.5625 0.63
v 0.5625 0.6 -2.4375
vt -0.5625 0.6
v 0.5625 0.3 -2.4375
vt -0.5625 0.3
v 1.3125 0.3 -2.4375
vt -1.3125 0.3
v 1.3125 0.6 -2.4375
vt -1.3125 0.6
v 1.3125 0.63 -2.4375
vt -1.3125 0.63
v 1.875 0.63 -2.4375
vt -1.875 0.63
f 12/37/3 11/38/3 35/39/3 36/40/3 37/41/3 38/42/3 39/43/3 40/44/3 41/45/3 42/46/3 

v 0.0208532 0.63 -2.11934
vt -2.11344 0.63
vn -0.991445 -5.04181e-017 0.130526
vt -2.43228 0.63
vn -0.997859 0 0.0654031
vt -2.43228 0
vt -2.11344 0
f 43/47/4 35/48/5 11/49/5 34/50/4 

vt 0.5625 2.4375
vn 4.83858e-016 1 -3.91817e-016
vt -3.04831e-016 2.4375
vt 0.0208532 2.11934
v 0.0830558 0.63 -1.80663
vt 0.0830558 1.80663
v 0.185544 0.63 -1.50471
vt 0.185544 1.50471
v 0.326563 0.63 -1.21875
vt 0.326563 1.21875
v 0.503701 0.63 -0.953644
vt 0.503701 0.953644
v 0.713927 0.63 -0.713927
vt 0.713927 0.713927
v 0.953644 0.63 -0.503701
vt 0.953644 0.503701
v 1.21875 0.63 -0.326563
vt 1.21875 0.326563
v 1.50471 0.63 -0.185544
vt 1.50471 0.185544
v 1.80663 0.63 -0.0830558
vt 1.80663 0.0830558
v 2.11934 0.63 -0.0208532
vt 2.11934 0.0208532
vt 2.4375 -2.46845e-016
vt 2.4375 0.5625
v 2.19276 0.63 -0.578541
vt 2.19276 0.578541
v 1.95221 0.63 -0.626389
vt 1.95221 0.626389
v 1.71997 0.63 -0.705226
vt 1.71997 0.705226
v 1.5 0.63 -0.813702
vt 1.5 0.813702
v 1.29607 0.63 -0.949963
vt 1.29607 0.949963
v 1.11167 0.63 -1.11167
vt 1.11167 1.11167
v 0.949963 0.63 -1.29607
vt 0.949963 1.29607
v 0.813702 0.63 -1.5
vt 0.813702 1.5
v 0.705226 0.63 -1.71997
vt 0.705226 1.71997
v 0.626389 0.63 -1.95221
vt 0.626389 1.95221
v 0.578541 0.63 -2.19276
vt 0.578541 2.19276
f 36/51/6 35/52/6 43/53/6 44/54/6 45/55/6 46/56/6 47/57/6 48/58/6 49/59/6 50/60/6 51/61/6 52/62/6 53/63/6 10/64/6 9/65/6 54/66/6 55/67/6 56/68/6 57/69/6 58/70/6 59/71/6 60/72/6 61/73/6 62/74/6 63/75/6 64/76/6 

vt -1.75571 0.63
vn -0.965926 -1.04802e-016 0.258819
vt -2.07455 0.63
vt -2.07455 -4.36607e-017
vt -1.75571 -4.36607e-017
f 44/77/7 43/78/4 34/79/4 33/80/7 

vt -1.36521 0.63
vn -0.92388 -1.11803e-016 0.382683
vt -1.68405 0.63
vt -1.68405 -7.15647e-017
vt -1.36521 -7.15647e-017
f 45/81/8 44/82/7 33/83/7 32/84/8 

vt -0.948628 0.63
vn -0.866025 -1.16892e-016 0.5
vt -1.26747 0.63
vt -1.26747 -9.53326e-017
vt -0.948628 -9.53326e-017
f 46/85/9 45/86/8 32/87/8 31/88/9 

vt -0.513085 0.63
vn -0.793353 -1.1998e-016 0.608761
vt -0.831925 0.63
vt -0.831925 -1.12592e-016
vt -0.513085 -1.12592e-016
f 47/89/10 46/90/9 31/91/9 30/92/10 

vt -0.066034 0.63
vn -0.707107 -1.21015e-016 0.707107
vt -0.384874 0.63
vt -0.384874 -1.2166e-016
vt -0.066034 -1.2166e-016
f 48/93/11 47/94/10 30/95/10 29/96/11 

vt 0.384874 0.63
vn -0.608761 -1.1998e-016 0.793353
vt 0.066034 0.63
vt 0.066034 -1.2166e-016
vt 0.384874 -1.2166e-016
f 49/97/12 48/98/11 29/99/11 28/100/12 

vt 0.831925 0.63
vn -0.5 -1.16892e-016 0.866025
vt 0.513085 0.63
vt 0.513085 -1.12592e-016
vt 0.831925 -1.12592e-016
f 50/101/13 49/102/12 28/103/12 27/104/13 

vt 1.26747 0.63
vn -0.382683 -1.11803e-016 0.92388
vt 0.948628 0.63
vt 0.948628 -9.53326e-017
vt 1.26747 -9.53326e-017
f 51/105/14 50/106/13 27/107/13 26/108/14 

vt 1.68405 0.63
vn -0.258819 -1.04802e-016 0.965926
vt 1.36521 0.63
vt 1.36521 -7.15647e-017
vt 1.68405 -7.15647e-017
f 52/109/15 51/110/14 26/111/14 25/112/15 

vt 2.07455 0.63
vn -0.130526 -5.0683e-017 0.991445
vt 1.75571 0.63
vt 1.75571 -4.36607e-017
vt 2.07455 -4.36607e-017
f 53/113/16 52/114/15 25/115/15 24/116/16 

vt 2.43228 0.63
vn -0.0654031 -5.28657e-019 0.997859
vt 2.11344 0.63
vt 2.11344 -8.42786e-020
vt 2.43228 7.21827e-016
f 10/117/17 53/118/16 24/119/16 1/120/17 

vt -2.15023 0.63
vn 0.130526 1.24475e-016 -0.991445
vt -2.39549 0.63
vn 0.0654031 1.30697e-016 -0.997859
vt -2.39549 0.6
v 2.19276 0.6 -0.578541
vt -2.15023 0.6
f 54/121/18 9/122/19 8/123/19 65/124/18 

usemtl Asphalt
vt 1.3125 2.4375
vn 8.21035e-017 1 1.36358e-016
v 0.578541 0.6 -2.19276
v 0.626389 0.6 -1.95221
v 0.705226 0.6 -1.71997
v 0.813702 0.6 -1.5
v 0.949963 0.6 -1.29607
v 1.11167 0.6 -1.11167
v 1.29607 0.6 -0.949963
v 1.5 0.6 -0.813702
v 1.71997 0.6 -0.705226
v 1.95221 0.6 -0.626389
vt 2.4375 1.3125
v 2.29066 0.6 -1.32212
vt 2.29066 1.32212
v 2.14633 0.6 -1.35083
vt 2.14633 1.35083
v 2.00698 0.6 -1.39814
vt 2.00698 1.39814
v 1.875 0.6 -1.46322
vt 1.875 1.46322
v 1.75264 0.6 -1.54498
vt 1.75264 1.54498
v 1.642 0.6 -1.642
vt 1.642 1.642
v 1.54498 0.6 -1.75264
vt 1.54498 1.75264
v 1.46322 0.6 -1.875
vt 1.46322 1.875
v 1.39814 0.6 -2.00698
vt 1.39814 2.00698
v 1.35083 0.6 -2.14633
vt 1.35083 2.14633
v 1.32212 0.6 -2.29066
vt 1.32212 2.29066
f 40/125/20 37/51/20 66/76/20 67/75/20 68/74/20 69/73/20 70/72/20 71/71/20 72/70/20 73/69/20 74/68/20 75/67/20 65/66/20 8/65/20 5/126/20 76/127/20 77/128/20 78/129/20 79/130/20 80/131/20 81/132/20 82/133/20 83/134/20 84/135/20 85/136/20 86/137/20 

vn 8.14477e-015 -4.81274e-015 -1
f 40/44/21 39/43/21 38/42/21 37/41/21 

usemtl Stone
vt 2.39549 0.63
vn 0.997859 -7.30095e-017 -0.0654031
vt 2.15023 0.63
vn 0.991445 -6.36028e-017 -0.130526
vt 2.15023 0.6
vt 2.39549 0.6
f 36/138/22 64/139/23 66/140/23 37/141/22 

vt 2.03776 0.63
vt 1.7925 0.63
vn 0.965926 -4.40138e-017 -0.258819
vt 1.7925 0.6
vt 2.03776 0.6
f 64/142/23 63/143/24 67/144/24 66/145/23 

vt 1.64726 0.63
vt 1.402 0.63
vn 0.92388 -2.36717e-017 -0.382683
vt 1.402 0.6
vt 1.64726 0.6
f 63/146/24 62/147/25 68/148/25 67/149/24 

vt 1.23068 0.63
vt 0.985418 0.63
vn 0.866025 -2.92456e-018 -0.5
vt 0.985418 0.6
vt 1.23068 0.6
f 62/150/25 61/151/26 69/152/26 68/153/25 

vt 0.795136 0.63
vt 0.549874 0.63
vn 0.793353 1.78726e-017 -0.608761
vt 0.549874 0.6
vt 0.795136 0.6
f 61/154/26 60/155/27 70/156/27 69/157/26 

vt 0.348085 0.63
vt 0.102823 0.63
vn 0.707107 3.8364e-017 -0.707107
vt 0.102823 0.6
vt 0.348085 0.6
f 60/158/27 59/159/28 71/160/28 70/161/27 

vt -0.102823 0.63
vt -0.348085 0.63
vn 0.608761 5.81989e-017 -0.793353
vt -0.348085 0.6
vt -0.102823 0.6
f 59/162/28 58/163/29 72/164/29 71/165/28 

vt -0.549874 0.63
vt -0.795136 0.63
vn 0.5 7.7038e-017 -0.866025
vt -0.795136 0.6
vt -0.549874 0.6
f 58/166/29 57/167/30 73/168/30 72/169/29 

vt -0.985418 0.63
vt -1.23068 0.63
vn 0.382683 9.4559e-017 -0.92388
vt -1.23068 0.6
vt -0.985418 0.6
f 57/170/30 56/171/31 74/172/31 73/173/30 

vt -1.402 0.63
vt -1.64726 0.63
vn 0.258819 1.10462e-016 -0.965926
vt -1.64726 0.6
vt -1.402 0.6
f 56/174/31 55/175/32 75/176/32 74/177/31 

vt -1.7925 0.63
vt -2.03776 0.63
vt -2.03776 0.6
vt -1.7925 0.6
f 55/178/32 54/179/18 65/180/18 75/181/32 

usemtl Asphalt
vn 1 0 6.21967e-015
f 8/8/33 7/7/33 6/6/33 5/5/33 

usemtl Stone
vt 2.34644 0.63
vn -0.0654031 -1.30697e-016 0.997859
v 2.29066 0.63 -1.32212
vt 2.19928 0.63
vn -0.130526 -1.24475e-016 0.991445
vt 2.19928 0.6
vt 2.34644 0.6
f 4/182/34 87/183/35 76/184/35 5/185/34 

vn -2.06645e-016 1 6.58736e-016
vt 2.4375 1.875
v 2.36408 0.63 -1.87981
vt 2.36408 1.87981
v 2.29191 0.63 -1.89417
vt 2.29191 1.89417
v 2.22224 0.63 -1.91782
vt 2.22224 1.91782
v 2.15625 0.63 -1.95036
vt 2.15625 1.95036
v 2.09507 0.63 -1.99124
vt 2.09507 1.99124
v 2.03975 0.63 -2.03975
vt 2.03975 2.03975
v 1.99124 0.63 -2.09507
vt 1.99124 2.09507
v 1.95036 0.63 -2.15625
vt 1.95036 2.15625
v 1.91782 0.63 -2.22224
vt 1.91782 2.22224
v 1.89417 0.63 -2.29191
vt 1.89417 2.29191
v 1.87981 0.63 -2.36408
vt 1.87981 2.36408
vt 1.875 2.4375
v 1.32212 0.63 -2.29066
v 1.35083 0.63 -2.14633
v 1.39814 0.63 -2.00698
v 1.46322 0.63 -1.875
v 1.54498 0.63 -1.75264
v 1.642 0.63 -1.642
v 1.75264 0.63 -1.54498
v 1.875 0.63 -1.46322
v 2.00698 0.63 -1.39814
v 2.14633 0.63 -1.35083
f 4/126/36 3/186/36 88/187/36 89/188/36 90/189/36 91/190/36 92/191/36 93/192/36 94/193/36 95/194/36 96/195/36 97/196/36 98/197/36 42/198/36 41/125/36 99/137/36 100/136/36 101/135/36 102/134/36 103/133/36 104/132/36 105/131/36 106/130/36 107/129/36 108/128/36 87/127/36 

vt -2.23607 0.63
vn 0.130526 1.84843e-014 -0.991445
vt -2.30965 0.63
vn 0.0654031 3.65896e-014 -0.997859
vt -2.30965 -7.35699e-014
vt -2.23607 -7.14041e-014
f 88/199/37 3/200/38 2/201/38 23/202/37 

vt -1.87834 0.63
vn 0.258819 2.78268e-016 -0.965926
vt -1.95192 0.63
vt -1.95192 2.19679e-015
vt -1.87834 2.19679e-015
f 89/203/39 88/204/37 23/205/37 22/206/39 

vt -1.48784 0.63
vn 0.382683 2.31863e-016 -0.92388
vt -1.56142 0.63
vt -1.56142 2.24086e-015
vt -1.48784 2.24086e-015
f 90/207/40 89/208/39 22/209/39 21/210/40 

vt -1.07126 0.63
vn 0.5 1.8149e-016 -0.866025
vt -1.14484 0.63
vt -1.14484 2.32782e-015
vt -1.07126 2.32782e-015
f 91/211/41 90/212/40 21/213/40 20/214/41 

vt -0.635715 0.63
vn 0.608761 1.28012e-016 -0.793353
vt -0.709294 0.63
vt -0.709294 2.45037e-015
vt -0.635715 2.45037e-015
f 92/215/42 91/216/41 20/217/41 19/218/42 

vt -0.188665 0.63
vn 0.707107 7.23443e-017 -0.707107
vt -0.262243 0.63
vt -0.262243 2.59867e-015
vt -0.188665 2.59867e-015
f 93/219/43 92/220/42 19/221/42 18/222/43 

vt 0.262243 0.63
vn 0.793353 1.54384e-017 -0.608761
vt 0.188665 0.63
vt 0.188665 2.76103e-015
vt 0.262243 2.76103e-015
f 94/223/44 93/224/43 18/225/43 17/226/44 

vt 0.709294 0.63
vn 0.866025 -4.17317e-017 -0.5
vt 0.635715 0.63
vt 0.635715 2.92479e-015
vt 0.709294 2.92479e-015
f 95/227/45 94/228/44 17/229/44 16/230/45 

vt 1.14484 0.63
vn 0.92388 -9.81878e-017 -0.382683
vt 1.07126 0.63
vt 1.07126 3.07715e-015
vt 1.14484 3.07715e-015
f 96/231/46 95/232/45 16/233/45 15/234/46 

vt 1.56142 0.63
vn 0.965926 -1.52964e-016 -0.258819
vt 1.48784 0.63
vt 1.48784 3.20608e-015
vt 1.56142 4.6499e-015
f 97/235/47 96/236/46 15/237/46 14/238/47 

vt 1.95192 0.63
vn 0.991445 -8.97574e-017 -0.130526
vt 1.87834 0.63
vt 1.87834 4.74503e-015
vt 1.95192 4.74503e-015
f 98/239/48 97/240/47 14/241/47 13/242/48 

vt 2.30965 0.63
vn 0.997859 2.96892e-019 -0.0654031
vt 2.23607 0.63
vt 2.23607 4.33087e-015
vt 2.30965 7.21309e-016
f 42/243/49 98/244/48 13/245/48 12/246/49 

vt -2.19928 0.63
vn -0.991445 6.36028e-017 0.130526
vt -2.34644 0.63
vn -0.997859 7.30095e-017 0.0654031
vt -2.34644 0.6
vt -2.19928 0.6
f 99/247/50 41/248/51 40/249/51 86/250/50 

vt -1.84155 0.63
vn -0.965926 4.40138e-017 0.258819
vt -1.98871 0.63
vt -1.98871 0.6
vt -1.84155 0.6
f 100/251/52 99/252/50 86/253/50 85/254/52 

vt -1.45105 0.63
vn -0.92388 2.36717e-017 0.382683
vt -1.59821 0.63
vt -1.59821 0.6
vt -1.45105 0.6
f 101/255/53 100/256/52 85/257/52 84/258/53 

vt -1.03447 0.63
vn -0.866025 2.92456e-018 0.5
vt -1.18163 0.63
vt -1.18163 0.6
vt -1.03447 0.6
f 102/259/54 101/260/53 84/261/53 83/262/54 

vt -0.598926 0.63
vn -0.793353 -1.78726e-017 0.608761
vt -0.746083 0.63
vt -0.746083 0.6
vt -0.598926 0.6
f 103/263/55 102/264/54 83/265/54 82/266/55 

vt -0.151876 0.63
vn -0.707107 -3.8364e-017 0.707107
vt -0.299033 0.63
vt -0.299033 0.6
vt -0.151876 0.6
f 104/267/56 103/268/55 82/269/55 81/270/56 

vt 0.299033 0.63
vn -0.608761 -5.81989e-017 0.793353
vt 0.151876 0.63
vt 0.151876 0.6
vt 0.299033 0.6
f 105/271/57 104/272/56 81/273/56 80/274/57 

vt 0.746083 0.63
vn -0.5 -7.7038e-017 0.866025
vt 0.598926 0.63
vt 0.598926 0.6
vt 0.746083 0.6
f 106/275/58 105/276/57 80/277/57 79/278/58 

vt 1.18163 0.63
vn -0.382683 -9.4559e-017 0.92388
vt 1.03447 0.63
vt 1.03447 0.6
vt 1.18163 0.6
f 107/279/59 106/280/58 79/281/58 78/282/59 

vt 1.59821 0.63
vn -0.258819 -1.10462e-016 0.965926
vt 1.45105 0.63
vt 1.45105 0.6
vt 1.59821 0.6
f 108/283/60 107/284/59 78/285/59 77/286/60 

vt 1.98871 0.63
vt 1.84155 0.63
vt 1.84155 0.6
vt 1.98871 0.6
f 87/287/35 108/288/60 77/289/60 76/290/35 

