# Alias OBJ Model File
# Exported from SketchUp, (c) 2000-2012 Trimble Navigation Limited
# File units = meters

mtllib roadTile_177.mtl

g Mesh1 Group1 Model

usemtl Water
v 3 0.455 -3
vt -3 0.455
vn 2.0791e-013 3.19644e-029 -1
v 3 2.43645e-015 -3
vt -3 2.43645e-015
v 0.75 5.41434e-016 -3
vt -0.75 5.41434e-016
v 0.75 0.455 -3
vt -0.75 0.455
f 1/1/1 2/2/1 3/3/1 4/4/1 

v 3 0.455 -0.75
vt 0.75 0.455
vn 1 -2.60205e-013 3.97853e-014
v 3 2.52669e-015 -0.75
vt 0.75 7.83143e-013
vt 3 7.83053e-013
vt 3 0.455
f 5/5/2 6/6/2 2/7/2 1/8/2 

usemtl Grass
v 3 2.52669e-015 -0
vt 4.57856e-013 1.88346e-012
vn 1 -6.26978e-013 1.52619e-013
vt 0.75 1.88346e-012
v 3 0.55 -0.75
vt 0.75 0.55
v 3 0.55 -0
vt 4.57856e-013 0.55
f 7/9/3 6/10/3 5/5/3 8/11/3 9/12/3 

vt -3 0.75
vn 1.01643e-016 -1 1.07501e-016
vt -3 -2.38842e-031
v 0 5.41434e-016 -3.86945e-013
vt -5.5033e-032 3.86945e-013
v 5.55872e-013 0 -3
vt -5.55872e-013 3
vt -0.75 3
vt -3 3
f 6/13/4 7/14/4 10/15/4 11/16/4 3/17/4 2/18/4 

v 0 0.55 -3.86945e-013
vt -4.7674e-026 0.55
vn -1.23206e-013 4.40302e-026 1
vt -4.7674e-026 5.41434e-016
vt 3 2.52669e-015
vt 3 0.55
f 12/19/5 10/20/5 7/21/5 9/22/5 

vt -3.86945e-013 0.55
vn -1 -2.29178e-015 -2.0736e-013
v 5.55872e-013 0.55 -3
vt -3 0.55
vt -3 1.51738e-028
vt -3.86945e-013 5.41434e-016
f 12/23/6 13/24/6 11/25/6 10/26/6 

v 0.769249 0.55 -2.70632
vt 0.769249 2.70632
vn -4.13875e-016 1 4.97758e-016
v 0.75 0.55 -3
vt 0.75 3
vt 5.56099e-013 3
vt 2.27631e-016 3.87218e-013
vt 3 2.73767e-016
vt 3 0.75
v 2.70632 0.55 -0.769249
vt 2.70632 0.769249
v 2.41766 0.55 -0.826667
vt 2.41766 0.826667
v 2.13896 0.55 -0.921271
vt 2.13896 0.921271
v 1.875 0.55 -1.05144
vt 1.875 1.05144
v 1.63029 0.55 -1.21495
vt 1.63029 1.21495
v 1.40901 0.55 -1.40901
vt 1.40901 1.40901
v 1.21495 0.55 -1.63029
vt 1.21495 1.63029
v 1.05144 0.55 -1.875
vt 1.05144 1.875
v 0.921271 0.55 -2.13896
vt 0.921271 2.13896
v 0.826667 0.55 -2.41766
vt 0.826667 2.41766
f 14/27/7 15/28/7 13/29/7 12/30/7 9/31/7 8/32/7 16/33/7 17/34/7 18/35/7 19/36/7 20/37/7 21/38/7 22/39/7 23/40/7 24/41/7 25/42/7 

v 0.769249 0.455 -2.70632
vt 2.65021 0.455
vn 0.991445 -2.47894e-017 -0.130526
vt 2.94452 0.455
vn 0.997859 -4.62774e-018 -0.0654031
vt 2.94452 0.55
vt 2.65021 0.55
f 26/43/8 4/44/9 15/45/9 14/46/8 

usemtl Water
vt 3 3
vn 1.58723e-016 1 -5.92322e-017
v 0.826667 0.455 -2.41766
v 0.921271 0.455 -2.13896
v 1.05144 0.455 -1.875
v 1.21495 0.455 -1.63029
v 1.40901 0.455 -1.40901
v 1.63029 0.455 -1.21495
v 1.875 0.455 -1.05144
v 2.13896 0.455 -0.921271
v 2.41766 0.455 -0.826667
v 2.70632 0.455 -0.769249
f 1/47/10 4/28/10 26/27/10 27/42/10 28/41/10 29/40/10 30/39/10 31/38/10 32/37/10 33/36/10 34/35/10 35/34/10 36/33/10 5/32/10 

usemtl Grass
vt 2.20993 0.455
vn 0.965926 -4.1175e-017 -0.258819
vt 2.50424 0.455
vt 2.50424 0.55
vt 2.20993 0.55
f 27/48/11 26/49/8 14/50/8 25/51/11 

vt 1.72931 0.455
vn 0.92388 -3.33225e-017 -0.382683
vt 2.02363 0.455
vt 2.02363 0.55
vt 1.72931 0.55
f 28/52/12 27/53/11 25/54/11 24/55/12 

vt 1.2166 0.455
vn 0.866025 -2.48999e-017 -0.5
vt 1.51091 0.455
vt 1.51091 0.55
vt 1.2166 0.55
f 29/56/13 28/57/12 24/58/12 23/59/13 

vt 0.680541 0.455
vn 0.793353 -1.60512e-017 -0.608761
vt 0.974855 0.455
vt 0.974855 0.55
vt 0.680541 0.55
f 30/60/14 29/61/13 23/62/13 22/63/14 

vt 0.130325 0.455
vn 0.707107 -6.92784e-018 -0.707107
vt 0.424639 0.455
vt 0.424639 0.55
vt 0.130325 0.55
f 31/64/15 30/65/14 22/66/14 21/67/15 

vt -0.424639 0.455
vn 0.608761 2.31402e-018 -0.793353
vt -0.130325 0.455
vt -0.130325 0.55
vt -0.424639 0.55
f 32/68/16 31/69/15 21/70/15 20/71/16 

vt -0.974855 0.455
vn 0.5 1.15163e-017 -0.866025
vt -0.680541 0.455
vt -0.680541 0.55
vt -0.974855 0.55
f 33/72/17 32/73/16 20/74/16 19/75/17 

vt -1.51091 0.455
vn 0.382683 2.05215e-017 -0.92388
vt -1.2166 0.455
vt -1.2166 0.55
vt -1.51091 0.55
f 34/76/18 33/77/17 19/78/17 18/79/18 

vt -2.02363 0.455
vn 0.258819 2.91756e-017 -0.965926
vt -1.72931 0.455
vt -1.72931 0.55
vt -2.02363 0.55
f 35/80/19 34/81/18 18/82/18 17/83/19 

vt -2.50424 0.455
vn 0.130526 1.90168e-017 -0.991445
vt -2.20993 0.455
vt -2.20993 0.55
vt -2.50424 0.55
f 36/84/20 35/85/19 17/86/19 16/87/20 

vt -2.94452 0.455
vn 0.0654031 4.62774e-018 -0.997859
vt -2.65021 0.455
vt -2.65021 0.55
vt -2.94452 0.55
f 5/88/21 36/89/20 16/90/20 8/91/21 

vn 2.0406e-013 -1.25905e-029 -1
vt 5.63091e-014 3.77715e-029
vt 5.63091e-014 0.55
vt -0.75 0.55
f 4/4/22 3/3/22 11/92/22 13/93/22 15/94/22 

