# Alias OBJ Model File
# Exported from SketchUp, (c) 2000-2012 Trimble Navigation Limited
# File units = meters

mtllib roadTile_140.mtl

g Mesh1 Group1 Model

usemtl Grass
v 0 0 -4.47035e-008
vt -6.66134e-016 7.04116e-023
vn -1.49012e-008 1.57508e-015 1
v 3 0 -0
vt 3 7.04116e-023
v 3 0.55 -0
vt 3 0.55
v 4.47037e-008 1.65 -4.47035e-008
vt 4.47037e-008 1.65
f 1/1/1 2/2/1 3/3/1 4/4/1 

v 3 0 -3
vt -3 3
vn -1.33118e-033 -1 -1.20638e-033
vt -3 4.81772e-066
vt 0 4.47035e-008
v 4.47035e-008 0 -3
vt -4.47035e-008 3
f 5/5/2 2/6/2 1/7/2 6/8/2 

vt 4.47035e-008 0.55
vn 1 0 1.49012e-008
vt 4.47035e-008 0
vt 3 0
v 3 0.55 -3
f 3/9/3 2/10/3 5/11/3 7/3/3 

vt -3 -6.26623e-030
vn 1.49012e-008 2.08874e-030 -1
vt 1.18661e-015 -6.26623e-030
v 4.47035e-008 0.55 -3
vt 1.18661e-015 0.55
vt -3 0.55
f 5/12/4 6/13/4 8/14/4 7/15/4 

vn -1 2.43838e-008 -1.19209e-008
vt -3 2.1801e-016
vt -4.47035e-008 -1.29943e-023
vt -4.47035e-008 1.65
f 8/15/5 6/16/5 1/17/5 4/18/5 

vt -1.33776e-013 0.759554
vn 0.325506 0.887745 -0.325506
vt -2.12132 -1.63001
vt 2.12132 -1.63001
f 4/19/6 3/20/6 8/21/6

vt 3 3
vn 0 1 -0
vt 4.47035e-008 3
f 7/22/7 8/23/7 3/11/7

