# Alias OBJ Model File
# Exported from SketchUp, (c) 2000-2012 Trimble Navigation Limited
# File units = meters

mtllib roadTile_046.mtl

g Mesh1 Group1 Model

usemtl Asphalt
v 3.20529e-013 0.6 -1.06958e-011
vt 3.20529e-013 0.6
vn -3.56291e-012 2.05344e-013 1
v 1.55933e-013 0.3 -1.06265e-011
vt 1.55933e-013 0.3
v 3 0.3 -3.46517e-014
vt 3 0.3
v 3 0.6 -0
vt 3 0.6
f 1/1/1 2/2/1 3/3/1 4/4/1 

vt -1.06958e-011 0.6
vn -1 3.08016e-013 -3.36764e-012
v 7.8313e-012 0.6 -2.25
vt -2.25 0.6
v 7.80531e-012 0.3 -2.25
vt -2.25 0.3
vt -1.06265e-011 0.3
f 1/5/2 5/6/2 6/7/2 2/8/2 

v 3 0.6 -3
vt 3 3
vn 3.32284e-014 1 1.70489e-015
v 0.75 0.6 -3
vt 0.75 3
v 0.75 0.6 -2.25
vt 0.75 2.25
vt 7.81136e-012 2.25
vt 3.00592e-013 1.06969e-011
vt 3 1.02293e-015
f 7/9/3 8/10/3 9/11/3 5/12/3 1/13/3 4/14/3 

v 3 0.3 -3
vt -3 0.3
vn 3.59351e-012 7.70039e-014 -1
v 0.75 0.3 -3
vt -0.75 0.3
vt -0.75 0.6
vt -3 0.6
f 10/15/4 11/16/4 8/17/4 7/18/4 

usemtl Stone
v 3 0 -3
vt -3 2.03776e-013
vn 3.59422e-012 -6.79254e-014 -1
v 0.375 8.44636e-014 -3
vt -0.375 2.8824e-013
v 0.375 1.65 -3
vt -0.375 1.65
v 0.375 1.73 -3
vt -0.375 1.73
v 0.75 1.73 -3
vt -0.75 1.73
f 12/19/5 13/20/5 14/21/5 15/22/5 16/23/5 8/17/5 11/16/5 10/15/5 

usemtl Grass
vt -3 3
vn 3.26025e-017 -1 4.51195e-017
v 3 0 -0
vt -3 4.41302e-033
v 0 9.70068e-014 -1.04186e-011
vt -3.16266e-030 1.04186e-011
v 9.06432e-012 9.67361e-014 -2.625
vt -9.06432e-012 2.625
v 1.03407e-011 9.63752e-014 -3
vt -1.03407e-011 3
vt -0.375 3
f 12/24/6 17/25/6 18/26/6 19/27/6 20/28/6 13/29/6 

usemtl Stone
vt 3 5.77529e-014
vn 1 -1.9251e-014 3.5518e-012
vt 1.06901e-011 0.3
vt 1.06554e-011 5.77529e-014
f 12/30/7 10/3/7 3/31/7 17/32/7 

usemtl Asphalt
vt 1.06554e-011 0.6
vn 1 1.9251e-014 3.5518e-012
f 4/33/8 3/31/8 10/3/8 7/4/8 

usemtl Stone
vn -3.51569e-012 3.9426e-013 1
vt -3.66287e-023 9.70068e-014
vt 3 4.15829e-024
f 3/3/9 2/2/9 18/34/9 17/35/9 

v 9.09031e-012 1.73 -2.625
vt -2.625 1.73
vn -1 1.12239e-013 -3.42023e-012
v 9.09897e-012 1.65 -2.625
vt -2.625 1.65
vt -2.625 9.67361e-014
vt -1.04186e-011 9.70068e-014
v 7.83996e-012 1.73 -2.25
vt -2.25 1.73
f 21/36/10 22/37/10 19/38/10 18/39/10 2/8/10 6/7/10 5/6/10 23/40/10 

vt 1.27056e-013 1.73
vn 3.51138e-012 -6.25657e-015 -1
v 0.375 1.73 -2.625
v 0.375 1.65 -2.625
vt 1.18393e-013 1.65
f 21/41/11 24/22/11 25/21/11 22/42/11 

vt 7.82536e-012 2.25
vn 8.43909e-015 1 -1.62962e-014
v 0.75 1.73 -2.25
vt 0.375 3
vt 0.375 2.625
vt 9.07571e-012 2.625
f 23/43/12 26/11/12 16/10/12 15/44/12 24/45/12 21/46/12 

vt -1.38607e-013 0.6
vn -3.54218e-012 1.25733e-014 1
vt 0.75 0.6
vt 0.75 1.73
vt -1.29944e-013 1.73
f 5/47/13 9/48/13 26/49/13 23/50/13 

vt 2.25 0.6
vn 1 -1.22123e-014 3.55758e-012
vt 3 1.73
vt 2.25 1.73
f 9/51/14 8/4/14 16/52/14 26/53/14 

vn -1 1.87697e-014 -3.44977e-012
vt -3 1.73
vt -3 1.65
f 24/36/15 15/54/15 14/55/15 25/37/15 

usemtl Grass
v 1.0358e-011 1.65 -3
vt 1.0327e-011 3
vn 1.87697e-014 1 -6.25657e-015
vt 9.068e-012 2.625
f 27/56/16 22/57/16 25/45/16 14/44/16 

vt -3 9.63752e-014
vn -1 1.57508e-014 -3.37277e-012
f 20/58/17 19/38/17 22/37/17 27/55/17 

vt 8.37414e-014 1.65
vn 3.48058e-012 -2.10011e-014 -1
vt -0.375 1.47467e-013
vt 1.01067e-013 1.59378e-013
f 27/59/18 14/21/18 13/60/18 20/61/18 

