# Alias OBJ Model File
# Exported from SketchUp, (c) 2000-2012 Trimble Navigation Limited
# File units = meters

mtllib roadTile_077.mtl

g Mesh1 Group1 Model

usemtl Stone
v 3 0.63 -3
vt 3 3
vn 8.02124e-017 1 8.02124e-017
v 1.5 0.63 -3
vt 1.5 3
v 0 0.63 -2.625
vt -5.05338e-017 2.625
v 3.17641e-014 0.63 -2.25
vt 3.17136e-014 2.25
v 3 0.63 -2.25
vt 3 2.25
f 1/1/1 2/2/1 3/3/1 4/4/1 5/5/1 

v 3 9.92628e-016 -3
vt -3 9.92628e-016
vn -1.54008e-014 1.09947e-031 -1
v 1.5 9.02389e-016 -3
vt -1.5 9.02389e-016
vn -0.122183 -1.12896e-017 -0.992508
vt -1.5 0.63
vt -3 0.63
f 6/6/2 7/7/3 2/8/3 1/9/2 

v 3 0 -2.31012e-014
vt -3 2.31012e-014
vn -1.95518e-016 -1 -1.80478e-016
v 1.5 9.02389e-016 -0
vt -1.5 2.15791e-031
v 1.08287e-014 9.02389e-016 -0.375
vt -1.08287e-014 0.375
v 0 1.35358e-015 -2.625
vt 2.6465e-031 2.625
vt -1.5 3
vt -3 3
f 8/10/4 9/11/4 10/12/4 11/13/4 7/14/4 6/15/4 

v 1.5 0.63 -0
vt 1.5 0.63
vn -0.122183 -1.38984e-030 0.992508
vt 1.5 9.02389e-016
vt 3 7.35281e-044
vn 1.9251e-014 -2.12192e-030 1
v 3 0.63 -2.31012e-014
vt 3 0.63
f 12/16/5 9/17/5 8/18/6 13/19/6 

vt 1.45521 0.63
v 1.08287e-014 0.63 -0.375
vt -0.0909509 0.63
vn -0.242536 -6.36931e-031 0.970143
vt -0.0909509 9.02389e-016
vt 1.45521 9.02389e-016
f 12/20/5 14/21/7 10/22/7 9/23/5 

v 4.76462e-014 0.63 -0.75
vt 4.76462e-014 0.75
vn 0 1 -0
vt 1.08287e-014 0.375
vt 1.5 0
vt 3 2.31012e-014
v 3 0.63 -0.75
vt 3 0.75
f 15/24/8 14/25/8 12/26/8 13/27/8 16/28/8 

vt -2.625 1.35358e-015
vn -1 2.51512e-014 5.13359e-015
vt -0.375 9.02389e-016
vt -0.375 0.63
vt -0.75 0.63
v 4.76462e-014 0.6 -0.75
vt -0.75 0.6
v 4.76462e-014 0.3 -0.75
vt -0.75 0.3
v 2.31012e-014 0.3 -2.25
vt -2.25 0.3
v 3.17641e-014 0.6 -2.25
vt -2.25 0.6
vt -2.25 0.63
vt -2.625 0.63
f 11/29/9 10/30/9 14/31/9 15/32/9 17/33/9 18/34/9 19/35/9 20/36/9 4/37/9 3/38/9 

v 3 0.6 -0.75
vt -3 0.6
vn -1.63943e-014 0 -1
vt -5.99419e-014 0.6
vt -5.99419e-014 0.63
f 21/39/10 17/40/10 15/41/10 16/9/10 

usemtl Asphalt
v 3 0.6 -2.25
vt 3.17641e-014 2.25
f 22/5/8 20/42/8 17/24/8 21/28/8 

usemtl Stone
vt 6.86513e-014 0.6
vn 1.63943e-014 0 1
vt 3 0.6
vt 6.86513e-014 0.63
f 20/43/11 22/44/11 5/19/11 4/45/11 

vt -1.79075e-014 0.63
vn 1 -3.13365e-015 -1.36696e-014
vt -1.79075e-014 9.40095e-015
vt 3 1.03936e-014
vt 2.25 0.63
vt 2.25 0.6
v 3 0.3 -2.25
vt 2.25 0.3
v 3 0.3 -0.75
vt 0.75 0.3
vt 0.75 0.6
vt 0.75 0.63
f 13/46/12 8/47/12 6/48/12 1/19/12 5/49/12 22/50/12 23/51/12 24/52/12 21/53/12 16/54/12 

usemtl Asphalt
vn 1 -1.9251e-014 -1.54008e-014
f 21/53/13 24/52/13 23/51/13 22/50/13 

vn -1 9.62549e-015 1.54008e-014
f 20/36/14 19/35/14 18/34/14 17/33/14 

usemtl Stone
vt -0.636656 0.63
vn -0.242536 -2.241e-017 -0.970143
vt -2.18282 0.63
vt -2.18282 9.59459e-016
vt -0.636656 1.41065e-015
f 3/55/15 2/56/3 7/57/3 11/58/15 

