# Alias OBJ Model File
# Exported from SketchUp, (c) 2000-2012 Trimble Navigation Limited
# File units = meters

mtllib roadTile_096.mtl

g Mesh1 Group1 Model

usemtl Stone
v 3 3.60956e-016 -4.62023e-014
vt -3 4.62023e-014
vn -6.01593e-017 -1 6.01593e-017
v 4.62023e-014 3.60956e-016 -0
vt -4.62023e-014 -2.17148e-032
v 0 3.60956e-016 -3
vt 2.17148e-032 3
v 3 0 -3
vt -3 3
f 1/1/1 2/2/1 3/3/1 4/4/1 

v 4.62023e-014 0.63 -0
vt 4.62023e-014 0.63
vn 1.48661e-014 -6.42825e-015 1
vt 4.62023e-014 3.60956e-016
vt 3 3.60956e-016
v 3 0.63 -4.62023e-014
vt 3 0.63
v 2.16072 0.63 -2.31012e-014
vt 2.16072 0.63
v 2.16072 0.57 -2.31012e-014
vt 2.16072 0.57
v 1.92896 0.57 -2.31012e-014
vt 1.92896 0.57
v 1.92896 0.63 -2.31012e-014
vt 1.92896 0.63
f 5/5/2 2/6/2 1/7/2 6/8/2 7/9/2 8/10/2 9/11/2 10/12/2 

vt -3 3.60956e-016
vn -1 0 1.73259e-014
vt 8.00496e-028 3.60956e-016
vt 8.00496e-028 0.63
v 0 0.63 -3
vt -3 0.63
f 3/13/3 2/14/3 5/15/3 11/16/3 

vt 4.1983e-014 1.68277e-015
vn 6.69732e-015 1 2.67107e-015
vt 1.92896 2.47839e-014
v 1.61575 0.63 -0.46875
vt 1.61575 0.46875
v 1.32286 0.63 -1.06267
vt 1.32286 1.06267
v 1.11 0.63 -1.68973
vt 1.11 1.68973
v 0.98081 0.63 -2.33921
vt 0.98081 2.33921
v 0.9375 0.63 -3
vt 0.9375 3
vt -4.21931e-015 3
f 5/17/4 10/18/4 12/19/4 13/20/4 14/21/4 15/22/4 16/23/4 11/24/4 

usemtl Grey_Asphalt
vt -0.507909 0.63
vn 0.866025 -1.31322e-013 -0.5
vt -1.07167 0.63
vn 0.83147 -1.27897e-013 -0.55557
vt -1.07167 0.57
v 1.61575 0.57 -0.46875
vt -0.507909 0.57
f 12/25/5 10/26/6 9/27/6 17/28/5 

v 1.125 0.57 -3
vt 1.125 3
vn 1.37764e-013 1 -2.40296e-014
v 0.9375 0.57 -3
v 0.98081 0.57 -2.33921
v 1.11 0.57 -1.68973
v 1.32286 0.57 -1.06267
vt 1.92896 9.4043e-015
vt 2.16072 9.4043e-015
v 2.1324 0.57 -0.032288
vt 2.1324 0.032288
v 1.77813 0.57 -0.5625
vt 1.77813 0.5625
v 1.49609 0.57 -1.13442
vt 1.49609 1.13442
v 1.29111 0.57 -1.73826
vt 1.29111 1.73826
v 1.16671 0.57 -2.36368
vt 1.16671 2.36368
f 18/29/7 19/23/7 20/22/7 21/21/7 22/20/7 17/19/7 9/30/7 8/31/7 23/32/7 24/33/7 25/34/7 26/35/7 27/36/7 

usemtl Stone
v 3 0.63 -3
vn -1.2838e-014 2.83255e-014 -1
vt -3 -8.49764e-014
vt -3.85139e-014 -8.46155e-014
vt -3.85139e-014 0.63
vt -0.9375 0.63
vt -0.9375 0.57
vt -1.125 0.57
v 1.125 0.63 -3
vt -1.125 0.63
v 1.875 0.63 -3
vt -1.875 0.63
v 1.875 0.57 -3
vt -1.875 0.57
v 2.0625 0.57 -3
vt -2.0625 0.57
v 2.0625 0.63 -3
vt -2.0625 0.63
f 28/16/8 4/37/8 3/38/8 11/39/8 16/40/8 19/41/8 18/42/8 29/43/8 30/44/8 31/45/8 32/46/8 33/47/8 

vt -6.71135e-015 5.8063e-015
vn 1 -1.81511e-015 -1.76379e-014
vt 3 5.44534e-015
v 3 0.63 -0.461802
vt 0.461802 0.63
v 3 0.57 -0.461802
vt 0.461802 0.57
v 3 0.57 -0.178038
vt 0.178038 0.57
v 3 0.63 -0.178038
vt 0.178038 0.63
vt -6.71135e-015 0.63
f 1/48/9 4/49/9 28/8/9 34/50/9 35/51/9 36/52/9 37/53/9 6/54/9 

vt 3 3
vn 1.69454e-016 1 -1.25844e-016
vt 2.0625 3
v 2.09619 0.63 -2.48605
vt 2.09619 2.48605
v 2.19667 0.63 -1.9809
vt 2.19667 1.9809
v 2.36222 0.63 -1.49318
vt 2.36222 1.49318
v 2.59002 0.63 -1.03125
vt 2.59002 1.03125
v 2.87617 0.63 -0.603002
vt 2.87617 0.603002
vt 3 0.461802
f 28/55/10 33/56/10 38/57/10 39/58/10 40/59/10 41/60/10 42/61/10 34/62/10 

usemtl Grey_Asphalt
vt -2.34363 0.63
vn -0.991445 -2.00381e-013 0.130526
vt -2.85868 0.63
vn -0.997859 -1.95398e-013 0.0654031
vt -2.85868 0.57
v 2.09619 0.57 -2.48605
vt -2.34363 0.57
f 38/63/11 33/64/12 32/65/12 43/66/11 

vn -1.89579e-013 1 9.51894e-014
vt 1.875 3
v 1.91029 0.57 -2.46158
vt 1.91029 2.46158
v 2.01556 0.57 -1.93237
vt 2.01556 1.93237
v 2.189 0.57 -1.42143
vt 2.189 1.42143
v 2.42765 0.57 -0.9375
vt 2.42765 0.9375
v 2.72742 0.57 -0.488859
vt 2.72742 0.488859
vt 3 0.178038
v 2.87617 0.57 -0.603002
v 2.59002 0.57 -1.03125
v 2.36222 0.57 -1.49318
v 2.19667 0.57 -1.9809
f 32/56/13 31/67/13 44/68/13 45/69/13 46/70/13 47/71/13 48/72/13 36/73/13 35/62/13 49/61/13 50/60/13 51/59/13 52/58/13 43/57/13 

vt 2.87095 0.63
vn 0.997859 1.95398e-013 -0.0654031
v 1.91029 0.63 -2.46158
vt 2.33137 0.63
vn 0.991445 2.00381e-013 -0.130526
vt 2.33137 0.57
vt 2.87095 0.57
f 30/74/14 53/75/15 44/76/15 31/77/14 

usemtl Stone
vn -1.97939e-014 1 3.45268e-014
v 1.16671 0.63 -2.36368
v 1.29111 0.63 -1.73826
v 1.49609 0.63 -1.13442
v 1.77813 0.63 -0.5625
v 2.1324 0.63 -0.032288
vt 2.16072 4.48531e-014
vt 3 6.79542e-014
v 2.72742 0.63 -0.488859
v 2.42765 0.63 -0.9375
v 2.189 0.63 -1.42143
v 2.01556 0.63 -1.93237
f 30/67/16 29/29/16 54/36/16 55/35/16 56/34/16 57/33/16 58/32/16 7/78/16 6/79/16 37/73/16 59/72/16 60/71/16 61/70/16 62/69/16 53/68/16 

usemtl Grey_Asphalt
vt -2.28232 0.63
vn -0.991445 1.39722e-013 0.130526
vt -2.92 0.63
vn -0.997859 1.39041e-013 0.0654031
vt -2.92 0.57
vt -2.28232 0.57
f 54/80/17 29/81/18 18/82/18 27/83/17 

vt -1.45297 0.63
vn -0.965926 1.39289e-013 0.258819
vt -2.09065 0.63
vt -2.09065 0.57
vt -1.45297 0.57
f 55/84/19 54/85/17 27/86/17 26/87/19 

vt -0.593313 0.63
vn -0.92388 1.36473e-013 0.382683
vt -1.23099 0.63
vt -1.23099 0.57
vt -0.593313 0.57
f 56/88/20 55/89/19 26/90/19 25/91/20 

vt 0.281954 0.63
vn -0.866025 1.31322e-013 0.5
vt -0.355726 0.63
vt -0.355726 0.57
vt 0.281954 0.57
f 57/92/21 56/93/20 25/94/20 24/95/21 

vt 1.15785 0.63
vn -0.793353 1.23924e-013 0.608761
vt 0.520172 0.63
vt 0.520172 0.57
vt 1.15785 0.57
f 58/96/22 57/97/21 24/98/21 23/99/22 

vt 1.42466 0.63
vn -0.75184 1.1942e-013 0.659346
vt 1.38172 0.63
vt 1.38172 0.57
vt 1.42466 0.57
f 7/100/23 58/101/22 23/102/22 8/103/23 

vt -1.43077 0.63
vn 0.793353 2.0835e-013 -0.608761
vt -1.84418 0.63
vn 0.75184 2.05295e-013 -0.659346
vt -1.84418 0.57
vt -1.43077 0.57
f 59/104/24 37/105/25 36/106/25 48/107/24 

vt -0.569225 0.63
vn 0.866025 2.11774e-013 -0.5
vt -1.1088 0.63
vt -1.1088 0.57
vt -0.569225 0.57
f 60/108/26 59/109/24 48/110/24 47/111/26 

vt 0.306674 0.63
vn 0.92388 2.11575e-013 -0.382683
vt -0.232902 0.63
vt -0.232902 0.57
vt 0.306674 0.57
f 61/112/27 60/113/26 47/114/26 46/115/27 

vt 1.18194 0.63
vn 0.965926 2.07756e-013 -0.258819
vt 0.642366 0.63
vt 0.642366 0.57
vt 1.18194 0.57
f 62/116/28 61/117/27 46/118/27 45/119/28 

vt 2.0416 0.63
vt 1.50203 0.63
vt 1.50203 0.57
vt 2.0416 0.57
f 53/120/15 62/121/28 45/122/28 44/123/15 

vt 1.63084 0.63
vn -0.75184 -2.05295e-013 0.659346
vt 1.44303 0.63
vn -0.793353 -2.0835e-013 0.608761
vt 1.44303 0.57
vt 1.63084 0.57
f 34/124/29 42/125/30 49/126/30 35/127/29 

vt 1.09654 0.63
vt 0.581488 0.63
vn -0.866025 -2.11774e-013 0.5
vt 0.581488 0.57
vt 1.09654 0.57
f 42/128/30 41/129/31 50/130/31 49/131/30 

vt 0.220639 0.63
vt -0.294411 0.63
vn -0.92388 -2.11575e-013 0.382683
vt -0.294411 0.57
vt 0.220639 0.57
f 41/132/31 40/133/32 51/134/32 50/135/31 

vt -0.654629 0.63
vt -1.16968 0.63
vn -0.965926 -2.07756e-013 0.258819
vt -1.16968 0.57
vt -0.654629 0.57
f 40/136/32 39/137/33 52/138/33 51/139/32 

vt -1.51429 0.63
vt -2.02934 0.63
vt -2.02934 0.57
vt -1.51429 0.57
f 39/140/33 38/141/11 43/142/11 52/143/33 

vt 2.93226 0.63
vn 0.997859 -1.39041e-013 -0.0654031
vt 2.27005 0.63
vn 0.991445 -1.39722e-013 -0.130526
vt 2.27005 0.57
vt 2.93226 0.57
f 16/144/34 15/145/35 20/146/35 19/147/34 

vt 2.10292 0.63
vt 1.44071 0.63
vn 0.965926 -1.39289e-013 -0.258819
vt 1.44071 0.57
vt 2.10292 0.57
f 15/148/35 14/149/36 21/150/36 20/151/35 

vt 1.24326 0.63
vt 0.58105 0.63
vn 0.92388 -1.36473e-013 -0.382683
vt 0.58105 0.57
vt 1.24326 0.57
f 14/152/36 13/153/37 22/154/37 21/155/36 

vt 0.367989 0.63
vt -0.294217 0.63
vt -0.294217 0.57
vt 0.367989 0.57
f 13/156/37 12/157/5 17/158/5 22/159/37 

