# Alias OBJ Model File
# Exported from SketchUp, (c) 2000-2012 Trimble Navigation Limited
# File units = meters

mtllib roadTile_123.mtl

g Mesh1 Group1 Model

usemtl Asphalt
v 3 0.6 -9.24047e-014
vt 4.0427e-014 0.6
vn 1 -2.89531e-030 -1.73259e-014
v 3 0.3 -9.24047e-014
vt 4.0427e-014 0.3
v 3 0.3 -3
vt 3 0.3
v 3 0.6 -3
vt 3 0.6
f 1/1/1 2/2/1 3/3/1 4/4/1 

v 2.54113e-012 0.6 -0
vt 2.54113e-012 0.6
vn 3.08016e-014 -1.52934e-029 1
v 2.54113e-012 0.3 -0
vt 2.54113e-012 0.3
f 5/5/2 6/6/2 2/3/2 1/4/2 

v 0 0.6 -2.25
vt -2.25 0.6
vn -1 -1.03955e-012 9.9335e-013
v 6.23731e-013 0.3 -2.25
vt -2.25 0.3
vt 2.52423e-024 0.3
vt 2.52423e-024 0.6
f 7/7/3 8/8/3 6/9/3 5/10/3 

usemtl Stone
v 1.24746e-012 1.73 -2.625
vt -2.625 1.73
vn -1 -4.21969e-013 5.35379e-013
v 1.87119e-012 0 -2.625
vt -2.625 -1.38261e-024
v 2.54113e-012 0 -0
vt 1.36047e-024 -1.07228e-024
vt 1.36047e-024 0.3
v 0 1.73 -2.25
vt -2.25 1.73
f 9/11/4 10/12/4 11/13/4 6/14/4 8/8/4 7/7/4 12/15/4 

vt -0.171683 1.73
vn -0.0654031 -1.17902e-014 -0.997859
v 0.0489473 1.73 -2.62821
vt -0.220736 1.73
vn -0.130526 -5.85465e-015 -0.991445
v 0.0489473 9.02389e-016 -2.62821
vt -0.220736 3.17854e-014
vt -0.171683 3.0883e-014
f 9/16/5 13/17/6 14/18/6 10/19/5 

v 0.75 1.73 -3
vt 0.75 3
vn 7.65528e-016 1 1.52928e-016
v 0.375 1.73 -3
vt 0.375 3
v 0.371792 1.73 -2.95105
vt 0.371792 2.95105
v 0.362222 1.73 -2.90294
vt 0.362222 2.90294
v 0.346455 1.73 -2.85649
vt 0.346455 2.85649
v 0.32476 1.73 -2.8125
vt 0.32476 2.8125
v 0.297508 1.73 -2.77171
vt 0.297508 2.77171
v 0.265165 1.73 -2.73483
vt 0.265165 2.73483
v 0.228286 1.73 -2.70249
vt 0.228286 2.70249
v 0.1875 1.73 -2.67524
vt 0.1875 2.67524
v 0.143506 1.73 -2.65355
vt 0.143506 2.65355
v 0.0970571 1.73 -2.63778
vt 0.0970571 2.63778
vt 0.0489473 2.62821
vt 1.24614e-012 2.625
vt -1.32436e-015 2.25
v 0.0978946 1.73 -2.25642
vt 0.0978946 2.25642
v 0.194114 1.73 -2.27556
vt 0.194114 2.27556
v 0.287013 1.73 -2.30709
vt 0.287013 2.30709
v 0.375 1.73 -2.35048
vt 0.375 2.35048
v 0.456571 1.73 -2.40498
vt 0.456571 2.40498
v 0.53033 1.73 -2.46967
vt 0.53033 2.46967
v 0.595015 1.73 -2.54343
vt 0.595015 2.54343
v 0.649519 1.73 -2.625
vt 0.649519 2.625
v 0.69291 1.73 -2.71299
vt 0.69291 2.71299
v 0.724444 1.73 -2.80589
vt 0.724444 2.80589
v 0.743584 1.73 -2.90211
vt 0.743584 2.90211
f 15/20/7 16/21/7 17/22/7 18/23/7 19/24/7 20/25/7 21/26/7 22/27/7 23/28/7 24/29/7 25/30/7 26/31/7 13/32/7 9/33/7 12/34/7 27/35/7 28/36/7 29/37/7 30/38/7 31/39/7 32/40/7 33/41/7 34/42/7 35/43/7 36/44/7 37/45/7 

v 3 0 -3
vt -3 -1.31334e-012
vn -5.63888e-013 4.37779e-013 -1
v 0.375 0 -3
vt -0.375 -1.31334e-012
vt -0.375 1.73
vt -0.75 1.73
v 0.75 0.6 -3
vt -0.75 0.6
v 0.75 0.3 -3
vt -0.75 0.3
vt -3 0.3
f 38/46/8 39/47/8 16/48/8 15/49/8 40/50/8 41/51/8 3/52/8 

v 3 0 -9.24047e-014
vt -3 9.24047e-014
vn 0 -1 -0
vt -2.54113e-012 0
vt -1.87119e-012 2.625
vt -0.0489473 2.62821
v 0.0970571 9.02389e-016 -2.63778
vt -0.0970571 2.63778
v 0.143506 9.02389e-016 -2.65355
vt -0.143506 2.65355
v 0.1875 9.02389e-016 -2.67524
vt -0.1875 2.67524
v 0.228286 9.02389e-016 -2.70249
vt -0.228286 2.70249
v 0.265165 9.02389e-016 -2.73483
vt -0.265165 2.73483
v 0.297508 1.80478e-016 -2.77171
vt -0.297508 2.77171
v 0.32476 1.80478e-016 -2.8125
vt -0.32476 2.8125
v 0.346455 1.80478e-016 -2.85649
vt -0.346455 2.85649
v 0.362222 1.80478e-016 -2.90294
vt -0.362222 2.90294
v 0.371792 1.80478e-016 -2.95105
vt -0.371792 2.95105
vt -0.375 3
vt -3 3
f 42/53/9 11/54/9 10/55/9 14/56/9 43/57/9 44/58/9 45/59/9 46/60/9 47/61/9 48/62/9 49/63/9 50/64/9 51/65/9 52/66/9 39/67/9 38/68/9 

vt 3 1.05609e-054
vn 3.08016e-014 -1.34651e-029 1
vt 2.54113e-012 1.05393e-054
f 42/69/10 2/3/10 6/6/10 11/70/10 

vt 3 0
vn 1 0 -1.73259e-014
vt 4.0427e-014 0
f 38/71/11 3/3/11 2/2/11 42/72/11 

vt -0.560745 1.73
vt -0.609797 1.73
vn -0.258819 1.37712e-016 -0.965926
vt -0.609797 6.30262e-016
vt -0.560745 6.30262e-016
f 13/73/6 26/74/12 43/75/12 14/76/6 

vt -0.939792 1.73
vt -0.988845 1.73
vn -0.382683 1.99309e-016 -0.92388
vt -0.988845 4.85851e-016
vt -0.939792 4.85851e-016
f 26/77/12 25/78/13 44/79/13 43/80/12 

vt -1.30234 1.73
vt -1.35139 1.73
vn -0.5 2.57496e-016 -0.866025
vt -1.35139 3.72178e-016
vt -1.30234 3.72178e-016
f 25/81/13 24/82/14 45/83/14 44/84/13 

vt -1.64218 1.73
vt -1.69124 1.73
vn -0.608761 3.11277e-016 -0.793353
vt -1.69124 2.98137e-016
vt -1.64218 2.98137e-016
f 24/85/14 23/86/15 46/87/15 45/88/14 

vt -1.95351 1.73
vt -2.00256 1.73
vn -0.707107 3.59731e-016 -0.707107
vt -2.00256 2.69844e-016
vt -1.95351 2.69844e-016
f 23/89/15 22/90/16 47/91/16 46/92/15 

vt -2.23099 1.73
vt -2.28005 1.73
vn -0.793353 4.02031e-016 -0.608761
vt -2.28005 -4.31706e-016
vt -2.23099 2.90206e-016
f 22/93/16 21/94/17 48/95/17 47/96/16 

vt -2.46988 1.73
vt -2.51894 1.73
vn -0.866025 4.37452e-016 -0.5
vt -2.51894 -3.63208e-016
vt -2.46988 -3.63208e-016
f 21/97/17 20/98/18 49/99/18 48/100/17 

vt -2.66609 1.73
vt -2.71514 1.73
vn -0.92388 4.65388e-016 -0.382683
vt -2.71514 -2.50499e-016
vt -2.66609 -2.50499e-016
f 20/101/18 19/102/19 50/103/19 49/104/18 

vt -2.81626 1.73
vt -2.86532 1.73
vn -0.965926 4.85361e-016 -0.258819
vt -2.86532 -1.00653e-016
vt -2.81626 -1.00653e-016
f 19/105/19 18/106/20 51/107/20 50/108/19 

vt -2.91783 1.73
vt -2.96688 1.73
vn -0.991445 6.37317e-015 -0.130526
vt -2.96688 7.65769e-017
vt -2.91783 7.65769e-017
f 18/109/20 17/110/21 52/111/21 51/112/20 

vt -2.96905 1.73
vt -3.0181 1.73
vn -0.997859 1.22268e-014 -0.0654031
vt -3.0181 2.17622e-015
vt -2.96905 2.3567e-015
f 17/113/21 16/114/22 39/115/22 52/116/21 

v 0.743584 0.6 -2.90211
vt 2.94452 0.6
vn 0.991445 -6.10497e-016 0.130526
vt 3.04263 0.6
vn 0.997859 -6.13454e-016 0.0654031
vt 3.04263 1.73
vt 2.94452 1.73
f 53/117/23 40/118/24 15/119/24 37/120/23 

usemtl Asphalt
vt 3 3
vn 1.58704e-016 1 -8.22034e-017
v 0.724444 0.6 -2.80589
v 0.69291 0.6 -2.71299
v 0.649519 0.6 -2.625
v 0.595015 0.6 -2.54343
v 0.53033 0.6 -2.46967
v 0.456571 0.6 -2.40498
v 0.375 0.6 -2.35048
v 0.287013 0.6 -2.30709
v 0.194114 0.6 -2.27556
v 0.0978946 0.6 -2.25642
vt -9.52226e-017 2.25
vt 2.54103e-012 -4.9322e-017
vt 3 9.23553e-014
f 4/121/25 40/20/25 53/45/25 54/44/25 55/43/25 56/42/25 57/41/25 58/40/25 59/39/25 60/38/25 61/37/25 62/36/25 63/35/25 7/122/25 5/123/25 1/124/25 

vt -3 0.6
vn -1.03699e-012 1.07805e-012 -1
f 4/125/26 3/52/26 41/51/26 40/50/26 

usemtl Stone
vt 2.8933 0.6
vn 0.965926 -5.96765e-016 0.258819
vt 2.99141 0.6
vt 2.99141 1.73
vt 2.8933 1.73
f 54/126/27 53/127/23 37/128/23 36/129/27 

vt 2.79174 0.6
vn 0.92388 -5.72823e-016 0.382683
vt 2.88984 0.6
vt 2.88984 1.73
vt 2.79174 1.73
f 55/130/28 54/131/27 36/132/27 35/133/28 

vt 2.64157 0.6
vn 0.866025 -5.39079e-016 0.5
vt 2.73967 0.6
vt 2.73967 1.73
vt 2.64157 1.73
f 56/134/29 55/135/28 35/136/28 34/137/29 

vt 2.44536 0.6
vn 0.793353 -4.96111e-016 0.608761
vt 2.54346 0.6
vt 2.54346 1.73
vt 2.44536 1.73
f 57/138/30 56/139/29 34/140/29 33/141/30 

vt 2.20647 0.6
vn 0.707107 -4.44655e-016 0.707107
vt 2.30457 0.6
vt 2.30457 1.73
vt 2.20647 1.73
f 58/142/31 57/143/30 33/144/30 32/145/31 

vt 1.92899 0.6
vn 0.608761 -3.85591e-016 0.793353
vt 2.02709 0.6
vt 2.02709 1.73
vt 1.92899 1.73
f 59/146/32 58/147/31 32/148/31 31/149/32 

vt 1.61766 0.6
vn 0.5 -3.19929e-016 0.866025
vt 1.71576 0.6
vt 1.71576 1.73
vt 1.61766 1.73
f 60/150/33 59/151/32 31/152/32 30/153/33 

vt 1.27781 0.6
vn 0.382683 -2.48793e-016 0.92388
vt 1.37592 0.6
vt 1.37592 1.73
vt 1.27781 1.73
f 61/154/34 60/155/33 30/156/33 29/157/34 

vt 0.915266 0.6
vn 0.258819 -1.734e-016 0.965926
vt 1.01337 0.6
vt 1.01337 1.73
vt 0.915266 1.73
f 62/158/35 61/159/34 29/160/34 28/161/35 

vt 0.536219 0.6
vn 0.130526 -9.504e-017 0.991445
vt 0.634323 0.6
vt 0.634323 1.73
vt 0.536219 1.73
f 63/162/36 62/163/35 28/164/35 27/165/36 

vt 0.147157 0.6
vn 0.0654031 -5.51651e-017 0.997859
vt 0.245262 0.6
vt 0.245262 1.73
vt 0.147157 1.73
f 7/166/37 63/167/36 27/168/36 12/169/37 

