# Alias OBJ Model File
# Exported from SketchUp, (c) 2000-2012 Trimble Navigation Limited
# File units = meters

mtllib roadTile_166.mtl

g Mesh1 Group1 Model

usemtl Stone
v 3 0.63 -1.125
vt 3 1.125
vn -5.96929e-017 1 -2.38772e-016
v 1.875 0.63 -1.125
vt 1.875 1.125
v 1.875 0.63 -6.93035e-014
vt 1.875 6.91531e-014
v 2.4375 0.63 -6.93035e-014
vt 2.4375 6.91531e-014
v 2.4375 0.63 -0.5625
vt 2.4375 0.5625
v 3 0.63 -0.5625
vt 3 0.5625
f 1/1/1 2/2/1 3/3/1 4/4/1 5/5/1 6/6/1 

vt -1.875 0.63
vn 1.84889e-032 0 -1
vt -3 0.63
v 3 0.6 -1.125
vt -3 0.6
v 1.875 0.6 -1.125
vt -1.875 0.6
f 2/7/2 1/8/2 7/9/2 8/10/2 

v 3 0 -0.5625
vt 0.5625 8.56796e-016
vn 1 -2.85599e-016 -3.31913e-016
v 3 0 -2.4375
vt 2.4375 8.56796e-016
v 3 0.55 -2.4375
vt 2.4375 0.55
v 3 0.63 -2.4375
vt 2.4375 0.63
v 3 0.63 -1.875
vt 1.875 0.63
v 3 0.6 -1.875
vt 1.875 0.6
v 3 0.3 -1.875
vt 1.875 0.3
v 3 0.3 -1.125
vt 1.125 0.3
vt 1.125 0.6
vt 1.125 0.63
vt 0.5625 0.63
v 3 0.55 -0.5625
vt 0.5625 0.55
f 9/11/3 10/12/3 11/13/3 12/14/3 13/15/3 14/16/3 15/17/3 16/18/3 7/19/3 1/20/3 6/21/3 17/22/3 

usemtl Grass
v 2.4375 0 -3
vt -2.4375 3
vn -2.52823e-040 -1 2.38638e-024
v 3 0 -3
vt -3 3
vt -3 2.4375
vt -3 0.5625
v 3 0 -3.46517e-014
vt -3 3.46517e-014
v 2.4375 0 -6.93035e-014
vt -2.4375 6.93035e-014
v 0.5625 0 -3.46517e-014
vt -0.5625 3.46517e-014
v 0 0 -3.46517e-014
vt 0 3.46517e-014
v 0 0 -0.5625
vt 0 0.5625
v 0 0 -2.4375
vt 0 2.4375
v 0 0 -3
vt 0 3
v 0.5625 0 -3
vt -0.5625 3
f 18/23/4 19/24/4 10/25/4 9/26/4 20/27/4 21/28/4 22/29/4 23/30/4 24/31/4 25/32/4 26/33/4 27/34/4 

vt -3 -2.40854e-028
vn 6.16031e-014 8.02848e-029 -1
vt -2.4375 -2.40854e-028
v 2.4375 0.55 -3
vt -2.4375 0.55
v 3 0.55 -3
vt -3 0.55
f 19/35/5 18/36/5 28/37/5 29/38/5 

usemtl Stone
vt -2.4375 -8.02021e-014
vn -2.26586e-014 2.6734e-014 -1
vt -0.5625 -8.02021e-014
v 0.5625 0.55 -3
vt -0.5625 0.55
v 0.5625 0.63 -3
vt -0.5625 0.63
v 1.125 0.63 -3
vt -1.125 0.63
v 1.125 0.6 -3
vt -1.125 0.6
v 1.125 0.315 -3
vt -1.125 0.315
v 1.875 0.315 -3
vt -1.875 0.315
v 1.875 0.6 -3
v 1.875 0.63 -3
v 2.4375 0.63 -3
vt -2.4375 0.63
f 18/39/6 27/40/6 30/41/6 31/42/6 32/43/6 33/44/6 34/45/6 35/46/6 36/10/6 37/7/6 38/47/6 28/37/6 

usemtl Grass
v 0 0.55 -3
vt -3.08016e-014 0.55
vn -1.02672e-014 1.05005e-014 -1
vt -0.5625 -3.15016e-014
vt -3.08016e-014 -3.15016e-014
f 39/48/7 30/41/7 27/49/7 26/50/7 

vt 3.52934e-016 3
vn -6.41699e-016 1 1.4838e-029
v 0 0.55 -2.4375
vt 3.52934e-016 2.4375
v 0.5625 0.55 -2.4375
vt 0.5625 2.4375
vt 0.5625 3
f 39/51/8 40/52/8 41/53/8 30/54/8 

vt -3 0
vn -1 0 -1.84889e-032
vt -2.4375 0
f 26/55/9 25/56/9 40/37/9 39/38/9 

usemtl Stone
v 0 0.63 -2.4375
vt -0.5625 0
v 0 0.55 -0.5625
v 0 0.63 -0.5625
v 0 0.63 -1.125
v 0 0.6 -1.125
v 0 0.3 -1.125
vt -1.125 0.3
v 0 0.3 -1.875
vt -1.875 0.3
v 0 0.6 -1.875
v 0 0.63 -1.875
f 42/47/9 40/37/9 25/56/9 24/57/9 43/41/9 44/42/9 45/43/9 46/44/9 47/58/9 48/59/9 49/10/9 50/7/9 

vt 4.50668e-032 0.63
vn 1.84889e-032 1.4838e-029 -1
v 0.5625 0.63 -2.4375
vt 4.50668e-032 0.55
f 42/60/10 51/42/10 41/41/10 40/61/10 

vt 2.89727e-016 1.875
vn -4.59884e-016 1 2.88765e-016
v 1.125 0.63 -1.875
vt 1.125 1.875
vt 1.125 3
vt 2.89727e-016 2.4375
f 50/62/11 52/63/11 32/64/11 31/54/11 51/53/11 42/65/11 

vn -1.84889e-032 0 1
vt -3.46667e-032 0.63
vt -3.46667e-032 0.6
v 1.125 0.6 -1.875
f 52/20/12 50/66/12 49/67/12 53/19/12 

usemtl Asphalt
vt 3 1.875
vn 1.13634e-016 1 5.34749e-017
v 1.875 0.6 -1.875
vt 1.875 1.875
vt 1.875 3
vt -6.81805e-017 1.875
vt -6.81805e-017 1.125
v 1.125 0.6 -1.125
vt 1.125 1.125
v 1.125 0.6 -0
vt 1.125 3.2085e-017
v 1.875 0.6 -6.93035e-014
vt 1.875 6.93356e-014
f 14/68/13 54/69/13 36/70/13 33/64/13 53/63/13 49/71/13 46/72/13 55/73/13 56/74/13 57/75/13 8/2/13 7/1/13 

usemtl Stone
vt 3 0.63
v 1.875 0.63 -1.875
vt 3 0.6
f 13/76/12 58/15/12 54/16/12 14/77/12 

vt 3 2.4375
vn 2.139e-017 1 1.9251e-016
v 2.4375 0.63 -2.4375
vt 2.4375 2.4375
vt 2.4375 3
f 12/78/14 59/79/14 38/80/14 37/70/14 58/69/14 13/68/14 

vn 1.84889e-032 -1.48196e-029 -1
v 2.4375 0.55 -2.4375
f 59/47/15 12/8/15 11/38/15 60/37/15 

usemtl Grass
vt 3 3
vn 6.41699e-016 1 -1.48196e-029
f 29/81/16 28/80/16 60/79/16 11/78/16 

usemtl Stone
vn 1 -6.41699e-016 -4.62023e-014
vt 3 0.55
f 38/76/17 59/14/17 60/13/17 28/82/17 

usemtl Grass
vn 1 1.96885e-015 6.41699e-016
vt 2.4375 -5.90655e-015
vt 3 -5.90655e-015
f 29/82/18 11/13/18 10/83/18 19/84/18 

usemtl Stone
vn -1 -1.18808e-026 9.24047e-014
f 58/7/19 37/8/19 36/9/19 54/10/19 

usemtl Asphalt
vn -4.74055e-014 1.24751e-013 -1
f 33/44/20 36/10/20 35/46/20 34/45/20 

usemtl Stone
vn 1 -2.47525e-026 -9.62549e-014
f 32/76/21 52/15/21 53/16/21 33/77/21 

usemtl Asphalt
vn -1 0 -3.69779e-032
f 46/44/22 49/10/22 48/59/22 47/58/22 

usemtl Stone
vt 2.08e-032 0.63
v 1.125 0.63 -1.125
vt 2.08e-032 0.6
f 45/85/2 61/43/2 55/44/2 46/86/2 

v 1.125 0.63 -0
vt 1.125 0
vn 0 1 -0
vt 0 1.125
v 0.5625 0.63 -0.5625
vt 0.5625 0.5625
v 0.5625 0.63 -1.73259e-014
vt 0.5625 1.73259e-014
f 62/87/23 61/73/23 45/88/23 44/31/23 63/89/23 64/90/23 

vn 1 -2.97105e-026 -9.24047e-014
vt -1.03955e-013 0.63
vt -1.03955e-013 0.6
f 61/20/24 62/91/24 56/92/24 55/19/24 

vn 2.97394e-014 -7.96268e-015 1
v 0.5625 0.55 -1.73259e-014
vt 0.5625 -1.42718e-028
vt 2.4375 2.5372e-029
v 2.4375 0.55 -6.93035e-014
v 1.875 0.315 -0
vt 1.875 0.315
v 1.125 0.315 -0
vt 1.125 0.315
f 64/21/25 65/22/25 22/93/25 21/94/25 66/13/25 4/14/25 3/15/25 57/16/25 67/95/25 68/96/25 56/19/25 62/20/25 

vt 1.01068e-014 0.63
vn -1 0 4.87691e-014
v 0.5625 0.55 -0.5625
vt 1.01068e-014 0.55
f 64/97/26 63/42/26 69/41/26 65/98/26 

vt -1.04e-032 0.63
vt -1.04e-032 0.55
f 63/21/12 44/99/12 43/100/12 69/22/12 

usemtl Grass
v 0 0.55 -3.46517e-014
f 65/90/23 69/89/23 43/31/23 70/30/23 

vt -3.46517e-014 0.55
vt -3.46517e-014 0
f 70/101/9 43/41/9 24/57/9 23/102/9 

vt -3.55776e-028 -3.63862e-028
vn -1.02672e-014 -1.05005e-014 1
vt 0.5625 -4.24505e-028
vt -3.55776e-028 0.55
f 23/103/27 22/104/27 65/22/27 70/105/27 

v 3 0.55 -3.46517e-014
vn -7.18703e-014 -1.05005e-014 1
vt 2.4375 -2.56725e-027
vt 3 -2.62789e-027
f 71/82/28 66/13/28 21/106/28 20/107/28 

vt 3 3.46517e-014
v 2.4375 0.55 -0.5625
vt 2.4375 6.93035e-014
f 71/108/23 17/6/23 72/5/23 66/109/23 

vt 3.46517e-014 0
vn 1 0 1.84889e-032
vt 0.5625 0
vt 3.46517e-014 0.55
f 20/110/29 9/111/29 17/22/29 71/112/29 

usemtl Stone
f 6/76/12 5/14/12 72/13/12 17/82/12 

vn 1 0 -4.74857e-014
vt -4.6443e-014 0.63
vt -4.6443e-014 0.55
f 5/21/30 4/113/30 66/114/30 72/22/30 

vt 1.11174e-013 0.63
vn -1 -6.11152e-027 9.62549e-014
vt 1.11174e-013 0.6
f 3/115/31 2/43/31 8/44/31 57/116/31 

usemtl Asphalt
vn 4.76462e-014 1.25385e-013 1
f 57/16/32 56/19/32 68/96/32 67/95/32 

vn 1 0 3.69779e-032
f 14/16/33 7/19/33 16/18/33 15/17/33 

usemtl Stone
vn -1 -6.41699e-016 4.62023e-014
f 51/47/34 31/8/34 30/38/34 41/37/34 

