# Alias OBJ Model File
# Exported from SketchUp, (c) 2000-2012 Trimble Navigation Limited
# File units = meters

mtllib roadTile_014.mtl

g Mesh1 Group1 Model

usemtl Alternate_Dirt
v 3.81169e-013 0.455 -2.25
vt -2.25 0.455
vn -1 0 -2.25236e-013
v 3.81169e-013 0.3 -2.25
vt -2.25 0.3
v 4.62023e-014 0.3 -0.75
vt -0.75 0.3
v 4.62023e-014 0.455 -0.75
vt -0.75 0.455
f 1/1/1 2/2/1 3/3/1 4/4/1 

usemtl Grass
v 5.0245e-013 0.55 -3
vt -3 0.55
vn -1 -4.07963e-014 -1.79804e-013
v 5.0245e-013 0 -3
vt -3 1.50791e-027
v 0 1.26334e-015 -1.15506e-013
vt -1.15506e-013 1.26334e-015
v 0 0.55 -1.15506e-013
vt -1.15506e-013 0.55
v 4.62023e-014 0.55 -0.75
vt -0.75 0.55
v 3.81169e-013 0.55 -2.25
vt -2.25 0.55
f 5/5/2 6/6/2 7/7/2 8/8/2 9/9/2 4/4/2 3/3/2 2/2/2 1/1/2 10/10/2 

vt -2.48338e-013 2.68e-013
vn 8.47043e-014 -8.93334e-014 -1
vt -2.48338e-013 0.55
v 0.75 0.55 -3
v 0.75 0.455 -3
v 0.75 0.3 -3
v 2.25 0.3 -3
v 2.25 0.455 -3
v 2.25 0.55 -3
v 3 0.55 -3
v 3 1.80478e-016 -3
vt -3 2.68181e-013
f 6/11/3 5/12/3 11/9/3 12/4/3 13/3/3 14/2/3 15/1/3 16/10/3 17/5/3 18/13/3 

vt 5.03178e-013 3
vn -1.32234e-015 1 -1.2927e-015
vt 3.81897e-013 2.25
v 0.521265 0.55 -2.42545
vt 0.521265 2.42545
vt 0.75 3
f 5/14/4 10/15/4 19/16/4 11/17/4 

usemtl Alternate_Dirt
vt 0.717753 0.455
vn 0.319001 1.64699e-015 0.947754
v 0.521265 0.455 -2.42545
vt 1.26775 0.455
vt 1.26775 0.55
vt 0.717753 0.55
f 1/18/5 20/19/5 19/20/5 10/21/5 

vt 3.8119e-013 2.25
vn -4.51666e-017 1 4.69481e-017
vt 4.62229e-014 0.75
v 0.569028 0.455 -0.540508
vt 0.569028 0.540508
v 0.75 0.455 -1.61708e-013
vt 0.75 1.6173e-013
v 2.25 0.455 -1.03955e-013
vt 2.25 1.03977e-013
v 2.52693 0.455 -0.559473
vt 2.52693 0.559473
v 3 0.455 -0.75
vt 3 0.75
v 3 0.455 -2.25
vt 3 2.25
v 2.41971 0.455 -2.46442
vt 2.41971 2.46442
vt 2.25 3
f 1/22/6 4/23/6 21/24/6 22/25/6 23/26/6 24/27/6 25/28/6 26/29/6 27/30/6 15/31/6 12/17/6 20/16/6 

vt -0.34725 0.455
vn 0.345488 -9.55641e-016 -0.938423
vt 0.259116 0.455
vt 0.259116 0.55
v 0.569028 0.55 -0.540508
vt -0.34725 0.55
f 21/32/7 4/33/7 9/34/7 28/35/7 

usemtl Grass
vt -4.15738e-016 1.15099e-013
vn 7.55887e-016 1 -7.40062e-016
v 0.75 0.55 -1.61708e-013
vt 0.75 1.61301e-013
vt 4.57866e-014 0.75
f 8/36/8 29/37/8 28/24/8 9/38/8 

vt -5.29214e-040 1.26334e-015
vn -4.5817e-027 2.09212e-015 1
v 3 1.53406e-015 -1.15506e-013
vt 3 1.53406e-015
v 3 0.55 -1.15506e-013
vt 3 0.55
v 2.25 0.55 -1.03955e-013
vt 2.25 0.55
vt 2.25 0.455
v 2.25 0.3 -0
vt 2.25 0.3
v 0.75 0.3 -2.31012e-014
vt 0.75 0.3
vt 0.75 0.455
vt 0.75 0.55
vt -5.29214e-040 0.55
f 7/39/9 30/40/9 31/41/9 32/42/9 23/43/9 33/44/9 34/45/9 22/46/9 29/47/9 8/48/9 

vt -3 1.15506e-013
vn -9.94111e-017 -1 3.17291e-016
vt 1.2559e-031 1.15506e-013
vt -5.0245e-013 3
vt -3 3
f 30/49/10 7/50/10 6/51/10 18/52/10 

vt 7.34617e-013 0.55
vn 1 4.08486e-014 2.0637e-013
vt 7.34617e-013 -1.21012e-013
vt 3 -1.22365e-013
v 3 0.55 -2.25
v 3 0.3 -2.25
v 3 0.3 -0.75
v 3 0.55 -0.75
f 31/53/11 30/54/11 18/55/11 17/41/11 35/42/11 26/43/11 36/44/11 37/45/11 25/46/11 38/47/11 

vt 3 3
vn 1.62182e-015 1 -1.65321e-015
v 2.41971 0.55 -2.46442
f 17/56/12 16/31/12 39/30/12 35/29/12 

usemtl Alternate_Dirt
vt -2.18021 0.455
vn -0.953287 2.04544e-015 0.302067
vt -1.61839 0.455
vt -1.61839 0.55
vt -2.18021 0.55
f 15/57/13 27/58/13 39/59/13 16/60/13 

vt 1.41554 0.455
vn -0.346602 2.11286e-015 0.938012
vt 2.03418 0.455
vt 2.03418 0.55
vt 1.41554 0.55
f 27/61/14 26/62/14 35/63/14 39/64/14 

vn 1 0 2.19461e-013
f 25/46/15 37/45/15 36/44/15 26/43/15 

vt -3.06298 0.455
vn -0.373583 -4.59074e-016 -0.927597
vt -2.55298 0.455
v 2.52693 0.55 -0.559473
vt -2.55298 0.55
vt -3.06298 0.55
f 25/65/16 24/66/16 40/67/16 38/68/16 

vt -1.62238 0.455
vn -0.896221 -4.7315e-016 -0.443608
vt -0.998118 0.455
vt -0.998118 0.55
vt -1.62238 0.55
f 24/69/17 23/70/17 32/71/17 40/72/17 

usemtl Grass
vt 3 1.15312e-013
vn -3.53427e-016 1 -3.52566e-016
vt 2.25 1.03761e-013
f 31/73/18 38/28/18 40/27/18 32/74/18 

usemtl Alternate_Dirt
vn -3.78653e-029 7.45199e-013 1
f 22/46/19 34/45/19 33/44/19 23/43/19 

vt -0.238121 0.455
vn 0.94826 -9.51743e-016 -0.317495
vt 0.331879 0.455
vt 0.331879 0.55
vt -0.238121 0.55
f 22/75/20 21/76/20 28/77/20 29/78/20 

vn 2.31012e-014 -5.21639e-013 -1
f 15/1/21 14/2/21 13/3/21 12/4/21 

vt 2.44624 0.455
vn 0.92908 1.7067e-015 0.369878
vt 3.06465 0.455
vt 3.06465 0.55
vt 2.44624 0.55
f 20/79/22 12/80/22 11/81/22 19/82/22 

