# Alias OBJ Model File
# Exported from SketchUp, (c) 2000-2012 Trimble Navigation Limited
# File units = meters

mtllib roadTile_297.mtl

g Mesh1 Group1 Model

usemtl Asphalt
v 1.88415 0.6 -2.52814
vt 1.88415 2.52814
vn -4.00666e-016 1 4.33076e-016
v 1.875 0.6 -2.625
vt 1.875 2.625
v 0.375 0.6 -2.625
vt 0.375 2.625
v 0.381827 0.6 -2.32691
vt 0.381827 2.32691
v 0.429783 0.6 -2.03263
vt 0.429783 2.03263
v 0.517946 0.6 -1.74779
vt 0.517946 1.74779
v 0.644626 0.6 -1.47787
vt 0.644626 1.47787
v 0.807391 0.6 -1.22805
vt 0.807391 1.22805
v 1.00312 0.6 -1.00312
vt 1.00312 1.00312
v 1.22805 0.6 -0.807391
vt 1.22805 0.807391
v 1.47787 0.6 -0.644626
vt 1.47787 0.644626
v 1.74779 0.6 -0.517946
vt 1.74779 0.517946
v 2.03263 0.6 -0.429783
vt 2.03263 0.429783
v 2.32691 0.6 -0.381827
vt 2.32691 0.381827
v 2.625 0.6 -0.375
vt 2.625 0.375
v 2.625 0.6 -1.875
vt 2.625 1.875
v 2.52814 0.6 -1.88415
vt 2.52814 1.88415
v 2.43319 0.6 -1.90537
vt 2.43319 1.90537
v 2.34165 0.6 -1.93832
vt 2.34165 1.93832
v 2.25496 0.6 -1.98248
vt 2.25496 1.98248
v 2.17449 0.6 -2.03717
vt 2.17449 2.03717
v 2.10151 0.6 -2.10151
vt 2.10151 2.10151
v 2.03717 0.6 -2.17449
vt 2.03717 2.17449
v 1.98248 0.6 -2.25496
vt 1.98248 2.25496
v 1.93832 0.6 -2.34165
vt 1.93832 2.34165
v 1.90537 0.6 -2.43319
vt 1.90537 2.43319
f 1/1/1 2/2/1 3/3/1 4/4/1 5/5/1 6/6/1 7/7/1 8/8/1 9/9/1 10/10/1 11/11/1 12/12/1 13/13/1 14/14/1 15/15/1 16/16/1 17/17/1 18/18/1 19/19/1 20/20/1 21/21/1 22/22/1 23/23/1 24/24/1 25/25/1 26/26/1 

usemtl Stone
vt -2.43707 0.6
vn -0.99557 2.38051e-015 0.0940266
vt -2.33978 0.6
vn -0.9877 2.4995e-015 0.156361
v 1.88415 0.63 -2.52814
vt -2.33978 0.63
v 1.875 0.63 -2.625
vt -2.43707 0.63
f 2/27/2 1/28/3 27/29/3 28/30/2 

vt -2.0564 0.6
vt -1.95911 0.6
vn -0.96031 2.70746e-015 0.278934
v 1.90537 0.63 -2.43319
vt -1.95911 0.63
vt -2.0564 0.63
f 1/31/3 26/32/4 29/33/4 27/34/3 

vt -1.64406 0.6
vt -1.54677 0.6
vn -0.917772 2.8727e-015 0.397107
v 1.93832 0.63 -2.34165
vt -1.54677 0.63
vt -1.64406 0.63
f 26/35/4 25/36/5 30/37/5 29/38/4 

vt -1.20655 0.6
vt -1.10926 0.6
vn -0.860757 2.99263e-015 0.509016
v 1.98248 0.63 -2.25496
vt -1.10926 0.63
vt -1.20655 0.63
f 25/39/5 24/40/6 31/41/6 30/42/5 

vt -0.750776 0.6
vt -0.653484 0.6
vn -0.790164 3.06535e-015 0.612895
v 2.03717 0.63 -2.17449
vt -0.653484 0.63
vt -0.750776 0.63
f 24/43/6 23/44/7 32/45/7 31/46/6 

vt -0.283926 0.6
vt -0.186634 0.6
vn -0.707107 3.08972e-015 0.707107
v 2.10151 0.63 -2.10151
vt -0.186634 0.63
vt -0.283926 0.63
f 23/47/7 22/48/8 33/49/8 32/50/7 

vt 0.186634 0.6
vt 0.283926 0.6
vn -0.612895 3.06535e-015 0.790164
v 2.17449 0.63 -2.03717
vt 0.283926 0.63
vt 0.186634 0.63
f 22/51/8 21/52/9 34/53/9 33/54/8 

vt 0.653484 0.6
vt 0.750776 0.6
vn -0.509016 2.99263e-015 0.860757
v 2.25496 0.63 -1.98248
vt 0.750776 0.63
vt 0.653484 0.63
f 21/55/9 20/56/10 35/57/10 34/58/9 

vt 1.10926 0.6
vt 1.20655 0.6
vn -0.397107 2.8727e-015 0.917772
v 2.34165 0.63 -1.93832
vt 1.20655 0.63
vt 1.10926 0.63
f 20/59/10 19/60/11 36/61/11 35/62/10 

vt 1.54677 0.6
vt 1.64406 0.6
vn -0.278934 2.70746e-015 0.96031
v 2.43319 0.63 -1.90537
vt 1.64406 0.63
vt 1.54677 0.63
f 19/63/11 18/64/12 37/65/12 36/66/11 

vt 1.95911 0.6
vt 2.0564 0.6
vn -0.156361 2.4995e-015 0.9877
v 2.52814 0.63 -1.88415
vt 2.0564 0.63
vt 1.95911 0.63
f 18/67/12 17/68/13 38/69/13 37/70/12 

vt 2.33978 0.6
vt 2.43707 0.6
vn -0.0940266 2.38051e-015 0.99557
v 2.625 0.63 -1.875
vt 2.43707 0.63
vt 2.33978 0.63
f 17/71/13 16/72/14 39/73/14 38/74/13 

v 2.625 4.33147e-015 -0
vt 6.06406e-015 8.0747e-014
vn 1 -2.91107e-014 2.31012e-015
v 2.625 3.60956e-015 -2.25
vt 2.25 8.00251e-014
v 2.625 0.63 -2.25
vt 2.25 0.63
vt 1.875 0.63
vt 1.875 0.6
v 2.625 0.3 -1.875
vt 1.875 0.3
v 2.625 0.3 -0.375
vt 0.375 0.3
vt 0.375 0.6
v 2.625 0.63 -0.375
vt 0.375 0.63
v 2.625 0.63 -2.77214e-013
vt 2.83278e-013 0.63
f 40/75/15 41/76/15 42/77/15 39/78/15 16/79/15 43/80/15 44/81/15 15/82/15 45/83/15 46/84/15 

v 0 3.60956e-015 -2.625
vt -1.13807e-030 2.625
vn 3.15293e-016 -1 -1.14047e-015
v 2.25 3.60956e-015 -2.625
vt -2.25 2.625
v 2.25321 1.91307e-014 -2.57605
vt -2.25321 2.57605
v 2.26278 1.91307e-014 -2.52794
vt -2.26278 2.52794
v 2.27855 1.91307e-014 -2.48149
vt -2.27855 2.48149
v 2.30024 1.91307e-014 -2.4375
vt -2.30024 2.4375
v 2.32749 1.91307e-014 -2.39671
vt -2.32749 2.39671
v 2.35983 2.05745e-014 -2.35983
vt -2.35983 2.35983
v 2.39671 2.05745e-014 -2.32749
vt -2.39671 2.32749
v 2.4375 2.05745e-014 -2.30024
vt -2.4375 2.30024
v 2.48149 2.05745e-014 -2.27855
vt -2.48149 2.27855
v 2.52794 2.05745e-014 -2.26278
vt -2.52794 2.26278
v 2.57605 2.05745e-014 -2.25321
vt -2.57605 2.25321
vt -2.625 2.25
vt -2.625 3.99601e-030
v 2.28237 0 -0.0224572
vt -2.28237 0.0224572
v 1.9456 0 -0.0894447
vt -1.9456 0.0894447
v 1.62046 0 -0.199816
vt -1.62046 0.199816
v 1.3125 0 -0.351683
vt -1.3125 0.351683
v 1.027 1.44382e-015 -0.542447
vt -1.027 0.542447
v 0.768845 1.44382e-015 -0.768845
vt -0.768845 0.768845
v 0.542447 1.44382e-015 -1.027
vt -0.542447 1.027
v 0.351683 1.44382e-015 -1.3125
vt -0.351683 1.3125
v 0.199816 2.88765e-015 -1.62046
vt -0.199816 1.62046
v 0.0894447 2.88765e-015 -1.9456
vt -0.0894447 1.9456
v 0.0224572 2.88765e-015 -2.28237
vt -0.0224572 2.28237
f 47/85/16 48/86/16 49/87/16 50/88/16 51/89/16 52/90/16 53/91/16 54/92/16 55/93/16 56/94/16 57/95/16 58/96/16 59/97/16 41/98/16 40/99/16 60/100/16 61/101/16 62/102/16 63/103/16 64/104/16 65/105/16 66/106/16 67/107/16 68/108/16 69/109/16 70/110/16 

vt -2.25 1.53192e-012
vn -4.92825e-014 -5.82214e-013 -1
vt -1.29367e-013 1.53192e-012
v 0 0.63 -2.625
vt -1.29367e-013 0.63
v 0.375 0.63 -2.625
vt -0.375 0.63
vt -0.375 0.6
v 0.375 0.3 -2.625
vt -0.375 0.3
v 1.875 0.3 -2.625
vt -1.875 0.3
vt -1.875 0.6
vt -1.875 0.63
v 2.25 0.63 -2.625
vt -2.25 0.63
f 48/111/17 47/112/17 71/113/17 72/114/17 3/115/17 73/116/17 74/117/17 2/118/17 28/119/17 75/120/17 

v 0.0224572 0.63 -2.28237
vt -2.27601 0.63
vn -0.991445 9.80545e-015 0.130526
vt -2.61938 0.63
vn -0.997859 1.89628e-014 0.0654031
vt -2.61938 6.86515e-015
vt -2.27601 6.14324e-015
f 76/121/18 71/122/19 47/123/19 70/124/18 

vn -1.05999e-015 1 1.8539e-015
vt 6.67794e-016 2.625
vt 0.0224572 2.28237
v 0.0894447 0.63 -1.9456
vt 0.0894447 1.9456
v 0.199816 0.63 -1.62046
vt 0.199816 1.62046
v 0.351683 0.63 -1.3125
vt 0.351683 1.3125
v 0.542447 0.63 -1.027
vt 0.542447 1.027
v 0.768845 0.63 -0.768845
vt 0.768845 0.768845
v 1.027 0.63 -0.542447
vt 1.027 0.542447
v 1.3125 0.63 -0.351683
vt 1.3125 0.351683
v 1.62046 0.63 -0.199816
vt 1.62046 0.199816
v 1.9456 0.63 -0.0894447
vt 1.9456 0.0894447
v 2.28237 0.63 -0.0224572
vt 2.28237 0.0224572
vt 2.625 2.78382e-013
v 2.32691 0.63 -0.381827
v 2.03263 0.63 -0.429783
v 1.74779 0.63 -0.517946
v 1.47787 0.63 -0.644626
v 1.22805 0.63 -0.807391
v 1.00312 0.63 -1.00312
v 0.807391 0.63 -1.22805
v 0.644626 0.63 -1.47787
v 0.517946 0.63 -1.74779
v 0.429783 0.63 -2.03263
v 0.381827 0.63 -2.32691
f 72/3/20 71/125/20 76/126/20 77/127/20 78/128/20 79/129/20 80/130/20 81/131/20 82/132/20 83/133/20 84/134/20 85/135/20 86/136/20 46/137/20 45/15/20 87/14/20 88/13/20 89/12/20 90/11/20 91/10/20 92/9/20 93/8/20 94/7/20 95/6/20 96/5/20 97/4/20 

vt -1.89077 0.63
vn -0.965926 5.83487e-016 0.258819
vt -2.23413 0.63
vt -2.23413 3.17089e-015
vt -1.89077 3.17089e-015
f 77/138/21 76/139/18 70/140/18 69/141/21 

vt -1.47023 0.63
vn -0.92388 5.30816e-016 0.382683
vt -1.8136 0.63
vt -1.8136 3.28412e-015
vt -1.47023 3.28412e-015
f 78/142/22 77/143/21 69/144/21 68/145/22 

vt -1.0216 0.63
vn -0.866025 4.69062e-016 0.5
vt -1.36497 0.63
vt -1.36497 3.33651e-015
vt -1.0216 1.89269e-015
f 79/146/23 78/147/22 68/148/22 67/149/23 

vt -0.552553 0.63
vn -0.793353 3.99283e-016 0.608761
vt -0.895919 0.63
vt -0.895919 1.88833e-015
vt -0.552553 1.88833e-015
f 80/150/24 79/151/23 67/152/23 66/153/24 

vt -0.0711135 0.63
vn -0.707107 3.22672e-016 0.707107
vt -0.41448 0.63
vt -0.41448 1.83632e-015
vt -0.0711135 1.83632e-015
f 81/154/25 80/155/24 66/156/24 65/157/25 

vt 0.41448 0.63
vn -0.608761 2.4054e-016 0.793353
vt 0.0711135 0.63
vt 0.0711135 1.75002e-015
vt 0.41448 1.75002e-015
f 82/158/26 81/159/25 65/160/25 64/161/26 

vt 0.895919 0.63
vn -0.5 1.54292e-016 0.866025
vt 0.552553 0.63
vt 0.552553 1.64594e-015
vt 0.895919 2.02112e-016
f 83/162/27 82/163/26 64/164/26 63/165/27 

vt 1.36497 0.63
vn -0.382683 6.54038e-017 0.92388
vt 1.0216 0.63
vt 1.0216 9.86258e-017
vt 1.36497 9.86258e-017
f 84/166/28 83/167/27 63/168/27 62/169/28 

vt 1.8136 0.63
vn -0.258819 -2.46032e-017 0.965926
vt 1.47023 0.63
vt 1.47023 1.45171e-017
vt 1.8136 1.45171e-017
f 85/170/29 84/171/28 62/172/28 61/173/29 

vt 2.23413 0.63
vn -0.130526 1.10497e-013 0.991445
vt 1.89077 0.63
vt 1.89077 -3.2498e-017
vt 2.23413 -3.2498e-017
f 86/174/30 85/175/29 61/176/29 60/177/30 

vt 2.61938 0.63
vn -0.0654031 2.2059e-013 0.997859
vt 2.27601 0.63
vt 2.27601 3.78716e-014
vt 2.61938 4.22031e-014
f 46/178/31 86/179/30 60/180/30 40/181/31 

vt -2.61572 0.6
vn 0.022898 3.45431e-016 -0.999738
vt -2.31756 0.6
vn 0.0920874 3.66445e-016 -0.995751
vt -2.31756 0.63
vt -2.61572 0.63
f 15/182/32 14/183/33 87/184/33 45/185/32 

vt -2.23521 0.6
vt -1.93704 0.6
vn 0.228809 4.03099e-016 -0.973471
vt -1.93704 0.63
vt -2.23521 0.63
f 14/186/33 13/187/34 88/188/34 87/189/33 

vt -1.81466 0.6
vt -1.51649 0.6
vn 0.36114 4.32019e-016 -0.932512
vt -1.51649 0.63
vt -1.81466 0.63
f 13/190/34 12/191/35 89/192/35 88/193/34 

vt -1.36215 0.6
vt -1.06398 0.6
vn 0.486541 4.52649e-016 -0.873658
vt -1.06398 0.63
vt -1.36215 0.63
f 12/194/35 11/195/36 90/196/36 89/197/35 

vt -0.88636 0.6
vt -0.588193 0.6
vn 0.602606 4.64592e-016 -0.798039
vt -0.588193 0.63
vt -0.88636 0.63
f 11/198/36 10/199/37 91/200/37 90/201/36 

vt -0.396424 0.6
vt -0.0982573 0.6
vn 0.707107 4.67621e-016 -0.707107
vt -0.0982573 0.63
vt -0.396424 0.63
f 10/202/37 9/203/38 92/204/38 91/205/37 

vt 0.0982573 0.6
vt 0.396424 0.6
vn 0.798039 4.61676e-016 -0.602606
vt 0.396424 0.63
vt 0.0982573 0.63
f 9/206/38 8/207/39 93/208/39 92/209/38 

vt 0.588193 0.6
vt 0.88636 0.6
vn 0.873658 4.46872e-016 -0.486541
vt 0.88636 0.63
vt 0.588193 0.63
f 8/210/39 7/211/40 94/212/40 93/213/39 

vt 1.06398 0.6
vt 1.36215 0.6
vn 0.932512 4.23493e-016 -0.36114
vt 1.36215 0.63
vt 1.06398 0.63
f 7/214/40 6/215/41 95/216/41 94/217/40 

vt 1.51649 0.6
vt 1.81466 0.6
vn 0.973471 3.91988e-016 -0.228809
vt 1.81466 0.63
vt 1.51649 0.63
f 6/218/41 5/219/42 96/220/42 95/221/41 

vt 1.93704 0.6
vt 2.23521 0.6
vn 0.995751 3.5296e-016 -0.0920874
vt 2.23521 0.63
vt 1.93704 0.63
f 5/222/42 4/223/43 97/224/43 96/225/42 

vt 2.31756 0.6
vt 2.61572 0.6
vn 0.999738 3.30854e-016 -0.022898
vt 2.61572 0.63
vt 2.31756 0.63
f 4/226/43 3/227/44 72/228/44 97/229/43 

usemtl Asphalt
vn 1.95397e-013 -2.64701e-013 -1
f 2/118/45 74/117/45 73/116/45 3/115/45 

usemtl Stone
vn -2.53977e-015 1 1.92222e-015
vt 2.625 2.25
v 2.57605 0.63 -2.25321
vt 2.57605 2.25321
v 2.52794 0.63 -2.26278
vt 2.52794 2.26278
v 2.48149 0.63 -2.27855
vt 2.48149 2.27855
v 2.4375 0.63 -2.30024
vt 2.4375 2.30024
v 2.39671 0.63 -2.32749
vt 2.39671 2.32749
v 2.35983 0.63 -2.35983
vt 2.35983 2.35983
v 2.32749 0.63 -2.39671
vt 2.32749 2.39671
v 2.30024 0.63 -2.4375
vt 2.30024 2.4375
v 2.27855 0.63 -2.48149
vt 2.27855 2.48149
v 2.26278 0.63 -2.52794
vt 2.26278 2.52794
v 2.25321 0.63 -2.57605
vt 2.25321 2.57605
vt 2.25 2.625
f 39/16/46 42/230/46 98/231/46 99/232/46 100/233/46 101/234/46 102/235/46 103/236/46 104/237/46 105/238/46 106/239/46 107/240/46 108/241/46 75/242/46 28/2/46 27/1/46 29/26/46 30/25/46 31/24/46 32/23/46 33/22/46 34/21/46 35/20/46 36/19/46 37/18/46 38/17/46 

vt -2.42317 0.63
vn 0.130526 -1.09397e-013 -0.991445
vt -2.47222 0.63
vn 0.0654031 -2.1984e-013 -0.997859
vt -2.47222 5.34933e-013
vt -2.42317 5.51898e-013
f 98/243/47 42/244/48 41/245/48 59/246/47 

vt -2.03792 0.63
vn 0.258819 1.74734e-015 -0.965926
vt -2.08698 0.63
vt -2.08698 1.64693e-014
vt -2.03792 1.64693e-014
f 99/247/49 98/248/47 59/249/47 58/250/49 

vt -1.61739 0.63
vn 0.382683 2.1917e-015 -0.92388
vt -1.66644 0.63
vt -1.66644 1.47415e-014
vt -1.61739 1.47415e-014
f 100/251/50 99/252/49 58/253/49 57/254/50 

vt -1.16876 0.63
vn 0.5 2.59855e-015 -0.866025
vt -1.21781 0.63
vt -1.21781 1.3035e-014
vt -1.16876 1.3035e-014
f 101/255/51 100/256/50 57/257/50 56/258/51 

vt -0.69971 0.63
vn 0.608761 2.96095e-015 -0.793353
vt -0.748762 0.63
vt -0.748762 1.14742e-014
vt -0.69971 1.14742e-014
f 102/259/52 101/260/51 56/261/51 55/262/52 

vt -0.218271 0.63
vn 0.707107 3.27268e-015 -0.707107
vt -0.267323 0.63
vt -0.267323 1.01727e-014
vt -0.218271 1.01727e-014
f 103/263/53 102/264/52 55/265/52 54/266/53 

vt 0.267323 0.63
vn 0.793353 3.52841e-015 -0.608761
vt 0.218271 0.63
vt 0.218271 9.2258e-015
vt 0.267323 7.78198e-015
f 104/267/54 103/268/53 54/269/53 53/270/54 

vt 0.748762 0.63
vn 0.866025 3.72378e-015 -0.5
vt 0.69971 0.63
vt 0.69971 7.25958e-015
vt 0.748762 7.25958e-015
f 105/271/55 104/272/54 53/273/54 52/274/55 

vt 1.21781 0.63
vn 0.92388 3.85542e-015 -0.382683
vt 1.16876 0.63
vt 1.16876 7.2016e-015
vt 1.21781 7.2016e-015
f 106/275/56 105/276/55 52/277/55 51/278/56 

vt 1.66644 0.63
vn 0.965926 3.9211e-015 -0.258819
vt 1.61739 0.63
vt 1.61739 7.61512e-015
vt 1.66644 7.61512e-015
f 107/279/57 106/280/56 51/281/56 50/282/57 

vt 2.08698 0.63
vn 0.991445 1.85712e-015 -0.130526
vt 2.03792 0.63
vt 2.03792 8.47385e-015
vt 2.08698 8.47385e-015
f 108/283/58 107/284/57 50/285/57 49/286/58 

vt 2.47222 0.63
vn 0.997859 -2.22516e-016 -0.0654031
vt 2.42317 0.63
vt 2.42317 1.96684e-014
vt 2.47222 4.14735e-015
f 75/287/59 108/288/58 49/289/58 48/290/59 

usemtl Asphalt
vn 1 9.62549e-015 -5.77529e-015
f 15/82/60 44/81/60 43/80/60 16/79/60 

