# Alias OBJ Model File
# Exported from SketchUp, (c) 2000-2012 Trimble Navigation Limited
# File units = meters

mtllib roadTile_247.mtl

g Mesh1 Group1 Model

usemtl Stone
v 0 0.47 -0
vt 0 0.47
vn 1.70774e-014 -8.3825e-015 1
v 1.71818 0.47 -3.46517e-014
vt 1.71818 0.47
v 3 0 -6.35282e-014
vt 3 -1.03072e-028
v 3 1.1 -5.19776e-014
vt 3 1.1
v 0 1.1 -0
vt 0 1.1
f 1/1/1 2/2/1 3/3/1 4/4/1 5/5/1 

vt -5.646e-016 4.41088e-015
vn 1.20128e-015 -1 -9.38485e-015
v 6.5601e-014 0.47 -3
vt -6.61656e-014 3
v 1.71818 0.47 -3
vt -1.71818 3
vt -1.71818 3.90626e-014
f 1/6/2 6/7/2 7/8/2 2/9/2 

v 6.5601e-014 1.1 -3
vt -3 1.1
vn -1 2.74907e-015 1.63933e-014
vt -3 0.47
v 6.78364e-014 1.1 -0.75
vt -0.75 1.1
v 6.78364e-014 1.07 -0.75
vt -0.75 1.07
v 6.78364e-014 0.77 -0.75
vt -0.75 0.77
v 4.97422e-014 0.77 -2.25
vt -2.25 0.77
v 4.97422e-014 1.07 -2.25
vt -2.25 1.07
v 4.97422e-014 1.1 -2.25
vt -2.25 1.1
f 8/10/3 6/11/3 1/1/3 5/5/3 9/12/3 10/13/3 11/14/3 12/15/3 13/16/3 14/17/3 

v 3 1.1 -3
vn -1.61535e-014 1.06352e-014 -1
v 3 8.30198e-014 -3
vt -3 5.11142e-014
vt -1.71818 0.47
vt -1.14062e-013 0.47
vt -1.14062e-013 1.1
f 15/10/4 16/18/4 7/19/4 6/20/4 8/21/4 

vt 8.54743e-014 1.53578e-013
vn 1 -5.11925e-014 7.31537e-015
vt 3 2.36597e-013
v 3 1.1 -2.25
vt 2.25 1.1
v 3 1.07 -2.25
vt 2.25 1.07
v 3 0.77 -2.25
vt 2.25 0.77
v 3 0.77 -0.75
vt 0.75 0.77
v 3 1.07 -0.75
vt 0.75 1.07
v 3 1.1 -0.75
vt 0.75 1.1
vt 7.39237e-014 1.1
f 3/22/5 16/23/5 15/4/5 17/24/5 18/25/5 19/26/5 20/27/5 21/28/5 22/29/5 4/30/5 

vt -2.49352e-013 -2.81663
vn -0.344255 -0.938876 -2.13236e-014
vt -1.41078e-013 -1.45136
vt -3 -1.45136
vt -3 -2.81663
f 3/31/6 2/32/6 7/33/6 16/34/6 

vt 3 2.25
vn 0 1 -0
vt 3 3
vt 6.5601e-014 3
vt 4.97422e-014 2.25
f 17/35/7 15/36/7 8/37/7 14/38/7 

vt 8.66294e-014 1.07
vn 1.63943e-014 0 1
vt 3 1.07
vt 8.66294e-014 1.1
f 13/39/8 18/40/8 17/4/8 14/41/8 

usemtl Asphalt
vt 6.78364e-014 0.75
vt 3 0.75
f 18/35/7 13/38/7 10/42/7 21/43/7 

vn -1 9.62549e-015 1.54008e-014
f 13/16/9 12/15/9 11/14/9 10/13/9 

usemtl Stone
vt -3 1.07
vn -1.63943e-014 0 -1
vt -8.01322e-014 1.07
vt -8.01322e-014 1.1
f 21/44/10 10/45/10 9/46/10 22/10/10 

vt 0 0
vt 3 5.19776e-014
f 9/42/7 5/47/7 4/48/7 22/43/7 

usemtl Asphalt
vn 1 -1.9251e-014 -1.54008e-014
f 21/28/11 20/27/11 19/26/11 18/25/11 

