# Alias OBJ Model File
# Exported from SketchUp, (c) 2000-2012 Trimble Navigation Limited
# File units = meters

mtllib roadTile_081.mtl

g Mesh1 Group1 Model

usemtl Water
v 3 0.455 -1.38607e-013
vt 3 0.455
vn -1.81344e-012 4.49648e-012 1
v 1.875 0.455 -4.22751e-012
vt 1.875 0.455
v 1.875 1.17311e-015 -1.38607e-013
vt 1.875 1.17311e-015
v 3 1.6243e-015 -1.38607e-013
vt 3 1.6243e-015
f 1/1/1 2/2/1 3/3/1 4/4/1 

v 4.06292e-012 0.455 -3
vt 4.06323e-012 3
vn -6.84576e-016 1 2.71864e-014
v 0 0.455 -1.875
vt 3.11482e-016 1.875
v 0.244737 0.455 -1.85896
vt 0.244737 1.85896
v 0.485286 0.455 -1.81111
vt 0.485286 1.81111
v 0.717531 0.455 -1.73227
vt 0.717531 1.73227
v 0.9375 0.455 -1.6238
vt 0.9375 1.6238
v 1.14143 0.455 -1.48754
vt 1.14143 1.48754
v 1.32583 0.455 -1.32583
vt 1.32583 1.32583
v 1.48754 0.455 -1.14143
vt 1.48754 1.14143
v 1.6238 0.455 -0.9375
vt 1.6238 0.9375
v 1.73227 0.455 -0.717531
vt 1.73227 0.717531
v 1.81111 0.455 -0.485286
vt 1.81111 0.485286
v 1.85896 0.455 -0.244737
vt 1.85896 0.244737
vt 1.875 4.23988e-012
vt 3 1.50977e-013
v 3 0.455 -3
vt 3 3
f 5/5/2 6/6/2 7/7/2 8/8/2 9/9/2 10/10/2 11/11/2 12/12/2 13/13/2 14/14/2 15/15/2 16/16/2 17/17/2 2/18/2 1/19/2 18/20/2 

v 4.06292e-012 0 -3
vt -3 6.79487e-024
vn -1 -4.29656e-012 -1.88146e-012
v 3.89832e-012 9.02389e-017 -1.875
vt -1.875 9.02389e-017
vt -1.875 0.455
vt -3 0.455
f 19/21/3 20/22/3 6/23/3 5/24/3 

usemtl Grass
v 0.375 6.31672e-016 -1.03955e-013
vt -0.375 1.03955e-013
vn 5.11354e-016 -1 8.21688e-017
v 3.67309e-012 3.60956e-016 -0
vt -3.67309e-012 -2.96593e-032
v 3.70774e-012 3.60956e-016 -0.375
vt -3.70774e-012 0.375
v 3.74239e-012 3.60956e-016 -0.75
vt -3.74239e-012 0.75
vt -3.89832e-012 1.875
vt -4.06292e-012 3
v 3 1.6243e-015 -3
vt -3 3
vt -3 1.38607e-013
vt -1.875 1.38607e-013
v 0.75 6.31672e-016 -1.38607e-013
vt -0.75 1.38607e-013
f 21/25/4 22/26/4 23/27/4 24/28/4 20/29/4 19/30/4 25/31/4 4/32/4 3/33/4 26/34/4 

vt 3.67309e-012 3.60956e-016
vn 2.15611e-013 -2.10011e-014 1
vt 0.375 6.31672e-016
v 0.375 0.55 -6.93035e-014
vt 0.375 0.55
v 3.67309e-012 0.55 -0
vt 3.67309e-012 0.55
f 22/35/5 21/36/5 27/37/5 28/38/5 

usemtl Stone
v 0.375 0.63 -6.93035e-014
vt 0.375 0.63
vn 3.4614e-014 -7.6438e-014 1
vt 0.75 6.31672e-016
v 0.75 0.455 -6.93035e-014
vt 0.75 0.455
v 0.75 0.63 -6.93035e-014
vt 0.75 0.63
f 29/39/6 27/37/6 21/36/6 26/40/6 30/41/6 31/42/6 

v 0.371792 0.55 -0.0489473
vt -0.0245262 0.55
vn -0.991445 -1.45967e-015 0.130526
vt 0.0245262 0.55
vn -0.997859 -1.32225e-015 0.0654031
vt 0.0245262 0.63
v 0.371792 0.63 -0.0489473
vt -0.0245262 0.63
f 32/43/7 27/44/8 29/45/8 33/46/7 

usemtl Grass
vt 3.6724e-012 1.58451e-015
vn 1.2384e-015 1 2.88093e-015
vt 0.375 7.0888e-014
vt 0.371792 0.0489473
v 0.362222 0.55 -0.0970571
vt 0.362222 0.0970571
v 0.346455 0.55 -0.143506
vt 0.346455 0.143506
v 0.32476 0.55 -0.1875
vt 0.32476 0.1875
v 0.297508 0.55 -0.228286
vt 0.297508 0.228286
v 0.265165 0.55 -0.265165
vt 0.265165 0.265165
v 0.228286 0.55 -0.297508
vt 0.228286 0.297508
v 0.1875 0.55 -0.32476
vt 0.1875 0.32476
v 0.143506 0.55 -0.346455
vt 0.143506 0.346455
v 0.0970571 0.55 -0.362222
vt 0.0970571 0.362222
v 0.0489473 0.55 -0.371792
vt 0.0489473 0.371792
v 3.70774e-012 0.55 -0.375
vt 3.70706e-012 0.375
f 28/47/9 27/48/9 32/49/9 34/50/9 35/51/9 36/52/9 37/53/9 38/54/9 39/55/9 40/56/9 41/57/9 42/58/9 43/59/9 44/60/9 

usemtl Stone
vn -0.965926 -1.71522e-015 0.258819
v 0.362222 0.63 -0.0970571
f 34/43/10 32/44/7 33/45/7 45/46/10 

v 3.72506e-012 0.63 -0.75
vt 3.72581e-012 0.75
vn -1.17915e-015 1 2.22644e-015
v 3.70774e-012 0.63 -0.375
vt 3.70848e-012 0.375
v 0.0489473 0.63 -0.371792
v 0.0970571 0.63 -0.362222
v 0.143506 0.63 -0.346455
v 0.1875 0.63 -0.32476
v 0.228286 0.63 -0.297508
v 0.265165 0.63 -0.265165
v 0.297508 0.63 -0.228286
v 0.32476 0.63 -0.1875
v 0.346455 0.63 -0.143506
vt 0.375 7.07062e-014
vt 0.75 7.07062e-014
v 0.743584 0.63 -0.0978946
vt 0.743584 0.0978946
v 0.724444 0.63 -0.194114
vt 0.724444 0.194114
v 0.69291 0.63 -0.287013
vt 0.69291 0.287013
v 0.649519 0.63 -0.375
vt 0.649519 0.375
v 0.595015 0.63 -0.456571
vt 0.595015 0.456571
v 0.53033 0.63 -0.53033
vt 0.53033 0.53033
v 0.456571 0.63 -0.595015
vt 0.456571 0.595015
v 0.375 0.63 -0.649519
vt 0.375 0.649519
v 0.287013 0.63 -0.69291
vt 0.287013 0.69291
v 0.194114 0.63 -0.724444
vt 0.194114 0.724444
v 0.0978946 0.63 -0.743584
vt 0.0978946 0.743584
f 46/61/11 47/62/11 48/59/11 49/58/11 50/57/11 51/56/11 52/55/11 53/54/11 54/53/11 55/52/11 56/51/11 45/50/11 33/49/11 29/63/11 31/64/11 57/65/11 58/66/11 59/67/11 60/68/11 61/69/11 62/70/11 63/71/11 64/72/11 65/73/11 66/74/11 67/75/11 

vt -0.75 3.60956e-016
vn -1 -9.35008e-015 -7.10807e-014
vt -0.375 3.60956e-016
vt -0.375 0.55
vt -0.375 0.63
vt -0.75 0.63
v 3.72506e-012 0.455 -0.75
vt -0.75 0.455
f 24/76/12 23/77/12 44/78/12 47/79/12 46/80/12 68/81/12 

usemtl Grass
vt -3.3941e-025 0.55
vn -1 3.29891e-026 -9.24047e-014
vt -3.3941e-025 3.60956e-016
f 28/82/13 44/78/13 23/77/13 22/83/13 

usemtl Stone
vn -0.0654031 -2.2988e-015 0.997859
vn -0.130526 -2.36131e-015 0.991445
f 44/43/14 43/44/15 48/45/15 47/46/14 

vn -0.258819 -2.45577e-015 0.965926
f 43/43/15 42/44/16 49/45/16 48/46/15 

vn -0.382683 -2.50821e-015 0.92388
f 42/43/16 41/44/17 50/45/17 49/46/16 

vn -0.5 -2.51773e-015 0.866025
f 41/43/17 40/44/18 51/45/18 50/46/17 

vn -0.608761 -2.48418e-015 0.793353
f 40/43/18 39/44/19 52/45/19 51/46/18 

vn -0.707107 -2.40812e-015 0.707107
f 39/43/19 38/44/20 53/45/20 52/46/19 

vn -0.793353 -2.29086e-015 0.608761
f 38/43/20 37/44/21 54/45/21 53/46/20 

vn -0.866025 -2.1344e-015 0.5
f 37/43/21 36/44/22 55/45/22 54/46/21 

vn -0.92388 -1.94142e-015 0.382683
f 36/43/22 35/44/23 56/45/23 55/46/22 

f 35/43/23 34/44/10 45/45/10 56/46/23 

v 0.0978946 0.455 -0.743584
vt -0.0490523 0.455
vn 0.130526 2.47129e-015 -0.991445
vt 0.0490523 0.455
vn 0.0654031 2.36553e-015 -0.997859
vt 0.0490523 0.63
vt -0.0490523 0.63
f 69/84/24 68/85/25 46/86/25 67/87/24 

usemtl Sand
vt 0.75 6.20447e-014
vn 6.06479e-014 1 -1.59535e-014
vt 1.875 4.22025e-012
vt -2.75948e-014 1.875
vt 3.69747e-012 0.75
v 0.194114 0.455 -0.724444
v 0.287013 0.455 -0.69291
v 0.375 0.455 -0.649519
v 0.456571 0.455 -0.595015
v 0.53033 0.455 -0.53033
v 0.595015 0.455 -0.456571
v 0.649519 0.455 -0.375
v 0.69291 0.455 -0.287013
v 0.724444 0.455 -0.194114
v 0.743584 0.455 -0.0978946
f 30/88/26 2/89/26 17/17/26 16/16/26 15/15/26 14/14/26 13/13/26 12/12/26 11/11/26 10/10/26 9/9/26 8/8/26 7/7/26 6/90/26 68/91/26 69/75/26 70/74/26 71/73/26 72/72/26 73/71/26 74/70/26 75/69/26 76/68/26 77/67/26 78/66/26 79/65/26 

vn 1.85194e-012 4.41397e-012 1
f 26/40/27 3/3/27 2/2/27 30/41/27 

vn -1 -4.3156e-012 1.58115e-012
f 68/81/28 6/23/28 20/22/28 24/76/28 

usemtl Stone
vn 0.258819 2.65065e-015 -0.965926
f 70/84/29 69/85/24 67/86/24 66/87/29 

vn 0.382683 2.78465e-015 -0.92388
f 71/84/30 70/85/29 66/86/29 65/87/30 

vn 0.5 2.871e-015 -0.866025
f 72/84/31 71/85/30 65/86/30 64/87/31 

vn 0.608761 2.90824e-015 -0.793353
f 73/84/32 72/85/31 64/86/31 63/87/32 

vn 0.707107 2.89571e-015 -0.707107
f 74/84/33 73/85/32 63/86/32 62/87/33 

vn 0.793353 2.83364e-015 -0.608761
f 75/84/34 74/85/33 62/86/33 61/87/34 

vn 0.866025 2.72308e-015 -0.5
f 76/84/35 75/85/34 61/86/34 60/87/35 

vn 0.92388 2.56593e-015 -0.382683
f 77/84/36 76/85/35 60/86/35 59/87/36 

vn 0.965926 2.36487e-015 -0.258819
f 78/84/37 77/85/36 59/86/36 58/87/37 

vn 0.991445 2.12335e-015 -0.130526
f 79/84/38 78/85/37 58/86/37 57/87/38 

vn 0.997859 1.98869e-015 -0.0654031
f 30/84/39 79/85/38 57/86/38 31/87/39 

usemtl Water
vt -4.13e-012 -1.52315e-013
vn -2.23607e-014 5.07718e-014 -1
vt -4.13e-012 0.455
vt -3 -1.50691e-013
f 19/92/40 5/93/40 18/24/40 25/94/40 

vt 6.8726e-013 0.455
vn 1 -1.33098e-027 1.82884e-013
vt 6.8726e-013 1.6243e-015
f 1/95/41 4/96/41 25/4/41 18/1/41 

