# Alias OBJ Model File
# Exported from SketchUp, (c) 2000-2012 Trimble Navigation Limited
# File units = meters

mtllib roadTile_156.mtl

g Mesh1 Group1 Model

usemtl Stone
v 0.1875 0.63 -1.12861
vt -0.47112 0.63
vn -0.5 -8.65818e-015 0.866025
v 1.15506e-014 0.63 -1.25389
vt -0.696624 0.63
vn -0.55557 -1.6599e-017 0.83147
v 1.15506e-014 0.55 -1.25389
vt -0.696624 0.55
v 0.1875 0.55 -1.12861
vt -0.47112 0.55
f 1/1/1 2/2/2 3/3/2 4/4/1 

v 0 0.63 -1.70393
vt 4.51208e-015 1.70393
vn -7.16204e-015 1 1.69035e-014
vt 1.60627e-014 1.25389
vt 0.1875 1.12861
v 0.847406 0.63 -0.803178
vt 0.847406 0.803178
v 1.54414 0.63 -0.566667
vt 1.54414 0.566667
v 2.26579 0.63 -0.423123
vt 2.26579 0.423123
v 3 0.63 -0.375
vt 3 0.375
v 3 0.63 -0.75
vt 3 0.75
v 2.31474 0.63 -0.794914
vt 2.31474 0.794914
v 1.6412 0.63 -0.928889
vt 1.6412 0.928889
v 0.990912 0.63 -1.14963
vt 0.990912 1.14963
v 0.375 0.63 -1.45337
vt 0.375 1.45337
f 5/5/3 2/6/3 1/7/3 6/8/3 7/9/3 8/10/3 9/11/3 10/12/3 11/13/3 12/14/3 13/15/3 14/16/3 

v 0 0.6 -1.70393
vt -1.70393 0.6
vn -1 6.06616e-015 -3.66184e-015
v 8.66294e-015 0.3 -1.70393
vt -1.70393 0.3
v 1.15506e-014 0.3 -3
vt -3 0.3
v 1.15506e-014 1.79575e-014 -3
vt -3 1.79575e-014
v 1.15506e-014 5.31958e-014 -1.25389
vt -1.25389 5.31958e-014
vt -1.25389 0.55
vt -1.25389 0.63
vt -1.70393 0.63
f 15/17/4 16/18/4 17/19/4 18/20/4 19/21/4 3/22/4 2/23/4 5/24/4 

usemtl Asphalt
v 1.15506e-014 0.6 -3
vt -3 0.6
vn -1 -1.44382e-014 -6.68402e-015
f 20/25/5 17/19/5 16/18/5 15/17/5 

v 0.754448 0.6 -3
vt -0.754448 0.6
vn 0 0 -1
v 0.754448 0.3 -3
vt -0.754448 0.3
vt -1.15506e-014 0.3
vt -1.15506e-014 0.6
f 21/26/6 22/27/6 17/28/6 20/29/6 

usemtl Stone
v 1.46897 4.09234e-014 -3
vt -1.46897 2.61354e-014
vn -1.77605e-014 4.92933e-015 -1
vt -6.4832e-014 3.16955e-015
vt -6.4832e-014 0.3
v 0.754448 0.63 -3
vt -0.754448 0.63
v 1.46897 0.63 -3
vt -1.46897 0.63
v 1.46897 0.55 -3
vt -1.46897 0.55
f 23/30/7 18/31/7 17/32/7 22/27/7 21/26/7 24/33/7 25/34/7 26/35/7 

usemtl Grass
v 4.62023e-014 6.58744e-015 -0
vt -4.62023e-014 4.37448e-029
vn -7.63986e-015 -1 -6.64064e-015
vt -1.15506e-014 1.25389
vt -1.15506e-014 3
vt -1.46897 3
v 3 1.74161e-014 -3
vt -3 3
v 3 1.52447e-014 -2.625
vt -3 2.625
v 3 2.17178e-015 -0.375
vt -3 0.375
v 3 0 -4.62023e-014
vt -3 4.62023e-014
f 27/36/8 19/37/8 18/38/8 23/39/8 28/40/8 29/41/8 30/42/8 31/43/8 

vn -1 1.67957e-030 2.64839e-014
vt 1.22362e-027 6.58744e-015
v 4.62023e-014 0.55 -0
vt 1.22362e-027 0.55
f 3/22/9 19/21/9 27/44/9 32/45/9 

v 3 0.55 -4.62023e-014
vt 3 0.55
vn 1.54008e-014 1.11364e-030 1
vt 4.62023e-014 0.55
vt 4.62023e-014 6.58744e-015
vt 3 -7.68826e-058
f 33/46/10 32/47/10 27/48/10 31/49/10 

vt 3 5.61391e-014
vn -2.39444e-015 1 1.80668e-014
v 3 0.55 -0.375
v 2.26579 0.55 -0.423123
v 1.54414 0.55 -0.566667
v 0.847406 0.55 -0.803178
vt 1.28675e-014 1.25389
vt 4.75193e-014 9.93676e-015
f 33/50/11 34/11/11 35/10/11 36/9/11 37/8/11 4/7/11 3/51/11 32/52/11 

vt 1.73259e-013 2.36262e-014
vn 1 -7.8754e-015 4.23521e-014
vt 0.375 2.5798e-014
vt 0.375 0.55
vt 1.73259e-013 0.55
f 31/53/12 30/54/12 34/55/12 33/56/12 

usemtl Stone
vt 0.375 0.63
vn 1 -2.02383e-014 -7.40422e-016
vt 0.375 6.28867e-014
vt 2.625 7.59597e-014
v 3 0.55 -2.625
vt 2.625 0.55
v 3 0.63 -2.625
vt 2.625 0.63
v 3 0.63 -2.25
vt 2.25 0.63
v 3 0.6 -2.25
vt 2.25 0.6
v 3 0.3 -2.25
vt 2.25 0.3
v 3 0.3 -0.75
vt 0.75 0.3
v 3 0.6 -0.75
vt 0.75 0.6
vt 0.75 0.63
f 9/57/13 34/55/13 30/58/13 29/59/13 38/60/13 39/61/13 40/62/13 41/63/13 42/64/13 43/65/13 44/66/13 10/67/13 

vt 2.96905 0.63
vn -0.0654031 -1.81848e-014 0.997859
vt 2.23327 0.63
vn -0.130526 -1.82248e-014 0.991445
vt 2.23327 0.55
vt 2.96905 0.55
f 9/68/14 8/69/15 35/70/15 34/71/14 

vt 2.13971 0.63
vt 1.40392 0.63
vn -0.258819 -1.8071e-014 0.965926
vt 1.40392 0.55
vt 2.13971 0.55
f 8/72/15 7/73/16 36/74/16 35/75/15 

vt 1.28005 0.63
vt 0.544261 0.63
vn -0.382683 -1.76079e-014 0.92388
vt 0.544261 0.55
vt 1.28005 0.55
f 7/76/16 6/77/17 37/78/17 36/79/16 

vt 0.404779 0.63
vt -0.331007 0.63
vt -0.331007 0.55
vt 0.404779 0.55
f 6/80/17 1/81/1 4/82/1 37/83/17 

usemtl Grass
v 3 0.55 -3
vn 1 -3.9377e-015 -9.62549e-015
vt 2.625 2.70578e-014
vt 3 2.92292e-014
f 45/46/18 38/60/18 29/84/18 28/85/18 

vt 3 3
vn -1.10846e-015 1 1.48806e-014
vt 1.46897 3
v 1.70844 0.55 -2.88191
vt 1.70844 2.88191
v 2.12649 0.55 -2.74
vt 2.12649 2.74
v 2.55947 0.55 -2.65387
vt 2.55947 2.65387
vt 3 2.625
f 45/86/19 26/87/19 46/88/19 47/89/19 48/90/19 38/91/19 

vn -1.50887e-014 1.986e-030 -1
vt -3 0.55
vt -3 1.74161e-014
vt -1.46897 4.09234e-014
f 26/35/20 45/92/20 28/93/20 23/94/20 

usemtl Stone
vt 0.00938365 0.63
vn 0.442289 -2.7037e-017 -0.896873
v 1.70844 0.63 -2.88191
vt -0.257622 0.63
vn 0.382683 8.54835e-015 -0.92388
vt -0.257622 0.55
vt 0.00938365 0.55
f 25/95/21 49/96/22 46/97/22 26/98/21 

vt 3 2.25
vn 5.51252e-015 1 -1.64186e-014
v 2.55947 0.63 -2.65387
v 2.12649 0.63 -2.74
vt 0.754448 3
v 1.125 0.63 -2.7524
vt 1.125 2.7524
v 1.56494 0.63 -2.53545
vt 1.56494 2.53545
v 2.02943 0.63 -2.37778
vt 2.02943 2.37778
v 2.51053 0.63 -2.28208
vt 2.51053 2.28208
f 40/99/23 39/91/23 50/90/23 51/89/23 49/88/23 25/87/23 24/100/23 52/101/23 53/102/23 54/103/23 55/104/23 

vt -2.38042 0.63
vn 0.130526 1.76158e-014 -0.991445
vt -2.82189 0.63
vn 0.0654031 1.76419e-014 -0.997859
vt -2.82189 0.55
vt -2.38042 0.55
f 50/105/24 39/106/25 38/107/25 48/108/24 

vt -1.55108 0.63
vn 0.258819 1.73378e-014 -0.965926
vt -1.99255 0.63
vt -1.99255 0.55
vt -1.55108 0.55
f 51/109/26 50/110/24 48/111/24 47/112/26 

vt -0.691418 0.63
vt -1.13289 0.63
vt -1.13289 0.55
vt -0.691418 0.55
f 49/113/22 51/114/26 47/115/26 46/116/22 

vt -0.593751 0.63
vn -0.5 -2.13593e-017 0.866025
vt -1.03941 0.63
vn -0.55557 8.31427e-017 0.83147
vt -1.03941 0.6
v 1.125 0.6 -2.7524
vt -0.593751 0.6
f 52/117/27 24/118/28 21/119/28 56/120/27 

usemtl Asphalt
vn 2e-015 1 -1.39009e-015
vt 1.03506e-014 3
vt -1.2e-015 1.70393
v 0.375 0.6 -1.45337
v 0.990912 0.6 -1.14963
v 1.6412 0.6 -0.928889
v 2.31474 0.6 -0.794914
v 2.51053 0.6 -2.28208
v 2.02943 0.6 -2.37778
v 1.56494 0.6 -2.53545
f 21/100/29 20/121/29 15/122/29 57/16/29 58/15/29 59/14/29 60/13/29 44/12/29 41/99/29 61/104/29 62/103/29 63/102/29 56/101/29 

usemtl Stone
vt 0.946655 0.63
vn 0.55557 -5.00746e-017 -0.83147
vt 0.495646 0.63
vn 0.5 3.79288e-017 -0.866025
vt 0.495646 0.6
vt 0.946655 0.6
f 5/123/30 14/124/31 57/125/31 15/126/30 

vt 0.30648 0.63
vt -0.380253 0.63
vn 0.382683 -3.14524e-016 -0.92388
vt -0.380253 0.6
vt 0.30648 0.6
f 14/127/31 13/128/32 58/129/32 57/130/31 

vt -0.568787 0.63
vt -1.25552 0.63
vn 0.258819 -1.18919e-015 -0.965926
vt -1.25552 0.6
vt -0.568787 0.6
f 13/131/32 12/132/33 59/133/33 58/134/32 

vt -1.42845 0.63
vt -2.11518 0.63
vn 0.130526 -2.04351e-015 -0.991445
vt -2.11518 0.6
vt -1.42845 0.6
f 12/135/33 11/136/34 60/137/34 59/138/33 

vt -2.25779 0.63
vt -2.94452 0.63
vn 0.0654031 -2.45845e-015 -0.997859
vt -2.94452 0.6
vt -2.25779 0.6
f 11/139/34 10/140/35 44/141/35 60/142/34 

usemtl Asphalt
vn 1 -1.9251e-014 -1.15506e-014
f 41/63/36 44/66/36 43/65/36 42/64/36 

usemtl Stone
vt 2.84642 0.63
vn -0.0654031 2.45845e-015 0.997859
vt 2.3559 0.63
vn -0.130526 2.04351e-015 0.991445
vt 2.3559 0.6
vt 2.84642 0.6
f 40/143/37 55/144/38 61/145/38 41/146/37 

vt 2.01708 0.63
vt 1.52655 0.63
vn -0.258819 1.18919e-015 0.965926
vt 1.52655 0.6
vt 2.01708 0.6
f 55/147/38 54/148/39 62/149/39 61/150/38 

vt 1.15742 0.63
vt 0.666892 0.63
vn -0.382683 3.14524e-016 0.92388
vt 0.666892 0.6
vt 1.15742 0.6
f 54/151/39 53/152/40 63/153/40 62/154/39 

vt 0.282148 0.63
vt -0.208376 0.63
vt -0.208376 0.6
vt 0.282148 0.6
f 53/155/40 52/156/27 56/157/27 63/158/40 

