# Alias OBJ Model File
# Exported from SketchUp, (c) 2000-2012 Trimble Navigation Limited
# File units = meters

mtllib roadTile_118.mtl

g Mesh1 Group1 Model

usemtl Asphalt
v 2.625 0.6 -0
vt 2.625 5.34995e-028
vn 2.62095e-016 1 8.91659e-028
v 2.625 0.6 -3
vt 2.625 3
v 0.375 0.6 -3
vt 0.375 3
v 0.375 0.6 -8.15471e-012
vt 0.375 8.15471e-012
f 1/1/1 2/2/1 3/3/1 4/4/1 

vt 9.32349e-012 0.6
vn 1 1.9251e-014 3.5518e-012
v 2.625 0.3 -1.15506e-014
vt 9.33504e-012 0.3
v 2.625 0.3 -3
vt 3 0.3
vt 3 0.6
f 1/5/2 5/6/2 6/7/2 2/8/2 

vt 0.375 0.6
vn -3.5948e-012 1.63633e-013 1
v 0.375 0.3 -8.02765e-012
vt 0.375 0.3
vt 2.625 0.3
vt 2.625 0.6
f 4/9/3 7/10/3 5/11/3 1/12/3 

usemtl Stone
v 1.50158e-013 1.73 -9.41372e-012
vt 1.50158e-013 1.73
vn -3.55471e-012 6.81901e-014 1
v 0 8.48246e-014 -9.27512e-012
vt -3.29703e-023 8.48246e-014
v 2.625 0 -0
vt 2.625 6.3629e-025
v 0.375 1.73 -8.15471e-012
vt 0.375 1.73
f 8/13/4 9/14/4 10/15/4 5/11/4 7/10/4 4/9/4 11/16/4 

vt -9.41372e-012 1.73
vn -1 7.7416e-014 -3.32624e-012
v 1.00144e-011 0.63 -3
vt -3 0.63
v 9.99125e-012 8.42832e-014 -3
vt -3 8.42832e-014
vt -9.27512e-012 8.48246e-014
f 8/17/5 12/18/5 13/19/5 9/20/5 

vt 1.10141e-012 -2.59975
vn 1.27555e-012 0.938876 -0.344255
vt -1.50158e-013 0.595561
vt -0.375 0.595561
v 0.375 0.63 -3
vt -0.375 -2.59975
f 12/21/6 8/22/6 11/23/6 14/24/6 

vn 1 -1.30576e-013 3.33513e-012
vt 3 0.63
vt 9.40539e-012 1.73
vt 9.40539e-012 0.6
f 3/8/7 14/25/7 11/26/7 4/27/7 

vt 7.01088e-013 0.63
vn 3.57181e-012 -6.45338e-014 -1
vt -0.375 0.63
vt -0.375 0.6
v 0.375 0.3 -3
vt -0.375 0.3
vt -2.625 0.3
v 2.625 0 -3
vt -2.625 1.93601e-013
vt 7.2419e-013 2.77884e-013
f 12/28/8 14/29/8 3/30/8 15/31/8 6/32/8 16/33/8 13/34/8 

usemtl Asphalt
vt -2.625 0.6
vn 3.61662e-012 -3.85019e-014 -1
f 2/35/9 6/32/9 15/31/9 3/30/9 

usemtl Stone
vt 3 5.05338e-014
vn 1 -1.9251e-014 3.5518e-012
vt 9.32349e-012 5.05338e-014
f 16/36/10 6/7/10 5/6/10 10/37/10 

vt 2.73228e-027 9.27512e-012
vn -3.2211e-014 -1 9.02389e-017
vt -9.99125e-012 3
vt -2.625 3
vt -2.625 -7.63005e-030
f 9/38/11 13/39/11 16/40/11 10/41/11 

