# Alias OBJ Model File
# Exported from SketchUp, (c) 2000-2012 Trimble Navigation Limited
# File units = meters

mtllib roadTile_135.mtl

g Mesh1 Group1 Model

usemtl Stone
v 1.74611 0.63 -0
vt 1.45184 0.63
vn -0.55557 -5.05709e-015 0.83147
v 1.32183 0.63 -0.283497
vt 0.941556 0.63
vn -0.608761 -6.27105e-015 0.793353
v 1.32183 5.05338e-015 -0.283497
vt 0.941556 1.47569e-016
v 1.74611 0 -0
vt 1.45184 -4.90581e-015
f 1/1/1 2/2/2 3/3/2 4/4/1 

v 0.450043 0.63 -1.74611
vt 0.450043 1.74611
vn 1.91342e-015 1 -2.8468e-015
v 0 0.63 -1.74611
vt -1.20546e-015 1.74611
v 0.283497 0.63 -1.32183
vt 0.283497 1.32183
v 0.768634 0.63 -0.768634
vt 0.768634 0.768634
vt 1.32183 0.283497
vt 1.74611 -1.79348e-015
v 1.74611 0.63 -0.450043
vt 1.74611 0.450043
v 1.55011 0.63 -0.581004
vt 1.55011 0.581004
v 1.0338 0.63 -1.0338
vt 1.0338 1.0338
v 0.581004 0.63 -1.55011
vt 0.581004 1.55011
f 5/5/3 6/6/3 7/7/3 8/8/3 2/9/3 1/10/3 9/11/3 10/12/3 11/13/3 12/14/3 

vt 0 0.63
vn 0 0 -1
vt -0.450043 0.63
v 0.450043 0.6 -1.74611
vt -0.450043 0.6
v 0.450043 1.21462e-013 -1.74611
vt -0.450043 1.21462e-013
v 1.15506e-014 0 -1.74611
vt -1.15506e-014 0
f 6/15/4 5/16/4 13/17/4 14/18/4 15/19/4 

vt 1.20181 0.63
vn 0.83147 -7.75931e-017 -0.55557
vt 0.966082 0.63
vn 0.793353 -6.79464e-015 -0.608761
v 0.581004 0.6 -1.55011
vt 0.966082 0.6
vt 1.20181 0.6
f 5/20/5 12/21/6 16/22/6 13/23/5 

vt 0.782353 0.63
vt 0.0956202 0.63
vn 0.707107 -1.36695e-014 -0.707107
v 1.0338 0.6 -1.0338
vt 0.0956202 0.6
vt 0.782353 0.6
f 12/24/6 11/25/7 17/26/7 16/27/6 

vt -0.0956202 0.63
vt -0.782353 0.63
vn 0.608761 -6.86944e-015 -0.793353
v 1.55011 0.6 -0.581004
vt -0.782353 0.6
vt -0.0956202 0.6
f 11/28/7 10/29/8 18/30/8 17/31/7 

vt -0.966082 0.63
vt -1.20181 0.63
vn 0.55557 8.84568e-017 -0.83147
v 1.74611 0.6 -0.450043
vt -1.20181 0.6
vt -0.966082 0.6
f 10/32/8 9/33/9 19/34/9 18/35/8 

vt 0.450043 0.63
vn 1 4.03329e-015 -3.12305e-014
vt -5.45319e-014 0.63
vt -5.45319e-014 -7.04257e-015
v 1.74611 1.31388e-013 -0.450043
vt 0.450043 1.24345e-013
vt 0.450043 0.6
f 9/36/10 1/37/10 4/38/10 20/39/10 19/40/10 

vt -1.74611 0.450043
vn 2.50186e-014 -1 -2.39238e-014
vt -1.74611 -1.04512e-027
vt -1.32183 0.283497
v 0.768634 5.77529e-015 -0.768634
vt -0.768634 0.768634
v 0.283497 6.4972e-015 -1.32183
vt -0.283497 1.32183
vt -1.15506e-014 1.74611
vt -0.450043 1.74611
v 1.74611 9.89019e-014 -1.74611
vt -1.74611 1.74611
f 20/41/11 4/42/11 3/43/11 21/44/11 22/45/11 15/46/11 14/47/11 23/48/11 

vt 0.806879 0.63
vt 0.071094 0.63
vn -0.707107 -7.46106e-015 0.707107
vt 0.071094 -2.31447e-015
vt 0.806879 -3.03638e-015
f 2/49/2 8/50/12 21/51/12 3/52/2 

vt -0.071094 0.63
vt -0.806879 0.63
vn -0.793353 -7.54918e-015 0.608761
vt -0.806879 -1.56417e-015
vt -0.071094 -2.28608e-015
f 8/53/12 7/54/13 22/55/13 21/56/12 

vt -0.941556 0.63
vt -1.45184 0.63
vn -0.83147 -7.63404e-015 0.55557
vt -1.45184 -7.40567e-015
vt -0.941556 -9.08472e-016
f 7/57/13 6/58/14 15/59/14 22/60/13 

usemtl Asphalt
vn -3.56481e-014 -2.15187e-028 -1
v 1.74611 0.6 -1.74611
vt -1.74611 0.6
vt -1.74611 9.89019e-014
f 13/17/15 24/61/15 23/62/15 14/18/15 

vn 2.32228e-014 1 -2.6632e-014
vt 1.74611 1.74611
f 18/12/16 19/11/16 24/63/16 13/5/16 16/14/16 17/13/16 

vt 1.74611 1.02053e-013
vn 1 -1.80478e-015 1.03045e-014
vt 1.74611 0.6
vt 0.450043 1.34539e-013
f 23/64/17 24/65/17 19/40/17 20/66/17 

