# Alias OBJ Model File
# Exported from SketchUp, (c) 2000-2012 Trimble Navigation Limited
# File units = meters

mtllib roadTile_186.mtl

g Mesh1 Group1 Model

usemtl Grass
v 2.90314 0.455 -2.25915
vt 2.67786 0.455
vn -0.156361 2.4995e-015 0.9877
v 3 0.455 -2.25
vt 2.77515 0.455
vn -0.0940266 2.38051e-015 0.99557
v 3 1.65 -2.25
vt 2.77515 1.65
v 2.90314 1.65 -2.25915
vt 2.67786 1.65
f 1/1/1 2/2/2 3/3/2 4/4/1 

usemtl Water
v 2.25915 0.455 -2.90314
vt 2.25915 2.90314
vn -4.00666e-016 1 4.33076e-016
v 2.25 0.455 -3
vt 2.25 3
v 0.75 0.455 -3
vt 0.75 3
v 0.756827 0.455 -2.70191
vt 0.756827 2.70191
v 0.804783 0.455 -2.40763
vt 0.804783 2.40763
v 0.892946 0.455 -2.12279
vt 0.892946 2.12279
v 1.01963 0.455 -1.85287
vt 1.01963 1.85287
v 1.18239 0.455 -1.60305
vt 1.18239 1.60305
v 1.37812 0.455 -1.37812
vt 1.37812 1.37812
v 1.60305 0.455 -1.18239
vt 1.60305 1.18239
v 1.85287 0.455 -1.01963
vt 1.85287 1.01963
v 2.12279 0.455 -0.892946
vt 2.12279 0.892946
v 2.40763 0.455 -0.804783
vt 2.40763 0.804783
v 2.70191 0.455 -0.756827
vt 2.70191 0.756827
v 3 0.455 -0.75
vt 3 0.75
vt 3 2.25
vt 2.90314 2.25915
v 2.80819 0.455 -2.28037
vt 2.80819 2.28037
v 2.71665 0.455 -2.31332
vt 2.71665 2.31332
v 2.62996 0.455 -2.35748
vt 2.62996 2.35748
v 2.54949 0.455 -2.41217
vt 2.54949 2.41217
v 2.47651 0.455 -2.47651
vt 2.47651 2.47651
v 2.41217 0.455 -2.54949
vt 2.41217 2.54949
v 2.35748 0.455 -2.62996
vt 2.35748 2.62996
v 2.31332 0.455 -2.71665
vt 2.31332 2.71665
v 2.28037 0.455 -2.80819
vt 2.28037 2.80819
f 5/5/3 6/6/3 7/7/3 8/8/3 9/9/3 10/10/3 11/11/3 12/12/3 13/13/3 14/14/3 15/15/3 16/16/3 17/17/3 18/18/3 19/19/3 2/20/3 1/21/3 20/22/3 21/23/3 22/24/3 23/25/3 24/26/3 25/27/3 26/28/3 27/29/3 28/30/3 

usemtl Grass
vt -2.77515 0.455
vn -0.99557 2.38051e-015 0.0940266
vt -2.67786 0.455
vn -0.9877 2.4995e-015 0.156361
v 2.25915 1.65 -2.90314
vt -2.67786 1.65
v 2.25 1.65 -3
vt -2.77515 1.65
f 6/31/4 5/32/5 29/33/5 30/34/4 

vt -2.34059 0.455
vt -2.2433 0.455
vn -0.96031 2.70746e-015 0.278934
v 2.28037 1.65 -2.80819
vt -2.2433 1.65
vt -2.34059 1.65
f 5/35/5 28/36/6 31/37/6 29/38/5 

vt -1.86989 0.455
vt -1.77259 0.455
vn -0.917772 2.8727e-015 0.397107
v 2.31332 1.65 -2.71665
vt -1.77259 1.65
vt -1.86989 1.65
f 28/39/6 27/40/7 32/41/7 31/42/6 

vt -1.37045 0.455
vt -1.27316 0.455
vn -0.860757 2.99263e-015 0.509016
v 2.35748 1.65 -2.62996
vt -1.27316 1.65
vt -1.37045 1.65
f 27/43/7 26/44/8 33/45/8 32/46/7 

vt -0.850161 0.455
vt -0.752869 0.455
vn -0.790164 3.06535e-015 0.612895
v 2.41217 1.65 -2.54949
vt -0.752869 1.65
vt -0.850161 1.65
f 26/47/8 25/48/9 34/49/9 33/50/8 

vt -0.31723 0.455
vt -0.219938 0.455
vn -0.707107 3.08972e-015 0.707107
v 2.47651 1.65 -2.47651
vt -0.219938 1.65
vt -0.31723 1.65
f 25/51/9 24/52/10 35/53/10 34/54/9 

vt 0.219938 0.455
vt 0.31723 0.455
vn -0.612895 3.06535e-015 0.790164
v 2.54949 1.65 -2.41217
vt 0.31723 1.65
vt 0.219938 1.65
f 24/55/10 23/56/11 36/57/11 35/58/10 

vt 0.752869 0.455
vt 0.850161 0.455
vn -0.509016 2.99263e-015 0.860757
v 2.62996 1.65 -2.35748
vt 0.850161 1.65
vt 0.752869 1.65
f 23/59/11 22/60/12 37/61/12 36/62/11 

vt 1.27316 0.455
vt 1.37045 0.455
vn -0.397107 2.8727e-015 0.917772
v 2.71665 1.65 -2.31332
vt 1.37045 1.65
vt 1.27316 1.65
f 22/63/12 21/64/13 38/65/13 37/66/12 

vt 1.77259 0.455
vt 1.86989 0.455
vn -0.278934 2.70746e-015 0.96031
v 2.80819 1.65 -2.28037
vt 1.86989 1.65
vt 1.77259 1.65
f 21/67/13 20/68/14 39/69/14 38/70/13 

vt 2.2433 0.455
vt 2.34059 0.455
vt 2.34059 1.65
vt 2.2433 1.65
f 20/71/14 1/72/1 4/73/1 39/74/14 

vn -6.38492e-016 1 6.38492e-016
v 3 1.65 -3
vt 3 3
f 3/20/15 40/75/15 30/6/15 29/5/15 31/30/15 32/29/15 33/28/15 34/27/15 35/26/15 36/25/15 37/24/15 38/23/15 39/22/15 4/21/15 

vt 2.25 1.65
vn 1 -4.58356e-015 2.5668e-015
vt 2.25 0.455
v 3 1.80478e-016 -2.25
vt 2.25 1.39312e-014
v 3 0 -3
vt 3 1.37507e-014
vt 3 1.65
f 3/76/16 2/77/16 41/78/16 42/79/16 40/80/16 

usemtl Water
v 3 7.21911e-016 -0.75
vt 0.75 1.6573e-013
vn 1 -5.50028e-014 8.96713e-030
vt 2.25 1.65189e-013
vt 0.75 0.455
f 43/81/17 41/82/17 2/77/17 19/83/17 

usemtl Grass
v 2.25 1.80478e-016 -3
vt -2.25 3
vn 1.16272e-016 -1 1.79896e-016
vt -3 3
vt -3 2.25
vt -3 0.75
v 3 1.08287e-015 -2.88765e-015
vt -3 2.88765e-015
v 0 1.80478e-016 -0
vt -2.09846e-032 -3.24673e-032
v 0 1.80478e-016 -3
vt -2.09846e-032 3
v 0.75 1.80478e-016 -3
vt -0.75 3
f 44/84/18 42/85/18 41/86/18 43/87/18 45/88/18 46/89/18 47/90/18 48/91/18 

vt -3 4.2799e-013
vn 2.9839e-014 -1.42663e-013 -1
vt -2.25 4.28171e-013
vt -2.25 0.455
vt -2.25 1.65
vt -3 1.65
f 42/92/19 44/93/19 6/94/19 30/95/19 40/96/19 

usemtl Water
vt -2.25 4.10132e-012
vn 5.22183e-014 -1.36705e-012 -1
vt -0.75 4.10132e-012
vt -0.75 0.455
f 44/97/20 48/98/20 7/99/20 6/94/20 

usemtl Grass
v 0.75 1.65 -3
vt -0.75 1.65
vn -1.71274e-012 -6.47287e-013 -1
vt -0.75 1.94204e-012
vt -5.13821e-012 1.94204e-012
v 0 1.65 -3
vt -5.13821e-012 1.65
f 49/100/21 7/99/21 48/101/21 47/102/21 50/103/21 

vt 2.68387 0.455
vn 0.995751 3.5296e-016 -0.0920874
vt 2.98204 0.455
vn 0.999738 3.30854e-016 -0.022898
vt 2.98204 1.65
v 0.756827 1.65 -2.70191
vt 2.68387 1.65
f 8/104/22 7/105/23 49/106/23 51/107/22 

v 0 1.65 -0
vt 3.53502e-016 2.68241e-016
vn -2.14244e-016 1 1.6257e-016
v 3 1.65 -2.88765e-015
vt 3 3.15589e-015
v 3 1.65 -0.75
v 2.70191 1.65 -0.756827
v 2.40763 1.65 -0.804783
v 2.12279 1.65 -0.892946
v 1.85287 1.65 -1.01963
v 1.60305 1.65 -1.18239
v 1.37812 1.65 -1.37812
v 1.18239 1.65 -1.60305
v 1.01963 1.65 -1.85287
v 0.892946 1.65 -2.12279
v 0.804783 1.65 -2.40763
vt 3.53502e-016 3
f 52/108/24 53/109/24 54/19/24 55/18/24 56/17/24 57/16/24 58/15/24 59/14/24 60/13/24 61/12/24 62/11/24 63/10/24 64/9/24 51/8/24 49/7/24 50/110/24 

vt 0 1.80478e-016
vn 1.84889e-032 -2.10007e-017 1
vt 3 1.08287e-015
vt 0 1.65
f 46/111/25 45/112/25 53/80/25 52/113/25 

vt 2.17036e-013 8.33651e-014
vn 1 -2.74274e-014 7.13827e-014
vt 0.75 8.30041e-014
vt 0.75 1.65
vt 2.17036e-013 1.65
f 45/114/26 43/115/26 19/83/26 54/116/26 53/117/26 

vt -2.98204 0.455
vn 0.022898 3.45431e-016 -0.999738
vt -2.68387 0.455
vn 0.0920874 3.66445e-016 -0.995751
vt -2.68387 1.65
vt -2.98204 1.65
f 19/118/27 18/119/28 55/120/28 54/121/27 

vt -2.54501 0.455
vt -2.24684 0.455
vn 0.228809 4.03099e-016 -0.973471
vt -2.24684 1.65
vt -2.54501 1.65
f 18/122/28 17/123/29 56/124/29 55/125/28 

vt -2.06201 0.455
vt -1.76384 0.455
vn 0.36114 4.32019e-016 -0.932512
vt -1.76384 1.65
vt -2.06201 1.65
f 17/126/29 16/127/30 57/128/30 56/129/29 

vt -1.5423 0.455
vt -1.24413 0.455
vn 0.486541 4.52649e-016 -0.873658
vt -1.24413 1.65
vt -1.5423 1.65
f 16/130/30 15/131/31 58/132/31 57/133/30 

vt -0.995851 0.455
vt -0.697684 0.455
vn 0.602606 4.64592e-016 -0.798039
vt -0.697684 1.65
vt -0.995851 1.65
f 15/134/31 14/135/32 59/136/32 58/137/31 

vt -0.433156 0.455
vt -0.134989 0.455
vn 0.707107 4.67621e-016 -0.707107
vt -0.134989 1.65
vt -0.433156 1.65
f 14/138/32 13/139/33 60/140/33 59/141/32 

vt 0.134989 0.455
vt 0.433156 0.455
vn 0.798039 4.61676e-016 -0.602606
vt 0.433156 1.65
vt 0.134989 1.65
f 13/142/33 12/143/34 61/144/34 60/145/33 

vt 0.697684 0.455
vt 0.995851 0.455
vn 0.873658 4.46872e-016 -0.486541
vt 0.995851 1.65
vt 0.697684 1.65
f 12/146/34 11/147/35 62/148/35 61/149/34 

vt 1.24413 0.455
vt 1.5423 0.455
vn 0.932512 4.23493e-016 -0.36114
vt 1.5423 1.65
vt 1.24413 1.65
f 11/150/35 10/151/36 63/152/36 62/153/35 

vt 1.76384 0.455
vt 2.06201 0.455
vn 0.973471 3.91988e-016 -0.228809
vt 2.06201 1.65
vt 1.76384 1.65
f 10/154/36 9/155/37 64/156/37 63/157/36 

vt 2.24684 0.455
vt 2.54501 0.455
vt 2.54501 1.65
vt 2.24684 1.65
f 9/158/37 8/159/22 51/160/22 64/161/37 

vt -3 1.80478e-016
vn -1 -6.50022e-017 1.84889e-032
f 47/162/38 46/111/38 52/113/38 50/96/38 

