# Alias OBJ Model File
# Exported from SketchUp, (c) 2000-2012 Trimble Navigation Limited
# File units = meters

mtllib roadTile_126.mtl

g Mesh1 Group1 Model

usemtl Stone
v 2.625 0 -2.625
vt -2.625 2.625
vn 0 -1 -0
v 2.625 0 -0
vt -2.625 0
v 2.28237 3.79003e-015 -0.0224572
vt -2.28237 0.0224572
v 1.9456 3.79003e-015 -0.0894447
vt -1.9456 0.0894447
v 1.62046 3.79003e-015 -0.199816
vt -1.62046 0.199816
v 1.3125 3.79003e-015 -0.351683
vt -1.3125 0.351683
v 1.027 3.79003e-015 -0.542447
vt -1.027 0.542447
v 0.768845 3.79003e-015 -0.768845
vt -0.768845 0.768845
v 0.542447 5.23386e-015 -1.027
vt -0.542447 1.027
v 0.351683 5.23386e-015 -1.3125
vt -0.351683 1.3125
v 0.199816 5.23386e-015 -1.62046
vt -0.199816 1.62046
v 0.0894447 5.23386e-015 -1.9456
vt -0.0894447 1.9456
v 0.0224572 5.23386e-015 -2.28237
vt -0.0224572 2.28237
v 0 0 -2.625
vt 0 2.625
f 1/1/1 2/2/1 3/3/1 4/4/1 5/5/1 6/6/1 7/7/1 8/8/1 9/9/1 10/10/1 11/11/1 12/12/1 13/13/1 14/14/1 

v 2.625 1.73 -0
vt -1.21506e-008 1.73
vn 1 -3.77716e-009 -4.62879e-009
vt -1.21506e-008 9.91505e-009
vt 2.625 9.91505e-009
v 2.625 0.3 -2.625
vt 2.625 0.3
v 2.625 0.3 -0.375
vt 0.375 0.3
v 2.625 0.6 -0.375
vt 0.375 0.6
v 2.625 1.73 -0.375
vt 0.375 1.73
f 15/15/2 2/16/2 1/17/2 16/18/2 17/19/2 18/20/2 19/21/2 

vt 2.61938 1.81358e-011
vn -0.0654031 1.05635e-010 0.997859
vt 2.61938 1.73
v 2.28237 1.73 -0.0224572
vt 2.27601 1.73
vn -0.130526 5.29309e-011 0.991445
vt 2.27601 1.81396e-011
f 2/22/3 15/23/3 20/24/4 3/25/4 

v 0.375 1.73 -2.625
vt 0.375 2.625
vn 3.36778e-016 1 2.1467e-017
v 0 1.73 -2.625
vt -5.82626e-016 2.625
v 0.0224572 1.73 -2.28237
vt 0.0224572 2.28237
v 0.0894447 1.73 -1.9456
vt 0.0894447 1.9456
v 0.199816 1.73 -1.62046
vt 0.199816 1.62046
v 0.351683 1.73 -1.3125
vt 0.351683 1.3125
v 0.542447 1.73 -1.027
vt 0.542447 1.027
v 0.768845 1.73 -0.768845
vt 0.768845 0.768845
v 1.027 1.73 -0.542447
vt 1.027 0.542447
v 1.3125 1.73 -0.351683
vt 1.3125 0.351683
v 1.62046 1.73 -0.199816
vt 1.62046 0.199816
v 1.9456 1.73 -0.0894447
vt 1.9456 0.0894447
vt 2.28237 0.0224572
vt 2.625 3.7138e-017
vt 2.625 0.375
v 2.33132 1.73 -0.394249
vt 2.33132 0.394249
v 2.04266 1.73 -0.451667
vt 2.04266 0.451667
v 1.76396 1.73 -0.546271
vt 1.76396 0.546271
v 1.5 1.73 -0.676443
vt 1.5 0.676443
v 1.25529 1.73 -0.839955
vt 1.25529 0.839955
v 1.03401 1.73 -1.03401
vt 1.03401 1.03401
v 0.839955 1.73 -1.25529
vt 0.839955 1.25529
v 0.676443 1.73 -1.5
vt 0.676443 1.5
v 0.546271 1.73 -1.76396
vt 0.546271 1.76396
v 0.451667 1.73 -2.04266
vt 0.451667 2.04266
v 0.394249 1.73 -2.33132
vt 0.394249 2.33132
f 21/26/5 22/27/5 23/28/5 24/29/5 25/30/5 26/31/5 27/32/5 28/33/5 29/34/5 30/35/5 31/36/5 32/37/5 20/38/5 15/39/5 19/40/5 33/41/5 34/42/5 35/43/5 36/44/5 37/45/5 38/46/5 39/47/5 40/48/5 41/49/5 42/50/5 43/51/5 

vt -2.625 -2.09923e-014
vn 4.85782e-015 7.99705e-015 -1
vt 1.27518e-014 -2.09923e-014
vt 1.27518e-014 1.73
vt -0.375 1.73
v 0.375 0.6 -2.625
vt -0.375 0.6
v 0.375 0.3 -2.625
vt -0.375 0.3
vt -2.625 0.3
f 1/52/6 14/53/6 22/54/6 21/55/6 44/56/6 45/57/6 16/58/6 

vt -2.27601 5.15894e-015
vn -0.991445 -1.0369e-016 0.130526
vt -2.27601 1.73
vt -2.61938 1.73
vn -0.997859 -4.36384e-016 0.0654031
vt -2.61938 -7.49198e-017
f 13/59/7 23/60/7 22/61/8 14/62/8 

vt -1.89077 5.34108e-015
vn -0.965926 2.17531e-016 0.258819
vt -1.89077 1.73
vt -2.23413 1.73
vt -2.23413 5.34108e-015
f 12/63/9 24/64/9 23/65/7 13/66/7 

vt -1.47023 5.3792e-015
vn -0.92388 1.90956e-016 0.382683
vt -1.47023 1.73
vt -1.8136 1.73
vt -1.8136 5.3792e-015
f 11/67/10 25/68/10 24/69/9 12/70/9 

vt -1.0216 5.39191e-015
vn -0.866025 1.61114e-016 0.5
vt -1.0216 1.73
vt -1.36497 1.73
vt -1.36497 5.39191e-015
f 10/71/11 26/72/11 25/73/10 11/74/10 

vt -0.552553 5.38212e-015
vn -0.793353 1.28516e-016 0.608761
vt -0.552553 1.73
vt -0.895919 1.73
vt -0.895919 5.38212e-015
f 9/75/12 27/76/12 26/77/11 10/78/11 

vt -0.0711135 3.91085e-015
vn -0.707107 9.37181e-017 0.707107
vt -0.0711135 1.73
vt -0.41448 1.73
vt -0.41448 5.35468e-015
f 8/79/13 28/80/13 27/81/12 9/82/12 

vt 0.41448 3.87215e-015
vn -0.608761 5.7317e-017 0.793353
vt 0.41448 1.73
vt 0.0711135 1.73
vt 0.0711135 3.87215e-015
f 7/83/14 29/84/14 28/85/13 8/86/13 

vt 0.895919 3.82958e-015
vn -0.5 1.99352e-017 0.866025
vt 0.895919 1.73
vt 0.552553 1.73
vt 0.552553 3.82958e-015
f 6/87/15 30/88/15 29/89/14 7/90/14 

vt 1.36497 3.791e-015
vn -0.382683 -1.77878e-017 0.92388
vt 1.36497 1.73
vt 1.0216 1.73
vt 1.0216 3.791e-015
f 5/91/16 31/92/16 30/93/15 6/94/15 

vt 1.8136 3.76406e-015
vn -0.258819 -5.52063e-017 0.965926
vt 1.8136 1.73
vt 1.47023 1.73
vt 1.47023 3.76406e-015
f 4/95/17 32/96/17 31/97/16 5/98/16 

vt 2.23413 3.75564e-015
vt 2.23413 1.73
vt 1.89077 1.73
vt 1.89077 3.75564e-015
f 3/99/4 20/100/4 32/101/17 4/102/17 

v 0.394249 0.6 -2.33132
vt 2.30054 0.6
vn 0.991445 -3.31095e-016 -0.130526
vt 2.59485 0.6
vn 0.997859 -3.34653e-016 -0.0654031
vt 2.59485 1.73
vt 2.30054 1.73
f 46/103/18 44/104/19 21/105/19 43/106/18 

usemtl Asphalt
v 2.625 0.6 -2.625
vt 2.625 2.625
vn -2.93567e-018 1 1.88775e-016
v 0.451667 0.6 -2.04266
v 0.546271 0.6 -1.76396
v 0.676443 0.6 -1.5
v 0.839955 0.6 -1.25529
v 1.03401 0.6 -1.03401
v 1.25529 0.6 -0.839955
v 1.5 0.6 -0.676443
v 1.76396 0.6 -0.546271
v 2.04266 0.6 -0.451667
v 2.33132 0.6 -0.394249
f 47/107/20 44/26/20 46/51/20 48/50/20 49/49/20 50/48/20 51/47/20 52/46/20 53/45/20 54/44/20 55/43/20 56/42/20 57/41/20 18/40/20 

vt -2.625 0.6
vn -1.06473e-014 -4.92846e-030 -1
f 47/108/21 16/58/21 45/57/21 44/56/21 

vn 1 -9.31397e-009 -8.69307e-009
vt 2.625 0.6
f 18/20/22 17/19/22 16/18/22 47/109/22 

usemtl Stone
vt 1.91529 0.6
vn 0.965926 -3.19747e-016 -0.258819
vt 2.20961 0.6
vt 2.20961 1.73
vt 1.91529 1.73
f 48/110/23 46/111/18 43/112/18 42/113/23 

vt 1.49476 0.6
vn 0.92388 -3.02927e-016 -0.382683
vt 1.78907 0.6
vt 1.78907 1.73
vt 1.49476 1.73
f 49/114/24 48/115/23 42/116/23 41/117/24 

vt 1.04613 0.6
vn 0.866025 -2.80925e-016 -0.5
vt 1.34044 0.6
vt 1.34044 1.73
vt 1.04613 1.73
f 50/118/25 49/119/24 41/120/24 40/121/25 

vt 0.577079 0.6
vn 0.793353 -2.54116e-016 -0.608761
vt 0.871393 0.6
vt 0.871393 1.73
vt 0.577079 1.73
f 51/122/26 50/123/25 40/124/25 39/125/26 

vt 0.0956397 0.6
vn 0.707107 -2.22959e-016 -0.707107
vt 0.389954 0.6
vt 0.389954 1.73
vt 0.0956397 1.73
f 52/126/27 51/127/26 39/128/26 38/129/27 

vt -0.389954 0.6
vn 0.608761 -1.87987e-016 -0.793353
vt -0.0956397 0.6
vt -0.0956397 1.73
vt -0.389954 1.73
f 53/130/28 52/131/27 38/132/27 37/133/28 

vt -0.871393 0.6
vn 0.5 -1.49798e-016 -0.866025
vt -0.577079 0.6
vt -0.577079 1.73
vt -0.871393 1.73
f 54/134/29 53/135/28 37/136/28 36/137/29 

vt -1.34044 0.6
vn 0.382683 -1.09046e-016 -0.92388
vt -1.04613 0.6
vt -1.04613 1.73
vt -1.34044 1.73
f 55/138/30 54/139/29 36/140/29 35/141/30 

vt -1.78907 0.6
vn 0.258819 -6.6429e-017 -0.965926
vt -1.49476 0.6
vt -1.49476 1.73
vt -1.78907 1.73
f 56/142/31 55/143/30 35/144/30 34/145/31 

vt -2.20961 0.6
vn 0.130526 -2.2675e-017 -0.991445
vt -1.91529 0.6
vt -1.91529 1.73
vt -2.20961 1.73
f 57/146/32 56/147/31 34/148/31 33/149/32 

vt -2.59485 0.6
vn 0.0654031 -6.05258e-019 -0.997859
vt -2.30054 0.6
vt -2.30054 1.73
vt -2.59485 1.73
f 18/150/33 57/151/32 33/152/32 19/153/33 

