# Alias OBJ Model File
# Exported from SketchUp, (c) 2000-2012 Trimble Navigation Limited
# File units = meters

mtllib roadTile_234.mtl

g Mesh1 Group1 Model

usemtl Water
v 2.25915 0.455 -2.90314
vt 2.25915 2.90314
vn -3.99203e-016 1 4.51489e-016
v 2.25 0.455 -3
vt 2.25 3
v 0.75 0.455 -3
vt 0.75 3
v 0.756827 0.455 -2.70191
vt 0.756827 2.70191
v 0.804783 0.455 -2.40763
vt 0.804783 2.40763
v 0.892946 0.455 -2.12279
vt 0.892946 2.12279
v 1.01963 0.455 -1.85287
vt 1.01963 1.85287
v 1.18239 0.455 -1.60305
vt 1.18239 1.60305
v 1.37812 0.455 -1.37812
vt 1.37812 1.37812
v 1.60305 0.455 -1.18239
vt 1.60305 1.18239
v 1.85287 0.455 -1.01963
vt 1.85287 1.01963
v 2.12279 0.455 -0.892946
vt 2.12279 0.892946
v 2.40763 0.455 -0.804783
vt 2.40763 0.804783
v 2.70191 0.455 -0.756827
vt 2.70191 0.756827
v 3 0.455 -0.75
vt 3 0.75
v 3 0.455 -2.25
vt 3 2.25
v 2.90314 0.455 -2.25915
vt 2.90314 2.25915
v 2.80819 0.455 -2.28037
vt 2.80819 2.28037
v 2.71665 0.455 -2.31332
vt 2.71665 2.31332
v 2.62996 0.455 -2.35748
vt 2.62996 2.35748
v 2.54949 0.455 -2.41217
vt 2.54949 2.41217
v 2.47651 0.455 -2.47651
vt 2.47651 2.47651
v 2.41217 0.455 -2.54949
vt 2.41217 2.54949
v 2.35748 0.455 -2.62996
vt 2.35748 2.62996
v 2.31332 0.455 -2.71665
vt 2.31332 2.71665
v 2.28037 0.455 -2.80819
vt 2.28037 2.80819
f 1/1/1 2/2/1 3/3/1 4/4/1 5/5/1 6/6/1 7/7/1 8/8/1 9/9/1 10/10/1 11/11/1 12/12/1 13/13/1 14/14/1 15/15/1 16/16/1 17/17/1 18/18/1 19/19/1 20/20/1 21/21/1 22/22/1 23/23/1 24/24/1 25/25/1 26/26/1 

usemtl Stone
v 2.25 1.73 -3
vt -2.77515 1.73
vn -0.99557 -7.76322e-019 0.0940266
vt -2.77515 0.455
vt -2.67786 0.455
vn -0.9877 -1.00748e-015 0.156361
v 2.25915 1.73 -2.90314
vt -2.67786 1.73
f 27/27/2 2/28/2 1/29/3 28/30/3 

v 2.625 1.73 -3
vt -2.625 1.73
vn 4.51705e-014 -2.30951e-013 -1
v 2.625 1.65 -3
vt -2.625 1.65
v 2.625 0 -3
vt -2.625 6.92854e-013
v 2.25 1.80478e-016 -3
vt -2.25 6.93034e-013
vt -2.25 0.455
vt -2.25 1.73
f 29/31/4 30/32/4 31/33/4 32/34/4 2/35/4 27/36/4 

v 2.62821 1.65 -2.95105
vt 2.77284 1.65
vn 0.991445 1.90503e-015 -0.130526
vt 2.82189 1.65
vn 0.997859 1.81797e-015 -0.0654031
vt 2.82189 1.73
v 2.62821 1.73 -2.95105
vt 2.77284 1.73
f 33/37/5 30/38/6 29/39/6 34/40/5 

usemtl Grass
v 3 1.65 -3
vt 3 3
vn -2.6707e-015 1 1.59267e-015
vt 2.625 3
vt 2.62821 2.95105
v 2.63778 1.65 -2.90294
vt 2.63778 2.90294
v 2.65355 1.65 -2.85649
vt 2.65355 2.85649
v 2.67524 1.65 -2.8125
vt 2.67524 2.8125
v 2.70249 1.65 -2.77171
vt 2.70249 2.77171
v 2.73483 1.65 -2.73483
vt 2.73483 2.73483
v 2.77171 1.65 -2.70249
vt 2.77171 2.70249
v 2.8125 1.65 -2.67524
vt 2.8125 2.67524
v 2.85649 1.65 -2.65355
vt 2.85649 2.65355
v 2.90294 1.65 -2.63778
vt 2.90294 2.63778
v 2.95105 1.65 -2.62821
vt 2.95105 2.62821
v 3 1.65 -2.625
vt 3 2.625
f 35/41/7 30/42/7 33/43/7 36/44/7 37/45/7 38/46/7 39/47/7 40/48/7 41/49/7 42/50/7 43/51/7 44/52/7 45/53/7 46/54/7 

v 3 0 -3
vt -3 2.52013e-013
vn 9.26295e-029 -8.40042e-014 -1
vt -2.625 2.52013e-013
vt -3 1.65
f 47/55/8 31/56/8 30/32/8 35/57/8 

vt -2.625 3
vn 1.16272e-016 -1 1.79896e-016
vt -3 3
v 3 8.1215e-016 -2.625
vt -3 2.625
v 3 1.80478e-016 -2.25
vt -3 2.25
v 3 7.21911e-016 -0.75
vt -3 0.75
v 3 8.1215e-016 -0.375
vt -3 0.375
v 3 1.08287e-015 -2.88765e-015
vt -3 2.88765e-015
v 0 1.80478e-016 -0
vt -2.09846e-032 -3.24673e-032
v 0 1.80478e-016 -3
vt -2.09846e-032 3
v 0.375 1.80478e-016 -3
vt -0.375 3
v 0.75 1.80478e-016 -3
vt -0.75 3
vt -2.25 3
f 31/58/9 47/59/9 48/60/9 49/61/9 50/62/9 51/63/9 52/64/9 53/65/9 54/66/9 55/67/9 56/68/9 32/69/9 

vt 3 1.65
vn 1 1.05005e-014 1.54008e-014
vt 2.625 1.65
vt 2.625 -3.06894e-014
vt 3 -3.15016e-014
f 35/70/10 46/71/10 48/72/10 47/73/10 

usemtl Stone
vt 2.25 3.25611e-014
vn 1 -1.07935e-014 -1.63122e-014
vt 2.625 3.31927e-014
v 3 1.73 -2.625
vt 2.625 1.73
v 3 1.73 -2.25
vt 2.25 1.73
vt 2.25 0.455
f 49/74/11 48/75/11 46/71/11 57/76/11 58/77/11 16/78/11 

vt -2.82189 1.65
vn 0.0654031 1.61604e-015 -0.997859
vt -2.77284 1.65
vn 0.130526 1.71859e-015 -0.991445
v 2.95105 1.73 -2.62821
vt -2.77284 1.73
vt -2.82189 1.73
f 46/79/12 45/80/13 59/81/13 57/82/12 

vt -2.38161 1.65
vt -2.33256 1.65
vn 0.258819 1.90121e-015 -0.965926
v 2.90294 1.73 -2.63778
vt -2.33256 1.73
vt -2.38161 1.73
f 45/83/13 44/84/14 60/85/14 59/86/13 

vt -1.901 1.65
vt -1.85195 1.65
vn 0.382683 2.05129e-015 -0.92388
v 2.85649 1.73 -2.65355
vt -1.85195 1.73
vt -1.901 1.73
f 44/87/14 43/88/15 61/89/15 60/90/14 

vt -1.38828 1.65
vt -1.33923 1.65
vn 0.5 2.16628e-015 -0.866025
v 2.8125 1.73 -2.67524
vt -1.33923 1.73
vt -1.38828 1.73
f 43/91/15 42/92/16 62/93/16 61/94/15 

vt -0.852224 1.65
vt -0.803172 1.65
vn 0.608761 2.24421e-015 -0.793353
v 2.77171 1.73 -2.70249
vt -0.803172 1.73
vt -0.852224 1.73
f 42/95/16 41/96/17 63/97/17 62/98/16 

vt -0.302008 1.65
vt -0.252956 1.65
vn 0.707107 2.28373e-015 -0.707107
v 2.73483 1.73 -2.73483
vt -0.252956 1.73
vt -0.302008 1.73
f 41/99/17 40/100/18 64/101/18 63/102/17 

vt 0.252956 1.65
vt 0.302008 1.65
vn 0.793353 2.28418e-015 -0.608761
v 2.70249 1.73 -2.77171
vt 0.302008 1.73
vt 0.252956 1.73
f 40/103/18 39/104/19 65/105/19 64/106/18 

vt 0.803172 1.65
vt 0.852224 1.65
vn 0.866025 2.24555e-015 -0.5
v 2.67524 1.73 -2.8125
vt 0.852224 1.73
vt 0.803172 1.73
f 39/107/19 38/108/20 66/109/20 65/110/19 

vt 1.33923 1.65
vt 1.38828 1.65
vn 0.92388 2.16849e-015 -0.382683
v 2.65355 1.73 -2.85649
vt 1.38828 1.73
vt 1.33923 1.73
f 38/111/20 37/112/21 67/113/21 66/114/20 

vt 1.85195 1.65
vt 1.901 1.65
vn 0.965926 2.05434e-015 -0.258819
v 2.63778 1.73 -2.90294
vt 1.901 1.73
vt 1.85195 1.73
f 37/115/21 36/116/22 68/117/22 67/118/21 

vt 2.33256 1.65
vt 2.38161 1.65
vt 2.38161 1.73
vt 2.33256 1.73
f 36/119/22 33/120/5 34/121/5 68/122/22 

vn -1.72312e-015 1 1.50656e-015
v 2.28037 1.73 -2.80819
v 2.31332 1.73 -2.71665
v 2.35748 1.73 -2.62996
v 2.41217 1.73 -2.54949
v 2.47651 1.73 -2.47651
v 2.54949 1.73 -2.41217
v 2.62996 1.73 -2.35748
v 2.71665 1.73 -2.31332
v 2.80819 1.73 -2.28037
v 2.90314 1.73 -2.25915
f 58/16/23 57/54/23 59/53/23 60/52/23 61/51/23 62/50/23 63/49/23 64/48/23 65/47/23 66/46/23 67/45/23 68/44/23 34/43/23 29/42/23 27/2/23 28/1/23 69/26/23 70/25/23 71/24/23 72/23/23 73/22/23 74/21/23 75/20/23 76/19/23 77/18/23 78/17/23 

vt -2.34059 1.73
vt -2.34059 0.455
vt -2.2433 0.455
vn -0.96031 -2.07496e-015 0.278934
vt -2.2433 1.73
f 28/123/3 1/124/3 26/125/24 69/126/24 

vt -1.86989 1.73
vt -1.86989 0.455
vt -1.77259 0.455
vn -0.917772 -2.1797e-015 0.397107
vt -1.77259 1.73
f 69/127/24 26/128/24 25/129/25 70/130/25 

vt -1.37045 1.73
vt -1.37045 0.455
vt -1.27316 0.455
vn -0.860757 -2.25005e-015 0.509016
vt -1.27316 1.73
f 70/131/25 25/132/25 24/133/26 71/134/26 

vt -0.850161 1.73
vt -0.850161 0.455
vt -0.752869 0.455
vn -0.790164 -2.28492e-015 0.612895
vt -0.752869 1.73
f 71/135/26 24/136/26 23/137/27 72/138/27 

vt -0.31723 1.73
vt -0.31723 0.455
vt -0.219938 0.455
vn -0.707107 -2.28373e-015 0.707107
vt -0.219938 1.73
f 72/139/27 23/140/27 22/141/28 73/142/28 

vt 0.219938 1.73
vt 0.219938 0.455
vt 0.31723 0.455
vn -0.612895 -2.24653e-015 0.790164
vt 0.31723 1.73
f 73/143/28 22/144/28 21/145/29 74/146/29 

vt 0.752869 1.73
vt 0.752869 0.455
vt 0.850161 0.455
vn -0.509016 -2.17388e-015 0.860757
vt 0.850161 1.73
f 74/147/29 21/148/29 20/149/30 75/150/30 

vt 1.27316 1.73
vt 1.27316 0.455
vt 1.37045 0.455
vn -0.397107 -2.06695e-015 0.917772
vt 1.37045 1.73
f 75/151/30 20/152/30 19/153/31 76/154/31 

vt 1.77259 1.73
vt 1.77259 0.455
vt 1.86989 0.455
vn -0.278934 -1.92741e-015 0.96031
vt 1.86989 1.73
f 76/155/31 19/156/31 18/157/32 77/158/32 

vt 2.2433 1.73
vt 2.2433 0.455
vt 2.34059 0.455
vn -0.156361 -9.24087e-016 0.9877
vt 2.34059 1.73
f 77/159/32 18/160/32 17/161/33 78/162/33 

vt 2.67786 1.73
vt 2.67786 0.455
vt 2.77515 0.455
vn -0.0940266 1.55216e-018 0.99557
vt 2.77515 1.73
f 78/163/33 17/164/33 16/165/34 58/166/34 

usemtl Water
vt 0.75 1.14958e-013
vn 1 -3.80788e-014 7.43255e-030
vt 2.25 1.14417e-013
vt 0.75 0.455
f 50/167/35 49/168/35 16/78/35 15/169/35 

usemtl Stone
v 3 1.73 -0.375
vt 0.375 1.73
vn 1 -3.3544e-014 7.98365e-014
v 3 1.65 -0.375
vt 0.375 1.65
vt 0.375 1.01444e-013
vt 0.75 1.01354e-013
v 3 1.73 -0.75
vt 0.75 1.73
f 79/170/36 80/171/36 51/172/36 50/173/36 15/169/36 81/174/36 

v 2.65737 1.65 -0.397457
vt 2.62568 1.65
vn -0.130526 2.89481e-016 0.991445
vt 2.96905 1.65
vn -0.0654031 3.07637e-016 0.997859
vt 2.96905 1.73
v 2.65737 1.73 -0.397457
vt 2.62568 1.73
f 82/175/37 80/176/38 79/177/38 83/178/37 

usemtl Grass
v 3 1.65 -2.88765e-015
vt 3 3.07708e-015
vn -8.73179e-016 1 1.14807e-016
vt 3 0.375
vt 2.65737 0.397457
v 2.3206 1.65 -0.464445
vt 2.3206 0.464445
v 1.99546 1.65 -0.574816
vt 1.99546 0.574816
v 1.6875 1.65 -0.726683
vt 1.6875 0.726683
v 1.402 1.65 -0.917447
vt 1.402 0.917447
v 1.14384 1.65 -1.14384
vt 1.14384 1.14384
v 0.917447 1.65 -1.402
vt 0.917447 1.402
v 0.726683 1.65 -1.6875
vt 0.726683 1.6875
v 0.574816 1.65 -1.99546
vt 0.574816 1.99546
v 0.464445 1.65 -2.3206
vt 0.464445 2.3206
v 0.397457 1.65 -2.65737
vt 0.397457 2.65737
v 0.375 1.65 -3
vt 0.375 3
v 0 1.65 -3
vt 1.44075e-015 3
v 0 1.65 -0
vt 1.44075e-015 1.89431e-016
f 84/179/39 80/180/39 82/181/39 85/182/39 86/183/39 87/184/39 88/185/39 89/186/39 90/187/39 91/188/39 92/189/39 93/190/39 94/191/39 95/192/39 96/193/39 97/194/39 

vt 1.87697e-013 3.25845e-014
vn 1 -1.05005e-014 6.16031e-014
vt 0.375 3.23137e-014
vt 1.87697e-013 1.65
f 52/195/40 51/196/40 80/171/40 84/197/40 

vt 0 1.80478e-016
vn 1.84889e-032 -2.10007e-017 1
vt 3 1.08287e-015
vt 0 1.65
f 53/198/41 52/199/41 84/70/41 97/200/41 

vt -3 1.80478e-016
vn -1 -6.50022e-017 1.84889e-032
f 54/201/42 53/198/42 97/200/42 96/57/42 

vt -4.71264e-012 1.65
vn -1.57088e-012 -3.15016e-013 -1
vt -0.375 1.65
vt -0.375 9.45228e-013
vt -4.71264e-012 9.45228e-013
f 96/202/43 95/203/43 55/204/43 54/205/43 

usemtl Stone
vt -0.75 2.58436e-012
vn -1.80276e-012 -8.61392e-013 -1
vt -0.375 2.58436e-012
v 0.375 1.73 -3
vt -0.375 1.73
v 0.75 1.73 -3
vt -0.75 1.73
vt -0.75 0.455
f 56/206/44 55/207/44 95/203/44 98/208/44 99/209/44 3/210/44 

vt -2.96905 1.65
vn -0.997859 -2.25089e-016 0.0654031
vt -2.62568 1.65
vn -0.991445 -2.02375e-016 0.130526
v 0.397457 1.73 -2.65737
vt -2.62568 1.73
vt -2.96905 1.73
f 95/211/45 94/212/46 100/213/46 98/214/45 

vt -2.52877 1.65
vt -2.1854 1.65
vn -0.965926 -1.54448e-016 0.258819
v 0.464445 1.73 -2.3206
vt -2.1854 1.73
vt -2.52877 1.73
f 94/215/46 93/216/47 101/217/47 100/218/46 

vt -2.04816 1.65
vt -1.70479 1.65
vn -0.92388 -1.03878e-016 0.382683
v 0.574816 1.73 -1.99546
vt -1.70479 1.73
vt -2.04816 1.73
f 93/219/47 92/220/48 102/221/48 101/222/47 

vt -1.53544 1.65
vt -1.19207 1.65
vn -0.866025 -5.15308e-017 0.5
v 0.726683 1.73 -1.6875
vt -1.19207 1.73
vt -1.53544 1.73
f 92/223/48 91/224/49 103/225/49 102/226/48 

vt -0.999381 1.65
vt -0.656015 1.65
vn -0.793353 1.69798e-018 0.608761
v 0.917447 1.73 -1.402
vt -0.656015 1.73
vt -0.999381 1.73
f 91/227/49 90/228/50 104/229/50 103/230/49 

vt -0.449165 1.65
vt -0.105799 1.65
vn -0.707107 5.48977e-017 0.707107
v 1.14384 1.73 -1.14384
vt -0.105799 1.73
vt -0.449165 1.73
f 90/231/50 89/232/51 105/233/51 104/234/50 

vt 0.105799 1.65
vt 0.449165 1.65
vn -0.608761 1.07158e-016 0.793353
v 1.402 1.73 -0.917447
vt 0.449165 1.73
vt 0.105799 1.73
f 89/235/51 88/236/52 106/237/52 105/238/51 

vt 0.656015 1.65
vt 0.999381 1.65
vn -0.5 1.57585e-016 0.866025
v 1.6875 1.73 -0.726683
vt 0.999381 1.73
vt 0.656015 1.73
f 88/239/52 87/240/53 107/241/53 106/242/52 

vt 1.19207 1.65
vt 1.53544 1.65
vn -0.382683 2.05316e-016 0.92388
v 1.99546 1.73 -0.574816
vt 1.53544 1.73
vt 1.19207 1.73
f 87/243/53 86/244/54 108/245/54 107/246/53 

vt 1.70479 1.65
vt 2.04816 1.65
vn -0.258819 2.49533e-016 0.965926
v 2.3206 1.73 -0.464445
vt 2.04816 1.73
vt 1.70479 1.73
f 86/247/54 85/248/55 109/249/55 108/250/54 

vt 2.1854 1.65
vt 2.52877 1.65
vt 2.52877 1.73
vt 2.1854 1.73
f 85/251/55 82/252/37 83/253/37 109/254/55 

vn -2.46839e-016 1 -3.24476e-016
v 2.70191 1.73 -0.756827
v 2.40763 1.73 -0.804783
v 2.12279 1.73 -0.892946
v 1.85287 1.73 -1.01963
v 1.60305 1.73 -1.18239
v 1.37812 1.73 -1.37812
v 1.18239 1.73 -1.60305
v 1.01963 1.73 -1.85287
v 0.892946 1.73 -2.12279
v 0.804783 1.73 -2.40763
v 0.756827 1.73 -2.70191
f 99/3/56 98/192/56 100/191/56 101/190/56 102/189/56 103/188/56 104/187/56 105/186/56 106/185/56 107/184/56 108/183/56 109/182/56 83/181/56 79/180/56 81/15/56 110/14/56 111/13/56 112/12/56 113/11/56 114/10/56 115/9/56 116/8/56 117/7/56 118/6/56 119/5/56 120/4/56 

vt -2.98204 0.455
vn 0.022898 -3.18739e-016 -0.999738
vt -2.68387 0.455
vn 0.0920874 -3.00367e-016 -0.995751
vt -2.68387 1.73
vt -2.98204 1.73
f 15/255/57 14/256/58 110/257/58 81/258/57 

vt -2.54501 0.455
vt -2.24684 0.455
vn 0.228809 -2.59389e-016 -0.973471
vt -2.24684 1.73
vt -2.54501 1.73
f 14/259/58 13/260/59 111/261/59 110/262/58 

vt -2.06201 0.455
vt -1.76384 0.455
vn 0.36114 -2.13434e-016 -0.932512
vt -1.76384 1.73
vt -2.06201 1.73
f 13/263/59 12/264/60 112/265/60 111/266/59 

vt -1.5423 0.455
vt -1.24413 0.455
vn 0.486541 -1.63384e-016 -0.873658
vt -1.24413 1.73
vt -1.5423 1.73
f 12/267/60 11/268/61 113/269/61 112/270/60 

vt -0.995851 0.455
vt -0.697684 0.455
vn 0.602606 -1.10198e-016 -0.798039
vt -0.697684 1.73
vt -0.995851 1.73
f 11/271/61 10/272/62 114/273/62 113/274/61 

vt -0.433156 0.455
vt -0.134989 0.455
vn 0.707107 -5.48977e-017 -0.707107
vt -0.134989 1.73
vt -0.433156 1.73
f 10/275/62 9/276/63 115/277/63 114/278/62 

vt 0.134989 0.455
vt 0.433156 0.455
vn 0.798039 1.45606e-018 -0.602606
vt 0.433156 1.73
vt 0.134989 1.73
f 9/279/63 8/280/64 116/281/64 115/282/63 

vt 0.697684 0.455
vt 0.995851 0.455
vn 0.873658 5.77819e-017 -0.486541
vt 0.995851 1.73
vt 0.697684 1.73
f 8/283/64 7/284/65 117/285/65 116/286/64 

vt 1.24413 0.455
vt 1.5423 0.455
vn 0.932512 1.12999e-016 -0.36114
vt 1.5423 1.73
vt 1.24413 1.73
f 7/287/65 6/288/66 118/289/66 117/290/65 

vt 1.76384 0.455
vt 2.06201 0.455
vn 0.973471 1.66048e-016 -0.228809
vt 2.06201 1.73
vt 1.76384 1.73
f 6/291/66 5/292/67 119/293/67 118/294/66 

vt 2.24684 0.455
vt 2.54501 0.455
vn 0.995751 2.1591e-016 -0.0920874
vt 2.54501 1.73
vt 2.24684 1.73
f 5/295/67 4/296/68 120/297/68 119/298/67 

vt 2.68387 0.455
vt 2.98204 0.455
vn 0.999738 2.39344e-016 -0.022898
vt 2.98204 1.73
vt 2.68387 1.73
f 4/299/68 3/300/69 99/301/69 120/302/68 

usemtl Water
vt -2.25 2.87513e-012
vn 5.19776e-014 -9.58318e-013 -1
vt -0.75 2.87513e-012
f 32/303/70 56/304/70 3/210/70 2/35/70 

