# Alias OBJ Model File
# Exported from SketchUp, (c) 2000-2012 Trimble Navigation Limited
# File units = meters

mtllib roadTile_213.mtl

g Mesh1 Group1 Model

usemtl Stone
v 3.46517e-014 1.73 -1.73259e-014
vt 3.46517e-014 1.73
vn 2.04093e-014 -4.79095e-015 1
v 0 1.1 -0
vt 0 1.1
v 0 5.14362e-015 -3.46517e-014
vt 7.07217e-028 5.14362e-015
v 3 5.14362e-015 -8.37417e-014
vt 3 5.14362e-015
v 3 1.73 -8.37417e-014
vt 3 1.73
f 1/1/1 2/2/1 3/3/1 4/4/1 5/5/1 

v 1.03955e-013 1.73 -2.25
vt -2.25 1.73
vn -1 1.60611e-014 -1.54008e-014
v 1.03955e-013 1.1 -2.25
vt -2.25 1.1
vt -1.73259e-014 1.73
v 8.08541e-014 1.73 -0.375
vt -0.375 1.73
v 8.08541e-014 1.7 -0.375
vt -0.375 1.7
v 8.08541e-014 1.4 -0.375
vt -0.375 1.4
v 5.77529e-014 1.4 -1.875
vt -1.875 1.4
v 5.77529e-014 1.7 -1.875
vt -1.875 1.7
v 5.77529e-014 1.73 -1.875
vt -1.875 1.73
f 6/6/2 7/7/2 2/2/2 1/8/2 8/9/2 9/10/2 10/11/2 11/12/2 12/13/2 13/14/2 

v 3.46517e-014 6.19039e-014 -2.25
vt -9.95711e-014 5.98881e-014
vn -2.88531e-014 8.95921e-016 -1
vt -1.68875e-013 1.1
vt -1.68875e-013 1.73
v 3 1.73 -2.25
vt -3 1.73
v 3 0 -2.25
vt -3 -2.01582e-015
f 14/15/3 7/16/3 6/17/3 15/18/3 16/19/3 

vt -3.46517e-014 5.14362e-015
vn -1 3.15016e-014 -1.15506e-014
vt -2.25 6.19039e-014
f 3/20/4 2/2/4 7/7/4 14/21/4 

vt -3 8.37417e-014
vn -1.03201e-014 -1 -1.0681e-014
vt 5.30824e-029 3.46517e-014
vt -3.46517e-014 2.25
vt -3 2.25
f 4/22/5 3/23/5 14/24/5 16/25/5 

vt 1.20704e-013 1.73
vn 1 1.32964e-014 1.23206e-014
vt 1.20704e-013 -3.47457e-014
vt 2.25 -3.98893e-014
vt 2.25 1.73
v 3 1.73 -1.875
vt 1.875 1.73
v 3 1.7 -1.875
vt 1.875 1.7
v 3 1.4 -1.875
vt 1.875 1.4
v 3 1.4 -0.375
vt 0.375 1.4
v 3 1.7 -0.375
vt 0.375 1.7
v 3 1.73 -0.375
vt 0.375 1.73
f 5/26/6 4/27/6 16/28/6 15/29/6 17/30/6 18/31/6 19/32/6 20/33/6 21/34/6 22/35/6 

vt 3 1.875
vn -6.01593e-016 1 -4.81274e-015
vt 3 2.25
vt 1.04996e-013 2.25
vt 5.87937e-014 1.875
f 17/36/7 15/37/7 6/38/7 13/39/7 

vt 8.84922e-014 1.7
vn 1.63943e-014 0 1
vt 3 1.7
vt 8.84922e-014 1.73
f 12/40/8 18/41/8 17/5/8 13/42/8 

usemtl Asphalt
vn 0 1 -0
vt 5.77529e-014 1.875
vt 8.08541e-014 0.375
vt 3 0.375
f 18/36/9 12/43/9 9/44/9 21/45/9 

vn -1 9.62549e-015 1.54008e-014
f 12/13/10 11/12/10 10/11/10 9/10/10 

usemtl Stone
vt -3 1.7
vn -1.63943e-014 0 -1
vt -8.70019e-014 1.7
vt -8.70019e-014 1.73
f 21/46/11 9/47/11 8/48/11 22/18/11 

vt 8.13745e-014 0.375
vn -3.00796e-016 1 -2.40637e-015
vt 3.51721e-014 1.31629e-014
vt 3 7.95787e-014
f 8/49/12 1/50/12 5/51/12 22/45/12 

usemtl Asphalt
vn 1 -1.9251e-014 -1.54008e-014
f 21/34/13 20/33/13 19/32/13 18/31/13 

