# Alias OBJ Model File
# Exported from SketchUp, (c) 2000-2012 Trimble Navigation Limited
# File units = meters

mtllib roadTile_272.mtl

g Mesh1 Group1 Model

usemtl Water
v 3 0.455 -1.32832e-013
vt 6.81484e-013 0.455
vn 1 -1.33098e-027 1.82884e-013
v 3 1.71454e-015 -1.32832e-013
vt 6.81484e-013 1.71454e-015
v 3 1.71454e-015 -3
vt 3 1.71454e-015
v 3 0.455 -3
vt 3 0.455
f 1/1/1 2/2/1 3/3/1 4/4/1 

v 0.75 0.455 -5.19776e-014
vt 0.75 0.455
vn 1.90905e-014 -8.80573e-014 1
v 0.75 8.1215e-016 -1.32832e-013
vt 0.75 8.1215e-016
f 5/5/2 6/6/2 2/3/2 1/4/2 

usemtl Stone
v 0.375 0.63 -2.88765e-014
vt 0.375 0.63
vn 9.7394e-014 -9.28976e-014 1
v 0.375 0.55 -2.88765e-014
vt 0.375 0.55
v 0.375 6.31672e-016 -6.35282e-014
vt 0.375 6.31672e-016
v 0.75 0.63 -5.19776e-014
vt 0.75 0.63
f 7/7/3 8/8/3 9/9/3 6/6/3 5/5/3 10/10/3 

v 0.371792 0.55 -0.0489473
vt -0.0245262 0.55
vn -0.991445 -1.06085e-015 0.130526
vt 0.0245262 0.55
vn -0.997859 -9.83445e-016 0.0654031
vt 0.0245262 0.63
v 0.371792 0.63 -0.0489473
vt -0.0245262 0.63
f 11/11/4 8/12/5 7/13/5 12/14/4 

usemtl Grass
v 0 0.55 -0
vt 8.41154e-016 9.84865e-016
vn -1.52937e-015 1 1.79066e-015
vt 0.375 2.98613e-014
vt 0.371792 0.0489473
v 0.362222 0.55 -0.0970571
vt 0.362222 0.0970571
v 0.346455 0.55 -0.143506
vt 0.346455 0.143506
v 0.32476 0.55 -0.1875
vt 0.32476 0.1875
v 0.297508 0.55 -0.228286
vt 0.297508 0.228286
v 0.265165 0.55 -0.265165
vt 0.265165 0.265165
v 0.228286 0.55 -0.297508
vt 0.228286 0.297508
v 0.1875 0.55 -0.32476
vt 0.1875 0.32476
v 0.143506 0.55 -0.346455
vt 0.143506 0.346455
v 0.0970571 0.55 -0.362222
vt 0.0970571 0.362222
v 0.0489473 0.55 -0.371792
vt 0.0489473 0.371792
v 3.46517e-014 0.55 -0.375
vt 3.54929e-014 0.375
f 13/15/6 8/16/6 11/17/6 14/18/6 15/19/6 16/20/6 17/21/6 18/22/6 19/23/6 20/24/6 21/25/6 22/26/6 23/27/6 24/28/6 

v 0 3.60956e-016 -0
vt 0 3.60956e-016
vn 1.19356e-013 -3.41267e-014 1
vt 0 0.55
f 25/29/7 9/9/7 8/8/7 13/30/7 

vt -0.375 6.35282e-014
vn 5.11354e-016 -1 8.21688e-017
vt -1.84576e-031 -2.96593e-032
v 5.19776e-014 4.51195e-016 -0.375
vt -5.19776e-014 0.375
v 7.79664e-014 3.60956e-016 -0.75
vt -7.79664e-014 0.75
v 4.07158e-013 0 -3
vt -4.07158e-013 3
vt -3 3
vt -3 1.32832e-013
vt -0.75 1.32832e-013
f 9/31/8 25/32/8 26/33/8 27/34/8 28/35/8 3/36/8 2/37/8 6/38/8 

vn -1 -1.05005e-014 -1.07805e-013
vt -0.375 0.55
vt -0.375 4.51195e-016
f 13/30/9 24/39/9 26/40/9 25/29/9 

usemtl Stone
vt -0.75 3.60956e-016
vn -1 -2.88689e-014 -5.40317e-014
v 3.46517e-014 0.63 -0.375
vt -0.375 0.63
v 5.19776e-014 0.63 -0.75
vt -0.75 0.63
v 5.19776e-014 0.455 -0.75
vt -0.75 0.455
f 27/41/10 26/40/10 24/39/10 29/42/10 30/43/10 31/44/10 

vn -0.0654031 -1.33365e-015 0.997859
vn -0.130526 -1.38419e-015 0.991445
v 0.0489473 0.63 -0.371792
f 24/11/11 23/12/12 32/13/12 29/14/11 

vn -0.258819 -1.46729e-015 0.965926
v 0.0970571 0.63 -0.362222
f 23/11/12 22/12/13 33/13/13 32/14/12 

vn -0.382683 -1.52528e-015 0.92388
v 0.143506 0.63 -0.346455
f 22/11/13 21/12/14 34/13/14 33/14/13 

vn -0.5 -1.55718e-015 0.866025
v 0.1875 0.63 -0.32476
f 21/11/14 20/12/15 35/13/15 34/14/14 

vn -0.608761 -1.56243e-015 0.793353
v 0.228286 0.63 -0.297508
f 20/11/15 19/12/16 36/13/16 35/14/15 

vn -0.707107 -1.54095e-015 0.707107
v 0.265165 0.63 -0.265165
f 19/11/16 18/12/17 37/13/17 36/14/16 

vn -0.793353 -1.4931e-015 0.608761
v 0.297508 0.63 -0.228286
f 18/11/17 17/12/18 38/13/18 37/14/17 

vn -0.866025 -1.41971e-015 0.5
v 0.32476 0.63 -0.1875
f 17/11/18 16/12/19 39/13/19 38/14/18 

vn -0.92388 -1.32202e-015 0.382683
v 0.346455 0.63 -0.143506
f 16/11/19 15/12/20 40/13/20 39/14/19 

vn -0.965926 -1.20172e-015 0.258819
v 0.362222 0.63 -0.0970571
f 15/11/20 14/12/21 41/13/21 40/14/20 

f 14/11/21 11/12/4 12/13/4 41/14/21 

vt 5.25458e-014 0.75
vn -9.0183e-016 1 1.2774e-015
vt 3.52199e-014 0.375
vt 0.375 2.96812e-014
vt 0.75 5.27824e-014
v 0.743584 0.63 -0.0978946
vt 0.743584 0.0978946
v 0.724444 0.63 -0.194114
vt 0.724444 0.194114
v 0.69291 0.63 -0.287013
vt 0.69291 0.287013
v 0.649519 0.63 -0.375
vt 0.649519 0.375
v 0.595015 0.63 -0.456571
vt 0.595015 0.456571
v 0.53033 0.63 -0.53033
vt 0.53033 0.53033
v 0.456571 0.63 -0.595015
vt 0.456571 0.595015
v 0.375 0.63 -0.649519
vt 0.375 0.649519
v 0.287013 0.63 -0.69291
vt 0.287013 0.69291
v 0.194114 0.63 -0.724444
vt 0.194114 0.724444
v 0.0978946 0.63 -0.743584
vt 0.0978946 0.743584
f 30/45/22 29/46/22 32/27/22 33/26/22 34/25/22 35/24/22 36/23/22 37/22/22 38/21/22 39/20/22 40/19/22 41/18/22 12/17/22 7/47/22 10/48/22 42/49/22 43/50/22 44/51/22 45/52/22 46/53/22 47/54/22 48/55/22 49/56/22 50/57/22 51/58/22 52/59/22 

v 0.743584 0.455 -0.0978946
vt 0.0490523 0.455
vn 0.991445 2.04364e-017 -0.130526
vt 0.0490523 0.63
vt -0.0490523 0.63
vn 0.997859 -5.50841e-019 -0.0654031
vt -0.0490523 0.455
f 53/60/23 42/61/23 10/62/24 5/63/24 

v 0.724444 0.455 -0.194114
vn 0.965926 6.04239e-017 -0.258819
f 54/60/25 43/61/25 42/62/23 53/63/23 

v 0.69291 0.455 -0.287013
vn 0.92388 9.77424e-017 -0.382683
f 55/60/26 44/61/26 43/62/25 54/63/25 

v 0.649519 0.455 -0.375
vn 0.866025 1.33389e-016 -0.5
f 56/60/27 45/61/27 44/62/26 55/63/26 

v 0.595015 0.455 -0.456571
vn 0.793353 1.66752e-016 -0.608761
f 57/60/28 46/61/28 45/62/27 56/63/27 

v 0.53033 0.455 -0.53033
vn 0.707107 1.97263e-016 -0.707107
f 58/60/29 47/61/29 46/62/28 57/63/28 

v 0.456571 0.455 -0.595015
vn 0.608761 2.24398e-016 -0.793353
f 59/60/30 48/61/30 47/62/29 58/63/29 

v 0.375 0.455 -0.649519
vn 0.5 2.47694e-016 -0.866025
f 60/60/31 49/61/31 48/62/30 59/63/30 

v 0.287013 0.455 -0.69291
vn 0.382683 2.66752e-016 -0.92388
f 61/60/32 50/61/32 49/62/31 60/63/31 

v 0.194114 0.455 -0.724444
vn 0.258819 2.81246e-016 -0.965926
f 62/60/33 51/61/33 50/62/32 61/63/32 

v 0.0978946 0.455 -0.743584
vn 0.130526 -3.65622e-015 -0.991445
f 63/60/34 52/61/34 51/62/33 62/63/33 

vn 0.0654031 -7.58348e-015 -0.997859
f 31/60/35 30/61/35 52/62/34 63/63/34 

usemtl Water
vt 3 3
vn 5.47907e-016 1 -5.95471e-016
v 4.07158e-013 0.455 -3
vt 4.06909e-013 3
vt 5.17283e-014 0.75
vt 0.75 5.17067e-014
vt 3 1.32561e-013
f 4/64/36 64/65/36 31/66/36 63/59/36 62/58/36 61/57/36 60/56/36 59/55/36 58/54/36 57/53/36 56/52/36 55/51/36 54/50/36 53/49/36 5/67/36 1/68/36 

vt -4.7424e-013 -1.52315e-013
vn -2.23607e-014 5.07718e-014 -1
vt -4.7424e-013 0.455
vt -3 0.455
vt -3 -1.50601e-013
f 28/69/37 64/70/37 4/71/37 3/72/37 

vn -1 -1.26929e-014 -1.54283e-013
vt -3 7.06874e-028
f 31/44/38 64/71/38 28/73/38 27/41/38 

