# Alias OBJ Model File
# Exported from SketchUp, (c) 2000-2012 Trimble Navigation Limited
# File units = meters

mtllib roadTile_066.mtl

g Mesh1 Group1 Model

usemtl Stone
v 0.877778 0.63 -2.47057
vt 2.56401 0.63
vn 0.965926 3.4954e-014 0.258819
v 0.848739 0.63 -2.25
vt 2.34153 0.63
vn 0.991445 3.77515e-014 0.130526
v 0.848739 0.6 -2.25
vt 2.34153 0.6
v 0.877778 0.6 -2.47057
vt 2.56401 0.6
f 1/1/1 2/2/2 3/3/2 4/4/1 

vt 0.877778 2.47057
vn -4.18676e-014 1 1.71203e-013
v 1.09707 0.63 -3
vt 1.09707 3
v 5.23241e-012 0.63 -3
vt 5.25879e-012 3
v 1.81344e-012 0.63 -2.25
vt 1.83982e-012 2.25
vt 0.848739 2.25
f 1/5/3 5/6/3 6/7/3 7/8/3 2/9/3 

vt 3.19147 0.63
vn 0.92388 3.15584e-014 0.382683
vt 2.61842 0.63
vt 2.61842 0.6
v 1.09707 0.6 -3
vt 3.19147 0.6
f 5/10/4 1/11/1 4/12/1 8/13/4 

usemtl Asphalt
v 0.877778 0.6 -0.529429
vt 0.877778 0.529429
vn -3.99031e-014 1 1.38684e-014
v 1.09707 0.6 -2.42562e-013
vt 1.09707 2.50883e-013
v 2.83919 0.6 -5.31327e-013
vt 2.83919 5.39648e-013
v 2.55144 0.6 -0.375
vt 2.55144 0.375
v 2.32667 0.6 -0.917657
vt 2.32667 0.917657
v 2.25 0.6 -1.5
vt 2.25 1.5
v 2.32667 0.6 -2.08234
vt 2.32667 2.08234
v 2.55144 0.6 -2.625
vt 2.55144 2.625
v 2.83919 0.6 -3
vt 2.83919 3
v 1.81344e-012 0.6 -2.25
vt 1.83738e-012 2.25
v 5.97743e-013 0.6 -0.75
vt 6.21685e-013 0.75
v 0.848739 0.6 -0.75
vt 0.848739 0.75
f 9/14/5 10/15/5 11/16/5 12/17/5 13/18/5 14/19/5 15/20/5 16/21/5 17/22/5 8/6/5 4/5/5 3/9/5 18/23/5 19/24/5 20/25/5 

usemtl Stone
v 0.877778 0.63 -0.529429
vt 0.153217 0.63
vn 0.965926 4.21328e-014 -0.258819
v 1.09707 0.63 -2.42562e-013
vt -0.419832 0.63
vn 0.92388 4.21728e-014 -0.382683
vt -0.419832 0.6
vt 0.153217 0.6
f 21/26/6 22/27/7 10/28/7 9/29/6 

v 5.97743e-013 0.63 -0.75
vt 6.65196e-013 0.75
vn -1.07069e-013 1 2.68853e-014
v 0 0.63 -2.31012e-014
vt 6.74532e-014 4.00389e-014
vt 1.09707 2.595e-013
v 0.848739 0.63 -0.75
f 23/30/8 24/31/8 22/32/8 21/14/8 25/25/8 

vt -2.31012e-014 0.63
vn -1 1.64842e-012 -9.92965e-013
vt -0.75 0.63
vt -0.75 0.6
v 1.69794e-012 0.315 -0.75
vt -0.75 0.315
v 1.80767e-012 0.315 -2.25
vt -2.25 0.315
vt -2.25 0.6
vt -2.25 0.63
vt -3 0.63
v 1.58243e-012 2.35524e-014 -3
vt -3 2.35524e-014
v 2.02135e-014 0 -0
vt -2.00713e-026 3.33203e-026
f 24/33/9 23/34/9 19/35/9 26/36/9 27/37/9 18/38/9 7/39/9 6/40/9 28/41/9 29/42/9 

vt -5.31398e-013 0.63
vn 8.84592e-014 1.38684e-014 -1
vt -0.848739 0.63
vt -0.848739 0.6
vt -5.31398e-013 0.6
f 23/43/10 25/44/10 20/45/10 19/46/10 

vt 0.632801 0.63
vn 0.991445 4.13719e-014 -0.130526
vt 0.410326 0.63
vt 0.410326 0.6
vt 0.632801 0.6
f 25/47/11 21/48/6 9/49/6 20/50/11 

usemtl Asphalt
vn -1 -1.73259e-012 -4.40847e-013
f 26/36/12 19/35/12 18/38/12 27/37/12 

usemtl Stone
vt 0.848739 0.63
vn -8.16546e-014 -1.38684e-014 1
vt 1.62972e-012 0.63
vt 1.62972e-012 0.6
vt 0.848739 0.6
f 2/51/13 7/52/13 18/53/13 3/54/13 

vt -5.94823e-012 0.63
vn -2.38606e-013 -1.62478e-012 -1
vt -1.09707 0.63
vt -1.09707 0.6
v 1.09707 0.315 -3
vt -1.09707 0.315
v 2.83919 0.315 -3
vt -2.83919 0.315
vt -2.83919 0.6
v 2.83919 0.63 -3
vt -2.83919 0.63
v 3 0.63 -3
v 3 6.1182e-014 -3
vt -3 4.93552e-012
vt -2.29825e-012 4.89789e-012
f 6/55/14 5/56/14 8/57/14 30/58/14 31/59/14 17/60/14 32/61/14 33/40/14 34/62/14 28/63/14 

usemtl Asphalt
vn 8.45351e-014 -8.25042e-014 -1
f 30/58/15 8/57/15 17/60/15 31/59/15 

usemtl Stone
v 2.55144 0.63 -2.625
vt -3.63577 0.63
vn -0.866025 -2.76229e-014 -0.5
vt -4.10845 0.63
vn -0.793353 -2.32147e-014 -0.608761
vt -4.10845 0.6
vt -3.63577 0.6
f 35/64/16 32/65/17 17/66/17 16/67/16 

v 2.83919 0.63 -5.31327e-013
vt 2.83919 5.39072e-013
vn 2.08399e-014 1 1.22947e-014
v 3 0.63 -5.8908e-013
vt 3 5.96825e-013
vt 3 3
v 2.32667 0.63 -2.08234
v 2.25 0.63 -1.5
v 2.32667 0.63 -0.917657
v 2.55144 0.63 -0.375
f 36/68/18 37/69/18 33/70/18 32/22/18 35/21/18 38/20/18 39/19/18 40/18/18 41/17/18 

vt 3 0.63
vn 1.4825e-013 7.9948e-014 1
vt 2.83919 0.63
vt 2.83919 0.6
v 2.83919 0.315 -1.15506e-013
vt 2.83919 0.315
v 1.09707 0.315 -2.42562e-013
vt 1.09707 0.315
vt 1.09707 0.6
vt 1.09707 0.63
vt 3.42474e-027 0.63
vt 2.02135e-014 -2.39576e-040
v 3 2.84253e-014 -5.8908e-013
vt 3 2.84253e-014
f 37/71/19 36/72/19 11/73/19 42/74/19 43/75/19 10/76/19 22/77/19 24/78/19 29/79/19 44/80/19 

vt 1.72839 0.63
vn -0.793353 -4.00998e-014 0.608761
vt 1.25571 0.63
vn -0.866025 -4.14913e-014 0.5
vt 1.25571 0.6
vt 1.72839 0.6
f 36/81/20 41/82/21 12/83/21 11/84/20 

vt 0.62994 0.63
vt 0.0425722 0.63
vn -0.965926 -4.21328e-014 0.258819
vt 0.0425722 0.6
vt 0.62994 0.6
f 41/85/21 40/86/22 13/87/22 12/88/21 

vt -0.606115 0.63
vt -1.19348 0.63
vn -1 -3.99031e-014 -7.27592e-014
vt -1.19348 0.6
vt -0.606115 0.6
f 40/89/22 39/90/23 14/91/23 13/92/22 

vt -1.78085 0.63
vt -2.36822 0.63
vn -0.965926 -3.4954e-014 -0.258819
vt -2.36822 0.6
vt -1.78085 0.6
f 39/93/23 38/94/24 15/95/24 14/96/23 

vt -2.81421 0.63
vt -3.40158 0.63
vt -3.40158 0.6
vt -2.81421 0.6
f 38/97/24 35/98/16 16/99/16 15/100/24 

usemtl Asphalt
vn 5.13841e-014 6.692e-013 1
f 42/74/25 11/73/25 10/76/25 43/75/25 

usemtl Stone
vt -1.58243e-012 3
vn 1.40395e-014 -1 3.04056e-015
vt -3 3
vt -3 5.8908e-013
vt -2.02135e-014 8.62872e-043
f 28/101/26 34/102/26 44/103/26 29/104/26 

vn 1 -2.48523e-029 3.73079e-013
vt 1.70832e-012 0.63
vt 1.70832e-012 2.84253e-014
vt 3 6.1182e-014
f 33/71/27 37/105/27 44/106/27 34/107/27 

