# Alias OBJ Model File
# Exported from SketchUp, (c) 2000-2012 Trimble Navigation Limited
# File units = meters

mtllib roadTile_215.mtl

g Mesh1 Group1 Model

usemtl Grass
v 5.48653e-014 0.55 -0
vt 5.48653e-014 0.55
vn 1.63943e-014 0 1
v 5.48653e-014 1.80478e-016 -0
vt 5.48653e-014 1.80478e-016
v 3 1.80478e-016 -4.909e-014
vt 3 1.80478e-016
v 3 0.55 -4.909e-014
vt 3 0.55
f 1/1/1 2/2/1 3/3/1 4/4/1 

vt 8.44968e-028 0.55
vn -1 -1.44258e-031 1.54008e-014
v 4.62023e-014 0.55 -0.375
vt -0.375 0.55
v 4.62023e-014 9.02389e-017 -0.375
vt -0.375 9.02389e-017
vt 8.44968e-028 1.80478e-016
f 1/5/2 5/6/2 6/7/2 2/8/2 

vt 3 4.89576e-014
vn -3.93782e-030 1 -2.40637e-016
v 3 0.55 -0.375
vt 3 0.375
vt 4.62023e-014 0.375
vt 5.48653e-014 -1.3235e-016
f 4/9/3 7/10/3 5/11/3 1/12/3 

vt 1.64596e-013 1.59313e-014
vn 1 -5.25026e-015 3.85019e-014
v 3 9.02389e-017 -0.375
vt 0.375 1.5841e-014
vt 0.375 0.55
vt 1.64596e-013 0.55
f 3/13/4 8/14/4 7/15/4 4/16/4 

vt -3 4.909e-014
vn 1.20638e-033 -1 -1.33118e-033
vt -5.48653e-014 2.40248e-049
vt -4.62023e-014 0.375
v 4.909e-014 0 -0.75
vt -4.909e-014 0.75
v 2.59888e-014 0 -2.25
vt -2.59888e-014 2.25
v 1.44382e-014 9.02389e-017 -2.625
vt -1.44382e-014 2.625
v 0 1.80478e-016 -3
vt -2.17725e-049 3
v 3 1.80478e-016 -3
vt -3 3
v 3 9.02389e-017 -2.625
vt -3 2.625
v 3 0 -2.25
vt -3 2.25
v 3 0 -0.75
vt -3 0.75
vt -3 0.375
f 3/17/5 2/18/5 6/19/5 9/20/5 10/21/5 11/22/5 12/23/5 13/24/5 14/25/5 15/26/5 16/27/5 8/28/5 

usemtl Stone
vt -0.75 0
vn -1 0 2.36658e-030
v 4.62023e-014 0.63 -0.375
vt -0.375 0.63
v 4.909e-014 0.63 -0.75
vt -0.75 0.63
v 4.909e-014 0.455 -0.75
vt -0.75 0.455
f 9/29/6 6/7/6 5/6/6 17/30/6 18/31/6 19/32/6 

vt 5.19776e-014 0.55
vn 1.54008e-014 2.40637e-016 1
v 3 0.63 -0.375
vt 3 0.63
vt 5.19776e-014 0.63
f 5/33/7 7/4/7 20/34/7 17/35/7 

vt 0.375 0.63
vn 1 -1.91095e-014 3.75488e-014
vt 0.375 5.74187e-014
vt 0.75 5.73285e-014
v 3 0.455 -0.75
vt 0.75 0.455
v 3 0.63 -0.75
vt 0.75 0.63
f 20/36/8 7/15/8 8/37/8 16/38/8 21/39/8 22/40/8 

usemtl Water
vt 0.75 1.65008e-013
vn 1 -5.50028e-014 -1.15506e-014
vt 2.25 1.65008e-013
v 3 0.455 -2.25
vt 2.25 0.455
f 16/41/9 15/42/9 23/43/9 21/39/9 

usemtl Stone
vt 2.25 7.25816e-014
vn 1 -2.41939e-014 -7.39133e-014
vt 2.625 7.26719e-014
v 3 0.55 -2.625
vt 2.625 0.55
v 3 0.63 -2.625
vt 2.625 0.63
v 3 0.63 -2.25
vt 2.25 0.63
f 15/44/10 14/45/10 24/46/10 25/47/10 26/48/10 23/43/10 

usemtl Grass
v 3 0.55 -3
vn 1 -1.05005e-014 -7.70039e-014
vt 2.625 3.15918e-014
vt 3 3.16821e-014
f 27/4/11 24/46/11 14/49/11 13/50/11 

v 0 0.55 -3
vt -2.16541e-030 3
vn 3.93711e-030 1 2.40637e-016
v 1.44382e-014 0.55 -2.625
vt 1.44382e-014 2.625
vt 3 2.625
vt 3 3
f 28/51/12 29/52/12 24/53/12 27/54/12 

vt -3 1.80478e-016
vn -1 -6.45028e-031 3.08016e-014
vt -2.625 9.02389e-017
vt -2.625 0.55
vt -3 0.55
f 12/55/13 11/56/13 29/57/13 28/58/13 

usemtl Stone
v 1.44382e-014 0.63 -2.625
vt -2.625 0.63
vn -1 2.28331e-031 3.08016e-014
vt -2.25 2.17582e-044
v 2.59888e-014 0.455 -2.25
vt -2.25 0.455
v 2.59888e-014 0.63 -2.25
vt -2.25 0.63
f 30/59/14 29/57/14 11/56/14 10/60/14 31/61/14 32/62/14 

vn -1.54008e-014 2.40637e-016 -1
vt -5.48653e-014 0.55
vt -5.48653e-014 0.63
vt -3 0.63
f 24/58/15 29/63/15 30/64/15 25/65/15 

vt 3 2.25
vn 3.93659e-030 1 2.40637e-016
vt 2.59888e-014 2.25
f 26/66/16 25/53/16 30/52/16 32/67/16 

vt 3 0.455
vn 1.73259e-014 0 1
vt 6.4972e-014 0.63
vt 6.4972e-014 0.455
f 23/68/17 26/34/17 32/69/17 31/70/17 

usemtl Water
vn 0 1 -0
vt 4.909e-014 0.75
vt 3 0.75
f 31/67/18 19/71/18 21/72/18 23/66/18 

vt -2.25 -1.45916e-043
vn -1 -2.40624e-030 1.54008e-014
vt -0.75 -1.45916e-043
f 10/73/19 9/74/19 19/32/19 31/61/19 

usemtl Stone
vt -6.1385e-014 0.455
vn -1.63934e-014 0 -1
vt -6.1385e-014 0.63
vt -3 0.455
f 19/75/20 18/76/20 22/65/20 21/77/20 

vn -3.9373e-030 1 -2.40637e-016
f 18/71/21 17/11/21 20/10/21 22/72/21 

usemtl Grass
vn -1.63943e-014 0 -1
vt -4.91829e-014 1.80478e-016
vt -4.91829e-014 0.55
f 27/58/22 13/55/22 12/78/22 28/79/22 

